<svg id="Layer_1" data-name="Layer 1" xmlns="http://www.w3.org/2000/svg" xmlns:xlink="http://www.w3.org/1999/xlink" width="110" height="230" viewBox="0 0 110 230"><defs><style>.cls-1{fill:url(#linear-gradient);}.cls-2{fill:url(#linear-gradient-2);}.cls-3{fill:url(#linear-gradient-3);}.cls-4{fill:url(#linear-gradient-4);}.cls-5{fill:url(#linear-gradient-5);}.cls-6{fill:url(#linear-gradient-6);}.cls-7{fill:url(#linear-gradient-7);}.cls-8{fill:#1a6172;}.cls-9{fill:#fff;}.cls-10{fill:#050505;}.cls-11{fill:none;stroke:#000;stroke-linecap:round;stroke-linejoin:round;stroke-width:2px;}</style><linearGradient id="linear-gradient" x1="180.54" y1="240.41" x2="255.95" y2="240.41" gradientTransform="translate(-225.18 -45.45) rotate(-16.29)" gradientUnits="userSpaceOnUse"><stop offset="0.47" stop-color="#01687f"/><stop offset="1" stop-color="#42cbea"/></linearGradient><linearGradient id="linear-gradient-2" x1="179.2" y1="240.93" x2="254.71" y2="240.93" gradientTransform="translate(-225.18 -45.45) rotate(-16.29)" gradientUnits="userSpaceOnUse"><stop offset="0.02" stop-color="#fff"/><stop offset="1" stop-color="#42cbea"/></linearGradient><linearGradient id="linear-gradient-3" x1="203.44" y1="142.86" x2="234.42" y2="142.86" gradientTransform="translate(-193.89 -112.6)" xlink:href="#linear-gradient-2"/><linearGradient id="linear-gradient-4" x1="205.28" y1="132.49" x2="232.85" y2="132.49" gradientTransform="translate(-196.81 -112.22)" xlink:href="#linear-gradient"/><linearGradient id="linear-gradient-5" x1="180.33" y1="213.38" x2="253.36" y2="213.38" gradientTransform="translate(-225.18 -45.45) rotate(-16.29)" gradientUnits="userSpaceOnUse"><stop offset="0.3" stop-color="#3cc"/><stop offset="0.79" stop-color="#42cbea"/></linearGradient><linearGradient id="linear-gradient-6" x1="205.28" y1="127.24" x2="231.8" y2="127.24" gradientTransform="translate(-198.26 -111.87)" xlink:href="#linear-gradient"/><linearGradient id="linear-gradient-7" x1="205.8" y1="126.45" x2="232.32" y2="126.45" gradientTransform="translate(-198.5 -111.98)" xlink:href="#linear-gradient-5"/></defs><title>flaske</title><path class="cls-1" d="M105,205.89,50.66,221.78a3.15,3.15,0,0,1-3.9-2.12s-15-28-12.53-42.86c-11.15-6.54-18.58-37.27-12.81-43.86C11.48,126.05,4.72,75.8,4.72,75.8,2,66.53,6.64,43.14,14.32,37.63L39.75,30.2c4.53-1.33,19.11,14,24.86,26.19,0,0,21.8,45.59,17.22,58.9,9.23-4.88,18.15,38.76,13.46,46.07,7.32-.19,11.88,40.64,11.88,40.64A3.15,3.15,0,0,1,105,205.89Z"/><path class="cls-2" d="M104.12,207.25,49.68,223.16A3.16,3.16,0,0,1,45.77,221s-15.06-28.15-12.59-43.1c-11.19-6.58-18.66-37.49-12.89-44.1-10-6.94-16.8-57.46-16.8-57.46C.77,67,5.39,43.52,13.07,38l25.46-7.44c4.53-1.32,19.16,14.1,24.94,26.36,0,0,21.88,45.86,17.31,59.23,9.24-4.89,18.23,39,13.54,46.33,7.33-.18,11.94,40.87,11.94,40.87A3.15,3.15,0,0,1,104.12,207.25Z"/><rect class="cls-3" x="9.54" y="25.67" width="30.98" height="9.17" rx="4.59" ry="4.59" transform="translate(-7.48 8.24) rotate(-16.29)"/><rect class="cls-4" x="8.47" y="14.23" width="27.57" height="12.08" rx="6.04" ry="6.04" transform="translate(-4.79 7.06) rotate(-16.29)"/><path class="cls-5" d="M20.14,134.41C3.77,115.94,3.34,77,3.34,77l60.13-20s23.42,46.67,19.53,58c-.26.76,4.6-2.16-1.66,1.58C58.44,137.44,20.14,134.41,20.14,134.41Z"/><ellipse class="cls-6" cx="20.28" cy="15.37" rx="13.26" ry="7.09" transform="translate(-3.5 6.31) rotate(-16.29)"/><ellipse class="cls-7" cx="20.56" cy="14.47" rx="13.26" ry="7.09" transform="translate(-3.23 6.35) rotate(-16.29)"/><ellipse class="cls-8" cx="54.18" cy="90.18" rx="9.62" ry="12.78" transform="translate(-3.22 2.01) rotate(-2.07)"/><ellipse class="cls-9" cx="54.15" cy="91.52" rx="9.22" ry="12.25" transform="translate(-3.26 2.01) rotate(-2.07)"/><ellipse class="cls-10" cx="54.29" cy="95.42" rx="5.31" ry="4" transform="translate(-42.48 147.27) rotate(-88.54)"/><ellipse class="cls-8" cx="28.75" cy="97.17" rx="9.62" ry="12.78" transform="translate(-31.08 15.39) rotate(-19.71)"/><ellipse class="cls-9" cx="29.13" cy="98.45" rx="9.22" ry="12.25" transform="translate(-31.49 15.59) rotate(-19.71)"/><ellipse class="cls-10" cx="30.44" cy="102.13" rx="4" ry="5.31" transform="translate(-27.26 12.53) rotate(-16.18)"/><circle class="cls-9" cx="54.84" cy="93.66" r="1.77"/><circle class="cls-9" cx="29.64" cy="101.03" r="1.77"/><ellipse class="cls-8" cx="25.63" cy="81.44" rx="0.8" ry="8.26" transform="translate(-59.74 80.89) rotate(-72.16)"/><ellipse class="cls-8" cx="49.33" cy="74.65" rx="7.8" ry="0.41" transform="translate(-40.02 69.91) rotate(-53.5)"/><path class="cls-11" d="M24.6,113c4-1,9.87,12.28,13.59,12s7.08-14.24,11.1-14.24c1.53,0,4.77,13.53,6.29,13.14s-1-14.29.5-14.78"/></svg>
