<svg id="Layer_1" data-name="Layer 1" xmlns="http://www.w3.org/2000/svg" xmlns:xlink="http://www.w3.org/1999/xlink" width="1920" height="1080" viewBox="0 0 1920 1080"><defs><style>.cls-1{fill:url(#linear-gradient);}.cls-2,.cls-8{fill:#cff;}.cls-2{opacity:0.2;}.cls-3{fill:#009bca;}.cls-4,.cls-9{fill:#0081ca;}.cls-5{fill:#e6b15f;}.cls-6{fill:#fc6;}.cls-7{fill:#ffdb8f;}.cls-9{stroke:#0081ca;}.cls-20,.cls-42,.cls-9{stroke-linecap:round;stroke-linejoin:round;}.cls-20,.cls-9{stroke-width:2px;}.cls-10{fill:url(#linear-gradient-2);}.cls-11{fill:url(#linear-gradient-3);}.cls-12{fill:url(#linear-gradient-4);}.cls-13{fill:url(#linear-gradient-5);}.cls-14{fill:url(#linear-gradient-6);}.cls-15{fill:url(#linear-gradient-7);}.cls-16{fill:url(#linear-gradient-8);}.cls-17{fill:#1a6172;}.cls-18,.cls-66,.cls-68{fill:#fff;}.cls-19{fill:#050505;}.cls-20,.cls-42,.cls-44,.cls-65{fill:none;}.cls-20{stroke:#000;}.cls-21{fill:#42cbea;}.cls-22{fill:url(#linear-gradient-9);}.cls-23{fill:url(#linear-gradient-10);}.cls-24{fill:#3a6d19;}.cls-25{fill:url(#linear-gradient-11);}.cls-26{fill:#d88a55;}.cls-27{fill:url(#linear-gradient-12);}.cls-28{fill:url(#linear-gradient-13);}.cls-29{fill:#3b7515;}.cls-30{fill:url(#linear-gradient-14);}.cls-31{fill:#29590a;}.cls-32{fill:url(#linear-gradient-15);}.cls-33{fill:#d6551a;}.cls-34{fill:#c63;}.cls-35{fill:#dd6b1d;}.cls-36{fill:#d87a35;}.cls-37{fill:#ad5e1e;}.cls-38{fill:url(#linear-gradient-16);}.cls-39{fill:#315916;}.cls-40{fill:#1270d0;}.cls-41{fill:#f9f9f9;}.cls-42{stroke:#29590a;}.cls-43{fill:#78c943;}.cls-45{fill:url(#linear-gradient-17);}.cls-46{fill:url(#linear-gradient-18);}.cls-47{fill:url(#linear-gradient-19);}.cls-48{fill:url(#linear-gradient-20);}.cls-49{fill:url(#linear-gradient-21);}.cls-50{fill:url(#linear-gradient-22);}.cls-51{fill:url(#linear-gradient-23);}.cls-52{fill:url(#linear-gradient-24);}.cls-53{fill:url(#linear-gradient-25);}.cls-54{fill:#1287d0;}.cls-55,.cls-56,.cls-57,.cls-58,.cls-59,.cls-60,.cls-61,.cls-62,.cls-65,.cls-66{stroke:#fff;stroke-miterlimit:10;}.cls-55{fill:url(#linear-gradient-26);}.cls-56{fill:url(#linear-gradient-27);}.cls-57{fill:url(#linear-gradient-28);}.cls-58{fill:url(#linear-gradient-29);}.cls-59{fill:url(#linear-gradient-30);}.cls-60{fill:url(#linear-gradient-31);}.cls-61{fill:url(#linear-gradient-32);}.cls-62{fill:url(#linear-gradient-33);}.cls-63{fill:url(#linear-gradient-34);}.cls-64{fill:url(#linear-gradient-35);}.cls-67{fill:#124cd0;}.cls-68{opacity:0.72;}</style><linearGradient id="linear-gradient" x1="-6802" y1="1081" x2="-6802" y2="1" gradientTransform="matrix(-1, 0, 0, 1, -5842, 0)" gradientUnits="userSpaceOnUse"><stop offset="0" stop-color="#55a7fc"/><stop offset="0" stop-color="#58c9fd"/><stop offset="0.25" stop-color="#5dc8ff"/><stop offset="0.71" stop-color="#00d3db"/><stop offset="1" stop-color="#c9d5e2"/></linearGradient><linearGradient id="linear-gradient-2" x1="480.04" y1="2194.58" x2="572.47" y2="2194.58" gradientTransform="translate(-665.04 -1270.1) rotate(-27.52)" gradientUnits="userSpaceOnUse"><stop offset="0.47" stop-color="#01687f"/><stop offset="1" stop-color="#42cbea"/></linearGradient><linearGradient id="linear-gradient-3" x1="478.41" y1="2195.23" x2="570.95" y2="2195.23" gradientTransform="translate(-665.04 -1270.1) rotate(-27.52)" gradientUnits="userSpaceOnUse"><stop offset="0.02" stop-color="#fff"/><stop offset="1" stop-color="#42cbea"/></linearGradient><linearGradient id="linear-gradient-4" x1="510.36" y1="2062.33" x2="544.15" y2="2062.33" gradientTransform="translate(228.25 -1747.11)" xlink:href="#linear-gradient-2"/><linearGradient id="linear-gradient-5" x1="510.36" y1="2055.89" x2="542.86" y2="2055.89" gradientTransform="translate(225.35 -1746.08)" xlink:href="#linear-gradient-2"/><linearGradient id="linear-gradient-6" x1="511" y1="2054.93" x2="543.51" y2="2054.93" gradientTransform="translate(224.83 -1746.27)" gradientUnits="userSpaceOnUse"><stop offset="0.3" stop-color="#3cc"/><stop offset="0.79" stop-color="#42cbea"/></linearGradient><linearGradient id="linear-gradient-7" x1="508.11" y1="2075.04" x2="546.08" y2="2075.04" gradientTransform="translate(234.15 -1748.47)" xlink:href="#linear-gradient-3"/><linearGradient id="linear-gradient-8" x1="479.79" y1="2161.46" x2="569.28" y2="2161.46" gradientTransform="translate(-665.04 -1270.1) rotate(-27.52)" xlink:href="#linear-gradient-6"/><linearGradient id="linear-gradient-9" x1="1259.61" y1="449.96" x2="1291.15" y2="449.96" gradientTransform="translate(895.1 -847.9) rotate(54.24)" gradientUnits="userSpaceOnUse"><stop offset="0" stop-color="#42cbea"/><stop offset="0.4" stop-color="#44ccea"/><stop offset="0.54" stop-color="#4bcdeb"/><stop offset="0.64" stop-color="#56d1ec"/><stop offset="0.72" stop-color="#67d5ee"/><stop offset="0.79" stop-color="#7ddbf1"/><stop offset="0.86" stop-color="#99e3f4"/><stop offset="0.91" stop-color="#b9ecf7"/><stop offset="0.96" stop-color="#ddf6fb"/><stop offset="1" stop-color="#fff"/></linearGradient><linearGradient id="linear-gradient-10" x1="1166.53" y1="559.64" x2="1199.84" y2="559.64" gradientTransform="translate(832.32 -701.32) rotate(49.14)" gradientUnits="userSpaceOnUse"><stop offset="0.03" stop-color="#fff"/><stop offset="0.42" stop-color="#48cdeb"/><stop offset="0.63" stop-color="#48cdeb"/><stop offset="1" stop-color="#42cbea"/></linearGradient><linearGradient id="linear-gradient-11" x1="-659.54" y1="-1814.52" x2="-536.21" y2="-1743.32" gradientTransform="translate(-694.75 2465.19) rotate(52.34)" gradientUnits="userSpaceOnUse"><stop offset="0.24" stop-color="#3b7218"/><stop offset="0.94" stop-color="#83c458"/></linearGradient><linearGradient id="linear-gradient-12" x1="-466.31" y1="631.4" x2="-436.37" y2="648.68" gradientTransform="matrix(1.21, 0.07, 0.55, 1.2, 403.14, 114.94)" xlink:href="#linear-gradient-11"/><linearGradient id="linear-gradient-13" x1="153.7" y1="847.95" x2="236.98" y2="896.03" gradientTransform="matrix(1, 0, 0, 1, 0, 0)" xlink:href="#linear-gradient-11"/><linearGradient id="linear-gradient-14" x1="178.4" y1="880.41" x2="230.76" y2="910.64" gradientTransform="matrix(1, 0, 0, 1, 0, 0)" xlink:href="#linear-gradient-11"/><linearGradient id="linear-gradient-15" x1="363.84" y1="28.26" x2="454.52" y2="19" gradientTransform="translate(10.21 783.92) rotate(15.83)" gradientUnits="userSpaceOnUse"><stop offset="0.24" stop-color="#3b7218"/><stop offset="0.82" stop-color="#83c458"/></linearGradient><linearGradient id="linear-gradient-16" x1="440.67" y1="-204.38" x2="463.17" y2="-37.22" gradientTransform="translate(-19.21 770.74) rotate(14.23)" xlink:href="#linear-gradient-11"/><linearGradient id="linear-gradient-17" x1="-3714.25" y1="-3747.02" x2="-3446.99" y2="-3747.02" gradientTransform="translate(-2675 3902) rotate(90)" gradientUnits="userSpaceOnUse"><stop offset="0" stop-color="#f8fdfe"/><stop offset="0" stop-color="#42cbea"/><stop offset="0.67" stop-color="#f9fdfe"/><stop offset="0.99" stop-color="#70d0e2"/></linearGradient><linearGradient id="linear-gradient-18" x1="1108.51" y1="2674.27" x2="1200.93" y2="2674.27" xlink:href="#linear-gradient-2"/><linearGradient id="linear-gradient-19" x1="1106.87" y1="2674.91" x2="1199.41" y2="2674.91" xlink:href="#linear-gradient-3"/><linearGradient id="linear-gradient-20" x1="1138.83" y1="2542.01" x2="1172.61" y2="2542.01" gradientTransform="translate(378.79 -2091.79)" xlink:href="#linear-gradient-2"/><linearGradient id="linear-gradient-21" x1="1138.83" y1="2535.58" x2="1171.33" y2="2535.58" gradientTransform="translate(375.89 -2090.77)" xlink:href="#linear-gradient-2"/><linearGradient id="linear-gradient-22" x1="1139.47" y1="2534.61" x2="1171.97" y2="2534.61" gradientTransform="translate(375.37 -2090.96)" xlink:href="#linear-gradient-6"/><linearGradient id="linear-gradient-23" x1="1136.57" y1="2554.72" x2="1174.55" y2="2554.72" gradientTransform="translate(384.68 -2093.16)" xlink:href="#linear-gradient-3"/><linearGradient id="linear-gradient-24" x1="1108.26" y1="2641.14" x2="1197.75" y2="2641.14" gradientTransform="translate(-665.04 -1270.1) rotate(-27.52)" xlink:href="#linear-gradient-6"/><linearGradient id="linear-gradient-25" x1="-3362" y1="-4083.88" x2="-3201.99" y2="-4083.88" xlink:href="#linear-gradient-17"/><linearGradient id="linear-gradient-26" x1="669.68" y1="497.14" x2="918.91" y2="497.14" gradientUnits="userSpaceOnUse"><stop offset="0.02" stop-color="#2e2e2e"/><stop offset="0.52"/></linearGradient><linearGradient id="linear-gradient-27" x1="734" y1="434.88" x2="975.14" y2="434.88" xlink:href="#linear-gradient-26"/><linearGradient id="linear-gradient-28" x1="832.65" y1="394.64" x2="1020.31" y2="394.64" xlink:href="#linear-gradient-26"/><linearGradient id="linear-gradient-29" x1="1116.85" y1="497.14" x2="1366.08" y2="497.14" xlink:href="#linear-gradient-26"/><linearGradient id="linear-gradient-30" x1="1060.63" y1="434.88" x2="1301.76" y2="434.88" xlink:href="#linear-gradient-26"/><linearGradient id="linear-gradient-31" x1="1015.45" y1="394.64" x2="1203.12" y2="394.64" xlink:href="#linear-gradient-26"/><linearGradient id="linear-gradient-32" x1="942.62" y1="368.09" x2="1096.26" y2="368.09" xlink:href="#linear-gradient-26"/><linearGradient id="linear-gradient-33" x1="867.65" y1="692.93" x2="1163.47" y2="692.93" xlink:href="#linear-gradient-26"/><linearGradient id="linear-gradient-34" x1="1023.42" y1="632.31" x2="1135.68" y2="632.31" gradientTransform="translate(1427.17 -569.52) rotate(75.77)" xlink:href="#linear-gradient-26"/><linearGradient id="linear-gradient-35" x1="895.39" y1="641.61" x2="1006.22" y2="641.61" gradientTransform="translate(116.62 -156.49) rotate(9.29)" xlink:href="#linear-gradient-26"/></defs><title>game over scene </title><rect class="cls-1" y="1" width="1920" height="1080"/><polyline class="cls-2" points="354 11 442.14 7.01 1032 1077"/><polyline class="cls-2" points="1526.4 5.59 1604.06 8.06 986 1077"/><polyline class="cls-2" points="654.62 7.57 738.12 4.13 1015 1077"/><polyline class="cls-2" points="1286 7 1371.44 8.56 969.94 1022.51"/><polyline class="cls-2" points="1812 4 1908 7 1071.55 975.95"/><polyline class="cls-2" points="114 4 205 7 899.53 1027.3"/><ellipse class="cls-3" cx="392.05" cy="403.59" rx="7.67" ry="37.43" transform="translate(-44.09 48.1) rotate(-6.65)"/><ellipse class="cls-3" cx="380.06" cy="366.99" rx="9.82" ry="26.08" transform="matrix(0.85, -0.53, 0.53, 0.85, -137.17, 259.27)"/><ellipse class="cls-3" cx="373.31" cy="337.23" rx="20.56" ry="9.2" transform="matrix(0.25, -0.97, 0.97, 0.25, -47.28, 613.24)"/><ellipse class="cls-3" cx="410.74" cy="387.72" rx="32.22" ry="8.97" transform="translate(-150.18 454.04) rotate(-50.09)"/><ellipse class="cls-3" cx="427.21" cy="357.61" rx="7.03" ry="15.95" transform="translate(-12.09 14.96) rotate(-1.98)"/><ellipse class="cls-3" cx="390.68" cy="449.26" rx="25.16" ry="7.06" transform="translate(-142.7 713.77) rotate(-75.37)"/><ellipse class="cls-3" cx="392.45" cy="482.85" rx="6.75" ry="26.09" transform="translate(-133.93 151.05) rotate(-18.67)"/><ellipse class="cls-3" cx="371.24" cy="322.1" rx="8.9" ry="11.97" transform="matrix(0.25, -0.97, 0.97, 0.25, -34.2, 599.93)"/><ellipse class="cls-3" cx="412.38" cy="447.58" rx="37.43" ry="7.67" transform="translate(-192 519.03) rotate(-54.09)"/><ellipse class="cls-3" cx="440.72" cy="421.51" rx="26.08" ry="9.82" transform="translate(-147.73 261.4) rotate(-28.5)"/><ellipse class="cls-3" cx="461.16" cy="398.85" rx="20.56" ry="9.2" transform="matrix(0.25, -0.97, 0.97, 0.25, -41.25, 744.29)"/><ellipse class="cls-3" cx="470.37" cy="386.67" rx="8.9" ry="11.97" transform="translate(-22.59 744.1) rotate(-75.37)"/><ellipse class="cls-3" cx="375.99" cy="423.36" rx="6.89" ry="24.58" transform="translate(-189.56 395.79) rotate(-45.6)"/><ellipse class="cls-3" cx="361.18" cy="401.71" rx="5.35" ry="12.26" transform="translate(-25.5 24.48) rotate(-3.75)"/><ellipse class="cls-3" cx="416.17" cy="482.73" rx="26.08" ry="9.82" transform="translate(-126.79 148.93) rotate(-17.65)"/><ellipse class="cls-3" cx="439.51" cy="465.26" rx="20.56" ry="9.2" transform="translate(-169.58 661.85) rotate(-64.52)"/><ellipse class="cls-3" cx="453.21" cy="453.93" rx="8.9" ry="11.97" transform="translate(-151.55 667.76) rotate(-64.52)"/><ellipse class="cls-3" cx="361.65" cy="450.13" rx="7.94" ry="38.74" transform="matrix(0.54, -0.84, 0.84, 0.54, -212.17, 514.47)"/><ellipse class="cls-3" cx="331.99" cy="423.87" rx="7.59" ry="15.72" transform="translate(-148.82 181.57) rotate(-25.19)"/><path class="cls-3" d="M1706,668c-30,37-62,142.79-62,142.79C1481.55,771.52,1260,985,1142,980c-328.81,28.07-674-480-827-531S-1,497-1,497V943H1916c-2.13,12.58-.16-395.61,0-421C1916,522,1736,631,1706,668Z"/><path class="cls-4" d="M-2,1023l1918.78.93c-2.13,19.58.06-589.42.22-628.93,0,0-417,152-135,189,50.33,6.6,102,60,36,66-60.48,5.5,67,84,24,80-161.19-15-13,117-108.67,81-162.43-61.12-310,46.2-428,38.39-328.81,43.68-669.13-47.46-743.95-99C332,650.72-1.64,632.93-1.64,632.93Z"/><path class="cls-5" d="M1919,1064H-4.14s.23-49.93,0-75.27C-5,893,13.83,998.88,166,940s372,89,501-11c90-18,454,88,612.29-8.84C1697,822,1919,929.85,1919,929.85Z"/><path class="cls-6" d="M1918,1080H-5.14v-75.27c0-25.34,67.08,22.36,219.25-36.52s254.45,1.47,374.41-3.73c334.37,29.07,613.69,6,689.77-28.32,233.26-66.33,639.71,9.69,639.71,9.69Z"/><path class="cls-7" d="M368.49,980.84c-53.59-13.48-77.26-13.08-118.17,8.93-46.82,25.19-73,19-99.82,20.74-41.66,2.7,63,34.69,112.53,11.17C333.18,988.36,391.12,986.54,368.49,980.84Z"/><path class="cls-7" d="M1673.12,936c-101.83,37.37-115,52.25-31.08,72.54,96,23.23,48.32,41.37,39.81,57.92-13.2,25.69,214-48.75,128.05-74.1C1688.12,956.44,1716.11,920.22,1673.12,936Z"/><path class="cls-7" d="M364.12,1020.15c-26.7,9.8-30.15,13.7-8.15,19,25.18,6.09,12.67,10.85,10.44,15.19-3.47,6.73,56.1-12.78,33.57-19.43C368.05,1025.51,375.39,1016,364.12,1020.15Z"/><path class="cls-7" d="M1456.12,1058.36c-38-45.1-33.32-34-102.81-35.37-35.83-.73,30.83-170.56-106.47-30.09-26.82,27.44,25.48,84.7,96.69,84.19C1413.28,1076.59,1472.16,1077.4,1456.12,1058.36Z"/><path class="cls-7" d="M1031,1057c-47.87-56.82-210.14-4.79-283.85-52.08-108.44-69.58,23.09,47.81-6.15,37.08-45.39-16.65-95.91,31.72-6.17,31.08C822.72,1072.45,1051.21,1081,1031,1057Z"/><path class="cls-4" d="M247.54,746.28l-30-1.13s18.35-127.24,9.63-131.49-60.45-61.35-51.76-92.57c13.08-39,57.18-80.07,8.64-1.26-7.73,27.14,45.55,73.77,53.56,83.64S247.54,746.28,247.54,746.28Z"/><path class="cls-4" d="M113.73,730.16l36.45,7.05s12.33-103.37,25.15-124.6c3.94-6.54,59.91-58.41,67.64-88.52,8.58-37.71-60.51-110.63-17.71,3-8.09,30.53-44.78,59.86-52.32,68.52S113.73,730.16,113.73,730.16Z"/><path class="cls-4" d="M138.41,703.07l-26.74-13.52s44-77.43,46.53-98.51c.77-6.49-8.82-70.43,1.37-95.07,13.46-30.3,51.41-93,9.77,11-10.17,25.11-1.54,63.81-1.08,73.58S138.41,703.07,138.41,703.07Z"/><path class="cls-4" d="M150.92,724.89l-39.69-1.32s25.14-79.34,19.83-97.48c-1.63-5.59-39.71-54.38-36.61-78.23,5-29.68,102-71.61,17,5.41-2.9,24.24,23.77,52.74,28.3,60.55S150.92,724.89,150.92,724.89Z"/><path class="cls-4" d="M145,725.74l-44.94-1.48s28.46-89.87,22.45-110.42c-1.85-6.33-56.19-51.93-52.67-79,5.68-33.62,28.23-107.84,15.37,5.64C82,568,130.92,603.11,136,612S145,725.74,145,725.74Z"/><path class="cls-4" d="M162.61,730.19l29.47,4.61s8.37-85.31,18.37-103.16c3.08-5.5,47.39-49.91,53.16-74.89,6.34-31.25,11.26-101.66-14.22,3-6,25.33-35.17,50.61-41.12,58S162.61,730.19,162.61,730.19Z"/><path class="cls-4" d="M1885.54,565.28l-30-1.13s18.35-127.24,9.63-131.49-60.45-61.35-51.76-92.57c13.08-39,57.18-80.07,8.64-1.26-7.73,27.14,45.55,73.77,53.56,83.64S1885.54,565.28,1885.54,565.28Z"/><path class="cls-4" d="M1751.73,549.16l36.45,7.05s12.33-103.37,25.15-124.6c3.94-6.54,59.91-58.41,67.64-88.52,8.58-37.71-60.51-110.63-17.71,3-8.09,30.53-44.78,59.86-52.32,68.52S1751.73,549.16,1751.73,549.16Z"/><path class="cls-4" d="M1776.41,522.07l-26.74-13.52s44-77.43,46.53-98.51c.77-6.49-8.82-70.43,1.37-95.07,13.46-30.3,51.41-93,9.77,11-10.17,25.11-1.54,63.81-1.08,73.58S1776.41,522.07,1776.41,522.07Z"/><path class="cls-4" d="M1788.92,543.89l-39.69-1.32s25.14-79.34,19.83-97.48c-1.63-5.59-39.71-54.38-36.61-78.23,5-29.68,102-71.61,17,5.41-2.9,24.24,23.77,52.74,28.3,60.55S1788.92,543.89,1788.92,543.89Z"/><path class="cls-4" d="M1783,544.74l-44.94-1.48s28.46-89.87,22.45-110.42c-1.85-6.33-56.19-51.93-52.67-78.95,5.68-33.62,28.23-107.84,15.37,5.64C1720,387,1768.92,422.11,1774,431S1783,544.74,1783,544.74Z"/><path class="cls-4" d="M1800.61,549.19l29.47,4.61s8.37-85.31,18.37-103.16c3.08-5.5,47.39-49.91,53.16-74.89,6.34-31.25,11.26-101.66-14.22,3-6.05,25.33-35.17,50.61-41.12,58S1800.61,549.19,1800.61,549.19Z"/><circle class="cls-8" cx="211" cy="298" r="16"/><circle class="cls-8" cx="226.5" cy="326.5" r="9.5"/><circle class="cls-8" cx="217" cy="356" r="8"/><circle class="cls-8" cx="1712" cy="206" r="16"/><circle class="cls-8" cx="1696.5" cy="234.5" r="9.5"/><circle class="cls-8" cx="1706" cy="264" r="8"/><circle class="cls-8" cx="1756" cy="99" r="16"/><circle class="cls-8" cx="1771.5" cy="127.5" r="9.5"/><circle class="cls-8" cx="1762" cy="157" r="8"/><ellipse class="cls-4" cx="1466.12" cy="204.31" rx="22.98" ry="7.51"/><polygon class="cls-9" points="1500.11 216.79 1486.38 204.07 1499.41 190 1500.11 216.79"/><ellipse class="cls-4" cx="1492.08" cy="226.04" rx="14.81" ry="4.84"/><polygon class="cls-9" points="1513.98 234.09 1505.13 225.89 1513.53 216.82 1513.98 234.09"/><ellipse class="cls-4" cx="1489.51" cy="246.62" rx="16.34" ry="5.6"/><polygon class="cls-9" points="1513.68 255.93 1503.91 246.44 1513.18 235.94 1513.68 255.93"/><ellipse class="cls-4" cx="1534.99" cy="246.49" rx="14.03" ry="4.58"/><polygon class="cls-9" points="1555.74 254.11 1547.35 246.35 1555.31 237.76 1555.74 254.11"/><ellipse class="cls-4" cx="1524.82" cy="201.24" rx="15.24" ry="4.98"/><polygon class="cls-9" points="1547.36 209.51 1538.25 201.08 1546.89 191.75 1547.36 209.51"/><ellipse class="cls-4" cx="1431.98" cy="234.8" rx="22.98" ry="7.51"/><polygon class="cls-9" points="1465.98 247.29 1452.24 234.57 1465.28 220.49 1465.98 247.29"/><path class="cls-10" d="M899.31,518.6l-61.56,32.07a3.85,3.85,0,0,1-5.19-1.62S807.83,519,807.27,500.52c-15-5.2-31.24-40.37-25.88-49.66-13.58-5.91-33.71-64.7-33.71-64.7-5.47-10.5-5.48-39.72,2.44-48.18l28.79-15c5.13-2.67,26.32,12.27,36.14,25.55,0,0,37.08,49.6,34.75,66.69,9.93-8.06,31.08,42.26,27.18,52.17,8.75-2,24,46,24,46A3.87,3.87,0,0,1,899.31,518.6Z"/><path class="cls-11" d="M898.55,520.45l-61.64,32.12a3.88,3.88,0,0,1-5.21-1.64s-24.83-30.25-25.43-48.8c-15-5.26-31.38-40.62-26-49.95-13.63-6-33.9-65.06-33.9-65.06-5.51-10.56-5.56-39.92,2.35-48.4l28.83-15c5.13-2.68,26.4,12.37,36.27,25.73,0,0,37.24,49.9,34.94,67.07C858.68,408.42,880,459,876.07,469c8.77-2,24.12,46.28,24.12,46.28A3.88,3.88,0,0,1,898.55,520.45Z"/><rect class="cls-12" x="738.61" y="307.82" width="33.79" height="14.8" rx="7.4" ry="7.4" transform="translate(-60.16 384.78) rotate(-27.52)"/><ellipse class="cls-13" cx="751.96" cy="309.81" rx="16.25" ry="8.69" transform="translate(-58.06 382.53) rotate(-27.52)"/><ellipse class="cls-14" cx="752.09" cy="308.65" rx="16.25" ry="8.69" transform="translate(-57.51 382.45) rotate(-27.52)"/><rect class="cls-15" x="742.25" y="320.94" width="37.97" height="11.24" rx="5.62" ry="5.62" transform="translate(-64.76 388.71) rotate(-27.52)"/><path class="cls-16" d="M780.21,452.93c-24.08-18.29-33.9-65.07-33.9-65.07l67.49-38.43s39.29,50.5,37.33,65.1c-.13,1,5-3.7-1.63,2.29C827,447.44,780.21,452.93,780.21,452.93Z"/><ellipse class="cls-17" cx="810.57" cy="391.63" rx="11.79" ry="15.66" transform="translate(-68.34 196.9) rotate(-13.3)"/><ellipse class="cls-18" cx="810.86" cy="393.25" rx="11.29" ry="15.01" transform="translate(-68.7 197.01) rotate(-13.3)"/><ellipse class="cls-19" cx="811.96" cy="397.91" rx="4.9" ry="6.51" transform="translate(-55.76 143.6) rotate(-9.77)"/><ellipse class="cls-17" cx="781.67" cy="406.11" rx="11.79" ry="15.66" transform="translate(-97.57 459.63) rotate(-30.94)"/><ellipse class="cls-18" cx="782.43" cy="407.56" rx="11.29" ry="15.01" transform="translate(-98.21 460.22) rotate(-30.94)"/><ellipse class="cls-19" cx="784.89" cy="411.67" rx="4.9" ry="6.51" transform="translate(-101.4 407.61) rotate(-27.41)"/><circle class="cls-18" cx="812.2" cy="395.66" r="2.16"/><circle class="cls-18" cx="783.66" cy="410.54" r="2.16"/><ellipse class="cls-17" cx="774.17" cy="387.95" rx="0.98" ry="10.13" transform="translate(299.64 1112.28) rotate(-83.39)"/><ellipse class="cls-17" cx="801.04" cy="374.12" rx="9.56" ry="0.5" transform="translate(120.8 938.84) rotate(-64.73)"/><path class="cls-20" d="M781.12,428.18c4.47-3,14.31,8.18,18.9,7.18s6.38-15.18,11.41-16.18c1.46-.49,8.22,11.53,9.57,10.68s-6-12.79-5-13.81"/><rect class="cls-17" x="1228.24" y="445.59" width="5.81" height="120.65" transform="translate(631.05 -682.17) rotate(40.86)"/><rect class="cls-21" x="1224.47" y="447.99" width="5.81" height="120.65" transform="translate(631.71 -679.12) rotate(40.86)"/><ellipse class="cls-17" cx="1185.08" cy="561.31" rx="20.98" ry="11.01" transform="translate(-14.77 1090.32) rotate(-49.14)"/><ellipse class="cls-17" cx="1277.62" cy="450.61" rx="20.98" ry="11.01" transform="translate(165.28 1223.95) rotate(-54.24)"/><ellipse class="cls-22" cx="1275.38" cy="449.96" rx="21.59" ry="11.65" transform="translate(164.88 1221.87) rotate(-54.24)"/><ellipse class="cls-23" cx="1183.18" cy="559.64" rx="21.59" ry="11.65" transform="translate(-14.16 1088.31) rotate(-49.14)"/><ellipse class="cls-17" cx="1283.54" cy="451.13" rx="7.12" ry="5.36" transform="translate(-2.48 895.15) rotate(-38.41)"/><ellipse class="cls-18" cx="1282.93" cy="451.56" rx="6.83" ry="5.14" transform="translate(-2.88 894.86) rotate(-38.41)"/><ellipse class="cls-19" cx="1281.22" cy="452.91" rx="2.96" ry="2.23" transform="translate(-28.76 814.29) rotate(-34.89)"/><ellipse class="cls-17" cx="1272" cy="442.02" rx="7.12" ry="5.36" transform="translate(195.03 1250.42) rotate(-56.05)"/><ellipse class="cls-18" cx="1271.55" cy="442.62" rx="6.83" ry="5.14" transform="translate(194.33 1250.3) rotate(-56.05)"/><ellipse class="cls-19" cx="1270.33" cy="444.42" rx="2.96" ry="2.23" transform="translate(144.83 1182.33) rotate(-52.53)"/><circle class="cls-18" cx="1282.19" cy="452.58" r="0.98"/><circle class="cls-18" cx="1270.56" cy="443.7" r="0.98"/><path class="cls-20" d="M1263.05,453.05c.5-.5,10.65,9.15,10.9,8.9s-9.4-10.4-8.9-10.9"/><ellipse class="cls-17" cx="1278.61" cy="436.37" rx="0.31" ry="3.46"/><ellipse class="cls-17" cx="1285.89" cy="442.93" rx="3.24" ry="0.16" transform="translate(-73.8 412) rotate(-17.7)"/><path class="cls-24" d="M383.42,910.53c-4.73,5.89-22.06,44-49.18,61.3-16.27,10.38-35.69,12.52-38.54,9-6.27-7.73,13.59-18.65,19-43.78,12.58-58.79,43.2-76.34,52.47-76.34,6.46,0-8.4-25.62-1-30.11,6.43-3.92,17.68-2.23,23-.41,14.1,4.83-3.33,17.65,4.26,27.47C408.41,877.15,390.05,902.25,383.42,910.53Z"/><path class="cls-25" d="M387,909.93c-4.69,5.85-22,44.52-48.9,61.7-16.16,10.3-35.44,12.43-38.27,8.93-6.22-7.68,13.5-18.52,18.84-43.47,12.49-58.37,42.89-75.8,52.1-75.79,6.4,0-8.35-25.44-1-29.9,6.38-3.89,17.56-2.22,22.85-.41,14,4.8-3.3,17.52,4.23,27.28C411.73,877.62,393.58,901.71,387,909.93Z"/><ellipse class="cls-26" cx="269.57" cy="857.78" rx="37.55" ry="28.31"/><ellipse class="cls-26" cx="307.42" cy="862.25" rx="35.46" ry="26.82"/><ellipse class="cls-26" cx="342.89" cy="850.33" rx="40.53" ry="29.21"/><path class="cls-27" d="M201.05,844.19c-.9.21-14.24-1.25-15.39-.89s-1.29,1.19-.17,3.8c.94,2.22,19.83,12.75,24.25,14,6.84,1.89,20.82-5.39,22-6.54s-4.54-6.92-5.32-7.67C225.05,845.5,210.62,842,201.05,844.19Z"/><path class="cls-28" d="M183.55,861c-2.37.61-32.39-1-35.5,0s-4.34,3-4.52,9.11c-.16,5.15,33.19,27.67,42.36,30,14.15,3.55,55.15-15.77,59.28-18.7s-3.29-15.88-4.32-17.58C239,860.76,208.55,854.48,183.55,861Z"/><path class="cls-29" d="M180.09,903.37c-1.6,2.6-26.71,16.46-28.66,20.09s-1.53,6.56,2.8,12.44c3.67,5,49.25-2.46,58.9-8.16,14.91-8.81,36.21-62.12,37.63-68.4S236.18,847.23,234,846.52C230.18,845.25,197,875.81,180.09,903.37Z"/><path class="cls-30" d="M182.85,903.54c-1.65,2.57-27,15.91-29.07,19.5s-1.66,6.53,2.56,12.49c3.56,5.05,49.28-1.45,59-6.95,15.08-8.5,37.48-61.36,39-67.61s-14.32-12.4-16.46-13.16C234.12,846.46,200.3,876.33,182.85,903.54Z"/><circle class="cls-31" cx="198.64" cy="900.99" r="6.56"/><path class="cls-31" d="M206.39,870c5,4.68,6.14,12.94,1.71,17.7s-12.1,4.83-17.14.14l8.28-10.09Z"/><circle class="cls-31" cx="226.96" cy="872.68" r="9.83"/><circle class="cls-31" cx="221" cy="889.37" r="3.87"/><circle class="cls-31" cx="210.86" cy="892.35" r="2.68"/><path class="cls-24" d="M441.22,888.08c-.31,8.22-4.31,60.85-16.84,93.58-7.53,19.63-23.15,34.09-27.93,32.86-10.5-2.71-.18-25.14-11.75-50.63C357.61,904.25,373,869,381.17,863c5.65-4.18-24-17-20.43-25.69,3.09-7.59,14-13.41,19.88-15.27,15.49-4.91,8.53,17.61,21.54,21.29C428,850.68,441.67,876.53,441.22,888.08Z"/><path class="cls-32" d="M446,888.08c-.31,8.22-4.31,60.85-16.85,93.58-7.52,19.63-23.14,34.09-27.92,32.86-10.5-2.71-.18-25.14-11.76-50.63C362.37,904.25,377.81,869,385.94,863c5.65-4.18-24-17-20.43-25.69,3.09-7.59,14-13.41,19.88-15.27,15.48-4.91,8.53,17.61,21.53,21.29C432.73,850.68,446.44,876.53,446,888.08Z"/><path class="cls-33" d="M404.42,794.38c6.07,20.9-41.13,61.38-86.87,71.74S223,874.9,206.8,848.5s27.39-11.28,60.07-15.23C375.93,820.08,398.36,773.47,404.42,794.38Z"/><path class="cls-34" d="M404.42,789.61c6.07,20.91-41.13,61.38-86.87,71.74S223,870.13,206.8,843.73s27.39-11.28,60.07-15.23C375.93,815.31,398.36,768.7,404.42,789.61Z"/><path class="cls-35" d="M290.73,755.26c19.76-4.23,32.81-2,45.3,6,6.56,4.17,47.69,1.79,56,35.76,1.59,6.47-18.48,32.78-26.23,38.74-22,16.95-47.08,10.14-58.41,14.91-47.51,20-46.49-1.79-58.41-.6-29.09,2.91-33.1-11.11-32.78-25.63.57-26.25,22.65-37.55,28-40.53C250.18,780.57,257.35,762.41,290.73,755.26Z"/><path class="cls-36" d="M291.93,751.09c19.75-4.24,32.81-2,45.29,6,6.56,4.17,47.69,1.79,56,35.76,1.59,6.47-18.48,32.78-26.22,38.74-22,16.94-47.09,10.14-58.42,14.9-47.51,20-46.49-1.78-58.41-.59-29.08,2.91-33.1-11.12-32.78-25.63.57-26.25,22.65-37.55,28-40.53C251.37,776.4,258.55,758.24,291.93,751.09Z"/><circle class="cls-31" cx="213.84" cy="868.51" r="2.68"/><circle class="cls-31" cx="428.72" cy="879.53" r="11.92"/><circle class="cls-31" cx="404.87" cy="888.47" r="8.34"/><circle class="cls-31" cx="417.99" cy="893.24" r="3.58"/><path class="cls-31" d="M442.49,925.26c-6.84-.78-12.29-9.68-11.15-19.71s7.6-17.53,14.44-16.76L444.3,909Z"/><circle class="cls-31" cx="418.88" cy="858.97" r="6.26"/><circle class="cls-31" cx="407.26" cy="870" r="4.17"/><circle class="cls-31" cx="422.46" cy="907.25" r="6.26"/><ellipse class="cls-37" cx="293.3" cy="775.34" rx="40.76" ry="20.27" transform="translate(-175.66 91.78) rotate(-13.73)"/><ellipse class="cls-37" cx="241.02" cy="814.46" rx="25.48" ry="19.46" transform="translate(-592.82 652.74) rotate(-62.54)"/><ellipse class="cls-37" cx="289.8" cy="824.52" rx="27.7" ry="23.74" transform="matrix(0.99, -0.15, 0.15, 0.99, -119.4, 52.27)"/><ellipse class="cls-37" cx="348.8" cy="801.86" rx="30.71" ry="27.53" transform="translate(-307.02 223.47) rotate(-25.08)"/><path class="cls-38" d="M372.05,745.24c-2.05,8.09-14,.76-18.72,20.47-9.69,40.5,32.58,68.52,76.36,79.62,47.2,12,97.65,10.76,108.73-33.41,3.46-13.78-9.71-22.48-8.5-27.27,8.15-32.14,10.84-66.92-10.82-74.1-23.17-7.69-14.6-19.66-47.39-27.36s-27.77,6.49-46,3.1C398.75,681.28,380.84,710.55,372.05,745.24Z"/><ellipse class="cls-39" cx="417.86" cy="734.26" rx="33.68" ry="26.23" transform="translate(-396.58 958.86) rotate(-75.77)"/><ellipse class="cls-39" cx="500.55" cy="753.69" rx="35.17" ry="25.93" transform="translate(-353.03 1053.67) rotate(-75.77)"/><ellipse class="cls-18" cx="498.89" cy="756.03" rx="33.08" ry="24.89" transform="translate(-356.56 1053.83) rotate(-75.77)"/><ellipse class="cls-18" cx="419.53" cy="738.58" rx="32.88" ry="24.74" transform="translate(-399.51 963.74) rotate(-75.77)"/><ellipse class="cls-40" cx="424.25" cy="744.91" rx="19.97" ry="15.02" transform="translate(-425.21 860.2) rotate(-68.07)"/><ellipse class="cls-19" cx="425.3" cy="748.99" rx="14.35" ry="10.79" transform="translate(-410.54 956.94) rotate(-74.38)"/><circle class="cls-41" cx="423.12" cy="741.23" r="2.68"/><ellipse class="cls-40" cx="492.47" cy="759.7" rx="19.97" ry="15.02" transform="translate(-381.19 997.14) rotate(-72.25)"/><ellipse class="cls-19" cx="491.52" cy="761.49" rx="14.35" ry="10.79" transform="translate(-383.56 997.48) rotate(-72.25)"/><circle class="cls-41" cx="498.88" cy="755.9" r="2.68"/><ellipse class="cls-31" cx="438.55" cy="777.31" rx="3.87" ry="2.09" transform="translate(-453.41 807.99) rotate(-62.54)"/><ellipse class="cls-31" cx="462.99" cy="783.57" rx="2.09" ry="3.58" transform="translate(-143.8 105.23) rotate(-11.24)"/><path class="cls-42" d="M479.68,805.33c-6,6-20.45,8.14-37.43,5s-30.9-12.57-31.12-21.09"/><path class="cls-42" d="M484.7,806.4c-2.33,1.68-3.69-.48-4.35-1.4s-3.07-4-.74-5.67"/><path class="cls-42" d="M411.92,784c2.28,2.42,0,4.31-.94,5.21s-4.12,4.14-6.41,1.72"/><ellipse class="cls-43" cx="393.62" cy="770.9" rx="3.34" ry="7.99" transform="translate(-471.93 764.67) rotate(-62.54)"/><ellipse class="cls-43" cx="499.94" cy="796.9" rx="8.05" ry="2.77"/><circle class="cls-31" cx="459.43" cy="698.64" r="4.8"/><circle class="cls-31" cx="476.24" cy="700.08" r="2.4"/><circle class="cls-31" cx="470.24" cy="706.56" r="2.64"/><circle class="cls-31" cx="484.65" cy="706.56" r="3.6"/><circle class="cls-31" cx="460.63" cy="709.45" r="3.6"/><circle class="cls-31" cx="476" cy="714.25" r="3.6"/><circle class="cls-31" cx="468.79" cy="695.03" r="3.6"/><circle class="cls-31" cx="458.46" cy="686.63" r="5.77"/><circle class="cls-31" cx="484.89" cy="695.27" r="5.77"/><circle class="cls-31" cx="476" cy="689.27" r="3.6"/><circle class="cls-31" cx="468.79" cy="686.87" r="2.16"/><circle class="cls-31" cx="492.34" cy="700.8" r="2.64"/><rect class="cls-44" x="978.84" y="123.44" width="141.16" height="291.49"/><rect class="cls-44" x="947.68" y="219.51" width="217.43" height="213.4" rx="12" ry="12"/><path class="cls-17" d="M959.7,421.2c0-.17,0-.33-.05-.5C958.86,413.08,974.2,287.3,979,258c13.2-80.65,17.44,65.17,8.64,17.51s36.7-.12,61.6,2.27a18.76,18.76,0,0,0,5.84-.35l16-2.27.27-.05c1.46-.35,12.07-3,14.77-4.72,22.08-14.26,36.19-14.25,40.09-17.25,12.41-9.55.85-91.52,14.76-16.14.13.72,21.14,80.8,21.65,99a18.7,18.7,0,0,0,1.08,5.74c13.6,38,14.62,75.58,14.69,82.4a15.74,15.74,0,0,0,.11,1.82c3.16,25.48-46.39,24.79-48.67,24.79l-139.58-2.93a31.64,31.64,0,0,1-30-23.71A16.83,16.83,0,0,1,959.7,421.2Z"/><path class="cls-45" d="M1097.36,285.16a9.42,9.42,0,0,0,5.13-2.38c20.09-18.42,17.4-174.25,45.51-42.78.17.8,22.24,84.47,22.24,97.67,16.87,45.1,16.5,90.57,16.5,90.57,4.4,27.5-48.55,26.76-51,26.76l-154.58-3.25A13.45,13.45,0,0,1,976,450.6c-14.59-6.55-18.61-23.87-18.74-26.63,0-.18,0-.35-.05-.52-.83-8,1.78-128.26,18.83-191.45,28.08-104.09,23.51,24.28,35.24,54.14a13.74,13.74,0,0,0,13.29,8.71c.28,0,.55,0,.82-.07Z"/><ellipse class="cls-17" cx="1082.17" cy="350.44" rx="22.96" ry="17.27" transform="translate(476.53 1313.3) rotate(-75.77)"/><ellipse class="cls-18" cx="1081.44" cy="352.74" rx="22" ry="16.55" transform="translate(473.76 1314.33) rotate(-75.77)"/><ellipse class="cls-19" cx="1079.72" cy="359.54" rx="9.54" ry="7.18" transform="translate(408.15 1278.26) rotate(-72.25)"/><ellipse class="cls-17" cx="1034.79" cy="349.68" rx="17.27" ry="22.96" transform="translate(-18.99 62.27) rotate(-3.42)"/><ellipse class="cls-18" cx="1034.8" cy="352.09" rx="16.55" ry="22" transform="translate(-19.14 62.27) rotate(-3.42)"/><ellipse class="cls-19" cx="1035.21" cy="359.09" rx="9.54" ry="7.18" transform="translate(674.18 1393.63) rotate(-89.89)"/><circle class="cls-18" cx="1081.55" cy="356.78" r="3.17"/><circle class="cls-18" cx="1034.38" cy="356.78" r="3.17"/><ellipse class="cls-17" cx="1037.35" cy="320.99" rx="1.43" ry="14.84" transform="translate(189.55 999.49) rotate(-55.86)"/><ellipse class="cls-17" cx="1081.63" cy="321.22" rx="14.01" ry="0.74" transform="translate(25.95 719.53) rotate(-37.21)"/><path class="cls-20" d="M1010,375c3.41,0,5.83,14.17,9.12,14.64,3.47.5,10.22-12.23,13.3-11.21,6.42,2.47,7.28,18.72,13.33,21.21s14.67-9.12,21.75-9.62"/><ellipse class="cls-4" cx="1436.8" cy="775.14" rx="4.89" ry="23.84" transform="translate(-155.51 414.9) rotate(-15.6)"/><ellipse class="cls-4" cx="1425.63" cy="753.3" rx="6.25" ry="16.61" transform="translate(-143.34 1125.09) rotate(-41.18)"/><ellipse class="cls-4" cx="1418.44" cy="735.25" rx="13.09" ry="5.86" transform="translate(546.37 2073.92) rotate(-84.32)"/><ellipse class="cls-4" cx="1446.99" cy="763.3" rx="20.52" ry="5.72" transform="translate(48.07 1611.5) rotate(-59.04)"/><ellipse class="cls-4" cx="1454.36" cy="742.73" rx="4.48" ry="10.16" transform="translate(-114.43 289.2) rotate(-10.93)"/><ellipse class="cls-4" cx="1440.46" cy="804.01" rx="16.02" ry="4.49" transform="translate(497.79 2157.79) rotate(-84.32)"/><ellipse class="cls-4" cx="1444.9" cy="824.97" rx="4.3" ry="16.62" transform="translate(-217.8 763.93) rotate(-27.62)"/><ellipse class="cls-4" cx="1415.63" cy="725.93" rx="5.67" ry="7.62" transform="translate(553.11 2062.74) rotate(-84.32)"/><ellipse class="cls-4" cx="1453.95" cy="800.8" rx="23.84" ry="4.89" transform="translate(80.95 1733.61) rotate(-63.04)"/><ellipse class="cls-4" cx="1469.2" cy="781.59" rx="16.61" ry="6.25" transform="translate(-172.43 1054.55) rotate(-37.45)"/><ellipse class="cls-4" cx="1479.81" cy="765.31" rx="13.09" ry="5.86" transform="translate(571.75 2162.08) rotate(-84.32)"/><ellipse class="cls-4" cx="1484.4" cy="756.73" rx="5.67" ry="7.62" transform="translate(584.41 2158.91) rotate(-84.32)"/><ellipse class="cls-4" cx="1428.65" cy="789.17" rx="4.39" ry="15.66" transform="translate(-42.82 1495.3) rotate(-54.55)"/><ellipse class="cls-4" cx="1417.19" cy="777.01" rx="3.41" ry="7.81" transform="translate(-136.15 330.57) rotate(-12.7)"/><ellipse class="cls-4" cx="1459.82" cy="822.54" rx="16.61" ry="6.25" transform="translate(-213.79 740.81) rotate(-26.6)"/><ellipse class="cls-4" cx="1472.77" cy="809.24" rx="13.09" ry="5.86" transform="translate(277.92 1990.87) rotate(-73.47)"/><ellipse class="cls-4" cx="1480.27" cy="800.75" rx="5.67" ry="7.62" transform="translate(291.41 1991.98) rotate(-73.47)"/><ellipse class="cls-4" cx="1422.29" cy="807.43" rx="5.06" ry="24.67" transform="translate(115.86 1791.36) rotate(-66.57)"/><ellipse class="cls-4" cx="1401.02" cy="793.85" rx="4.84" ry="10.01" transform="matrix(0.83, -0.56, 0.56, 0.83, -204.09, 922.98)"/><path class="cls-46" d="M1678.31,653.6l-61.56,32.07a3.85,3.85,0,0,1-5.19-1.62s-24.73-30.06-25.29-48.53c-15-5.2-31.24-40.37-25.88-49.66-13.58-5.91-33.71-64.7-33.71-64.7-5.47-10.5-5.48-39.72,2.44-48.18l28.79-15c5.13-2.67,26.32,12.27,36.14,25.55,0,0,37.08,49.6,34.75,66.69,9.93-8.06,31.08,42.26,27.18,52.17,8.75-2,24,46,24,46A3.87,3.87,0,0,1,1678.31,653.6Z"/><path class="cls-47" d="M1677.55,655.45l-61.64,32.12a3.88,3.88,0,0,1-5.21-1.64s-24.83-30.25-25.43-48.8c-15-5.26-31.38-40.62-26-50-13.63-6-33.9-65.06-33.9-65.06-5.51-10.56-5.56-39.92,2.35-48.4l28.83-15c5.13-2.68,26.4,12.37,36.27,25.73,0,0,37.24,49.9,34.94,67.07,9.94-8.08,31.22,42.51,27.33,52.46,8.77-2,24.12,46.28,24.12,46.28A3.88,3.88,0,0,1,1677.55,655.45Z"/><rect class="cls-48" x="1517.61" y="442.82" width="33.79" height="14.8" rx="7.4" ry="7.4" transform="translate(-34.39 760.01) rotate(-27.52)"/><ellipse class="cls-49" cx="1530.96" cy="444.81" rx="16.25" ry="8.69" transform="translate(-32.29 757.76) rotate(-27.52)"/><ellipse class="cls-50" cx="1531.09" cy="443.65" rx="16.25" ry="8.69" transform="translate(-31.74 757.69) rotate(-27.52)"/><rect class="cls-51" x="1521.25" y="455.94" width="37.97" height="11.24" rx="5.62" ry="5.62" transform="translate(-38.98 763.95) rotate(-27.52)"/><path class="cls-52" d="M1559.21,587.93c-24.08-18.29-33.9-65.07-33.9-65.07l67.49-38.43s39.29,50.5,37.33,65.1c-.13,1,5-3.7-1.63,2.29C1606,582.44,1559.21,587.93,1559.21,587.93Z"/><ellipse class="cls-17" cx="1589.57" cy="526.63" rx="11.79" ry="15.66" transform="translate(-78.51 379.67) rotate(-13.3)"/><ellipse class="cls-18" cx="1589.86" cy="528.25" rx="11.29" ry="15.01" transform="translate(-78.87 379.78) rotate(-13.3)"/><ellipse class="cls-19" cx="1590.96" cy="532.91" rx="4.9" ry="6.51" transform="translate(-67.37 277.78) rotate(-9.77)"/><ellipse class="cls-17" cx="1560.67" cy="541.11" rx="11.79" ry="15.66" transform="translate(-56.15 879.31) rotate(-30.94)"/><ellipse class="cls-18" cx="1561.43" cy="542.56" rx="11.29" ry="15.01" transform="translate(-56.79 879.91) rotate(-30.94)"/><ellipse class="cls-19" cx="1563.89" cy="546.67" rx="4.9" ry="6.51" transform="translate(-76.07 781.44) rotate(-27.41)"/><circle class="cls-18" cx="1591.2" cy="530.66" r="2.16"/><circle class="cls-18" cx="1562.66" cy="545.54" r="2.16"/><ellipse class="cls-17" cx="1553.17" cy="522.95" rx="0.98" ry="10.13" transform="translate(854.81 2005.55) rotate(-83.39)"/><ellipse class="cls-17" cx="1580.04" cy="509.12" rx="9.56" ry="0.5" transform="translate(445.21 1720.69) rotate(-64.73)"/><path class="cls-20" d="M1560.12,563.18c4.47-3,14.31,8.18,18.9,7.18s6.38-15.18,11.41-16.18c1.46-.49,8.22,11.53,9.57,10.68s-6-12.79-5-13.81"/><path class="cls-17" d="M1341.63,679.76l0-.29c-.47-4.57,8.72-79.87,11.59-97.41,7.9-48.28,10.44,39,5.17,10.48s22-.07,36.88,1.36a10.84,10.84,0,0,0,3.5-.21l9.59-1.36a.41.41,0,0,0,.16,0c.88-.2,7.23-1.78,8.85-2.82,13.22-8.54,21.66-8.53,24-10.33,7.43-5.72.5-54.79,8.83-9.66.08.43,12.66,48.37,13,59.28a11.25,11.25,0,0,0,.64,3.44c8.14,22.76,8.75,45.24,8.8,49.33a10,10,0,0,0,.06,1.09c1.89,15.25-27.77,14.84-29.14,14.84l-83.56-1.76a19,19,0,0,1-18-14.19A9.76,9.76,0,0,1,1341.63,679.76Z"/><path class="cls-53" d="M1424.05,598.32a5.63,5.63,0,0,0,3.07-1.42c12-11,10.42-104.33,27.24-25.62.11.48,13.32,50.58,13.32,58.48,10.1,27,9.88,54.22,9.88,54.22,2.63,16.46-29.07,16-30.51,16l-92.55-1.94a8.1,8.1,0,0,1-3.14-.69c-8.73-3.92-11.14-14.3-11.22-16,0-.1,0-.2,0-.31-.5-4.79,1.07-76.78,11.27-114.62,16.81-62.31,14.07,14.54,21.09,32.42a8.23,8.23,0,0,0,8,5.21,4.21,4.21,0,0,0,.5,0Z"/><ellipse class="cls-17" cx="1414.95" cy="637.4" rx="13.75" ry="10.34" transform="translate(449.37 1852.32) rotate(-75.77)"/><ellipse class="cls-18" cx="1414.52" cy="638.78" rx="13.17" ry="9.91" transform="translate(447.71 1852.94) rotate(-75.77)"/><ellipse class="cls-19" cx="1413.48" cy="642.85" rx="5.71" ry="4.3" transform="translate(370.34 1793.08) rotate(-72.25)"/><ellipse class="cls-17" cx="1386.59" cy="636.95" rx="10.34" ry="13.75" transform="translate(-35.48 83.74) rotate(-3.42)"/><ellipse class="cls-18" cx="1386.59" cy="638.39" rx="9.91" ry="13.17" transform="translate(-35.57 83.74) rotate(-3.42)"/><ellipse class="cls-19" cx="1386.84" cy="642.58" rx="5.71" ry="4.3" transform="translate(741.66 2028.22) rotate(-89.89)"/><circle class="cls-18" cx="1414.58" cy="641.2" r="1.9"/><circle class="cls-18" cx="1386.34" cy="641.2" r="1.9"/><ellipse class="cls-17" cx="1388.12" cy="619.77" rx="0.86" ry="8.89" transform="matrix(0.56, -0.83, 0.83, 0.56, 96.18, 1420.95)"/><ellipse class="cls-17" cx="1414.63" cy="619.91" rx="8.39" ry="0.44" transform="translate(-86.89 981.72) rotate(-37.21)"/><path class="cls-20" d="M1372.87,649.05c4.11.52,5,15.11,9.15,16.55,3.89,1.36,13-9.92,16.86-8,1.59.53.16,14.15,2.16,14.26,1.78.11,4.08-13.88,6-13.88"/><ellipse class="cls-54" cx="961.1" cy="837.98" rx="3.8" ry="3.93"/><ellipse class="cls-54" cx="947.45" cy="840.86" rx="2.43" ry="2.51"/><ellipse class="cls-54" cx="966.75" cy="822.5" rx="5.5" ry="5.68"/><path class="cls-55" d="M885.06,503.75c59,105.31,28.35,105.42,2.2,120.13C873.16,631.81,877,657.5,760,561.17S659.34,416.78,699.67,381C752.29,334.24,809.71,369.12,885.06,503.75Z"/><path class="cls-56" d="M942.83,468.62c40.91,136.79,49,140.55-11.44,140.55-24.95,0-25,25.57-126.95-122.09S728,292.43,775.84,267.47C838.23,234.9,890.53,293.74,942.83,468.62Z"/><path class="cls-57" d="M1010.18,439.55c10.72,155.18,23.55,168-23.22,169.62-47.4,1.64-48.29-4.61-116.53-187.82s-33.12-225.75,19.16-239C957.81,165,996.47,241.17,1010.18,439.55Z"/><path class="cls-58" d="M1150.7,503.75c-58.94,105.31-28.35,105.42-2.2,120.13,14.1,7.93,10.23,33.62,127.23-62.71s100.69-144.39,60.36-180.2C1283.48,334.24,1226.06,369.12,1150.7,503.75Z"/><path class="cls-59" d="M1092.93,468.62c-40.91,136.79-49,140.55,11.44,140.55,25,0,25,25.57,127-122.09s76.42-194.65,28.61-219.61C1197.53,234.9,1145.23,293.74,1092.93,468.62Z"/><path class="cls-60" d="M1025.59,439.55c-10.72,155.18-23.56,168,23.22,169.62,47.39,1.64,48.29-4.61,116.53-187.82s33.11-225.75-19.17-239C1078,165,1039.29,241.17,1025.59,439.55Z"/><path class="cls-61" d="M956.94,425c24.56,165.71,23.22,185.86,67.35,185.86,39.23,0,39.54-29.7,64.69-238.78s-18.68-245.32-72.61-246.63C946,123.68,925.53,213.11,956.94,425Z"/><rect class="cls-62" x="867.65" y="599.36" width="295.82" height="187.14" rx="27.1" ry="27.1"/><ellipse class="cls-63" cx="1079.55" cy="632.31" rx="72.92" ry="54.86" transform="translate(201.33 1523.37) rotate(-75.77)"/><ellipse class="cls-18" cx="1082.17" cy="639.41" rx="69.87" ry="52.57" transform="translate(199.13 1533.93) rotate(-75.95)"/><ellipse class="cls-64" cx="951.4" cy="630.17" rx="54.86" ry="72.92" transform="translate(-90.65 164.97) rotate(-9.46)"/><ellipse class="cls-19" cx="1081.81" cy="667.3" rx="30.3" ry="22.8" transform="matrix(0.13, -0.99, 0.99, 0.13, 281.93, 1655.12)"/><circle class="cls-18" cx="1090.12" cy="657.26" r="10.07"/><ellipse class="cls-18" cx="952.22" cy="637.77" rx="52.57" ry="69.87" transform="translate(-91.89 165.21) rotate(-9.46)"/><ellipse class="cls-19" cx="957.18" cy="667.67" rx="22.8" ry="30.3" transform="translate(-28.06 42.14) rotate(-2.49)"/><circle class="cls-18" cx="963.65" cy="656.37" r="10.07"/><path class="cls-65" d="M909.63,724.14c17.52-3.51,35,11.71,52.24,15.35s37.75-4.16,54.23.83c10.52,3.51,18.9,19.42,30.05,20.29s21.62-13.5,32.6-15.5"/><ellipse class="cls-66" cx="970.23" cy="546.13" rx="3.3" ry="34.22" transform="translate(-26.25 1042.74) rotate(-55.86)"/><ellipse class="cls-66" cx="1072.34" cy="546.65" rx="32.31" ry="1.7" transform="translate(-112.27 759.81) rotate(-37.21)"/><path class="cls-40" d="M680.57,378.32q2.65,7.55-1.66,10.7a3.68,3.68,0,0,1-2.56-.15,5.29,5.29,0,0,0-2.48-.38,4.16,4.16,0,0,0-1.87,1c3.9,19.34,6.31,32.38,6.9,39.18,1.19,12.66-.5,21.49-5.2,26.58a8.64,8.64,0,0,1-4.54,2.74c-1.8.44-7-.07-15.72-1.44-3.14-.17-8.3-.85-15.55-2-7.64-1.86-16.39-8.45-26.39-19.76-9.09-10.31-18-23.09-26.45-38.43C574,376.48,566.74,358,563.64,341c-3.44-18.61-.52-30.3,8.33-34.88a19.23,19.23,0,0,1,2.8-.91c6.05-1.52,14.43-1.39,25,.47,11.27,2,19.61,5.17,25.13,9.49a51.09,51.09,0,0,1,12.17,14.37c4.28,6.92,6.65,10.67,7.16,11.23q1.93,3,4.77,7.28a10.39,10.39,0,0,1,.83,6c-.28,2.44-.86,4-1.77,4.77-1.19,1-6,1.05-14.44.37s-13.81-1.46-15.94-2.45c-2.76-1-5-3.64-6.8-8a4.59,4.59,0,0,1-.27-2.51,4.78,4.78,0,0,0-.35-2.68q-6.37-13-9.19-12.35c-4,.85-4.11,8.69,0,23.46,3.93,13.85,10,28.56,18,44.15q17.82,34.71,28.59,37.76c2.13.57,2.68-3.35,1.76-11.76A87.69,87.69,0,0,0,644,401.9c-2.43-1.06-6.62-2.17-12.64-3.29-4.8-.87-7.72-1.92-8.72-3.18-1.37-1.72-2.14-4.44-2.29-8.19s.39-6.31,1.62-7.71,3.36-2.54,6.41-3.42c4.21-1,6.71-1.74,7.48-2.2a48.38,48.38,0,0,0,7.71-5.29q4.17-3.4,6.86-4a9.66,9.66,0,0,1,1.94-.23c3.07,0,8.44,1.84,16,5.61S679.94,376.57,680.57,378.32Z"/><path class="cls-40" d="M799,416.84q.35,1.74,1.79,8.25a10.84,10.84,0,0,1,.3,5.3,4,4,0,0,1-2.42,1c-3.34.52-7.81.09-13.46-1.25-6-1.14-10.48-2.91-13.35-5.35q-1.8-1.5-6.26-10.9a196.64,196.64,0,0,0-11-20.24c-3.84,1.33-9.17,4.09-15.87,8.32s-10.78,7.55-12.36,9.87c.49,5.67,1,12.69,1.51,21q.57,2.71,1,5.15a5.38,5.38,0,0,1-1.13,4.36,1.8,1.8,0,0,1-1.21.65c-2.42.49-7.09-.24-14.1-2.14s-10.89-3.27-11.52-4.22c-1.15-1.65-2-6.12-2.57-13.45-.9-10.62-1.47-17.11-1.87-19.46q-5-3.19-6.65-7.1a15.29,15.29,0,0,1-.71-2.08c-.41-1.53,1.73-4.9,6.56-10.07q-6.33-43.25-10.49-86.75c-.21-1.57-1.2-4.32-3-8.27-1.53-3.33-2-5.52-1.33-6.58.37-.74,1.72-1.33,4-1.76,5.74-1.07,14.49-1.08,26.13.1s18.81,2.88,21.64,4.93c5.26,13.86,14.81,34.38,28,61.67C777.2,381.46,789.76,404.5,799,416.84Zm-60.27-50.62c-4.2-7.65-6.94-12.69-8.15-15.14q-6.3-12.27-11.83-25.69c-.13,6.56.23,15.56,1.17,27,.9,12,1.88,19.43,2.73,22.34C724.36,373.36,729.67,370.48,738.73,366.22Z"/><path class="cls-40" d="M949.73,407.3q-.26,8.34-2.77,9.25c-2.37.91-7.12.33-14.36-1.67-7.68-2.09-12.26-4.34-13.64-6.83a9.64,9.64,0,0,1-.87-2.85,29.91,29.91,0,0,1-.13-3.78,28.86,28.86,0,0,0-.21-4.36q-6-43.65-12.08-87.3c-3.8,12.18-7.14,39.23-8.46,81.12a8.35,8.35,0,0,0,.12,1.74,55,55,0,0,0,1.55,6.1c.82,2.79,1.29,4.56,1.42,5.33a72.84,72.84,0,0,1,.78,7.72c-.1,2.61-.92,4.23-2.47,4.89a17,17,0,0,1-5.27,1c-13.26,1.2-22.93-.7-29.19-5.9-1-.81-1.66-2.37-1.94-4.69a24,24,0,0,0-1.17-5.55c-6.93-14.12-13.27-26.47-18.9-37.06-13.62-25.62-22.73-40.55-26.27-45l18.42,75.92a29.74,29.74,0,0,0,2.92,6.71,67.32,67.32,0,0,1,3.32,6.47,45.63,45.63,0,0,1,2.49,9.12c.83,4.35.75,7.11-.22,8.28-.49.58-1.59,1-3.31,1.2a49.47,49.47,0,0,1-14-.73c-6-.89-9.8-2.13-11.32-3.76a7.41,7.41,0,0,1-1.66-3.12,22.18,22.18,0,0,1-.52-3.88,22.93,22.93,0,0,0-.61-4.25q-18.65-67.37-37.3-134.73a9.66,9.66,0,0,1,.39-5.48,7.61,7.61,0,0,1,3.17-4.47c1.83-1.16,10.34-.76,25.25,1.48,15.52,2.18,23.9,4.83,25.38,7.66a11.75,11.75,0,0,1,1.18,4.57c.22,2.72.39,4.33.5,4.84a9,9,0,0,0,1.21,3q19.64,33.39,37.43,67.1c.95-11.67,2.22-35.27,5.14-70.83,1.41-18.16,3.66-27.75,6.38-28.74a10.3,10.3,0,0,1,2.9-.61,54.14,54.14,0,0,1,10.8,1,75.86,75.86,0,0,0,11.58,1.54c9.82.28,15.48.55,17,.73,5.9.83,9.37,2.79,10.41,5.83a11.46,11.46,0,0,1,.66,2.87,23.48,23.48,0,0,1-.35,5.54,23.34,23.34,0,0,0-.35,5.34Q938.84,337,945,395.94c.13,1.28,1,3.17,2.55,5.67S949.81,406,949.73,407.3Z"/><path class="cls-40" d="M1032.34,386.15a19.27,19.27,0,0,1-2.79,7c-1.53,2.5-2.85,4-4,4.53-.31.13-.88-.09-1.72-.67a3.91,3.91,0,0,0-2-.85,1.18,1.18,0,0,0-.63.19,52.31,52.31,0,0,0-9.61,4.71,80.4,80.4,0,0,0-20.38,17.17c-10.41-5-16.24-7.68-17.19-8.16-6.61-3.23-10-5.66-10.17-7.33q-5.88-72.47-11.74-144.92c-.07-.89,1.26-2.24,4-4s4.85-2.62,6.22-2.54,4.53,1,9.08,2.71,8.21,2.58,11,2.52c3.68-.09,8.38-1.92,14.2-5.48,5.33-3.42,8.72-4.87,10.1-4.37,3,1,7.51,4.34,13.39,10s9,9.81,9.46,12.25c.24,1.15-.89,3.14-3.35,6s-4.47,4.24-6,4.24a5.47,5.47,0,0,1-2.88-.56c-.61-.39-1-.51-1.27-.38a90.36,90.36,0,0,0-12,3.76c-8.76,3.32-15.07,7.19-19,11.53q.75,15.71,1.49,31.42a100.38,100.38,0,0,1,15.33-7.43c1.82-.28,5.81,2.52,11.76,8.45s8.84,10.08,8.85,12.39c0,1.41-.76,3.09-2.3,5a11.07,11.07,0,0,1-4.46,3.69c-1.11,0-3.06.15-5.82.44-4.19.95-11.55,5.14-21.69,12.73l1,20.24A132.63,132.63,0,0,1,1002,372c5.44-3.23,8.87-4.84,10.16-4.86,1.51,0,5.4,2.74,11.49,8.31S1032.56,384.61,1032.34,386.15Z"/><path class="cls-40" d="M1128.81,416.52a15.56,15.56,0,0,1-7.06-1.51c-2.55-1.11-5-2.26-7.49-3.42-3-1.19-7.58-3.3-13.94-6.29-7.85-4.86-13.45-13.93-16.93-27.28-3-11.8-4.17-26-3.15-42.51.83-13.46,3.81-29.11,9.32-46.91,7.46-23.89,16.37-35.61,26-35.13a13.26,13.26,0,0,1,3.54.85,27.67,27.67,0,0,0,3.52,1.05c9.39-2.2,15.44-3.16,18-3a34.84,34.84,0,0,1,3.68.43c14.62,2.88,24.93,13.38,30.36,31.25,4.9,16.15,5.17,35,1.38,56.45-3.58,20.34-9.76,37.53-18.06,51.68C1149.08,407.58,1139.5,415.67,1128.81,416.52ZM1144,276c-2.55-.94-5.67,2.66-9.22,10.81s-6.57,12.15-9.15,12a5.22,5.22,0,0,1-2.44-1.2,7.85,7.85,0,0,0-2.6-1.39c-5,9.38-8.29,23-10,40.76-1.36,13.95-1.25,26,.21,36.09,1.66,11.27,4.77,17.6,9.47,19,5.52,1.61,10.93-5.19,16.57-20.39,4.94-13.31,8.84-29.27,11.44-47.89,1.77-12.63,2.39-23.28,1.78-31.95C1149.42,282.5,1147.38,277.21,1144,276Z"/><path class="cls-40" d="M1302,284c-11.35,15.65-25.86,39.88-42.7,72.85-15.23,29.8-22.81,46.9-23.85,51.05-.2.36-.87,3.27-2,8.71a20.53,20.53,0,0,1-3.19,7.77c-1.83,2.89-3.63,4.41-5.45,4.56-3.13.38-8.63-1.76-16.69-6.34s-12.58-8.22-13.34-11a12.27,12.27,0,0,1,0-5.05,33,33,0,0,0,.63-5.18c-2.15-47-2.54-88.79,1.46-125.37a18.53,18.53,0,0,0-.17-4.08,12.28,12.28,0,0,1,.37-4q2.14-6.58,6.87-7.68c1.57-.35,6.53,1.35,14.75,5.2,8.68,4,13.19,7.22,13.68,9.47q.3,2-1.79,8a15.22,15.22,0,0,1-2,3.17,7.6,7.6,0,0,0-1.73,3.6q-1.74,20.2-3,35.63c-1.87,24.68-2.57,39.39-1.69,44.16a449.35,449.35,0,0,1,21.08-43.76c9.53-17.64,17.1-32.38,22.36-44.31a61,61,0,0,1,4.19-9.39,12.07,12.07,0,0,1,7.63-5c2.13-.35,6.47,1.35,12.9,5.16C1297.23,276.3,1301.09,280.3,1302,284Z"/><path class="cls-40" d="M1346.6,418.37a24.47,24.47,0,0,1-5.51,6.15c-2.48,2.08-4.38,3.26-5.71,3.52-.36.06-.83-.27-1.43-1a3.26,3.26,0,0,0-1.67-1.23,1.4,1.4,0,0,0-.69.06,65.33,65.33,0,0,0-11.29,2.58,105.7,105.7,0,0,0-26.7,12.31c-8.22-6.84-12.87-10.54-13.61-11.19-5.18-4.4-7.58-7.39-7-9q22.59-70.27,45.19-140.55c.28-.87,2.1-1.88,5.51-3s5.75-1.54,7.06-1.19,4,1.83,7.82,4.39,7,4.09,9.82,4.59c3.65.65,9-.16,16.07-2.4,6.57-2.2,10.48-2.9,11.63-2.15,2.56,1.56,5.69,5.64,9.24,12.25s5,11.14,4.52,13.57c-.21,1.15-2.11,2.82-5.64,5s-6.05,3.15-7.59,2.85a4.83,4.83,0,0,1-2.61-1.12c-.45-.49-.81-.69-1.1-.61a104.86,104.86,0,0,0-13.23,1.2c-9.91,1.42-17.6,3.85-23.15,7.21l-10.84,30.27a121.87,121.87,0,0,1,17.94-4c1.9.09,4.71,3.56,8.24,10.41s4.75,11.37,3.86,13.58c-.55,1.35-2,2.79-4.24,4.32a14.47,14.47,0,0,1-5.83,2.63c-1.09-.21-3.06-.46-5.89-.74-4.48.07-13.35,2.61-26.25,7.82l-7,19.5a166.56,166.56,0,0,1,15.82-5.54c6.61-2,10.6-2.85,11.88-2.61,1.48.29,4.23,3.69,8,10.22S1347.42,416.94,1346.6,418.37Z"/><path class="cls-40" d="M1445.07,440.24c-.2,2.27-4.86,6.7-13.74,13.37s-14.67,9.61-17.6,8.72c-3.13-.95-4.58-3.63-4.43-8.05a23.25,23.25,0,0,0,.45-5.78q-6.81-21.72-15.24-43.5-7.93,16.77-15.86,33.56a14.39,14.39,0,0,0-1.11,5.38,13.7,13.7,0,0,1-.87,4.83c-1.72,3.62-4.63,5.16-8.69,4.64-3.17-.32-7.29-2-12.45-5-5.66-3.1-8.11-5.61-7.26-7.56a13.61,13.61,0,0,1,1.45-2.39,21.25,21.25,0,0,0,2.08-3.85q27.69-63.86,55.39-127.7a4.86,4.86,0,0,0,.45-2.4,3.76,3.76,0,0,1,.13-1.68c1.54-3.26,4.8-4.7,9.78-4.28,1.56.08,4.6,1.38,9.09,3.92s7.81,4,10,4.4,7-.35,14.91-2,14.22-1.92,18.94-.75a27.34,27.34,0,0,1,5.35,2,15.24,15.24,0,0,1,6.8,7q2.25,4.65,4.1,9.21c3.22,7.91,4.74,12.07,4.79,12.49a18.81,18.81,0,0,1-1.68,13.25c-6.91,14-28.37,28.38-61.7,44.67,2.22,5.69,6.7,19.3,12,40.72a20.33,20.33,0,0,1,2.86,3.22A16.56,16.56,0,0,1,1445.07,440.24Zm17.12-109.44c-5.5-1.37-18.34,2.05-37.69,10.7l-13.11,27.76c5.77-.94,15-5.69,28.15-14.08s21.21-15,23.79-20C1464.57,332.76,1464.19,331.3,1462.19,330.8Z"/><ellipse class="cls-67" cx="1020.8" cy="858.68" rx="89.2" ry="59.17"/><ellipse class="cls-40" cx="1018.81" cy="855.73" rx="88.81" ry="58.04"/><path class="cls-18" d="M974.86,848.47a1.23,1.23,0,0,1-.55-.16.86.86,0,0,0-.58-.1l-2.63.86q-.24,7.21-.49,14.43a4.54,4.54,0,0,0,.3,1.71,2.34,2.34,0,0,1-.09,1,1.8,1.8,0,0,1-.52,1.09.72.72,0,0,1-.26,0,10.61,10.61,0,0,1-2.35-.25,4,4,0,0,1-2-.71,1.24,1.24,0,0,1,.07-1.32,3.14,3.14,0,0,0,.37-1.06l.51-13.59-1.81.58a1.37,1.37,0,0,0-.43.25.68.68,0,0,1-.5.17q-.57-.13-1.53-1.56c-.63-.95-.9-1.6-.8-2a1.89,1.89,0,0,1,1.22-1,1.67,1.67,0,0,1,.66-.06,1.54,1.54,0,0,0,.63,0q4.44-1.41,8.87-2.78a5.59,5.59,0,0,0,.74-.36,1.25,1.25,0,0,1,.74-.16,1.11,1.11,0,0,1,.93.57,5,5,0,0,1,.34,1.22,8.29,8.29,0,0,1,.2,1.85,2.41,2.41,0,0,1-.17.93C975.67,848.31,975.37,848.44,974.86,848.47Z"/><path class="cls-18" d="M983.39,851.7a.66.66,0,0,1-.29.72c-.21.12-.4.24-.6.38q-1.66,2.67-4.54,7.22c-.09,2.91-.12,4.4-.11,4.49s.07.33.17.7a3.07,3.07,0,0,1,.14.88.77.77,0,0,1-.45.73,2,2,0,0,1-.78.16,5.78,5.78,0,0,1-2.13-.39c-1-.32-1.46-.77-1.44-1.34a2.57,2.57,0,0,1,.23-.8,3.09,3.09,0,0,0,.23-.91c.12-3.62.23-7.24.35-10.86-.15-1-.23-1.54-.23-1.58a1.08,1.08,0,0,1,.75-1.09,3,3,0,0,1,.73-.11,6.1,6.1,0,0,1,1.85.25c.65.19,1,.41,1.14.64a.7.7,0,0,1,0,.27,9.91,9.91,0,0,1-.4,1.33l0,1.31c.43-.8.84-1.6,1.26-2.39.55-1,1-1.54,1.21-1.6a2.49,2.49,0,0,1,1.67.66C982.91,850.9,983.32,851.34,983.39,851.7Z"/><path class="cls-18" d="M998.46,851.07a2,2,0,0,1,0,.41,1.63,1.63,0,0,1-.39,1,3.66,3.66,0,0,0-.57.88q-2.65,7.86-5.36,15.75l-.12,1.09c-.08.59-.26.92-.53,1a1.36,1.36,0,0,1-.29,0,4.8,4.8,0,0,1-1.71-.35,4.22,4.22,0,0,1-1.41-.75,1.12,1.12,0,0,1-.38-.83,2.13,2.13,0,0,1,.38-1,6.73,6.73,0,0,0,.43-.79c.3-1,.61-2.08.91-3.11q-2-5.39-3.88-10.78a3,3,0,0,0-.45-.53,1.86,1.86,0,0,1-.4-1.08c0-.22.43-.62,1.36-1.2a4.86,4.86,0,0,1,2.18-.89.54.54,0,0,1,.33.08,1.43,1.43,0,0,1,.59.91c.08.4.16.79.25,1.17l2.1,6.59q1.28-3.45,2.52-6.88c.11-.37.23-.73.35-1.1A1,1,0,0,1,995,850a1.7,1.7,0,0,1,.56-.1,4.61,4.61,0,0,1,1.84.4C998,850.53,998.4,850.8,998.46,851.07Z"/><path class="cls-18" d="M1017.4,865a1,1,0,0,1-.3.66.75.75,0,0,1-.64.22c-2.12-.3-3.3-.72-3.54-1.27a.54.54,0,0,1,0-.21.61.61,0,0,1,.12-.3.69.69,0,0,0,.14-.29.7.7,0,0,1,.11-.23,5.53,5.53,0,0,0,0-1,5.19,5.19,0,0,0-.93,1.31,7,7,0,0,1-1.14,1.64,2.58,2.58,0,0,1-1.87.83,1.74,1.74,0,0,1-1.2-.5,11.48,11.48,0,0,1-1-1c-.81-1-1.26-1.5-1.32-1.59a2.43,2.43,0,0,1-.52-1.44,2.2,2.2,0,0,1,.05-.44,8.53,8.53,0,0,1,3-4.58,29.06,29.06,0,0,1,5.21-3.33c0-.58-.13-1-.4-1.11s-.76.1-1.78.62a10.51,10.51,0,0,0-2.14,1.34c-.14.14-.36.34-.67.6a1,1,0,0,1-.79.17,4.48,4.48,0,0,1-1.18-1,3.9,3.9,0,0,1-1-1.19,1,1,0,0,1,.44-1.15s.36-.13,1-.33l1.88-1.11a9,9,0,0,1,3.35-1.11,1.94,1.94,0,0,1,1.32.65l1.32,1.24c.45.4.91.8,1.38,1.18a2.09,2.09,0,0,1,.81,1.46c0,3.43,0,6.85,0,10.28A2.58,2.58,0,0,1,1017.4,865Zm-4.06-7.92a5.54,5.54,0,0,0-2.15,1.59c-.44.58-.89,1.16-1.34,1.72a6.64,6.64,0,0,0-1,1.5,3.46,3.46,0,0,0-.49,1.35q0,.21.15.21c.36,0,1.17-.83,2.42-2.48A17.5,17.5,0,0,0,1013.34,857.1Z"/><path class="cls-18" d="M1030.28,851.29a5.39,5.39,0,0,1-.27.54,1.49,1.49,0,0,0-.17.6c0,4,.05,7.92.08,11.88,0,3-1,4.92-3.11,5.77a7.32,7.32,0,0,1-2.68.59,4.21,4.21,0,0,1-3-1.25,14.81,14.81,0,0,1-1.24-1.41l-.48-.52a1.07,1.07,0,0,1-.29-.62c0-.28.24-.49.77-.66a1.24,1.24,0,0,1,.31,0,4.81,4.81,0,0,1,1.35.25,2.49,2.49,0,0,1,1.11.6l.85,1.11a1.5,1.5,0,0,0,1,.63c.71.07,1.16-.43,1.36-1.52a19.1,19.1,0,0,0,.14-2.8l-.49.71a3,3,0,0,1-.53.62.86.86,0,0,1-.59.27,3.37,3.37,0,0,1-2.28-.79q-2.75-2.44-2.74-7.2a11.89,11.89,0,0,1,1.19-5.41,5.65,5.65,0,0,1,3.24-3.19.74.74,0,0,1,.28-.06,1.51,1.51,0,0,1,.91.42c.29.23.58.48.87.73.1-.3.2-.61.31-.9a.66.66,0,0,1,.52-.5,4.86,4.86,0,0,1,1.89.38c.9.3,1.41.57,1.53.79A1.15,1.15,0,0,1,1030.28,851.29Zm-4.46,6.65a25.57,25.57,0,0,0,.19-3.07c0-1.47-.23-2.29-.67-2.47s-.78.49-1.29,1.92a11.94,11.94,0,0,0-.75,3.91,15.09,15.09,0,0,0,.71,5.08A12.79,12.79,0,0,0,1025.82,857.94Z"/><path class="cls-18" d="M1044.27,865.23a.88.88,0,0,1-.3.64.7.7,0,0,1-.63.21c-2.13-.35-3.31-.79-3.56-1.33a.63.63,0,0,1,0-.22.51.51,0,0,1,.11-.3.91.91,0,0,0,.14-.28.5.5,0,0,1,.09-.23,4.08,4.08,0,0,0,0-.94,4.7,4.7,0,0,0-.91,1.28,6.49,6.49,0,0,1-1.1,1.61,2.5,2.5,0,0,1-1.86.79,1.82,1.82,0,0,1-1.21-.53,11.94,11.94,0,0,1-1-1.07l-1.35-1.61a2.55,2.55,0,0,1-.55-1.44,1.65,1.65,0,0,1,.05-.44,8.07,8.07,0,0,1,3-4.49,27.09,27.09,0,0,1,5.15-3.2,1.27,1.27,0,0,0-.43-1.12c-.17-.11-.76.08-1.76.58a10.62,10.62,0,0,0-2.12,1.28,6.57,6.57,0,0,1-.66.59.89.89,0,0,1-.78.15,4.54,4.54,0,0,1-1.21-1,4.23,4.23,0,0,1-1-1.2.91.91,0,0,1,.42-1.13,9.36,9.36,0,0,1,1-.32l1.87-1.06a8.68,8.68,0,0,1,3.33-1,2,2,0,0,1,1.32.68l1.35,1.25c.46.42.92.82,1.41,1.21a2.18,2.18,0,0,1,.83,1.47l.18,10.24A2.87,2.87,0,0,1,1044.27,865.23Zm-4.21-8a5.21,5.21,0,0,0-2.12,1.54l-1.31,1.69a6.39,6.39,0,0,0-1,1.46,3.36,3.36,0,0,0-.46,1.34c0,.14.06.21.16.22q.54,0,2.37-2.43A16.61,16.61,0,0,0,1040.06,857.25Z"/><path class="cls-18" d="M1051.57,865.44c.08.65-.13,1-.61,1.2a1.84,1.84,0,0,1-.36,0,8.7,8.7,0,0,1-2.29-.46,3.19,3.19,0,0,1-1.74-1c-.08-.15,0-.43.22-.84a3.29,3.29,0,0,0,.2-1.48c-.07-3.79-.15-7.58-.22-11.37a6.7,6.7,0,0,1-.34-1.38q0-.36.93-.33a6.62,6.62,0,0,1,2.13.55,4.3,4.3,0,0,1,1.65.92.51.51,0,0,1,.09.27,2.29,2.29,0,0,1-.28.81,2.18,2.18,0,0,0-.27.88q.12,5.44.25,10.87a1.34,1.34,0,0,0,.31.69A1.66,1.66,0,0,1,1051.57,865.44Zm-.35-18.68a.48.48,0,0,1,0,.21,6.67,6.67,0,0,1-.2,1.54c-.15.68-.3,1-.45,1.12a6.28,6.28,0,0,1-2.19-.64,5.56,5.56,0,0,1-2.07-1,.87.87,0,0,1-.08-.41,3.79,3.79,0,0,1,.32-1.53c.26-.61.55-.95.89-1a4.52,4.52,0,0,1,2,.52A3.27,3.27,0,0,1,1051.22,846.76Z"/><path class="cls-18" d="M1065.66,864.68a2.76,2.76,0,0,1,.24,1,1,1,0,0,1-.55,1.08,1.71,1.71,0,0,1-.64.06,9.88,9.88,0,0,1-2.08-.35,4,4,0,0,1-1.48-.6.62.62,0,0,1-.14-.36,2.06,2.06,0,0,1,.36-.94,2.16,2.16,0,0,0,.35-1q-.27-10.64-.47-10.72c-.24-.1-.81.69-1.69,2.37a9.36,9.36,0,0,0-1.36,4c0,1.68.1,3.37.14,5a1.27,1.27,0,0,1,.36.88,1.3,1.3,0,0,1-.83,1.37.64.64,0,0,1-.31,0,9.23,9.23,0,0,1-2-.4,3.89,3.89,0,0,1-1.5-.59.8.8,0,0,1-.16-.49,1,1,0,0,1,.27-.64,1.35,1.35,0,0,0,.29-.48q-.17-6.29-.32-12.57a1.38,1.38,0,0,0-.21-.57.79.79,0,0,1-.15-.6,1,1,0,0,1,.77-.71,5.31,5.31,0,0,1,1.91.36c1.08.32,1.68.64,1.79,1a1.56,1.56,0,0,1,0,.89,7.68,7.68,0,0,0-.25,1.07,2.82,2.82,0,0,0,.12.65,8.46,8.46,0,0,1,1-2.37c.53-.83,1.08-1.23,1.64-1.21a6,6,0,0,1,2.24.71c.93.46,1.46.86,1.61,1.21Q1065.3,853.65,1065.66,864.68Z"/><path class="cls-18" d="M1077.43,850.56a5.54,5.54,0,0,1-1,4,16.86,16.86,0,0,1-2.78,2.75,12.19,12.19,0,0,0-2.61,2.77c-.32.56-.6.81-.84.74-.58-.15-1.46-.94-2.6-2.39a.4.4,0,0,1-.09-.27,1.72,1.72,0,0,1,.37-1,26.23,26.23,0,0,1,2.86-2.79A24.73,24.73,0,0,0,1074,851c.9-1.21,1.07-2.19.54-2.93a1.74,1.74,0,0,0-1.44-.69,8.82,8.82,0,0,0-4.46,1.5.22.22,0,0,1-.15,0q-.37,0-1.17-.93a11.21,11.21,0,0,1-1.06-1.5.7.7,0,0,1,.11-.8,4.92,4.92,0,0,1,1.94-1.06,9.67,9.67,0,0,1,3.53-.6,4.57,4.57,0,0,1,2.36.71A7.7,7.7,0,0,1,1077.43,850.56Zm-5.09,14.35a.83.83,0,0,1,.06.21,1,1,0,0,1-.31.57,1.47,1.47,0,0,0-.39.59c-.11.36-.21.72-.32,1.09-.17.55-.4.78-.69.7a7.4,7.4,0,0,1-2.89-2.24.26.26,0,0,1-.09-.27c0-.07.06-.14.1-.21.11-.32.22-.64.35-1a3.09,3.09,0,0,0,.16-1.15.57.57,0,0,1,.3-.57,1.27,1.27,0,0,1,.74-.2,3.29,3.29,0,0,1,1.67,1A5.18,5.18,0,0,1,1072.34,864.91Z"/><ellipse class="cls-68" cx="972.26" cy="833.27" rx="3.89" ry="4.01"/><ellipse class="cls-68" cx="958.32" cy="836.22" rx="2.48" ry="2.56"/><ellipse class="cls-68" cx="978.04" cy="817.45" rx="5.62" ry="5.81"/></svg>