<svg id="Layer_1" data-name="Layer 1" xmlns="http://www.w3.org/2000/svg" xmlns:xlink="http://www.w3.org/1999/xlink" width="940" height="750" viewBox="0 0 940 750"><defs><style>.cls-1,.cls-13,.cls-14,.cls-2,.cls-3,.cls-4,.cls-5,.cls-6,.cls-7,.cls-8{stroke:#fff;stroke-miterlimit:10;}.cls-1{fill:url(#linear-gradient);}.cls-2{fill:url(#linear-gradient-2);}.cls-3{fill:url(#linear-gradient-3);}.cls-4{fill:url(#linear-gradient-4);}.cls-5{fill:url(#linear-gradient-5);}.cls-6{fill:url(#linear-gradient-6);}.cls-7{fill:url(#linear-gradient-7);}.cls-8{fill:url(#linear-gradient-8);}.cls-9{fill:url(#linear-gradient-9);}.cls-10,.cls-14{fill:#fff;}.cls-11{fill:url(#linear-gradient-10);}.cls-12{fill:#050505;}.cls-13{fill:none;}.cls-15{fill:#1270d0;}</style><linearGradient id="linear-gradient" x1="113.51" y1="418.78" x2="362.74" y2="418.78" gradientUnits="userSpaceOnUse"><stop offset="0.02" stop-color="#2e2e2e"/><stop offset="0.52"/></linearGradient><linearGradient id="linear-gradient-2" x1="177.84" y1="356.52" x2="418.97" y2="356.52" xlink:href="#linear-gradient"/><linearGradient id="linear-gradient-3" x1="276.48" y1="316.28" x2="464.14" y2="316.28" xlink:href="#linear-gradient"/><linearGradient id="linear-gradient-4" x1="560.68" y1="418.78" x2="809.92" y2="418.78" xlink:href="#linear-gradient"/><linearGradient id="linear-gradient-5" x1="504.46" y1="356.52" x2="745.59" y2="356.52" xlink:href="#linear-gradient"/><linearGradient id="linear-gradient-6" x1="459.29" y1="316.28" x2="646.95" y2="316.28" xlink:href="#linear-gradient"/><linearGradient id="linear-gradient-7" x1="386.45" y1="289.73" x2="540.09" y2="289.73" xlink:href="#linear-gradient"/><linearGradient id="linear-gradient-8" x1="311.48" y1="614.57" x2="607.3" y2="614.57" xlink:href="#linear-gradient"/><linearGradient id="linear-gradient-9" x1="467.25" y1="553.95" x2="579.52" y2="553.95" gradientTransform="translate(931.73 -89.52) rotate(75.77)" xlink:href="#linear-gradient"/><linearGradient id="linear-gradient-10" x1="342" y1="558.72" x2="452.83" y2="558.72" gradientTransform="translate(93.21 -63.73) rotate(9.29)" xlink:href="#linear-gradient"/></defs><title>game over ui </title><path class="cls-1" d="M328.89,425.39c58.95,105.31,28.35,105.42,2.2,120.13-14.1,7.93-10.22,33.62-127.22-62.71S103.18,338.42,143.5,302.61C196.12,255.88,253.54,290.76,328.89,425.39Z"/><path class="cls-2" d="M386.66,390.25c40.91,136.8,49,140.56-11.44,140.56-25,0-25,25.57-127-122.09s-76.41-194.65-28.6-219.61C282.06,156.54,334.36,215.38,386.66,390.25Z"/><path class="cls-3" d="M454,361.19c10.72,155.18,23.55,168-23.22,169.62-47.4,1.63-48.29-4.61-116.53-187.82s-33.12-225.75,19.16-239C401.65,86.63,440.31,162.81,454,361.19Z"/><path class="cls-4" d="M594.53,425.39c-58.94,105.31-28.34,105.42-2.19,120.13,14.1,7.93,10.22,33.62,127.22-62.71s100.69-144.39,60.37-180.2C727.31,255.88,669.89,290.76,594.53,425.39Z"/><path class="cls-5" d="M536.77,390.25c-40.91,136.8-49,140.56,11.44,140.56,24.94,0,25,25.57,126.94-122.09s76.42-194.65,28.61-219.61C641.37,156.54,589.07,215.38,536.77,390.25Z"/><path class="cls-6" d="M469.42,361.19c-10.72,155.18-23.55,168,23.22,169.62C540,532.44,540.93,526.2,609.17,343S642.29,117.24,590,104C521.78,86.63,483.12,162.81,469.42,361.19Z"/><path class="cls-7" d="M400.77,346.59C425.34,512.3,424,532.44,468.12,532.44c39.23,0,39.55-29.69,64.69-238.78S514.14,48.35,460.21,47C389.83,45.32,369.36,134.75,400.77,346.59Z"/><rect class="cls-8" x="311.48" y="521" width="295.82" height="187.14" rx="27.1" ry="27.1"/><ellipse class="cls-9" cx="523.38" cy="553.95" rx="72.92" ry="54.86" transform="translate(-142.2 925.15) rotate(-75.77)"/><ellipse class="cls-10" cx="526" cy="561.04" rx="69.87" ry="52.57" transform="translate(-145.97 935.08) rotate(-75.95)"/><ellipse class="cls-11" cx="395.23" cy="551.81" rx="54.86" ry="72.92" transform="translate(-85.33 72.48) rotate(-9.46)"/><ellipse class="cls-12" cx="525.64" cy="588.94" rx="30.3" ry="22.8" transform="matrix(0.13, -0.99, 0.99, 0.13, -125.55, 1035.13)"/><circle class="cls-10" cx="533.95" cy="578.9" r="10.07"/><ellipse class="cls-10" cx="396.05" cy="559.41" rx="52.57" ry="69.87" transform="translate(-86.57 72.72) rotate(-9.46)"/><ellipse class="cls-12" cx="401.01" cy="589.31" rx="22.8" ry="30.3" transform="translate(-25.18 17.95) rotate(-2.49)"/><circle class="cls-10" cx="407.48" cy="578" r="10.07"/><path class="cls-13" d="M353.46,645.78c17.52-3.51,35,11.71,52.24,15.35s37.75-4.16,54.23.83c10.53,3.51,18.9,19.42,30.05,20.29s21.62-13.5,32.6-15.5"/><ellipse class="cls-14" cx="414.06" cy="467.77" rx="3.3" ry="34.22" transform="translate(-205.47 548.01) rotate(-55.86)"/><ellipse class="cls-14" cx="516.18" cy="468.29" rx="32.31" ry="1.7" transform="translate(-178.11 407.5) rotate(-37.21)"/><path class="cls-15" d="M124.4,300q2.67,7.55-1.66,10.7a3.68,3.68,0,0,1-2.56-.15,5.29,5.29,0,0,0-2.48-.38,4.16,4.16,0,0,0-1.87,1c3.9,19.34,6.31,32.38,6.9,39.18,1.19,12.66-.5,21.49-5.2,26.58a8.6,8.6,0,0,1-4.54,2.74c-1.8.44-7-.07-15.72-1.45-3.14-.16-8.3-.85-15.55-2-7.63-1.86-16.38-8.45-26.39-19.76-9.08-10.31-18-23.09-26.45-38.43-11-19.91-18.31-38.36-21.41-55.41C4,244,6.94,232.32,15.8,227.74a19,19,0,0,1,2.81-.91c6-1.52,14.42-1.39,25,.47,11.27,2,19.62,5.17,25.13,9.49a51.28,51.28,0,0,1,12.18,14.37c4.27,6.92,6.64,10.67,7.15,11.23q1.93,3,4.78,7.28a10.31,10.31,0,0,1,.82,6c-.28,2.44-.86,4-1.77,4.77-1.19,1-6,1-14.44.37s-13.81-1.46-15.94-2.45q-4.14-1.47-6.8-8a4.5,4.5,0,0,1-.26-2.51,4.83,4.83,0,0,0-.36-2.69q-6.37-13-9.19-12.34c-4.05.85-4.11,8.69,0,23.45,3.94,13.86,10,28.57,18,44.16q17.84,34.71,28.59,37.76c2.14.57,2.68-3.35,1.77-11.76a88.26,88.26,0,0,0-5.4-22.93c-2.43-1-6.62-2.16-12.64-3.28-4.8-.87-7.72-1.92-8.72-3.18-1.36-1.72-2.13-4.44-2.29-8.19s.39-6.31,1.62-7.71,3.37-2.54,6.41-3.42c4.22-1,6.71-1.74,7.48-2.2a47.92,47.92,0,0,0,7.71-5.29q4.17-3.4,6.87-4a9.48,9.48,0,0,1,1.93-.23c3.07,0,8.45,1.84,16,5.61S123.77,298.2,124.4,300Z"/><path class="cls-15" d="M242.83,338.48q.34,1.74,1.79,8.25a10.6,10.6,0,0,1,.3,5.3,4,4,0,0,1-2.42,1c-3.34.52-7.81.09-13.46-1.25-6-1.14-10.48-2.91-13.35-5.35-1.2-1-3.27-4.63-6.26-10.9a196.64,196.64,0,0,0-11-20.24c-3.84,1.33-9.17,4.09-15.86,8.32s-10.79,7.55-12.37,9.87c.5,5.67,1,12.69,1.52,21,.38,1.81.69,3.52,1,5.15a5.42,5.42,0,0,1-1.14,4.36,1.8,1.8,0,0,1-1.21.65c-2.42.49-7.09-.24-14.1-2.14s-10.89-3.27-11.52-4.22c-1.15-1.65-2-6.12-2.56-13.45-.91-10.62-1.47-17.11-1.88-19.46-3.32-2.13-5.55-4.5-6.65-7.1a16.8,16.8,0,0,1-.71-2.08c-.41-1.53,1.73-4.9,6.56-10.07q-6.31-43.24-10.49-86.75c-.21-1.57-1.2-4.32-3-8.28q-2.3-5-1.34-6.57c.37-.74,1.72-1.33,4-1.76,5.74-1.07,14.5-1.08,26.13.1s18.81,2.88,21.65,4.93c5.25,13.86,14.8,34.38,28,61.66C221,303.1,233.6,326.14,242.83,338.48Zm-60.27-50.62c-4.2-7.65-6.93-12.69-8.15-15.14q-6.3-12.27-11.83-25.69c-.13,6.56.22,15.56,1.17,27,.9,12,1.88,19.43,2.73,22.34C168.19,295,173.5,292.12,182.56,287.86Z"/><path class="cls-15" d="M393.57,328.94c-.18,5.56-1.09,8.64-2.77,9.25-2.37.91-7.13.33-14.37-1.67-7.67-2.09-12.25-4.34-13.64-6.83a9.35,9.35,0,0,1-.86-2.85,29.43,29.43,0,0,1-.14-3.78,30.43,30.43,0,0,0-.2-4.36q-6-43.65-12.08-87.3c-3.81,12.18-7.15,39.23-8.47,81.12a9.09,9.09,0,0,0,.12,1.74,57.4,57.4,0,0,0,1.55,6.1c.83,2.79,1.3,4.56,1.42,5.33a67.57,67.57,0,0,1,.78,7.72q-.15,3.9-2.47,4.88a16.65,16.65,0,0,1-5.26,1c-13.26,1.19-22.94-.7-29.2-5.9-1-.81-1.66-2.37-1.93-4.69a25.19,25.19,0,0,0-1.17-5.55C298,309.08,291.6,296.73,286,286.14c-13.62-25.62-22.72-40.55-26.27-45l18.42,75.92A30.22,30.22,0,0,0,281,323.8a64.87,64.87,0,0,1,3.32,6.47,46.07,46.07,0,0,1,2.5,9.12q1.23,6.53-.22,8.28c-.49.58-1.6,1-3.32,1.2a49.46,49.46,0,0,1-14-.73c-6-.89-9.81-2.13-11.31-3.76a7.31,7.31,0,0,1-1.67-3.12,22.18,22.18,0,0,1-.52-3.88,23.2,23.2,0,0,0-.61-4.26L217.9,198.4a9.65,9.65,0,0,1,.38-5.48,7.71,7.71,0,0,1,3.17-4.48c1.83-1.15,10.34-.75,25.26,1.49,15.51,2.18,23.89,4.83,25.38,7.66a11.88,11.88,0,0,1,1.18,4.57c.22,2.72.38,4.33.5,4.84a9,9,0,0,0,1.2,3q19.63,33.39,37.44,67.1c.95-11.67,2.21-35.28,5.13-70.83,1.41-18.16,3.67-27.75,6.38-28.74a10.3,10.3,0,0,1,2.9-.61,54.09,54.09,0,0,1,10.8,1,75.86,75.86,0,0,0,11.58,1.54c9.83.28,15.48.55,17,.72,5.9.84,9.37,2.8,10.41,5.84a11,11,0,0,1,.66,2.87,23.92,23.92,0,0,1-.34,5.54,23.46,23.46,0,0,0-.36,5.34q6.13,58.93,12.26,117.86.19,1.92,2.55,5.67C392.91,325.75,393.64,327.65,393.57,328.94Z"/><path class="cls-15" d="M476.18,307.79a19.31,19.31,0,0,1-2.8,7c-1.52,2.5-2.85,4-4,4.53-.31.13-.88-.09-1.72-.67a4,4,0,0,0-2-.86,1.23,1.23,0,0,0-.62.2,51.76,51.76,0,0,0-9.62,4.71A80.18,80.18,0,0,0,435,339.9c-10.42-5-16.25-7.68-17.2-8.16-6.61-3.24-10-5.66-10.17-7.33q-5.86-72.46-11.74-144.92c-.07-.89,1.26-2.24,4-4s4.85-2.62,6.22-2.54,4.53,1,9.08,2.71,8.21,2.58,11,2.52c3.69-.09,8.39-1.92,14.2-5.48,5.33-3.42,8.73-4.87,10.1-4.37,3,1,7.51,4.34,13.39,10s9,9.8,9.46,12.24c.24,1.16-.89,3.15-3.35,6s-4.46,4.25-6,4.25a5.36,5.36,0,0,1-2.88-.57c-.6-.38-1-.5-1.26-.38a90.89,90.89,0,0,0-12,3.77c-8.76,3.32-15.08,7.19-19,11.52q.75,15.72,1.49,31.43a99.45,99.45,0,0,1,15.33-7.43c1.83-.28,5.81,2.52,11.76,8.45s8.84,10.08,8.86,12.39q0,2.11-2.31,5a11.07,11.07,0,0,1-4.46,3.69c-1.11,0-3.05.15-5.81.44-4.19.94-11.55,5.14-21.7,12.73l1,20.24a131.37,131.37,0,0,1,12.77-8.47c5.45-3.24,8.87-4.84,10.16-4.86,1.51,0,5.4,2.74,11.49,8.31S476.39,306.25,476.18,307.79Z"/><path class="cls-15" d="M572.64,338.16a15.56,15.56,0,0,1-7.06-1.51c-2.54-1.12-5-2.26-7.48-3.42-3-1.19-7.59-3.3-14-6.3-7.84-4.85-13.45-13.92-16.93-27.27-3-11.8-4.17-26-3.15-42.51.84-13.46,3.82-29.11,9.32-46.91,7.46-23.89,16.37-35.61,26-35.13a13.26,13.26,0,0,1,3.54.85,27.67,27.67,0,0,0,3.52,1c9.39-2.2,15.44-3.16,18-3a35.33,35.33,0,0,1,3.69.43c14.61,2.88,24.92,13.38,30.36,31.24,4.89,16.16,5.16,35,1.38,56.46-3.59,20.34-9.77,37.53-18.07,51.68C592.91,329.21,583.33,337.3,572.64,338.16Zm15.2-140.57c-2.55-.94-5.67,2.66-9.21,10.81s-6.57,12.15-9.15,12a5.17,5.17,0,0,1-2.44-1.2,8,8,0,0,0-2.61-1.39c-5,9.38-8.29,23-10,40.76-1.36,13.95-1.25,26,.21,36.08,1.66,11.28,4.77,17.61,9.47,19,5.53,1.61,10.93-5.19,16.57-20.39,4.94-13.32,8.83-29.27,11.45-47.89,1.76-12.63,2.38-23.28,1.77-31.95C593.25,204.14,591.21,198.84,587.84,197.59Z"/><path class="cls-15" d="M745.84,205.61c-11.35,15.65-25.87,39.88-42.71,72.84-15.23,29.81-22.8,46.91-23.85,51.06-.2.36-.87,3.27-2,8.71a20.53,20.53,0,0,1-3.19,7.77c-1.82,2.89-3.63,4.4-5.45,4.56-3.13.38-8.63-1.76-16.69-6.34s-12.57-8.22-13.34-11a12.63,12.63,0,0,1,0-5.05,33.09,33.09,0,0,0,.63-5.18c-2.14-47-2.54-88.79,1.46-125.37a18,18,0,0,0-.17-4.09,12,12,0,0,1,.38-4q2.14-6.58,6.86-7.68c1.57-.36,6.53,1.35,14.75,5.19,8.68,4,13.19,7.23,13.68,9.48.2,1.32-.4,4-1.79,8a15,15,0,0,1-2,3.18,7.48,7.48,0,0,0-1.72,3.59q-1.75,20.22-3,35.64c-1.88,24.68-2.58,39.39-1.7,44.16a449.8,449.8,0,0,1,21.09-43.76c9.52-17.64,17.09-32.38,22.35-44.31a61.42,61.42,0,0,1,4.19-9.4,12.1,12.1,0,0,1,7.63-5c2.14-.36,6.48,1.35,12.9,5.16C741.06,197.94,744.93,201.94,745.84,205.61Z"/><path class="cls-15" d="M790.43,340a24.41,24.41,0,0,1-5.5,6.14c-2.49,2.09-4.39,3.27-5.72,3.53-.36.06-.83-.27-1.43-1a3.22,3.22,0,0,0-1.67-1.23,1.4,1.4,0,0,0-.69.06,64.62,64.62,0,0,0-11.29,2.58,105.48,105.48,0,0,0-26.69,12.31c-8.23-6.84-12.88-10.54-13.62-11.19-5.18-4.4-7.58-7.39-7.05-9Q739.36,271.95,762,201.67c.28-.87,2.11-1.88,5.51-3s5.76-1.54,7.06-1.19,4.05,1.83,7.82,4.39,7,4.09,9.82,4.59c3.65.65,9-.16,16.07-2.4,6.57-2.2,10.48-2.9,11.63-2.15,2.56,1.56,5.69,5.64,9.24,12.25s5,11.14,4.53,13.57c-.22,1.15-2.12,2.82-5.65,5s-6,3.15-7.59,2.85a4.83,4.83,0,0,1-2.61-1.12c-.45-.49-.81-.69-1.1-.61a104.86,104.86,0,0,0-13.23,1.2c-9.9,1.42-17.61,3.85-23.15,7.21q-5.41,15.13-10.84,30.27a121.87,121.87,0,0,1,17.94-4c1.9.09,4.71,3.56,8.24,10.4s4.75,11.38,3.86,13.59q-.82,2-4.24,4.32a14.35,14.35,0,0,1-5.83,2.63c-1.09-.21-3.06-.46-5.88-.74-4.49.07-13.36,2.61-26.26,7.82q-3.48,9.75-7,19.5a166.56,166.56,0,0,1,15.82-5.54c6.61-2,10.6-2.85,11.88-2.61,1.49.29,4.24,3.69,8,10.22S791.25,338.58,790.43,340Z"/><path class="cls-15" d="M888.9,361.88c-.2,2.27-4.86,6.69-13.74,13.37s-14.67,9.61-17.6,8.72c-3.12-1-4.58-3.63-4.42-8.06a24.12,24.12,0,0,0,.45-5.77q-6.83-21.72-15.25-43.51L822.48,360.2a14.59,14.59,0,0,0-1.11,5.38,13.74,13.74,0,0,1-.86,4.83q-2.6,5.43-8.7,4.64c-3.16-.32-7.29-2-12.45-5-5.66-3.1-8.11-5.61-7.26-7.56a13.25,13.25,0,0,1,1.45-2.39,21,21,0,0,0,2.08-3.85Q823.34,292.4,851,228.56a4.88,4.88,0,0,0,.45-2.4,3.59,3.59,0,0,1,.14-1.68c1.54-3.26,4.79-4.7,9.78-4.28,1.55.07,4.59,1.37,9.08,3.92s7.81,4,10,4.4,7-.36,14.91-2,14.22-1.92,18.94-.75a27.11,27.11,0,0,1,5.35,2,15.2,15.2,0,0,1,6.8,7q2.26,4.65,4.1,9.21c3.22,7.91,4.74,12.07,4.79,12.49a18.81,18.81,0,0,1-1.68,13.25c-6.91,14-28.37,28.38-61.7,44.67,2.22,5.69,6.71,19.3,12,40.72a19.88,19.88,0,0,1,2.86,3.22A15.94,15.94,0,0,1,888.9,361.88ZM906,252.44c-5.5-1.37-18.34,2.05-37.68,10.7Q861.79,277,855.22,290.9c5.77-.95,15-5.69,28.15-14.08s21.21-15,23.8-20Q909,253.19,906,252.44Z"/></svg>