<svg id="Layer_1" data-name="Layer 1" xmlns="http://www.w3.org/2000/svg" xmlns:xlink="http://www.w3.org/1999/xlink" width="1920" height="1080" viewBox="0 0 1920 1080"><defs><style>.cls-1{fill:url(#linear-gradient);}.cls-2,.cls-8{fill:#cff;}.cls-2{opacity:0.2;}.cls-3{fill:#009bca;}.cls-4,.cls-9{fill:#0081ca;}.cls-5{fill:#e6b15f;}.cls-6{fill:#fc6;}.cls-7{fill:#ffdb8f;}.cls-9{stroke:#0081ca;}.cls-20,.cls-42,.cls-9{stroke-linecap:round;}.cls-20,.cls-42,.cls-55,.cls-56,.cls-57,.cls-58,.cls-59,.cls-60,.cls-61,.cls-62,.cls-9{stroke-linejoin:round;}.cls-20,.cls-9{stroke-width:2px;}.cls-10{fill:url(#linear-gradient-2);}.cls-11{fill:url(#linear-gradient-3);}.cls-12{fill:url(#linear-gradient-4);}.cls-13{fill:url(#linear-gradient-5);}.cls-14{fill:url(#linear-gradient-6);}.cls-15{fill:url(#linear-gradient-7);}.cls-16{fill:url(#linear-gradient-8);}.cls-17{fill:#1a6172;}.cls-18{fill:#fff;}.cls-19{fill:#050505;}.cls-20,.cls-42,.cls-45{fill:none;}.cls-20{stroke:#000;}.cls-21{fill:#42cbea;}.cls-22{fill:url(#linear-gradient-9);}.cls-23{fill:url(#linear-gradient-10);}.cls-24{fill:#3a6d19;}.cls-25{fill:url(#linear-gradient-11);}.cls-26{fill:#d88a55;}.cls-27{fill:url(#linear-gradient-12);}.cls-28{fill:url(#linear-gradient-13);}.cls-29{fill:#3b7515;}.cls-30{fill:url(#linear-gradient-14);}.cls-31{fill:#29590a;}.cls-32{fill:url(#linear-gradient-15);}.cls-33{fill:#d6551a;}.cls-34{fill:#c63;}.cls-35{fill:#dd6b1d;}.cls-36{fill:#d87a35;}.cls-37{fill:#ad5e1e;}.cls-38{fill:url(#linear-gradient-16);}.cls-39{fill:#315916;}.cls-40{fill:#1270d0;}.cls-41{fill:#f9f9f9;}.cls-42{stroke:#29590a;}.cls-43{fill:#78c943;}.cls-44{fill:#c69;}.cls-46{fill:#c39;}.cls-47{fill:url(#linear-gradient-17);}.cls-48{fill:#603;}.cls-49{fill:#f9c;}.cls-50{fill:url(#linear-gradient-18);}.cls-51{fill:url(#linear-gradient-19);}.cls-52{fill:#c60;}.cls-53{fill:#fc9;}.cls-54{fill:#f93;}.cls-55,.cls-56,.cls-57,.cls-58,.cls-59,.cls-60,.cls-61,.cls-62{stroke-width:16px;}.cls-55{fill:url(#linear-gradient-20);stroke:url(#linear-gradient-21);}.cls-56{fill:url(#linear-gradient-22);stroke:url(#linear-gradient-23);}.cls-57{fill:url(#linear-gradient-24);stroke:url(#linear-gradient-25);}.cls-58{fill:url(#linear-gradient-26);stroke:url(#linear-gradient-27);}.cls-59{fill:url(#linear-gradient-28);stroke:url(#linear-gradient-29);}.cls-60{fill:url(#linear-gradient-30);stroke:url(#linear-gradient-31);}.cls-61{fill:url(#linear-gradient-32);stroke:url(#linear-gradient-33);}.cls-62{fill:url(#linear-gradient-34);stroke:url(#linear-gradient-35);}.cls-63{fill:#ffffb5;}.cls-64{opacity:0.77;fill:url(#linear-gradient-36);}.cls-65{fill:url(#linear-gradient-37);}.cls-66{opacity:0.76;}</style><linearGradient id="linear-gradient" x1="-2921.5" y1="1079" x2="-2921.5" y2="5" gradientTransform="matrix(-1, 0, 0, 1, -1962, 0)" gradientUnits="userSpaceOnUse"><stop offset="0" stop-color="#55a7fc"/><stop offset="0" stop-color="#58c9fd"/><stop offset="0.25" stop-color="#5dc8ff"/><stop offset="0.71" stop-color="#00d3db"/><stop offset="1" stop-color="#c9d5e2"/></linearGradient><linearGradient id="linear-gradient-2" x1="704.44" y1="1301.81" x2="796.86" y2="1301.81" gradientTransform="translate(-445.51 -373.66) rotate(-27.52)" gradientUnits="userSpaceOnUse"><stop offset="0.47" stop-color="#01687f"/><stop offset="1" stop-color="#42cbea"/></linearGradient><linearGradient id="linear-gradient-3" x1="702.8" y1="1302.45" x2="795.34" y2="1302.45" gradientTransform="translate(-445.51 -373.66) rotate(-27.52)" gradientUnits="userSpaceOnUse"><stop offset="0.02" stop-color="#fff"/><stop offset="1" stop-color="#42cbea"/></linearGradient><linearGradient id="linear-gradient-4" x1="734.75" y1="1169.55" x2="768.54" y2="1169.55" gradientTransform="translate(9.86 -853.33)" xlink:href="#linear-gradient-2"/><linearGradient id="linear-gradient-5" x1="734.75" y1="1163.11" x2="767.26" y2="1163.11" gradientTransform="translate(6.96 -852.31)" xlink:href="#linear-gradient-2"/><linearGradient id="linear-gradient-6" x1="735.4" y1="1162.15" x2="767.9" y2="1162.15" gradientTransform="translate(6.44 -852.5)" gradientUnits="userSpaceOnUse"><stop offset="0.3" stop-color="#3cc"/><stop offset="0.79" stop-color="#42cbea"/></linearGradient><linearGradient id="linear-gradient-7" x1="732.5" y1="1182.26" x2="770.47" y2="1182.26" gradientTransform="translate(15.75 -854.7)" xlink:href="#linear-gradient-3"/><linearGradient id="linear-gradient-8" x1="704.18" y1="1268.68" x2="793.68" y2="1268.68" gradientTransform="translate(-445.51 -373.66) rotate(-27.52)" xlink:href="#linear-gradient-6"/><linearGradient id="linear-gradient-9" x1="1265.61" y1="450.96" x2="1297.15" y2="450.96" gradientTransform="translate(898.4 -852.36) rotate(54.24)" gradientUnits="userSpaceOnUse"><stop offset="0" stop-color="#42cbea"/><stop offset="0.4" stop-color="#44ccea"/><stop offset="0.54" stop-color="#4bcdeb"/><stop offset="0.64" stop-color="#56d1ec"/><stop offset="0.72" stop-color="#67d5ee"/><stop offset="0.79" stop-color="#7ddbf1"/><stop offset="0.86" stop-color="#99e3f4"/><stop offset="0.91" stop-color="#b9ecf7"/><stop offset="0.96" stop-color="#ddf6fb"/><stop offset="1" stop-color="#fff"/></linearGradient><linearGradient id="linear-gradient-10" x1="1172.53" y1="560.64" x2="1205.84" y2="560.64" gradientTransform="translate(835.15 -705.51) rotate(49.14)" gradientUnits="userSpaceOnUse"><stop offset="0.03" stop-color="#fff"/><stop offset="0.42" stop-color="#48cdeb"/><stop offset="0.63" stop-color="#48cdeb"/><stop offset="1" stop-color="#42cbea"/></linearGradient><linearGradient id="linear-gradient-11" x1="99.5" y1="-282.96" x2="222.82" y2="-211.75" gradientTransform="translate(59.83 929.49) rotate(52.34)" gradientUnits="userSpaceOnUse"><stop offset="0.24" stop-color="#3b7218"/><stop offset="0.94" stop-color="#83c458"/></linearGradient><linearGradient id="linear-gradient-12" x1="-174.03" y1="729.32" x2="-144.1" y2="746.61" gradientTransform="matrix(1.21, 0.07, 0.55, 1.2, 3.12, -21.89)" xlink:href="#linear-gradient-11"/><linearGradient id="linear-gradient-13" x1="159.7" y1="848.95" x2="242.98" y2="897.03" gradientTransform="matrix(1, 0, 0, 1, 0, 0)" xlink:href="#linear-gradient-11"/><linearGradient id="linear-gradient-14" x1="184.4" y1="881.41" x2="236.76" y2="911.64" gradientTransform="matrix(1, 0, 0, 1, 0, 0)" xlink:href="#linear-gradient-11"/><linearGradient id="linear-gradient-15" x1="443.46" y1="556.77" x2="534.14" y2="547.51" gradientTransform="translate(83.78 254.74) rotate(15.83)" gradientUnits="userSpaceOnUse"><stop offset="0.24" stop-color="#3b7218"/><stop offset="0.82" stop-color="#83c458"/></linearGradient><linearGradient id="linear-gradient-16" x1="506.23" y1="271.87" x2="528.73" y2="439.03" gradientTransform="translate(40.29 293.98) rotate(14.23)" xlink:href="#linear-gradient-11"/><linearGradient id="linear-gradient-17" x1="1557.38" y1="654.2" x2="1652.11" y2="654.2" gradientUnits="userSpaceOnUse"><stop offset="0" stop-color="#fff"/><stop offset="0" stop-color="#ed1e79"/><stop offset="0.62" stop-color="#ff7bac"/></linearGradient><linearGradient id="linear-gradient-18" x1="-1773.25" y1="-1813.02" x2="-1505.99" y2="-1813.02" gradientTransform="translate(-735 1962) rotate(90)" gradientUnits="userSpaceOnUse"><stop offset="0" stop-color="#f8fdfe"/><stop offset="0" stop-color="#42cbea"/><stop offset="0.67" stop-color="#f9fdfe"/><stop offset="0.99" stop-color="#70d0e2"/></linearGradient><linearGradient id="linear-gradient-19" x1="578.15" y1="721.08" x2="741.63" y2="721.08" gradientTransform="translate(168.63 78.64) rotate(11.21)" gradientUnits="userSpaceOnUse"><stop offset="0" stop-color="#f15a24"/><stop offset="0.75" stop-color="#f7931e"/></linearGradient><linearGradient id="linear-gradient-20" x1="642.28" y1="481.7" x2="900.18" y2="481.7" gradientTransform="matrix(1, 0, 0, 1, 0, 0)" xlink:href="#linear-gradient-19"/><linearGradient id="linear-gradient-21" x1="634.28" y1="481.7" x2="908.18" y2="481.7" gradientUnits="userSpaceOnUse"><stop offset="0" stop-color="#f15a24"/><stop offset="0.73" stop-color="#f7931e"/></linearGradient><linearGradient id="linear-gradient-22" x1="708.84" y1="417.27" x2="958.36" y2="417.27" gradientTransform="matrix(1, 0, 0, 1, 0, 0)" xlink:href="#linear-gradient-19"/><linearGradient id="linear-gradient-23" x1="700.84" y1="417.27" x2="966.36" y2="417.27" xlink:href="#linear-gradient-21"/><linearGradient id="linear-gradient-24" x1="810.92" y1="375.63" x2="1005.11" y2="375.63" gradientTransform="matrix(1, 0, 0, 1, 0, 0)" xlink:href="#linear-gradient-19"/><linearGradient id="linear-gradient-25" x1="802.92" y1="375.63" x2="1013.11" y2="375.63" xlink:href="#linear-gradient-21"/><linearGradient id="linear-gradient-26" x1="1105" y1="481.7" x2="1362.9" y2="481.7" gradientTransform="matrix(1, 0, 0, 1, 0, 0)" xlink:href="#linear-gradient-19"/><linearGradient id="linear-gradient-27" x1="1097" y1="481.7" x2="1370.9" y2="481.7" xlink:href="#linear-gradient-21"/><linearGradient id="linear-gradient-28" x1="1046.82" y1="417.27" x2="1296.34" y2="417.27" gradientTransform="matrix(1, 0, 0, 1, 0, 0)" xlink:href="#linear-gradient-19"/><linearGradient id="linear-gradient-29" x1="1038.82" y1="417.27" x2="1304.34" y2="417.27" xlink:href="#linear-gradient-21"/><linearGradient id="linear-gradient-30" x1="1000.08" y1="375.63" x2="1194.27" y2="375.63" gradientTransform="matrix(1, 0, 0, 1, 0, 0)" xlink:href="#linear-gradient-19"/><linearGradient id="linear-gradient-31" x1="992.08" y1="375.63" x2="1202.27" y2="375.63" xlink:href="#linear-gradient-21"/><linearGradient id="linear-gradient-32" x1="924.71" y1="348.16" x2="1083.69" y2="348.16" gradientTransform="matrix(1, 0, 0, 1, 0, 0)" xlink:href="#linear-gradient-19"/><linearGradient id="linear-gradient-33" x1="916.71" y1="348.16" x2="1091.69" y2="348.16" xlink:href="#linear-gradient-21"/><linearGradient id="linear-gradient-34" x1="847.14" y1="687.68" x2="1153.24" y2="687.68" gradientTransform="matrix(1, 0, 0, 1, 0, 0)" xlink:href="#linear-gradient-19"/><linearGradient id="linear-gradient-35" x1="839.14" y1="687.68" x2="1161.24" y2="687.68" xlink:href="#linear-gradient-21"/><linearGradient id="linear-gradient-36" x1="913.64" y1="866.36" x2="1096.02" y2="866.36" gradientTransform="matrix(1, 0, 0, 1, 0, 0)" xlink:href="#linear-gradient-19"/><linearGradient id="linear-gradient-37" x1="912" y1="863.34" x2="1093.58" y2="863.34" gradientTransform="matrix(1, 0, 0, 1, 0, 0)" xlink:href="#linear-gradient-19"/></defs><title>level up scene</title><rect class="cls-1" x="5" y="5" width="1909" height="1074"/><polyline class="cls-2" points="360 12 448.3 7.99 1039 1079"/><polyline class="cls-2" points="1532.16 6.83 1610.28 9.29 988 1085"/><polyline class="cls-2" points="660.62 8.57 744.73 5.16 1024 1079"/><polyline class="cls-2" points="1292 8 1377.44 9.56 975.94 1023.51"/><polyline class="cls-2" points="1818 5 1914 8 1077.55 976.95"/><polyline class="cls-2" points="120 5 211 8 905.53 1028.3"/><ellipse class="cls-3" cx="398.05" cy="404.59" rx="7.67" ry="37.43" transform="translate(-44.16 48.8) rotate(-6.65)"/><ellipse class="cls-3" cx="386.06" cy="367.99" rx="9.82" ry="26.08" transform="translate(-136.77 262.62) rotate(-32.23)"/><ellipse class="cls-3" cx="379.31" cy="338.23" rx="20.56" ry="9.2" transform="translate(-43.77 619.8) rotate(-75.37)"/><ellipse class="cls-3" cx="416.74" cy="388.72" rx="32.22" ry="8.97" transform="translate(-148.8 459) rotate(-50.09)"/><ellipse class="cls-3" cx="433.21" cy="358.61" rx="7.03" ry="15.95" transform="translate(-12.12 15.17) rotate(-1.98)"/><ellipse class="cls-3" cx="396.68" cy="450.26" rx="25.16" ry="7.06" transform="translate(-139.19 720.32) rotate(-75.37)"/><ellipse class="cls-3" cx="398.45" cy="483.85" rx="6.75" ry="26.09" transform="translate(-133.93 153.02) rotate(-18.67)"/><ellipse class="cls-3" cx="377.24" cy="323.1" rx="8.9" ry="11.97" transform="translate(-30.68 606.48) rotate(-75.37)"/><ellipse class="cls-3" cx="418.38" cy="448.58" rx="37.43" ry="7.67" transform="translate(-190.33 524.3) rotate(-54.09)"/><ellipse class="cls-3" cx="446.72" cy="422.51" rx="26.08" ry="9.82" transform="translate(-147.48 264.38) rotate(-28.5)"/><ellipse class="cls-3" cx="467.16" cy="399.85" rx="20.56" ry="9.2" transform="translate(-37.74 750.85) rotate(-75.37)"/><ellipse class="cls-3" cx="476.37" cy="387.67" rx="8.9" ry="11.97" transform="translate(-19.07 750.65) rotate(-75.37)"/><ellipse class="cls-3" cx="381.99" cy="424.36" rx="6.89" ry="24.58" transform="translate(-188.47 400.38) rotate(-45.6)"/><ellipse class="cls-3" cx="367.18" cy="402.71" rx="5.35" ry="12.26" transform="translate(-25.55 24.87) rotate(-3.75)"/><ellipse class="cls-3" cx="422.17" cy="483.73" rx="26.08" ry="9.82" transform="translate(-126.81 150.8) rotate(-17.65)"/><ellipse class="cls-3" cx="445.51" cy="466.26" rx="20.56" ry="9.2" transform="translate(-167.07 667.84) rotate(-64.52)"/><ellipse class="cls-3" cx="459.21" cy="454.93" rx="8.9" ry="11.97" transform="translate(-149.04 673.74) rotate(-64.52)"/><ellipse class="cls-3" cx="367.65" cy="451.13" rx="7.94" ry="38.74" transform="translate(-210.22 520) rotate(-57.62)"/><ellipse class="cls-3" cx="337.99" cy="424.87" rx="7.59" ry="15.72" transform="translate(-148.67 184.22) rotate(-25.19)"/><path class="cls-3" d="M1712,669c-30,37-62,142.79-62,142.79C1487.55,772.52,1266,986,1148,981c-328.81,28.07-674-480-827-531S5,498,5,498V944H1922c-2.13,12.58-.16-395.61,0-421C1922,523,1742,632,1712,669Z"/><path class="cls-4" d="M4,1024l1918.78.93c-2.13,19.58.06-589.42.22-628.93,0,0-417,152-135,189,50.33,6.6,102,60,36,66-60.48,5.5,67,84,24,80-161.19-15-13,117-108.67,81-162.43-61.12-310,46.2-428,38.39-328.81,43.68-669.13-47.46-743.95-99C338,651.72,4.36,633.93,4.36,633.93Z"/><path class="cls-5" d="M1925,1065H1.86s.23-49.93,0-75.27C1,894,19.83,999.88,172,941s372,89,501-11c90-18,454,88,612.29-8.84C1703,823,1925,930.85,1925,930.85Z"/><path class="cls-6" d="M1924,1082H.86v-75.27c0-25.34,67.08,22.36,219.25-36.52s254.45,1.47,374.41-3.73c334.37,29.07,613.69,6,689.77-28.32,233.26-66.33,639.71,9.69,639.71,9.69Z"/><path class="cls-7" d="M374.49,981.84c-53.59-13.48-77.26-13.08-118.17,8.93-46.82,25.19-73,19-99.82,20.74-41.66,2.7,63,34.69,112.53,11.17C339.18,989.36,397.12,987.54,374.49,981.84Z"/><path class="cls-7" d="M1682.12,937c-101.83,37.37-115,52.25-31.08,72.54,96,23.23,48.32,41.37,39.81,57.92-13.2,25.69,214-48.75,128.05-74.1C1697.12,957.44,1725.11,921.22,1682.12,937Z"/><path class="cls-7" d="M370.12,1021.15c-26.7,9.8-30.15,13.7-8.15,19,25.18,6.09,12.67,10.85,10.44,15.19-3.47,6.73,56.1-12.78,33.57-19.43C374.05,1026.51,381.39,1017,370.12,1021.15Z"/><path class="cls-7" d="M1462.12,1066.36c-38-45.1-33.32-34-102.81-35.37-35.83-.73,30.83-170.56-106.47-30.09-26.82,27.44,25.48,84.7,96.69,84.19C1419.28,1084.59,1478.16,1085.4,1462.12,1066.36Z"/><path class="cls-7" d="M1056,1062c-47.87-56.82-210.14-4.79-283.85-52.08-108.44-69.58,23.09,47.81-6.15,37.08-45.39-16.65-95.91,31.72-6.17,31.08C847.72,1077.45,1076.21,1086,1056,1062Z"/><path class="cls-4" d="M253.54,747.28l-30-1.13s18.35-127.24,9.63-131.49-60.45-61.35-51.76-92.57c13.08-39,57.18-80.07,8.64-1.26-7.73,27.14,45.55,73.77,53.56,83.64S253.54,747.28,253.54,747.28Z"/><path class="cls-4" d="M119.73,731.16l36.45,7.05s12.33-103.37,25.15-124.6c3.94-6.54,59.91-58.41,67.64-88.52,8.58-37.71-60.51-110.63-17.71,3-8.09,30.53-44.78,59.86-52.32,68.52S119.73,731.16,119.73,731.16Z"/><path class="cls-4" d="M144.41,704.07l-26.74-13.52s44-77.43,46.53-98.51c.77-6.49-8.82-70.43,1.37-95.07,13.46-30.3,51.41-93,9.77,11-10.17,25.11-1.54,63.81-1.08,73.58S144.41,704.07,144.41,704.07Z"/><path class="cls-4" d="M156.92,725.89l-39.69-1.32s25.14-79.34,19.83-97.48c-1.63-5.59-39.71-54.38-36.61-78.23,5-29.68,102-71.61,17,5.41-2.9,24.24,23.77,52.74,28.3,60.55S156.92,725.89,156.92,725.89Z"/><path class="cls-4" d="M151,726.74l-44.94-1.48s28.46-89.87,22.45-110.42c-1.85-6.33-56.19-51.93-52.67-79,5.68-33.62,28.23-107.84,15.37,5.64C88,569,136.92,604.11,142,613S151,726.74,151,726.74Z"/><path class="cls-4" d="M168.61,731.19l29.47,4.61s8.37-85.31,18.37-103.16c3.08-5.5,47.39-49.91,53.16-74.89,6.34-31.25,11.26-101.66-14.22,3-6,25.33-35.17,50.61-41.12,58S168.61,731.19,168.61,731.19Z"/><path class="cls-4" d="M1894.54,566.28l-30-1.13s18.35-127.24,9.63-131.49-60.45-61.35-51.76-92.57c13.08-39,57.18-80.07,8.64-1.26-7.73,27.14,45.55,73.77,53.56,83.64S1894.54,566.28,1894.54,566.28Z"/><path class="cls-4" d="M1760.73,550.16l36.45,7.05s12.33-103.37,25.15-124.6c3.94-6.54,59.91-58.41,67.64-88.52,8.58-37.71-60.51-110.63-17.71,3-8.09,30.53-44.78,59.86-52.32,68.52S1760.73,550.16,1760.73,550.16Z"/><path class="cls-4" d="M1785.41,523.07l-26.74-13.52s44-77.43,46.53-98.51c.77-6.49-8.82-70.43,1.37-95.07,13.46-30.3,51.41-93,9.77,11-10.17,25.11-1.54,63.81-1.08,73.58S1785.41,523.07,1785.41,523.07Z"/><path class="cls-4" d="M1797.92,544.89l-39.69-1.32s25.14-79.34,19.83-97.48c-1.63-5.59-39.71-54.38-36.61-78.23,5-29.68,102-71.61,17,5.41-2.9,24.24,23.77,52.74,28.3,60.55S1797.92,544.89,1797.92,544.89Z"/><path class="cls-4" d="M1792,545.74l-44.94-1.48s28.46-89.87,22.45-110.42c-1.85-6.33-56.19-51.93-52.67-78.95,5.68-33.62,28.23-107.84,15.37,5.64C1729,388,1777.92,423.11,1783,432S1792,545.74,1792,545.74Z"/><path class="cls-4" d="M1809.61,550.19l29.47,4.61s8.37-85.31,18.37-103.16c3.08-5.5,47.39-49.91,53.16-74.89,6.34-31.25,11.26-101.66-14.22,3-6.05,25.33-35.17,50.61-41.12,58S1809.61,550.19,1809.61,550.19Z"/><circle class="cls-8" cx="217" cy="299" r="16"/><circle class="cls-8" cx="232.5" cy="327.5" r="9.5"/><circle class="cls-8" cx="223" cy="357" r="8"/><circle class="cls-8" cx="166" cy="166" r="16"/><circle class="cls-8" cx="181.5" cy="194.5" r="9.5"/><circle class="cls-8" cx="172" cy="224" r="8"/><circle class="cls-8" cx="1721" cy="207" r="16"/><circle class="cls-8" cx="1705.5" cy="235.5" r="9.5"/><circle class="cls-8" cx="1715" cy="265" r="8"/><circle class="cls-8" cx="1765" cy="100" r="16"/><circle class="cls-8" cx="1780.5" cy="128.5" r="9.5"/><circle class="cls-8" cx="1771" cy="158" r="8"/><ellipse class="cls-4" cx="1475.12" cy="205.31" rx="22.98" ry="7.51"/><polygon class="cls-9" points="1509.11 217.79 1495.38 205.07 1508.41 191 1509.11 217.79"/><ellipse class="cls-4" cx="1501.08" cy="227.04" rx="14.81" ry="4.84"/><polygon class="cls-9" points="1522.98 235.09 1514.13 226.89 1522.53 217.82 1522.98 235.09"/><ellipse class="cls-4" cx="1498.51" cy="247.62" rx="16.34" ry="5.6"/><polygon class="cls-9" points="1522.68 256.93 1512.91 247.44 1522.18 236.94 1522.68 256.93"/><ellipse class="cls-4" cx="1543.99" cy="247.49" rx="14.03" ry="4.58"/><polygon class="cls-9" points="1564.74 255.11 1556.35 247.35 1564.31 238.76 1564.74 255.11"/><ellipse class="cls-4" cx="1533.82" cy="202.24" rx="15.24" ry="4.98"/><polygon class="cls-9" points="1556.36 210.51 1547.25 202.08 1555.89 192.75 1556.36 210.51"/><ellipse class="cls-4" cx="1440.98" cy="235.8" rx="22.98" ry="7.51"/><polygon class="cls-9" points="1474.98 248.29 1461.24 235.57 1474.28 221.49 1474.98 248.29"/><path class="cls-10" d="M905.31,519.6l-61.56,32.07a3.85,3.85,0,0,1-5.19-1.62S813.83,520,813.27,501.52c-15-5.2-31.24-40.37-25.88-49.66-13.58-5.91-33.71-64.7-33.71-64.7-5.47-10.5-5.48-39.72,2.44-48.18l28.79-15c5.13-2.67,26.32,12.27,36.14,25.55,0,0,37.08,49.6,34.75,66.69,9.93-8.06,31.08,42.26,27.18,52.17,8.75-2,24,46,24,46A3.87,3.87,0,0,1,905.31,519.6Z"/><path class="cls-11" d="M904.55,521.45l-61.64,32.12a3.88,3.88,0,0,1-5.21-1.64s-24.83-30.25-25.43-48.8c-15-5.26-31.38-40.62-26-49.95-13.63-6-33.9-65.06-33.9-65.06-5.51-10.56-5.56-39.92,2.35-48.4l28.83-15c5.13-2.68,26.4,12.37,36.27,25.73,0,0,37.24,49.9,34.94,67.07C864.68,409.42,886,460,882.07,470c8.77-2,24.12,46.28,24.12,46.28A3.88,3.88,0,0,1,904.55,521.45Z"/><rect class="cls-12" x="744.61" y="308.82" width="33.79" height="14.8" rx="7.4" ry="7.4" transform="translate(-59.94 387.66) rotate(-27.52)"/><ellipse class="cls-13" cx="757.96" cy="310.81" rx="16.25" ry="8.69" transform="translate(-57.84 385.41) rotate(-27.52)"/><ellipse class="cls-14" cx="758.09" cy="309.65" rx="16.25" ry="8.69" transform="translate(-57.3 385.34) rotate(-27.52)"/><rect class="cls-15" x="748.25" y="321.94" width="37.97" height="11.24" rx="5.62" ry="5.62" transform="translate(-64.54 391.59) rotate(-27.52)"/><path class="cls-16" d="M786.21,453.93c-24.08-18.29-33.9-65.07-33.9-65.07l67.49-38.43s39.29,50.5,37.33,65.1c-.13,1,5-3.7-1.63,2.29C833,448.44,786.21,453.93,786.21,453.93Z"/><ellipse class="cls-17" cx="816.57" cy="392.63" rx="11.79" ry="15.66" transform="translate(-68.41 198.31) rotate(-13.3)"/><ellipse class="cls-18" cx="816.86" cy="394.25" rx="11.29" ry="15.01" transform="translate(-68.77 198.42) rotate(-13.3)"/><ellipse class="cls-19" cx="817.96" cy="398.91" rx="4.9" ry="6.51" transform="matrix(0.99, -0.17, 0.17, 0.99, -55.84, 144.63)"/><ellipse class="cls-17" cx="787.67" cy="407.11" rx="11.79" ry="15.66" transform="translate(-97.23 462.85) rotate(-30.94)"/><ellipse class="cls-18" cx="788.43" cy="408.56" rx="11.29" ry="15.01" transform="translate(-97.87 463.45) rotate(-30.94)"/><ellipse class="cls-19" cx="790.89" cy="412.67" rx="4.9" ry="6.51" transform="translate(-101.19 410.48) rotate(-27.41)"/><circle class="cls-18" cx="818.2" cy="396.66" r="2.16"/><circle class="cls-18" cx="789.66" cy="411.54" r="2.16"/><ellipse class="cls-17" cx="780.17" cy="388.95" rx="0.98" ry="10.13" transform="translate(303.96 1119.13) rotate(-83.39)"/><ellipse class="cls-17" cx="807.04" cy="375.12" rx="9.56" ry="0.5" transform="translate(123.33 944.84) rotate(-64.73)"/><path class="cls-20" d="M787.12,429.18c4.47-3,14.31,8.18,18.9,7.18s6.38-15.18,11.41-16.18c1.46-.49,8.22,11.53,9.57,10.68s-6-12.79-5-13.81"/><rect class="cls-17" x="1234.24" y="446.59" width="5.81" height="120.65" transform="translate(633.17 -685.86) rotate(40.86)"/><rect class="cls-21" x="1230.47" y="448.99" width="5.81" height="120.65" transform="translate(633.82 -682.8) rotate(40.86)"/><ellipse class="cls-17" cx="1191.08" cy="562.31" rx="20.98" ry="11.01" transform="translate(-13.45 1095.2) rotate(-49.14)"/><ellipse class="cls-17" cx="1283.62" cy="451.61" rx="20.98" ry="11.01" transform="translate(166.96 1229.24) rotate(-54.24)"/><ellipse class="cls-22" cx="1281.38" cy="450.96" rx="21.59" ry="11.65" transform="translate(166.56 1227.15) rotate(-54.24)"/><ellipse class="cls-23" cx="1189.18" cy="560.64" rx="21.59" ry="11.65" transform="translate(-12.84 1093.19) rotate(-49.14)"/><ellipse class="cls-17" cx="1289.54" cy="452.13" rx="7.12" ry="5.36" transform="translate(-1.8 899.09) rotate(-38.41)"/><ellipse class="cls-18" cx="1288.93" cy="452.56" rx="6.83" ry="5.14" transform="translate(-2.2 898.81) rotate(-38.41)"/><ellipse class="cls-19" cx="1287.22" cy="453.91" rx="2.96" ry="2.23" transform="translate(-28.26 817.9) rotate(-34.89)"/><ellipse class="cls-17" cx="1278" cy="443.02" rx="7.12" ry="5.36" transform="translate(196.85 1255.83) rotate(-56.05)"/><ellipse class="cls-18" cx="1277.55" cy="443.62" rx="6.83" ry="5.14" transform="translate(196.15 1255.72) rotate(-56.05)"/><ellipse class="cls-19" cx="1276.33" cy="445.42" rx="2.96" ry="2.23" transform="translate(146.39 1187.49) rotate(-52.53)"/><circle class="cls-18" cx="1288.19" cy="453.58" r="0.98"/><circle class="cls-18" cx="1276.56" cy="444.7" r="0.98"/><path class="cls-20" d="M1269.05,454.05c.5-.5,10.65,9.15,10.9,8.9s-9.4-10.4-8.9-10.9"/><ellipse class="cls-17" cx="1284.61" cy="437.37" rx="0.31" ry="3.46"/><ellipse class="cls-17" cx="1291.89" cy="443.93" rx="3.24" ry="0.16" transform="translate(-73.82 413.87) rotate(-17.7)"/><path class="cls-24" d="M389.42,911.53c-4.73,5.89-22.06,44-49.18,61.3-16.27,10.38-35.69,12.52-38.54,9-6.27-7.73,13.59-18.65,19-43.78,12.58-58.79,43.2-76.34,52.47-76.34,6.46,0-8.4-25.62-1-30.11,6.43-3.92,17.68-2.23,23-.41,14.1,4.83-3.33,17.65,4.26,27.47C414.41,878.15,396.05,903.25,389.42,911.53Z"/><path class="cls-25" d="M393,910.93c-4.69,5.85-22,44.52-48.9,61.7-16.16,10.3-35.44,12.43-38.27,8.93-6.22-7.68,13.5-18.52,18.84-43.47,12.49-58.37,42.89-75.8,52.1-75.79,6.4,0-8.35-25.44-1-29.9,6.38-3.89,17.56-2.22,22.85-.41,14,4.8-3.3,17.52,4.23,27.28C417.73,878.62,399.58,902.71,393,910.93Z"/><ellipse class="cls-26" cx="275.57" cy="858.78" rx="37.55" ry="28.31"/><ellipse class="cls-26" cx="313.42" cy="863.25" rx="35.46" ry="26.82"/><ellipse class="cls-26" cx="348.89" cy="851.33" rx="40.53" ry="29.21"/><path class="cls-27" d="M207.05,845.19c-.9.21-14.24-1.25-15.39-.89s-1.29,1.19-.17,3.8c.94,2.22,19.83,12.75,24.25,14,6.84,1.89,20.82-5.39,22-6.54s-4.54-6.92-5.32-7.67C231.05,846.5,216.62,843,207.05,845.19Z"/><path class="cls-28" d="M189.55,862c-2.37.61-32.39-1-35.5,0s-4.34,3-4.52,9.11c-.16,5.15,33.19,27.67,42.36,30,14.15,3.55,55.15-15.77,59.28-18.7s-3.29-15.88-4.32-17.58C245,861.76,214.55,855.48,189.55,862Z"/><path class="cls-29" d="M186.09,904.37c-1.6,2.6-26.71,16.46-28.66,20.09s-1.53,6.56,2.8,12.44c3.67,5,49.25-2.46,58.9-8.16,14.91-8.81,36.21-62.12,37.63-68.4S242.18,848.23,240,847.52C236.18,846.25,203,876.81,186.09,904.37Z"/><path class="cls-30" d="M188.85,904.54c-1.65,2.57-27,15.91-29.07,19.5s-1.66,6.53,2.56,12.49c3.56,5.05,49.28-1.45,59-6.95,15.08-8.5,37.48-61.36,39-67.61s-14.32-12.4-16.46-13.16C240.12,847.46,206.3,877.33,188.85,904.54Z"/><circle class="cls-31" cx="204.64" cy="901.99" r="6.56"/><path class="cls-31" d="M212.39,871c5,4.68,6.14,12.94,1.71,17.7s-12.1,4.83-17.14.14l8.28-10.09Z"/><circle class="cls-31" cx="232.96" cy="873.68" r="9.83"/><circle class="cls-31" cx="227" cy="890.37" r="3.87"/><circle class="cls-31" cx="216.86" cy="893.35" r="2.68"/><path class="cls-24" d="M447.22,889.08c-.31,8.22-4.31,60.85-16.84,93.58-7.53,19.63-23.15,34.09-27.93,32.86-10.5-2.71-.18-25.14-11.75-50.63C363.61,905.25,379,870,387.17,864c5.65-4.18-24-17-20.43-25.69,3.09-7.59,14-13.41,19.88-15.27,15.49-4.91,8.53,17.61,21.54,21.29C434,851.68,447.67,877.53,447.22,889.08Z"/><path class="cls-32" d="M452,889.08c-.31,8.22-4.31,60.85-16.85,93.58-7.52,19.63-23.14,34.09-27.92,32.86-10.5-2.71-.18-25.14-11.76-50.63C368.37,905.25,383.81,870,391.94,864c5.65-4.18-24-17-20.43-25.69,3.09-7.59,14-13.41,19.88-15.27,15.48-4.91,8.53,17.61,21.53,21.29C438.73,851.68,452.44,877.53,452,889.08Z"/><path class="cls-33" d="M410.42,795.38c6.07,20.9-41.13,61.38-86.87,71.74S229,875.9,212.8,849.5s27.39-11.28,60.07-15.23C381.93,821.08,404.36,774.47,410.42,795.38Z"/><path class="cls-34" d="M410.42,790.61c6.07,20.91-41.13,61.38-86.87,71.74S229,871.13,212.8,844.73s27.39-11.28,60.07-15.23C381.93,816.31,404.36,769.7,410.42,790.61Z"/><path class="cls-35" d="M296.73,756.26c19.76-4.23,32.81-2,45.3,6,6.56,4.17,47.69,1.79,56,35.76,1.59,6.47-18.48,32.78-26.23,38.74-22,16.95-47.08,10.14-58.41,14.91-47.51,20-46.49-1.79-58.41-.6-29.09,2.91-33.1-11.11-32.78-25.63.57-26.25,22.65-37.55,28-40.53C256.18,781.57,263.35,763.41,296.73,756.26Z"/><path class="cls-36" d="M297.93,752.09c19.75-4.24,32.81-2,45.29,6,6.56,4.17,47.69,1.79,56,35.76,1.59,6.47-18.48,32.78-26.22,38.74-22,16.94-47.09,10.14-58.42,14.9-47.51,20-46.49-1.78-58.41-.59-29.08,2.91-33.1-11.12-32.78-25.63.57-26.25,22.65-37.55,28-40.53C257.37,777.4,264.55,759.24,297.93,752.09Z"/><circle class="cls-31" cx="219.84" cy="869.51" r="2.68"/><circle class="cls-31" cx="434.72" cy="880.53" r="11.92"/><circle class="cls-31" cx="410.87" cy="889.47" r="8.34"/><circle class="cls-31" cx="423.99" cy="894.24" r="3.58"/><path class="cls-31" d="M448.49,926.26c-6.84-.78-12.29-9.68-11.15-19.71s7.6-17.53,14.44-16.76L450.3,910Z"/><circle class="cls-31" cx="424.88" cy="859.97" r="6.26"/><circle class="cls-31" cx="413.26" cy="871" r="4.17"/><circle class="cls-31" cx="428.46" cy="908.25" r="6.26"/><ellipse class="cls-37" cx="299.3" cy="776.34" rx="40.76" ry="20.27" transform="translate(-175.73 93.23) rotate(-13.73)"/><ellipse class="cls-37" cx="247.02" cy="815.46" rx="25.48" ry="19.46" transform="translate(-590.47 658.6) rotate(-62.54)"/><ellipse class="cls-37" cx="295.8" cy="825.52" rx="27.7" ry="23.74" transform="translate(-119.48 53.17) rotate(-8.55)"/><ellipse class="cls-37" cx="354.8" cy="802.86" rx="30.71" ry="27.53" transform="translate(-306.88 226.11) rotate(-25.08)"/><path class="cls-38" d="M378.05,746.24c-2.05,8.09-14,.76-18.72,20.47-9.69,40.5,32.58,68.52,76.36,79.62,47.2,12,97.65,10.76,108.73-33.41,3.46-13.78-9.71-22.48-8.5-27.27,8.15-32.14,10.84-66.92-10.82-74.1-23.17-7.69-14.6-19.66-47.39-27.36s-27.77,6.49-46,3.1C404.75,682.28,386.84,711.55,378.05,746.24Z"/><ellipse class="cls-39" cx="423.86" cy="735.26" rx="33.68" ry="26.23" transform="translate(-393.02 965.43) rotate(-75.77)"/><ellipse class="cls-39" cx="506.55" cy="754.69" rx="35.17" ry="25.93" transform="translate(-349.48 1060.24) rotate(-75.77)"/><ellipse class="cls-18" cx="504.89" cy="757.03" rx="33.08" ry="24.89" transform="translate(-353.01 1060.4) rotate(-75.77)"/><ellipse class="cls-18" cx="425.53" cy="739.58" rx="32.88" ry="24.74" transform="translate(-395.95 970.31) rotate(-75.77)"/><ellipse class="cls-40" cx="430.25" cy="745.91" rx="19.97" ry="15.02" transform="translate(-422.38 866.39) rotate(-68.07)"/><ellipse class="cls-19" cx="431.3" cy="749.99" rx="14.35" ry="10.79" transform="translate(-407.12 963.45) rotate(-74.38)"/><circle class="cls-41" cx="429.12" cy="742.23" r="2.68"/><ellipse class="cls-40" cx="498.47" cy="760.7" rx="19.97" ry="15.02" transform="translate(-377.97 1003.55) rotate(-72.25)"/><ellipse class="cls-19" cx="497.52" cy="762.49" rx="14.35" ry="10.79" transform="translate(-380.34 1003.89) rotate(-72.25)"/><circle class="cls-41" cx="504.88" cy="756.9" r="2.68"/><ellipse class="cls-31" cx="444.55" cy="778.31" rx="3.87" ry="2.09" transform="translate(-451.07 813.86) rotate(-62.54)"/><ellipse class="cls-31" cx="468.99" cy="784.57" rx="2.09" ry="3.58" transform="translate(-143.88 106.42) rotate(-11.24)"/><path class="cls-42" d="M485.68,806.33c-6,6-20.45,8.14-37.43,5s-30.9-12.57-31.12-21.09"/><path class="cls-42" d="M490.7,807.4c-2.33,1.68-3.69-.48-4.35-1.4s-3.07-4-.74-5.67"/><path class="cls-42" d="M417.92,785c2.28,2.42,0,4.31-.94,5.21s-4.12,4.14-6.41,1.72"/><ellipse class="cls-43" cx="399.62" cy="771.9" rx="3.34" ry="7.99" transform="translate(-469.59 770.53) rotate(-62.54)"/><ellipse class="cls-43" cx="505.94" cy="797.9" rx="8.05" ry="2.77"/><circle class="cls-31" cx="465.43" cy="699.64" r="4.8"/><circle class="cls-31" cx="482.24" cy="701.08" r="2.4"/><circle class="cls-31" cx="476.24" cy="707.56" r="2.64"/><circle class="cls-31" cx="490.65" cy="707.56" r="3.6"/><circle class="cls-31" cx="466.63" cy="710.45" r="3.6"/><circle class="cls-31" cx="482" cy="715.25" r="3.6"/><circle class="cls-31" cx="474.79" cy="696.03" r="3.6"/><circle class="cls-31" cx="464.46" cy="687.63" r="5.77"/><circle class="cls-31" cx="490.89" cy="696.27" r="5.77"/><circle class="cls-31" cx="482" cy="690.27" r="3.6"/><circle class="cls-31" cx="474.79" cy="687.87" r="2.16"/><circle class="cls-31" cx="498.34" cy="701.8" r="2.64"/><rect class="cls-44" x="1579.72" y="624.16" width="9.62" height="9.55" rx="4.78" ry="4.78" transform="translate(-102.18 876.52) rotate(-30)"/><rect class="cls-44" x="1573.85" y="649.46" width="9.62" height="9.55" rx="4.78" ry="4.78" transform="translate(-115.62 876.98) rotate(-30)"/><rect class="cls-44" x="1571.1" y="660.09" width="9.62" height="9.55" rx="4.78" ry="4.78" transform="translate(-121.3 877.03) rotate(-30)"/><path class="cls-44" d="M1577.93,679l-5.5,3.18a1.63,1.63,0,0,1-2.23-.6l-3.14-5.44c-.46-.78-.19-1.78,2.24-3.19l5.51-3.17c-.87.5.12.77.57,1.55l3.15,5.45A1.62,1.62,0,0,1,1577.93,679Z"/><rect class="cls-44" x="1594.49" y="569.45" width="11.92" height="12.04" rx="5.96" ry="5.96" transform="translate(36.43 -92.69) rotate(3.36)"/><rect class="cls-44" x="1603.9" y="566.32" width="11.78" height="11.9" rx="5.89" ry="5.89" transform="translate(718.9 -885.55) rotate(39)"/><rect class="cls-44" x="1612.22" y="569.33" width="10.46" height="10.56" rx="5.23" ry="5.23" transform="translate(1927.4 -1113.66) rotate(80.85)"/><rect class="cls-45" x="1553.5" y="565.89" width="117.5" height="157.46"/><rect class="cls-44" x="1582.1" y="612.8" width="9.62" height="9.55" rx="4.78" ry="4.78" transform="translate(-96.18 876.19) rotate(-30)"/><rect class="cls-44" x="1583.28" y="602.85" width="9.2" height="9.3" rx="4.6" ry="4.6" transform="matrix(0.87, -0.5, 0.5, 0.87, -91.01, 875.33)"/><rect class="cls-44" x="1583.49" y="593.44" width="10.93" height="10.81" rx="5.41" ry="5.41" transform="translate(-86.54 874.71) rotate(-30)"/><rect class="cls-44" x="1586.92" y="585.76" width="10.36" height="10.24" rx="5.12" ry="5.12" transform="translate(-82.14 875.21) rotate(-30)"/><rect class="cls-44" x="1588.94" y="577.32" width="11.48" height="11.54" rx="5.74" ry="5.74" transform="translate(-86.18 342.86) rotate(-11.95)"/><path class="cls-46" d="M1563.49,693.38c-12.5,19.5-13.51,40,12.83,42.16,30.31,2.54,41.06-37.76,26.76-18.33-15.44,21-31.52,1.94-26.76-2.57,10.27-9.71,49.28-57.34,29.7-83-20-26.22.49-4.94,15.4-18.89,5.68-5.31,29.87,3.3,28.22-9-.39-2.9-7-.94-12.64-2.38-5.24-1.34-9.52-6.11-9.17-7.88,3.72-18.58-10.72-26.1-28.78-16.68C1586.4,583.4,1580.16,667.39,1563.49,693.38Z"/><path class="cls-47" d="M1565.87,693.38c-12.5,19.5-13.51,40,12.83,42.16,30.31,2.54,35.38-35.74,26.77-18.33-11.56,23.36-31.53,1.94-26.77-2.57,10.27-9.71,49.29-57.34,29.7-83-20-26.22.49-4.94,15.4-18.89,5.68-5.31,29.88,3.3,28.23-9-.39-2.91-3-7-12.65-3.3-5,1.93-9.52-5.2-9.17-7,3.72-18.58-10.72-26.1-28.78-16.68C1588.79,583.4,1582.54,667.39,1565.87,693.38Z"/><ellipse class="cls-48" cx="1608.86" cy="647.46" rx="9.07" ry="16.96" transform="translate(-113.42 444.03) rotate(-15.19)"/><ellipse class="cls-48" cx="1605.42" cy="659.01" rx="10.57" ry="17.89" transform="translate(-116.57 443.53) rotate(-15.19)"/><ellipse class="cls-48" cx="1599.49" cy="672.4" rx="9.93" ry="16.71" transform="translate(-120.28 442.45) rotate(-15.19)"/><ellipse class="cls-48" cx="1593.16" cy="682.36" rx="8.93" ry="13.69" transform="translate(-123.11 441.14) rotate(-15.19)"/><ellipse class="cls-48" cx="1580.28" cy="634.91" rx="3.01" ry="10.63" transform="translate(45.79 1373.64) rotate(-47.6)"/><ellipse class="cls-48" cx="1577.34" cy="640.22" rx="3.01" ry="10.63" transform="translate(560.99 2005.84) rotate(-75.43)"/><ellipse class="cls-48" cx="1578.63" cy="646.27" rx="10.63" ry="3.01" transform="translate(-124.14 747.76) rotate(-25.67)"/><ellipse class="cls-48" cx="1617.43" cy="592.68" rx="6.13" ry="8.15" transform="translate(-99.44 733.09) rotate(-24.8)"/><ellipse class="cls-18" cx="1617.74" cy="593.48" rx="5.88" ry="7.81" transform="translate(-99.74 733.29) rotate(-24.8)"/><ellipse class="cls-19" cx="1619.16" cy="596.56" rx="2.55" ry="3.39" transform="translate(-104.88 524.25) rotate(-17.82)"/><circle class="cls-18" cx="1619.52" cy="595.15" r="1.13"/><circle class="cls-49" cx="1607.3" cy="577.9" r="2.38"/><circle class="cls-49" cx="1603.36" cy="581.84" r="1.56"/><circle class="cls-49" cx="1607.39" cy="582.39" r="1.56"/><circle class="cls-49" cx="1611.61" cy="580.19" r="1.56"/><circle class="cls-49" cx="1604.73" cy="584.86" r="1.1"/><ellipse class="cls-48" cx="1649.37" cy="605.03" rx="2.66" ry="4.58"/><ellipse class="cls-48" cx="1606.9" cy="630.85" rx="6.45" ry="9.62" transform="translate(-100.14 887.97) rotate(-30)"/><ellipse class="cls-44" cx="1614.17" cy="603.51" rx="4.12" ry="2.06"/><path class="cls-20" d="M1623,613c-1.13.77-3.47.67-6.06-.33s-4.52-2.92-4.29-4.27"/><path class="cls-20" d="M1612.89,607.61c.28.45-.13.68-.31.8s-.77.53-1.06.08"/><rect class="cls-45" x="984.84" y="124.44" width="141.16" height="291.49"/><rect class="cls-45" x="953.68" y="220.51" width="217.43" height="213.4" rx="12" ry="12"/><path class="cls-17" d="M965.7,422.2c0-.17,0-.33-.05-.5C964.86,414.08,980.2,288.3,985,259c13.2-80.65,17.44,65.17,8.64,17.51s36.7-.12,61.6,2.27a18.76,18.76,0,0,0,5.84-.35l16-2.27.27-.05c1.46-.35,12.07-3,14.77-4.72,22.08-14.26,36.19-14.25,40.09-17.25,12.41-9.55.85-91.52,14.76-16.14.13.72,21.14,80.8,21.65,99a18.7,18.7,0,0,0,1.08,5.74c13.6,38,14.62,75.58,14.69,82.4a15.74,15.74,0,0,0,.11,1.82c3.16,25.48-46.39,24.79-48.67,24.79l-139.58-2.93a31.64,31.64,0,0,1-30-23.71A16.83,16.83,0,0,1,965.7,422.2Z"/><path class="cls-50" d="M1103.36,286.16a9.42,9.42,0,0,0,5.13-2.38c20.09-18.42,17.4-174.25,45.51-42.78.17.8,22.24,84.47,22.24,97.67,16.87,45.1,16.5,90.57,16.5,90.57,4.4,27.5-48.55,26.76-51,26.76l-154.58-3.25A13.45,13.45,0,0,1,982,451.6c-14.59-6.55-18.61-23.87-18.74-26.63,0-.18,0-.35-.05-.52-.83-8,1.78-128.26,18.83-191.45,28.08-104.09,23.51,24.28,35.24,54.14a13.74,13.74,0,0,0,13.29,8.71c.28,0,.55,0,.82-.07Z"/><ellipse class="cls-17" cx="1088.17" cy="351.44" rx="22.96" ry="17.27" transform="translate(480.09 1319.87) rotate(-75.77)"/><ellipse class="cls-18" cx="1087.44" cy="353.74" rx="22" ry="16.55" transform="translate(477.31 1320.9) rotate(-75.77)"/><ellipse class="cls-19" cx="1085.72" cy="360.54" rx="9.54" ry="7.18" transform="translate(411.37 1284.67) rotate(-72.25)"/><ellipse class="cls-17" cx="1040.79" cy="350.68" rx="17.27" ry="22.96" transform="translate(-19.04 62.63) rotate(-3.42)"/><ellipse class="cls-18" cx="1040.8" cy="353.09" rx="16.55" ry="22" transform="translate(-19.19 62.63) rotate(-3.42)"/><ellipse class="cls-19" cx="1041.21" cy="360.09" rx="9.54" ry="7.18" transform="translate(679.17 1400.63) rotate(-89.89)"/><circle class="cls-18" cx="1087.55" cy="357.78" r="3.17"/><circle class="cls-18" cx="1040.38" cy="357.78" r="3.17"/><ellipse class="cls-17" cx="1043.35" cy="321.99" rx="1.43" ry="14.84" transform="matrix(0.56, -0.83, 0.83, 0.56, 191.35, 1004.9)"/><ellipse class="cls-17" cx="1087.63" cy="322.22" rx="14.01" ry="0.74" transform="translate(26.57 723.36) rotate(-37.21)"/><path class="cls-20" d="M1016,376c3.41,0,5.83,14.17,9.12,14.64,3.47.5,10.22-12.23,13.3-11.21,6.42,2.47,7.28,18.72,13.33,21.21s14.67-9.12,21.75-9.62"/><path class="cls-34" d="M698.23,834.42l11.17,55.89a1.9,1.9,0,0,0,1.17,1.21L761,894.21c6.49,1.09.13,14.82-1.45,15.49l-55.32,25.61a1.87,1.87,0,0,0-1.14,1.64l9.3,66.13c-.09,1.84-11.1,5.73-14.16-.36l-31.5-45.31a1.87,1.87,0,0,0-2.55-.62L616.3,985.15c-1.5.89-8.43-2.64-7.87-4.29l25.41-57.45a1.86,1.86,0,0,0-.26-1.71l-27.16-37c-6.9-10.66-2.82-22.89,3-21.71l40.85,19a1.87,1.87,0,0,0,1.86-.68l30.32-44.53c.69-.94.95-2.19,1.79-3C689.15,829,697.8,833.08,698.23,834.42Z"/><path class="cls-51" d="M696.51,833.87l11.17,55.9a1.86,1.86,0,0,0,1.17,1.2l50.41,2.7c6.49,1.08.13,14.81-1.45,15.48l-55.32,25.62a1.84,1.84,0,0,0-1.14,1.63l9.3,66.14c-.09,1.83-11.1,5.73-14.16-.37L665,956.86a1.88,1.88,0,0,0-2.55-.62l-47.86,28.37c-1.5.89-8.43-2.65-7.87-4.29l25.41-57.45a1.89,1.89,0,0,0-.26-1.72l-27.17-37c-6.89-10.67-2.81-22.9,3-21.71l40.86,19.05a1.87,1.87,0,0,0,1.85-.68l30.33-44.53c.69-.94,1-2.19,1.78-3C687.43,828.41,696.08,832.54,696.51,833.87Z"/><ellipse class="cls-52" cx="691.82" cy="884.78" rx="11.55" ry="8.69" transform="translate(-404.33 1129.53) rotate(-64.56)"/><ellipse class="cls-18" cx="691.23" cy="885.84" rx="11.07" ry="8.33" transform="translate(-405.62 1129.61) rotate(-64.56)"/><ellipse class="cls-52" cx="671.22" cy="880.32" rx="11.55" ry="8.69" transform="translate(-231.1 1521.65) rotate(-88.08)"/><ellipse class="cls-19" cx="690.31" cy="890.16" rx="4.8" ry="3.61" transform="translate(-374.27 1258.38) rotate(-71.29)"/><circle class="cls-18" cx="691.91" cy="888.86" r="1.6"/><ellipse class="cls-18" cx="671.11" cy="881.52" rx="11.07" ry="8.33" transform="translate(-232.41 1522.71) rotate(-88.08)"/><ellipse class="cls-19" cx="670.94" cy="886.32" rx="4.8" ry="3.61" transform="translate(-308.48 1412.12) rotate(-81.1)"/><circle class="cls-18" cx="672.3" cy="884.77" r="1.6"/><circle class="cls-53" cx="699.44" cy="987.31" r="4.19"/><circle class="cls-53" cx="695.11" cy="974.76" r="3.89"/><circle class="cls-53" cx="690.87" cy="962.84" r="3.59"/><circle class="cls-53" cx="687.45" cy="952.41" r="3.59"/><circle class="cls-53" cx="680.25" cy="926.69" r="2.69"/><circle class="cls-53" cx="684.77" cy="942.33" r="3.59"/><circle class="cls-53" cx="682.06" cy="933.96" r="2.69"/><circle class="cls-53" cx="611.22" cy="875.51" r="3.59"/><circle class="cls-53" cx="705.12" cy="904.79" r="2.69"/><ellipse class="cls-53" cx="676.97" cy="902.77" rx="6.98" ry="5.2" transform="translate(-340.17 1391.34) rotate(-78.79)"/><circle class="cls-53" cx="650.55" cy="893.98" r="2.69"/><circle class="cls-53" cx="640.1" cy="889.26" r="2.69"/><circle class="cls-53" cx="630.44" cy="885.72" r="2.69"/><circle class="cls-53" cx="620.34" cy="880.77" r="2.99"/><circle class="cls-53" cx="689.61" cy="845.11" r="4.19"/><circle class="cls-53" cx="687.43" cy="856.06" r="3.39"/><circle class="cls-53" cx="685.46" cy="865.53" r="2.69"/><circle class="cls-53" cx="750.55" cy="902.21" r="4.09"/><circle class="cls-53" cx="740.03" cy="902.97" r="3.89"/><circle class="cls-53" cx="728.03" cy="904.05" r="3.69"/><circle class="cls-53" cx="717.36" cy="904.57" r="2.69"/><path class="cls-20" d="M684.27,918.1c-2.31,1.67-7.18,1.61-12.63-.32s-9.54-5.79-9.16-8.61"/><path class="cls-20" d="M685.87,918.72c-.85.43-1.19-.35-1.36-.69s-.8-1.48,0-1.91"/><path class="cls-20" d="M663,907.49c.63.92-.22,1.42-.58,1.67s-1.58,1.15-2.21.23"/><circle class="cls-53" cx="699.44" cy="987.31" r="4.19"/><circle class="cls-53" cx="695.11" cy="974.76" r="3.89"/><circle class="cls-53" cx="690.87" cy="962.84" r="3.59"/><circle class="cls-53" cx="687.45" cy="952.41" r="3.59"/><circle class="cls-53" cx="680.25" cy="926.69" r="2.69"/><circle class="cls-53" cx="684.77" cy="942.33" r="3.59"/><circle class="cls-53" cx="682.06" cy="933.96" r="2.69"/><circle class="cls-53" cx="624.2" cy="970.58" r="4.01"/><circle class="cls-53" cx="632.08" cy="960.62" r="3.72"/><circle class="cls-53" cx="639.5" cy="951.04" r="3.44"/><circle class="cls-53" cx="646.15" cy="942.9" r="3.44"/><circle class="cls-53" cx="663.16" cy="923.81" r="2.58"/><circle class="cls-53" cx="652.9" cy="935.53" r="3.44"/><circle class="cls-53" cx="658.24" cy="929.03" r="2.58"/><ellipse class="cls-54" cx="663.24" cy="894.56" rx="1.79" ry="5.08" transform="translate(-343.18 1371.25) rotate(-78.79)"/><ellipse class="cls-54" cx="693.12" cy="899.67" rx="1.79" ry="5.08" transform="translate(-324.12 1404.68) rotate(-78.79)"/><ellipse class="cls-4" cx="1445.8" cy="776.14" rx="4.89" ry="23.84" transform="translate(-155.45 417.36) rotate(-15.6)"/><ellipse class="cls-4" cx="1434.63" cy="754.3" rx="6.25" ry="16.61" transform="translate(-141.77 1131.27) rotate(-41.18)"/><ellipse class="cls-4" cx="1427.44" cy="736.25" rx="13.09" ry="5.86" transform="translate(553.48 2083.77) rotate(-84.32)"/><ellipse class="cls-4" cx="1455.99" cy="764.3" rx="20.52" ry="5.72" transform="translate(51.59 1619.7) rotate(-59.04)"/><ellipse class="cls-4" cx="1463.36" cy="743.73" rx="4.48" ry="10.16" transform="translate(-114.46 290.92) rotate(-10.93)"/><ellipse class="cls-4" cx="1449.46" cy="805.01" rx="16.02" ry="4.49" transform="matrix(0.1, -1, 1, 0.1, 504.9, 2167.65)"/><ellipse class="cls-4" cx="1453.9" cy="825.97" rx="4.3" ry="16.62" transform="translate(-217.24 768.22) rotate(-27.62)"/><ellipse class="cls-4" cx="1424.63" cy="726.93" rx="5.67" ry="7.62" transform="translate(560.22 2072.59) rotate(-84.32)"/><ellipse class="cls-4" cx="1462.95" cy="801.8" rx="23.84" ry="4.89" transform="translate(84.98 1742.18) rotate(-63.04)"/><ellipse class="cls-4" cx="1478.2" cy="782.59" rx="16.61" ry="6.25" transform="translate(-171.18 1060.23) rotate(-37.45)"/><ellipse class="cls-4" cx="1488.81" cy="766.31" rx="13.09" ry="5.86" transform="translate(578.86 2171.94) rotate(-84.32)"/><ellipse class="cls-4" cx="1493.4" cy="757.73" rx="5.67" ry="7.62" transform="translate(591.53 2168.77) rotate(-84.32)"/><ellipse class="cls-4" cx="1437.65" cy="790.17" rx="4.39" ry="15.66" transform="translate(-39.85 1503.05) rotate(-54.55)"/><ellipse class="cls-4" cx="1426.19" cy="778.01" rx="3.41" ry="7.81" transform="translate(-136.15 332.58) rotate(-12.7)"/><ellipse class="cls-4" cx="1468.82" cy="823.54" rx="16.61" ry="6.25" transform="translate(-213.29 744.94) rotate(-26.6)"/><ellipse class="cls-4" cx="1481.77" cy="810.24" rx="13.09" ry="5.86" transform="translate(283.4 2000.21) rotate(-73.47)"/><ellipse class="cls-4" cx="1489.27" cy="801.75" rx="5.67" ry="7.62" transform="translate(296.89 2001.33) rotate(-73.47)"/><ellipse class="cls-4" cx="1431.29" cy="808.43" rx="5.06" ry="24.67" transform="translate(120.37 1800.22) rotate(-66.57)"/><ellipse class="cls-4" cx="1410.02" cy="794.85" rx="4.84" ry="10.01" transform="translate(-203.1 928.2) rotate(-34.14)"/><path class="cls-55" d="M865.15,488.54c61,109,29.34,109.08,2.28,124.3-14.59,8.21-10.58,34.8-131.65-64.89S631.59,398.54,673.31,361.48C727.76,313.13,787.18,349.22,865.15,488.54Z"/><path class="cls-56" d="M924.93,452.18c42.33,141.55,50.74,145.44-11.84,145.44-25.81,0-25.9,26.46-131.36-126.33S702.66,269.87,752.13,244C816.69,210.34,870.81,271.22,924.93,452.18Z"/><path class="cls-57" d="M994.62,422.1c11.09,160.58,24.37,173.85-24,175.52-49,1.69-50-4.77-120.58-194.34s-34.27-233.61,19.83-247.35C940.44,138,980.44,216.83,994.62,422.1Z"/><path class="cls-58" d="M1140,488.54c-61,109-29.33,109.08-2.27,124.3,14.59,8.21,10.58,34.8,131.64-64.89s104.2-149.41,62.47-186.47C1277.42,313.13,1218,349.22,1140,488.54Z"/><path class="cls-59" d="M1080.26,452.18c-42.34,141.55-50.74,145.44,11.83,145.44,25.82,0,25.9,26.46,131.36-126.33s79.08-201.42,29.6-227.25C1188.49,210.34,1134.37,271.22,1080.26,452.18Z"/><path class="cls-60" d="M1010.56,422.1c-11.09,160.58-24.37,173.85,24,175.52,49.05,1.69,50-4.77,120.59-194.34s34.26-233.61-19.84-247.35C1064.75,138,1024.74,216.83,1010.56,422.1Z"/><path class="cls-61" d="M939.53,407c25.42,171.47,24,192.31,69.69,192.31,40.59,0,40.92-30.72,66.94-247.08S1056.84,98.38,1001,97C928.21,95.25,907,187.79,939.53,407Z"/><rect class="cls-62" x="847.14" y="590.86" width="306.11" height="193.64" rx="27.1" ry="27.1"/><path class="cls-63" d="M696,412.3c1,5.76.16,9.56-2.39,11.44a7.82,7.82,0,0,1-3.74,1.07,5.88,5.88,0,0,0-3.37,1Q675.86,434.3,665.66,443c-.63.55-1,1.73-1,3.56s-.43,3-1.11,3.39c-2.07,1.58-7.82,2.13-17.39,1.8s-15.9-1.3-18.91-3c-2.29-1.43-4.3-4.11-6-8.07a40.39,40.39,0,0,0-2-4.32L555.2,323a9.11,9.11,0,0,0-3.27-2.39,5,5,0,0,1-2.39-1.66c-.94-2.21.59-4.49,4.6-6.8,2.6-1.39,9.41-2.35,20.33-2.72,12.36-.37,19.44,1.3,21.37,4.78.47.91.41,2.48-.16,4.69s-.62,3.77-.15,4.68q24.33,47.13,48.67,94.26,7.41-6.34,15-12.59c.65-1.19,2.22-2.74,4.74-4.64,1.6-.65,7.39.64,17.15,4S695.76,410.58,696,412.3Z"/><path class="cls-63" d="M783.18,396.24a14.24,14.24,0,0,1-1.11,7c-1,2.59-2.07,4.23-3.23,4.92-.32.18-1,.09-2.17-.28a5.94,5.94,0,0,0-2.58-.39,1.52,1.52,0,0,0-.66.3,57,57,0,0,0-9.61,6.21,74.64,74.64,0,0,0-18.28,19.86c-13.42-2.44-20.91-3.63-22.14-3.88-8.54-1.56-13.19-3-13.84-4.55Q681.47,360.21,653.36,295c-.35-.8.78-2.32,3.43-4.55s4.79-3.43,6.38-3.65,5.48-.06,11.19.58,10.17.66,13.38,0c4.2-.83,9-3.47,14.63-7.91,5.08-4.21,8.54-6.2,10.26-6,3.72.33,9.87,2.49,18.27,6.57s13.16,7.25,14.43,9.39c.62,1-.09,3.05-2.06,6.12s-3.84,4.75-5.62,5.05a8,8,0,0,1-3.46,0c-.8-.23-1.32-.26-1.56-.1a107.64,107.64,0,0,0-12.56,5.82c-9,4.79-15.12,9.63-18.33,14.41q5.49,14.25,11,28.5a109.31,109.31,0,0,1,15.35-9.93c2-.62,7.39,1.15,16,5.41s13.08,7.5,13.79,9.62q.64,1.94-1.16,5.05a10.35,10.35,0,0,1-4,4.25c-1.27.23-3.45.74-6.53,1.55-4.51,1.7-11.69,7-21.07,16.05l7.08,18.36a129.88,129.88,0,0,1,12.12-10.36c5.28-4.06,8.72-6.21,10.2-6.48,1.72-.32,7,1.44,15.6,5.36S783,394.79,783.18,396.24Z"/><path class="cls-63" d="M877.28,267.15c-4.74,16.54-8.76,41.45-11.1,74.68-2.11,30.05-2.08,47-1.19,50.95a69.45,69.45,0,0,0,2,8.2,14.37,14.37,0,0,1,.29,7.66c-.59,3-1.83,4.78-3.74,5.36-3.26,1.1-10.31.55-21.39-1.46s-17.83-4.06-20-6.34a11.72,11.72,0,0,1-2.49-4.45,27.11,27.11,0,0,0-1.83-4.72c-25.26-40.85-46.09-77.57-59.53-110.84a16.73,16.73,0,0,0-2.17-3.55,10.49,10.49,0,0,1-1.56-3.65q-.84-6.36,3.82-8.57c1.55-.73,7.84-.54,18.75.73,11.49,1.31,18,3,19.63,4.85q1.29,1.68,1.92,7.48a10.12,10.12,0,0,1-.66,3.31,5.21,5.21,0,0,0-.13,3.61q7.94,18.28,14.08,32.21C822,344.86,828.34,358,831.64,362c-.51-11.33,0-26,1.78-43.91s2.92-32.83,2.87-44.66a42.13,42.13,0,0,1,0-9.34,9.49,9.49,0,0,1,5.89-6.28c2.15-.83,7.71-.37,16.56,1.48C868.36,261.46,874.51,264.11,877.28,267.15Z"/><path class="cls-63" d="M990.61,377.18a15.92,15.92,0,0,1-3,6.65c-1.67,2.38-3.14,3.83-4.44,4.34-.36.13-1-.06-2-.58a5.28,5.28,0,0,0-2.39-.74,1.44,1.44,0,0,0-.71.2,64.84,64.84,0,0,0-10.93,4.69,88.27,88.27,0,0,0-22.88,16.78c-12.23-4.28-19.08-6.51-20.2-6.92-7.76-2.74-11.82-4.84-12-6.4q-9.59-67.63-19.18-135.27c-.12-.83,1.37-2.16,4.5-4s5.49-2.67,7.08-2.66,5.27.72,10.58,2.15,9.59,2.09,12.85,1.92c4.25-.22,9.61-2.11,16.18-5.65,6-3.38,9.88-4.84,11.49-4.41,3.5.84,8.84,3.83,15.85,9s10.75,8.94,11.4,11.21c.32,1.07-.9,3-3.63,5.67s-5,4.09-6.78,4.14a7.74,7.74,0,0,1-3.35-.45c-.71-.35-1.21-.45-1.48-.32a118.34,118.34,0,0,0-13.66,3.89c-10,3.39-17.12,7.25-21.49,11.46q1.49,14.69,3,29.37a123.48,123.48,0,0,1,17.42-7.51c2.09-.32,6.8,2.17,13.91,7.54s10.6,9.18,10.72,11.35c.06,1.32-.77,2.91-2.47,4.76a12.31,12.31,0,0,1-5,3.58c-1.28,0-3.52.23-6.7.59-4.8,1-13.13,5.18-24.56,12.67q.95,9.46,1.9,18.92A150,150,0,0,1,955,364.82c6.17-3.22,10-4.83,11.55-4.88,1.75-.06,6.35,2.4,13.6,7.45S990.8,375.73,990.61,377.18Z"/><path class="cls-63" d="M1084.9,377.37c-2,5.56-4.57,8.87-7.8,9.94a8,8,0,0,1-3.9,0,6.42,6.42,0,0,0-3.54.05q-13.79,5.1-27.17,10.47c-.84.34-1.74,1.35-2.68,3s-1.82,2.62-2.65,2.85c-2.63.93-8.05,0-16.43-2.82s-13.56-5.3-15.39-7.69c-1.34-1.91-1.82-4.92-1.41-9a38.17,38.17,0,0,0,.29-4.52q-1-60.62-2.05-121.24a6.45,6.45,0,0,0-1.75-3.05,3.48,3.48,0,0,1-1.33-2.15c.24-2.29,2.7-4,7.41-5.11,3-.61,9.53.26,19.49,2.73,11.23,2.86,16.79,6.23,16.82,9.94,0,1-.85,2.4-2.44,4.29s-2.4,3.33-2.42,4.29l-2.43,99.7q9.74-3.94,19.67-7.75a23.73,23.73,0,0,1,6.55-3.06c1.75-.19,6.34,2.5,13.5,8.13S1085.53,375.71,1084.9,377.37Z"/><path class="cls-63" d="M1262.79,282q.76-1.91-9.54,33.58c-19.68,66.74-39,99.69-57.9,99.45a28,28,0,0,1-11.46-3.24l-12.68-6.18q-5.55-2.06-11.2-4.35a17.75,17.75,0,0,1-8.37-6.35c-3.93-5.81-5.89-17.82-6-36.07a348.43,348.43,0,0,1,4.73-55.38,253.43,253.43,0,0,1,9.56-40.66,9.11,9.11,0,0,1,7.37-6.59c1.64-.33,7,1,15.86,4.06s13.89,5.53,15.12,7.24a3.66,3.66,0,0,1,.45,3c-.32,1.54-1.47,3.56-3.42,6.07s-3,4.55-3.19,6.11q-1.74,3.27-5,19.44a509.42,509.42,0,0,0-8.63,57.05c-2,22.07-.88,33.11,3.8,33.16,5.91.08,12.64-9.73,20.52-29.41a404.57,404.57,0,0,0,17.08-54.18q5.12-20.7,5-26.19a10.57,10.57,0,0,0,.59-5.94,29.44,29.44,0,0,1-.86-4.49c.13-4.11,2.4-6.93,6.87-8.42a9.28,9.28,0,0,1,3.75-.06c4.26.57,10,2.25,17.15,5.11s11.16,5,12.08,6.36C1265,276,1264.43,278.3,1262.79,282Z"/><path class="cls-63" d="M1365.55,297.88c10.88,8.72,12.93,20.19,6.61,34.27-4.56,10.24-15.12,22.09-30.88,35.87-17.55,15.39-30.84,22.22-40.93,20.24-2-.39-3.81-1.7-5.55-3.95s-3.48-4.46-5.21-6.64l-10.71,29.49a18.82,18.82,0,0,0-1,5.37c-.18,2.93-.35,4.93-.5,6s-1.28,2.88-3.38,5.39-4.23,3.68-6.41,3.54-6.17-2.42-12.13-6.77c-6.28-4.52-10-8.18-10.94-11-.55-1.81.22-4.26,2.33-7.35a22.77,22.77,0,0,0,3.09-5.57q17.2-54,34.4-108.07a9.93,9.93,0,0,0-.23-4.09c-.39-2-.39-3.43,0-4.23q3.9-8.19,10.27-7.13a59.78,59.78,0,0,1,7.91,3.48,54.32,54.32,0,0,0,11.17,4.3c4.17.88,9.86.94,17.12.23s12.41-.74,15.37-.14a23.2,23.2,0,0,1,4.87,1.54,20,20,0,0,1,8,7.26C1361.73,294,1363.94,296.66,1365.55,297.88ZM1343,307.51c-3.14-.65-8.09-.1-14.77,1.69a52.31,52.31,0,0,0-16.34,7.07l-15.18,41.8c7.61-.68,16.76-6.51,27.82-17.44,10.08-9.89,16.85-18.61,19.94-26.3Q1346.9,308.32,1343,307.51Z"/><path class="cls-63" d="M1435.32,404.39q-3.91,6-7.41,5.76a9.84,9.84,0,0,1-1.93-.36c-3.56-1-7.3-3.54-11.32-7.59a35,35,0,0,1-8.47-12.82c-.74-1.84.66-4.52,4.24-8s5.42-5.29,5.47-5.4l33.6-63.18c1.54-2.9,4.69-4.35,9.46-4.32a15.33,15.33,0,0,1,3.73.64,44.7,44.7,0,0,1,12.22,5.74c4.24,2.74,6.52,5.08,6.86,7q.12.62-4.75,9l-39,67.38a19.52,19.52,0,0,0-1.3,3A20.25,20.25,0,0,1,1435.32,404.39Zm-13.88,23.94q-.33,1.64-4.69,8.09-5.7,8.38-6.83,10.36a81.5,81.5,0,0,1-6.61,10,7.47,7.47,0,0,1-6.75,3.08c-1.56-.06-4.84-2.28-10-6.62-5.36-4.66-8.26-8.16-8.59-10.53-.16-1.44,1.18-3.38,4.06-5.79a20.53,20.53,0,0,0,4.52-5.86q1.59-3.77,7.46-14,3.92-5.82,8.58-4.38c3.27,1.15,7.33,3.7,12.08,7.66S1421.66,427,1421.44,428.33Z"/><ellipse class="cls-52" cx="1068.1" cy="608.04" rx="75.45" ry="56.77" transform="translate(216.22 1493.96) rotate(-75.77)"/><ellipse class="cls-18" cx="1065.71" cy="615.59" rx="72.3" ry="54.4" transform="translate(207.11 1497.34) rotate(-75.77)"/><ellipse class="cls-52" cx="930.43" cy="605.62" rx="56.77" ry="75.45" transform="translate(-85.55 158.11) rotate(-9.29)"/><ellipse class="cls-19" cx="1065.26" cy="644.45" rx="31.36" ry="23.59" transform="translate(287.2 1616.41) rotate(-82.5)"/><circle class="cls-18" cx="1073.88" cy="634.08" r="10.42"/><ellipse class="cls-18" cx="931.25" cy="613.49" rx="54.4" ry="72.3" transform="translate(-86.81 158.35) rotate(-9.29)"/><ellipse class="cls-19" cx="936.29" cy="644.45" rx="23.59" ry="31.36" transform="translate(-25.24 38.3) rotate(-2.31)"/><circle class="cls-18" cx="943.02" cy="632.76" r="10.42"/><path class="cls-20" d="M1087.53,736.43c-13,16.34-47.46,25.54-89.63,22.64s-78.66-21.92-81.57-42.58"/><path class="cls-20" d="M1100,737.63c-5.19,4.73-9.1-.14-11-2.18s-8.58-8.84-3.39-13.57"/><path class="cls-20" d="M916.79,703.62c6.23,5.25,1.22,10.49-.84,12.94s-8.86,11.22-15.09,6"/><ellipse class="cls-64" cx="1004.83" cy="866.36" rx="91.19" ry="60.49"/><ellipse class="cls-65" cx="1002.79" cy="863.34" rx="90.79" ry="59.34"/><ellipse class="cls-63" cx="943.79" cy="845.2" rx="3.89" ry="4.01"/><ellipse class="cls-63" cx="929.84" cy="848.14" rx="2.48" ry="2.56"/><ellipse class="cls-63" cx="949.57" cy="829.38" rx="5.62" ry="5.81"/><path class="cls-18" d="M959.51,852.54a1.73,1.73,0,0,1-.12.6,4.9,4.9,0,0,0-.26.76q-.3,9.24-.61,18.48s0,.29.09,1,0,1.42-.37,1.7a3.34,3.34,0,0,1-2.13.3A8.18,8.18,0,0,1,954,875c-1.06-.31-1.63-.66-1.72-1a6.49,6.49,0,0,0,0-1.21c-.87-2.72-1.89-5.71-3-9l-.34,8.31a1.27,1.27,0,0,0,.15.58,4.23,4.23,0,0,1,.22.49,2.69,2.69,0,0,1,.1.84c0,.75-.36,1.13-1,1.16a8.49,8.49,0,0,1-2.58-.44,4.12,4.12,0,0,1-1.74-.78,1.13,1.13,0,0,1,0-1.16,3.32,3.32,0,0,0,.35-.88q.39-8.8.79-17.61a3,3,0,0,0-.06-.5,1.21,1.21,0,0,1,0-.54,2.08,2.08,0,0,1,1.06-1.33,1.81,1.81,0,0,1,.57-.08,7.61,7.61,0,0,1,2,.19,3.43,3.43,0,0,1,1.87.87c.46.55,1,2.23,1.68,5.06a54.36,54.36,0,0,0,2,7c.13-3.67.27-7.35.4-11a2.43,2.43,0,0,0-.08-.63,2.82,2.82,0,0,1-.08-.62,1.42,1.42,0,0,1,.06-.31c.1-.32.44-.57,1-.74a3.5,3.5,0,0,1,1.29-.18,6.66,6.66,0,0,1,1.41.26C959.11,852,959.51,852.23,959.51,852.54Z"/><path class="cls-18" d="M971.61,869.05c.15.27-.21,1.11-1.08,2.51a9.28,9.28,0,0,1-2.75,3.06.94.94,0,0,1-.47.1,7.4,7.4,0,0,1-2.66-.59,4.6,4.6,0,0,1-2.27-1.38A9.3,9.3,0,0,1,961,867a14.48,14.48,0,0,1,1.52-6.25c1-2,2.25-3,3.72-3.1a4.46,4.46,0,0,1,1.93.39,6,6,0,0,1,2.27,1.54,3.43,3.43,0,0,1,.4,1.49,13.07,13.07,0,0,1,.2,2.62,4.57,4.57,0,0,1-.63,2.64,20.14,20.14,0,0,1-5.51,1.19,10.2,10.2,0,0,0,.23,2.87c.22,1,.46,1.51.72,1.52s.78-.32,1.28-1a4.67,4.67,0,0,0,.85-1.4,13.23,13.23,0,0,1,.54-1.74,4,4,0,0,1,1.64.4C971,868.51,971.48,868.79,971.61,869.05Zm-4.43-8.43c-.29,0-.71.48-1.27,1.54a8.88,8.88,0,0,0-1,3,3.3,3.3,0,0,0,1.89-.67c.29-.23.45-1.16.49-2.8C967.3,861,967.27,860.65,967.18,860.62Z"/><path class="cls-18" d="M986.76,858.3a1.23,1.23,0,0,1-.48,1.18l-1,.84c-1.12,1.59-2.24,3.19-3.37,4.78q1.78,2.83,3.59,5.66c.19.22.38.44.57.64a1.2,1.2,0,0,1,.38.8.75.75,0,0,1-.16.45,5.25,5.25,0,0,1-1.53,1,8.55,8.55,0,0,1-1.59.78.85.85,0,0,1-.93-.71,25.83,25.83,0,0,0-2.68-5.11l-2.37,4.06c-.09.36-.18.7-.26,1-.15.54-.38.84-.72.91a5,5,0,0,1-2-.43,3.81,3.81,0,0,1-1.84-1,.6.6,0,0,1-.1-.33,1.49,1.49,0,0,1,.52-.88c.45-.49.68-.76.7-.8q1.85-2.92,3.67-5.85l-3.1-5.3a2.74,2.74,0,0,1-.73-.84q0-.35,1.32-1.29a6,6,0,0,1,1.88-1q.49-.09.66.24a7.13,7.13,0,0,1,.29.69l2.18,4.15,2.56-4.06.27-.75c.07-.17.37-.29.91-.35a5.72,5.72,0,0,1,1.81.59C986.21,857.76,986.71,858.08,986.76,858.3Z"/><path class="cls-18" d="M998.07,859.94a1.58,1.58,0,0,1-.32.89.79.79,0,0,1-.62.39.48.48,0,0,1-.18,0,5.72,5.72,0,0,0-1.64-.13c0,3.66,0,7.32,0,11a3.16,3.16,0,0,1,.17.44,2.41,2.41,0,0,1,.17.84c0,.53-.35.82-1.05.86a6.54,6.54,0,0,1-2-.48c-1.06-.36-1.63-.7-1.7-1a1.83,1.83,0,0,1,.19-.82,3.37,3.37,0,0,0,.25-1l.06-9.85h-.88c-.33,0-.74-.3-1.22-.92a2.8,2.8,0,0,1-.71-1.48,1.09,1.09,0,0,1,.31-.76.91.91,0,0,1,.66-.34h1.86c0-.83,0-1.67,0-2.5a2.11,2.11,0,0,1-.38-1.2.66.66,0,0,1,.47-.72,2.75,2.75,0,0,1,.65-.06,9.48,9.48,0,0,1,2.23.31A4.44,4.44,0,0,1,996,854a.48.48,0,0,1,.18.39,1.7,1.7,0,0,1-.41.83,2.12,2.12,0,0,0-.44.78c0,.5,0,1,0,1.51h.83c.17,0,.53.34,1.09,1A3,3,0,0,1,998.07,859.94Z"/><path class="cls-18" d="M1010.35,852a1.38,1.38,0,0,1-.11.53c-.08.22-.12.36-.14.41a14.44,14.44,0,0,0-.29,1.72l.15,17a1.08,1.08,0,0,0,.16.6.88.88,0,0,1,.16.43c0,1.19-.19,1.82-.61,1.91a5.8,5.8,0,0,1-1.67-.38,6.07,6.07,0,0,1-1.73-.69,1.42,1.42,0,0,1-.58-1,.4.4,0,0,1,.1-.25.82.82,0,0,0,.1-.47q0-9.79-.1-19.57a.79.79,0,0,0-.09-.35.77.77,0,0,1-.1-.34c0-.45.35-.74.95-.88a4.28,4.28,0,0,1,1.09,0,7.32,7.32,0,0,1,1.65.32C1010,851.29,1010.35,851.6,1010.35,852Z"/><path class="cls-18" d="M1022.93,868.9c.16.28-.16,1.1-1,2.45a8.21,8.21,0,0,1-2.63,2.91,1,1,0,0,1-.47.08,7.77,7.77,0,0,1-2.69-.7,5.23,5.23,0,0,1-2.33-1.47,9.75,9.75,0,0,1-1.58-5.78,13.59,13.59,0,0,1,1.26-6.14c.93-1.92,2.12-2.89,3.59-2.91a4.84,4.84,0,0,1,1.95.48,6.62,6.62,0,0,1,2.34,1.62,3.84,3.84,0,0,1,.47,1.5,14.06,14.06,0,0,1,.31,2.61,4.27,4.27,0,0,1-.53,2.59,19.19,19.19,0,0,1-5.46.94,10,10,0,0,0,.35,2.85c.26,1,.52,1.52.78,1.54s.76-.28,1.24-.9a3.85,3.85,0,0,0,.79-1.34,15.16,15.16,0,0,1,.47-1.71,4.3,4.3,0,0,1,1.66.47A3.23,3.23,0,0,1,1022.93,868.9Zm-4.79-8.55c-.29,0-.69.45-1.21,1.47a8,8,0,0,0-.88,3,3.13,3.13,0,0,0,1.87-.59c.27-.21.4-1.13.37-2.76Q1018.28,860.41,1018.14,860.35Z"/><path class="cls-18" d="M1035.87,858.82a73.24,73.24,0,0,0-2.07,8.3,45.56,45.56,0,0,0-1,5.74l0,1.35c0,.59-.2.92-.6,1a9.24,9.24,0,0,1-2.86-.6,6.77,6.77,0,0,1-2.54-1.08,1.17,1.17,0,0,1-.14-.61,1.67,1.67,0,0,0-.07-.52q-1.29-4.06-1.89-6.62a55.2,55.2,0,0,1-1.08-7s0-.21-.06-.47a4.2,4.2,0,0,1-.07-.5.74.74,0,0,1,.51-.81,6.55,6.55,0,0,1,2,.42c1.18.33,1.83.62,1.93.86a.8.8,0,0,1,.09.39,1.91,1.91,0,0,1-.14.7,2,2,0,0,0-.14.56c.22,1.44.44,2.72.64,3.83a26.85,26.85,0,0,0,1.1,4.75c.22-1.6.64-3.67,1.23-6.21.28-1.22.57-2.45.86-3.68,0-.33.09-.66.13-1a.91.91,0,0,1,.63-.67,3.77,3.77,0,0,1,1.67.55A4.14,4.14,0,0,1,1035.87,858.82Z"/><path class="cls-18" d="M1047.77,869.64c.17.28-.14,1.08-.92,2.41a7.76,7.76,0,0,1-2.56,2.85,1.16,1.16,0,0,1-.47.07,8.24,8.24,0,0,1-2.7-.76,5.39,5.39,0,0,1-2.36-1.51,10,10,0,0,1-1.7-5.79,12.87,12.87,0,0,1,1.13-6.08c.89-1.9,2.06-2.85,3.53-2.83a5.07,5.07,0,0,1,2,.52,7.11,7.11,0,0,1,2.37,1.66,4.12,4.12,0,0,1,.5,1.51,13.32,13.32,0,0,1,.36,2.6,4.11,4.11,0,0,1-.47,2.57,18.91,18.91,0,0,1-5.44.81,10.24,10.24,0,0,0,.41,2.86c.28,1,.55,1.51.81,1.54s.76-.26,1.22-.86a3.86,3.86,0,0,0,.77-1.33,13.11,13.11,0,0,1,.43-1.69,4.49,4.49,0,0,1,1.66.51A3.31,3.31,0,0,1,1047.77,869.64Zm-5-8.62c-.29,0-.69.43-1.18,1.44a7.87,7.87,0,0,0-.82,2.92,3.07,3.07,0,0,0,1.86-.54c.27-.21.37-1.12.31-2.74C1043,861.42,1042.9,861.06,1042.81,861Z"/><path class="cls-18" d="M1053.94,853.33a2.09,2.09,0,0,1-.09.52c-.07.21-.11.35-.13.4a15,15,0,0,0-.23,1.7q.39,8.44.77,16.91a1.17,1.17,0,0,0,.18.59,1,1,0,0,1,.18.44c.05,1.17-.13,1.8-.54,1.87a6.53,6.53,0,0,1-1.69-.44,7.25,7.25,0,0,1-1.75-.75,1.56,1.56,0,0,1-.61-1,.33.33,0,0,1,.09-.24.81.81,0,0,0,.09-.47q-.42-9.71-.82-19.42a.83.83,0,0,0-.11-.35.81.81,0,0,1-.1-.35c0-.44.32-.72.91-.84a5.12,5.12,0,0,1,1.09.05,8.49,8.49,0,0,1,1.66.38C1053.55,852.6,1053.92,852.93,1053.94,853.33Z"/><g class="cls-66"><path d="M955.17,538.14l-11-6c-1-.79-1-2-.44-3.27l6.7-11.63c.54-1.12,3.5-2.14,3.78-.89l4.3,20.19C958.83,537.75,956.11,538.79,955.17,538.14Z"/><path d="M996.28,527.09a84.32,84.32,0,0,0-40.92,0,.35.35,0,0,1-.46-.35v-1a.65.65,0,0,1,.46-.59,84.32,84.32,0,0,1,40.92,0,.65.65,0,0,1,.47.59v1A.35.35,0,0,1,996.28,527.09Z"/><path d="M961.77,536.68l.6-.89a3.3,3.3,0,0,0,.36-.69,30,30,0,0,0,0-17.17,3.3,3.3,0,0,0-.36-.69l-.6-.88c-.16-.24-.24-.3-.19-.13a36,36,0,0,1,0,20.57C961.53,537,961.61,536.92,961.77,536.68Z"/><path d="M967.48,538.87l.59-1.1a6,6,0,0,0,.37-.8,37.24,37.24,0,0,0,0-21.43,5.49,5.49,0,0,0-.37-.79l-.59-1.1c-.16-.3-.25-.4-.19-.23a44.7,44.7,0,0,1,0,25.67C967.23,539.27,967.32,539.16,967.48,538.87Z"/><path d="M973.92,541.22c.2-.43.39-.87.59-1.3s.33-.75.37-.89a44.25,44.25,0,0,0,0-25.54c0-.14-.21-.54-.37-.9s-.39-.87-.59-1.3-.25-.5-.2-.33a52.94,52.94,0,0,1,0,30.59C973.67,541.72,973.76,541.58,973.92,541.22Z"/><path d="M979.77,538.87l.59-1.1a6,6,0,0,0,.37-.8,37.24,37.24,0,0,0,0-21.43,5.49,5.49,0,0,0-.37-.79c-.19-.37-.39-.74-.59-1.1s-.25-.4-.19-.23a44.7,44.7,0,0,1,0,25.67C979.52,539.27,979.61,539.16,979.77,538.87Z"/><path d="M985.62,536.33l.6-.89a3.28,3.28,0,0,0,.36-.68,30,30,0,0,0,0-17.17,3.08,3.08,0,0,0-.36-.69l-.6-.89c-.16-.24-.24-.29-.19-.12a36,36,0,0,1,0,20.56C985.38,536.63,985.46,536.57,985.62,536.33Z"/><path d="M990.89,534.51l.59-.71a2.35,2.35,0,0,0,.37-.61,24.16,24.16,0,0,0,0-13.69,2.07,2.07,0,0,0-.37-.61l-.59-.71c-.16-.19-.24-.21-.19,0a29,29,0,0,1,0,16.41C990.64,534.72,990.73,534.7,990.89,534.51Z"/><path d="M1001.5,540.28c-.54,0-5.9-12.26-5.9-12.26a2.82,2.82,0,0,1,.86-3.54s11.48-8.35,12.11-7.63C1001.83,527.79,1002,540.25,1001.5,540.28Z"/><path d="M1032.6,538.14l-11-6c-1-.79-1-2-.44-3.27l6.7-11.63c.55-1.12,3.51-2.14,3.79-.89L1036,536.5C1036.26,537.75,1033.54,538.79,1032.6,538.14Z"/><path d="M1073.72,527.09a84.32,84.32,0,0,0-40.92,0,.35.35,0,0,1-.47-.35v-1a.65.65,0,0,1,.47-.59,84.32,84.32,0,0,1,40.92,0,.65.65,0,0,1,.46.59v1A.35.35,0,0,1,1073.72,527.09Z"/><path d="M1039.21,536.68c.19-.3.39-.59.59-.89a4,4,0,0,0,.37-.69,30,30,0,0,0,0-17.17,4,4,0,0,0-.37-.69l-.59-.88c-.16-.24-.25-.3-.2-.13a36,36,0,0,1,0,20.57C1039,537,1039.05,536.92,1039.21,536.68Z"/><path d="M1044.91,538.87l.6-1.1a5.71,5.71,0,0,0,.36-.8,37.24,37.24,0,0,0,0-21.43,5.22,5.22,0,0,0-.36-.79l-.6-1.1c-.16-.3-.24-.4-.19-.23a44.7,44.7,0,0,1,0,25.67C1044.67,539.27,1044.75,539.16,1044.91,538.87Z"/><path d="M1051.35,541.22l.59-1.3c.16-.35.33-.75.37-.89a44.25,44.25,0,0,0,0-25.54c0-.14-.21-.54-.37-.9l-.59-1.3c-.16-.35-.24-.5-.19-.33a53.11,53.11,0,0,1,0,30.59C1051.11,541.72,1051.19,541.58,1051.35,541.22Z"/><path d="M1057.2,538.87l.6-1.1a5.71,5.71,0,0,0,.36-.8,37.24,37.24,0,0,0,0-21.43,5.22,5.22,0,0,0-.36-.79l-.6-1.1c-.16-.3-.24-.4-.19-.23a44.7,44.7,0,0,1,0,25.67C1057,539.27,1057,539.16,1057.2,538.87Z"/><path d="M1063.06,536.33l.59-.89a3.41,3.41,0,0,0,.37-.68,30,30,0,0,0,0-17.17,3.19,3.19,0,0,0-.37-.69l-.59-.89c-.16-.24-.25-.29-.2-.12a36,36,0,0,1,0,20.56C1062.81,536.63,1062.9,536.57,1063.06,536.33Z"/><path d="M1068.33,534.51l.59-.71a2.28,2.28,0,0,0,.36-.61,24,24,0,0,0,0-13.69,2,2,0,0,0-.36-.61l-.59-.71c-.16-.19-.25-.21-.2,0a29,29,0,0,1,0,16.41C1068.08,534.72,1068.17,534.7,1068.33,534.51Z"/><path d="M1078.93,540.28c-.53,0-5.9-12.26-5.9-12.26a2.84,2.84,0,0,1,.86-3.54s11.49-8.35,12.11-7.63C1079.26,527.79,1079.47,540.25,1078.93,540.28Z"/><path d="M876.22,539.34l-11-6c-1-.79-1-2-.44-3.28l6.69-11.63c.55-1.11,3.51-2.14,3.79-.89l4.3,20.19C879.89,538.94,877.17,540,876.22,539.34Z"/><path d="M917.34,528.29a84.08,84.08,0,0,0-40.92,0,.36.36,0,0,1-.46-.36v-1a.64.64,0,0,1,.46-.59,84.08,84.08,0,0,1,40.92,0,.64.64,0,0,1,.47.59v1A.36.36,0,0,1,917.34,528.29Z"/><path d="M882.83,537.87l.59-.89a3.19,3.19,0,0,0,.37-.69,30,30,0,0,0,0-17.17,3.16,3.16,0,0,0-.37-.68l-.59-.89c-.16-.24-.24-.3-.19-.12a36,36,0,0,1,0,20.56C882.59,538.16,882.67,538.11,882.83,537.87Z"/><path d="M888.54,540.06l.59-1.1a6,6,0,0,0,.37-.79,37.44,37.44,0,0,0,0-21.44,6,6,0,0,0-.37-.79l-.59-1.1c-.16-.3-.25-.4-.2-.23a44.73,44.73,0,0,1,0,25.68C888.29,540.46,888.38,540.36,888.54,540.06Z"/><path d="M895,542.42l.59-1.31c.16-.35.32-.75.37-.89a44.42,44.42,0,0,0,0-25.54c-.05-.14-.21-.54-.37-.89l-.59-1.31c-.16-.35-.25-.5-.2-.33a53.11,53.11,0,0,1,0,30.59C894.73,542.92,894.82,542.77,895,542.42Z"/><path d="M900.83,540.06l.59-1.1a6,6,0,0,0,.37-.79,37.27,37.27,0,0,0,0-21.44,6,6,0,0,0-.37-.79l-.59-1.1c-.16-.3-.25-.4-.2-.23a44.73,44.73,0,0,1,0,25.68C900.58,540.46,900.67,540.36,900.83,540.06Z"/><path d="M906.68,537.52l.59-.88a3.44,3.44,0,0,0,.37-.69,30,30,0,0,0,0-17.17,3.44,3.44,0,0,0-.37-.69l-.59-.89c-.16-.24-.24-.29-.19-.12a36,36,0,0,1,0,20.57C906.44,537.82,906.52,537.76,906.68,537.52Z"/><path d="M912,535.7l.59-.71a2.07,2.07,0,0,0,.37-.61,24.16,24.16,0,0,0,0-13.69,2.35,2.35,0,0,0-.37-.61l-.59-.71c-.16-.19-.25-.21-.2,0a28.82,28.82,0,0,1,0,16.41C911.7,535.91,911.79,535.89,912,535.7Z"/><path d="M922.56,541.47c-.54,0-5.9-12.26-5.9-12.26a2.8,2.8,0,0,1,.86-3.53s11.48-8.36,12.1-7.64C922.89,529,923.09,541.44,922.56,541.47Z"/></g></svg>