<svg id="Layer_1" data-name="Layer 1" xmlns="http://www.w3.org/2000/svg" xmlns:xlink="http://www.w3.org/1999/xlink" width="950" height="800" viewBox="0 0 950 800"><defs><style>.cls-1,.cls-13,.cls-2,.cls-3,.cls-4,.cls-5,.cls-6,.cls-7,.cls-8{stroke-linejoin:round;}.cls-1,.cls-2,.cls-3,.cls-4,.cls-5,.cls-6,.cls-7,.cls-8{stroke-width:16px;}.cls-1{fill:url(#linear-gradient);stroke:url(#linear-gradient-2);}.cls-2{fill:url(#linear-gradient-3);stroke:url(#linear-gradient-4);}.cls-3{fill:url(#linear-gradient-5);stroke:url(#linear-gradient-6);}.cls-4{fill:url(#linear-gradient-7);stroke:url(#linear-gradient-8);}.cls-5{fill:url(#linear-gradient-9);stroke:url(#linear-gradient-10);}.cls-6{fill:url(#linear-gradient-11);stroke:url(#linear-gradient-12);}.cls-7{fill:url(#linear-gradient-13);stroke:url(#linear-gradient-14);}.cls-8{fill:url(#linear-gradient-15);stroke:url(#linear-gradient-16);}.cls-9{fill:#ffffb5;}.cls-10{fill:#c60;}.cls-11{fill:#fff;}.cls-12{fill:#050505;}.cls-13{fill:none;stroke:#000;stroke-linecap:round;stroke-width:2px;}</style><linearGradient id="linear-gradient" x1="101.76" y1="427.77" x2="359.66" y2="427.77" gradientUnits="userSpaceOnUse"><stop offset="0" stop-color="#f15a24"/><stop offset="0.75" stop-color="#f7931e"/></linearGradient><linearGradient id="linear-gradient-2" x1="93.76" y1="427.77" x2="367.66" y2="427.77" gradientUnits="userSpaceOnUse"><stop offset="0" stop-color="#f15a24"/><stop offset="0.73" stop-color="#f7931e"/></linearGradient><linearGradient id="linear-gradient-3" x1="168.32" y1="363.35" x2="417.84" y2="363.35" xlink:href="#linear-gradient"/><linearGradient id="linear-gradient-4" x1="160.32" y1="363.35" x2="425.84" y2="363.35" xlink:href="#linear-gradient-2"/><linearGradient id="linear-gradient-5" x1="270.39" y1="321.71" x2="464.58" y2="321.71" xlink:href="#linear-gradient"/><linearGradient id="linear-gradient-6" x1="262.39" y1="321.71" x2="472.58" y2="321.71" xlink:href="#linear-gradient-2"/><linearGradient id="linear-gradient-7" x1="564.48" y1="427.77" x2="822.38" y2="427.77" xlink:href="#linear-gradient"/><linearGradient id="linear-gradient-8" x1="556.48" y1="427.77" x2="830.38" y2="427.77" xlink:href="#linear-gradient-2"/><linearGradient id="linear-gradient-9" x1="506.3" y1="363.35" x2="755.82" y2="363.35" xlink:href="#linear-gradient"/><linearGradient id="linear-gradient-10" x1="498.3" y1="363.35" x2="763.82" y2="363.35" xlink:href="#linear-gradient-2"/><linearGradient id="linear-gradient-11" x1="459.56" y1="321.71" x2="653.75" y2="321.71" xlink:href="#linear-gradient"/><linearGradient id="linear-gradient-12" x1="451.56" y1="321.71" x2="661.75" y2="321.71" xlink:href="#linear-gradient-2"/><linearGradient id="linear-gradient-13" x1="384.19" y1="294.23" x2="543.17" y2="294.23" xlink:href="#linear-gradient"/><linearGradient id="linear-gradient-14" x1="376.19" y1="294.23" x2="551.17" y2="294.23" xlink:href="#linear-gradient-2"/><linearGradient id="linear-gradient-15" x1="306.61" y1="633.75" x2="612.72" y2="633.75" xlink:href="#linear-gradient"/><linearGradient id="linear-gradient-16" x1="298.61" y1="633.75" x2="620.72" y2="633.75" xlink:href="#linear-gradient-2"/></defs><title>level up ui</title><path class="cls-1" d="M324.63,434.61c61,109,29.34,109.09,2.28,124.31-14.6,8.21-10.59,34.79-131.65-64.9s-104.2-149.4-62.47-186.46C187.24,259.2,246.66,295.3,324.63,434.61Z"/><path class="cls-2" d="M384.41,398.25c42.33,141.56,50.73,145.45-11.84,145.45-25.82,0-25.9,26.45-131.36-126.34S162.13,216,211.61,190.12C276.17,156.41,330.29,217.3,384.41,398.25Z"/><path class="cls-3" d="M454.1,368.18c11.09,160.57,24.37,173.85-24,175.52-49.05,1.69-50-4.77-120.58-194.35S275.22,115.75,329.32,102C399.91,84.07,439.92,162.9,454.1,368.18Z"/><path class="cls-4" d="M599.51,434.61c-61,109-29.34,109.09-2.28,124.31,14.59,8.21,10.58,34.79,131.65-64.9s104.19-149.4,62.47-186.46C736.9,259.2,677.48,295.3,599.51,434.61Z"/><path class="cls-5" d="M539.73,398.25C497.4,539.81,489,543.7,551.57,543.7c25.81,0,25.9,26.45,131.36-126.34S762,216,712.53,190.12C648,156.41,593.85,217.3,539.73,398.25Z"/><path class="cls-6" d="M470,368.18C459,528.75,445.67,542,494.07,543.7c49,1.69,50-4.77,120.58-194.35S648.92,115.75,594.82,102C524.23,84.07,484.22,162.9,470,368.18Z"/><path class="cls-7" d="M399,353.08c25.43,171.47,24,192.31,69.7,192.31,40.59,0,40.92-30.73,66.94-247.08S516.31,44.46,460.51,43.1C387.69,41.33,366.5,133.87,399,353.08Z"/><rect class="cls-8" x="306.61" y="536.93" width="306.11" height="193.64" rx="27.1" ry="27.1"/><path class="cls-9" d="M155.48,358.38q1.44,8.63-2.39,11.43a7.52,7.52,0,0,1-3.73,1.07,6,6,0,0,0-3.38,1q-10.64,8.49-20.84,17.15c-.64.55-1,1.74-1,3.56s-.42,3-1.11,3.39c-2.07,1.59-7.82,2.14-17.38,1.8s-15.91-1.29-18.92-3q-3.44-2.14-6-8.08a43.17,43.17,0,0,0-2-4.31q-32-56.64-64-113.28a8.91,8.91,0,0,0-3.27-2.39A4.93,4.93,0,0,1,9,265c-.94-2.21.58-4.48,4.6-6.8,2.6-1.39,9.41-2.34,20.33-2.72,12.35-.36,19.44,1.3,21.37,4.79q.69,1.37-.17,4.68c-.57,2.22-.61,3.78-.14,4.69l48.66,94.25q7.41-6.33,15-12.58,1-1.79,4.75-4.64c1.59-.65,7.39.64,17.15,4S155.24,356.66,155.48,358.38Z"/><path class="cls-9" d="M242.66,342.31a14.34,14.34,0,0,1-1.11,7q-1.5,3.88-3.23,4.93c-.32.18-1,.08-2.17-.28a5.69,5.69,0,0,0-2.59-.39,1.42,1.42,0,0,0-.66.3,57.81,57.81,0,0,0-9.61,6.21A74.45,74.45,0,0,0,205,379.92c-13.43-2.44-20.91-3.64-22.14-3.88-8.54-1.57-13.19-3-13.84-4.55L112.83,241.06c-.34-.81.79-2.33,3.44-4.55s4.78-3.44,6.37-3.65,5.48-.07,11.2.57,10.16.66,13.38,0c4.19-.84,9-3.48,14.63-7.91,5.08-4.21,8.54-6.21,10.25-6,3.73.32,9.87,2.49,18.28,6.57s13.15,7.25,14.43,9.39c.61,1-.09,3.05-2.07,6.11s-3.83,4.75-5.61,5.06a8.18,8.18,0,0,1-3.46,0c-.81-.23-1.33-.26-1.56-.1a109.32,109.32,0,0,0-12.56,5.81c-9,4.8-15.12,9.63-18.34,14.41q5.5,14.26,11,28.51a107.72,107.72,0,0,1,15.36-9.93c2-.62,7.39,1.15,15.95,5.4s13.09,7.51,13.8,9.62q.63,1.95-1.16,5a10.34,10.34,0,0,1-4,4.26q-1.9.33-6.52,1.54c-4.51,1.71-11.69,7-21.08,16.06l7.08,18.36a128.92,128.92,0,0,1,12.13-10.36c5.28-4.07,8.72-6.22,10.2-6.49,1.72-.31,7,1.44,15.6,5.36S242.45,340.86,242.66,342.31Z"/><path class="cls-9" d="M336.75,213.23c-4.73,16.53-8.75,41.44-11.09,74.68-2.11,30-2.08,47-1.2,50.95a72.57,72.57,0,0,0,2,8.2,14.34,14.34,0,0,1,.3,7.65c-.59,3-1.84,4.78-3.75,5.36-3.25,1.11-10.31.56-21.39-1.46s-17.83-4.05-20-6.33a11.74,11.74,0,0,1-2.49-4.45,29.12,29.12,0,0,0-1.83-4.73c-25.27-40.84-46.1-77.56-59.53-110.83a16.92,16.92,0,0,0-2.18-3.56,10.18,10.18,0,0,1-1.55-3.65q-.86-6.36,3.82-8.57c1.55-.73,7.84-.54,18.74.73,11.5,1.32,18,3,19.64,4.86.86,1.11,1.49,3.6,1.91,7.48a10.09,10.09,0,0,1-.65,3.31,5.28,5.28,0,0,0-.14,3.61q7.94,18.28,14.08,32.2c10,22.26,16.37,35.42,19.67,39.42-.51-11.33-.06-26,1.77-43.92s2.93-32.83,2.88-44.66a41.94,41.94,0,0,1,0-9.33,9.55,9.55,0,0,1,5.89-6.29c2.16-.83,7.72-.36,16.57,1.48C327.84,207.53,334,210.18,336.75,213.23Z"/><path class="cls-9" d="M450.09,323.25a16,16,0,0,1-2.95,6.65c-1.67,2.39-3.14,3.84-4.44,4.35-.36.13-1-.07-2-.58a5.19,5.19,0,0,0-2.39-.75,1.77,1.77,0,0,0-.72.2,65.15,65.15,0,0,0-10.92,4.7,88.27,88.27,0,0,0-22.88,16.78c-12.24-4.28-19.08-6.51-20.2-6.93-7.76-2.73-11.82-4.83-12-6.4q-9.6-67.63-19.18-135.26c-.12-.84,1.37-2.16,4.5-4s5.49-2.67,7.08-2.65,5.26.71,10.58,2.15,9.58,2.08,12.84,1.91c4.26-.22,9.61-2.11,16.19-5.64,6-3.39,9.87-4.84,11.48-4.42,3.5.85,8.84,3.83,15.86,9s10.75,8.94,11.4,11.21c.32,1.08-.9,3-3.64,5.67s-5,4.09-6.77,4.14a7.71,7.71,0,0,1-3.35-.45c-.72-.34-1.21-.45-1.48-.32a119.2,119.2,0,0,0-13.66,3.89c-10,3.4-17.13,7.25-21.49,11.46q1.47,14.69,2.95,29.38a122.63,122.63,0,0,1,17.41-7.51c2.1-.33,6.8,2.16,13.92,7.54s10.6,9.18,10.71,11.34c.07,1.33-.76,2.91-2.47,4.76a12.22,12.22,0,0,1-5,3.59q-1.94.06-6.7.58c-4.8,1-13.14,5.19-24.56,12.67q.94,9.47,1.9,18.93a148.76,148.76,0,0,1,14.42-8.39c6.16-3.22,10-4.83,11.55-4.88,1.74-.06,6.34,2.4,13.6,7.44S450.27,321.81,450.09,323.25Z"/><path class="cls-9" d="M544.37,323.44q-3,8.35-7.79,9.94a8.17,8.17,0,0,1-3.91,0,6.42,6.42,0,0,0-3.54,0q-13.78,5.1-27.16,10.46c-.85.35-1.74,1.36-2.68,3s-1.83,2.61-2.66,2.84c-2.62.93-8.05,0-16.43-2.82s-13.55-5.29-15.38-7.69c-1.35-1.91-1.83-4.91-1.41-9a37.61,37.61,0,0,0,.28-4.51q-1-60.61-2.05-121.24a6.2,6.2,0,0,0-1.75-3.05,3.5,3.5,0,0,1-1.32-2.16c.23-2.28,2.7-4,7.41-5.1,3-.61,9.53.26,19.49,2.73,11.23,2.85,16.79,6.22,16.82,9.94q0,1.44-2.45,4.29c-1.59,1.9-2.39,3.33-2.42,4.29q-1.2,49.85-2.42,99.69,9.74-3.94,19.66-7.74a24.13,24.13,0,0,1,6.55-3.07c1.76-.18,6.34,2.5,13.51,8.13S545,321.79,544.37,323.44Z"/><path class="cls-9" d="M722.26,228q.76-1.9-9.53,33.59c-19.68,66.73-39.05,99.68-57.91,99.45a27.93,27.93,0,0,1-11.45-3.24l-12.68-6.18q-5.57-2.06-11.2-4.36a17.64,17.64,0,0,1-8.37-6.35c-3.94-5.81-5.89-17.81-6-36.06a348.37,348.37,0,0,1,4.72-55.39,255,255,0,0,1,9.56-40.66,9.15,9.15,0,0,1,7.37-6.59c1.65-.33,7,1,15.86,4.07s13.89,5.53,15.12,7.23a3.62,3.62,0,0,1,.46,3c-.33,1.54-1.48,3.57-3.43,6.08s-3,4.55-3.18,6.1q-1.74,3.27-5.06,19.45a511.05,511.05,0,0,0-8.62,57c-2,22.08-.88,33.11,3.8,33.16,5.91.08,12.63-9.72,20.52-29.4a405.73,405.73,0,0,0,17.08-54.19q5.12-20.68,5-26.18a10.69,10.69,0,0,0,.6-5.95,28,28,0,0,1-.86-4.48c.12-4.12,2.39-6.94,6.86-8.43a9.18,9.18,0,0,1,3.76-.05c4.25.56,10,2.25,17.15,5.1s11.15,5,12.08,6.37C724.44,222.07,723.9,224.38,722.26,228Z"/><path class="cls-9" d="M825,244c10.88,8.72,12.93,20.2,6.61,34.28-4.56,10.23-15.13,22.08-30.89,35.86-17.54,15.4-30.84,22.22-40.92,20.24-2-.38-3.81-1.7-5.55-3.95s-3.48-4.46-5.22-6.63l-10.71,29.48a19.31,19.31,0,0,0-1,5.37c-.18,2.93-.35,4.94-.49,6s-1.28,2.88-3.39,5.39-4.23,3.69-6.4,3.54-6.17-2.42-12.13-6.76c-6.28-4.52-10-8.18-10.94-11-.55-1.8.21-4.25,2.33-7.34a23,23,0,0,0,3.09-5.57q17.21-54,34.4-108.07a10.18,10.18,0,0,0-.24-4.09c-.39-2-.38-3.44,0-4.23,2.6-5.47,6-7.85,10.28-7.13a59.5,59.5,0,0,1,7.91,3.48A54.56,54.56,0,0,0,773,227.09c4.17.88,9.85.95,17.12.23s12.4-.73,15.36-.14a23,23,0,0,1,4.87,1.55,20,20,0,0,1,8,7.25C821.21,240.08,823.42,242.73,825,244Zm-22.55,9.63c-3.15-.64-8.1-.09-14.77,1.69a52.78,52.78,0,0,0-16.34,7.07q-7.59,20.91-15.19,41.81c7.61-.68,16.77-6.52,27.82-17.45,10.09-9.88,16.85-18.6,20-26.29C805.57,256.39,805.07,254.11,802.48,253.58Z"/><path class="cls-9" d="M894.8,350.47q-3.91,6-7.42,5.76a11.77,11.77,0,0,1-1.93-.36c-3.55-1-7.29-3.55-11.31-7.6a35.19,35.19,0,0,1-8.48-12.81c-.73-1.85.66-4.53,4.24-8s5.42-5.3,5.48-5.41L909,258.84c1.54-2.89,4.68-4.34,9.46-4.31a14.93,14.93,0,0,1,3.73.64,44.36,44.36,0,0,1,12.22,5.73c4.24,2.75,6.51,5.09,6.86,7q.12.62-4.75,9l-39,67.38a19.77,19.77,0,0,0-1.3,3A20.42,20.42,0,0,1,894.8,350.47ZM880.91,374.4q-.31,1.65-4.69,8.09-5.69,8.38-6.83,10.37a81.12,81.12,0,0,1-6.61,10A7.47,7.47,0,0,1,856,406c-1.56-.05-4.84-2.27-10-6.62-5.36-4.66-8.26-8.15-8.6-10.53-.16-1.44,1.18-3.37,4.06-5.79a20.42,20.42,0,0,0,4.52-5.85q1.61-3.78,7.47-14,3.91-5.83,8.57-4.38c3.28,1.14,7.33,3.69,12.09,7.66S881.13,373.06,880.91,374.4Z"/><ellipse class="cls-10" cx="527.57" cy="554.11" rx="75.45" ry="56.77" transform="translate(-139.2 929.33) rotate(-75.77)"/><ellipse class="cls-11" cx="525.19" cy="561.66" rx="72.3" ry="54.4" transform="translate(-148.31 932.72) rotate(-75.77)"/><ellipse class="cls-10" cx="389.9" cy="551.69" rx="56.77" ry="75.45" transform="translate(-83.93 70.17) rotate(-9.29)"/><ellipse class="cls-12" cx="524.73" cy="590.52" rx="31.36" ry="23.59" transform="translate(-129.26 1033.63) rotate(-82.5)"/><circle class="cls-11" cx="533.36" cy="580.16" r="10.42"/><ellipse class="cls-11" cx="390.73" cy="559.56" rx="54.4" ry="72.3" transform="translate(-85.19 70.4) rotate(-9.29)"/><ellipse class="cls-12" cx="395.76" cy="590.52" rx="23.59" ry="31.36" transform="translate(-23.51 16.45) rotate(-2.31)"/><circle class="cls-11" cx="402.5" cy="578.84" r="10.42"/><path class="cls-13" d="M547,682.5c-13,16.34-47.45,25.54-89.62,22.64s-78.67-21.92-81.58-42.57"/><path class="cls-13" d="M559.51,683.7c-5.19,4.73-9.1-.13-11-2.17s-8.59-8.85-3.4-13.58"/><path class="cls-13" d="M376.26,649.7c6.23,5.24,1.23,10.48-.83,12.93s-8.86,11.22-15.09,6"/><path class="cls-9" d="M137.71,623.77a1.29,1.29,0,0,1-.39.9.94.94,0,0,1-.9.25,13,13,0,0,1-1.84-1.11c-1-.63-1.51-1-1.53-1.23a1.64,1.64,0,0,1,.07-.43,1.58,1.58,0,0,0,.07-.4c0-3.18-.07-6.35-.1-9.53,0-.34-.42-.58-1.23-.61s-1.42-.14-1.56-.42a1.1,1.1,0,0,1-.13-.45,2.4,2.4,0,0,1,.56-1.33c.53-.75.85-1.2,1-1.4.21-.62.42-1.24.64-1.86a1.71,1.71,0,0,1,1.69-1.07,4.57,4.57,0,0,1,2.48.83c.9.6,1.33,1.23,1.31,1.78l-.51,14.81a1.24,1.24,0,0,0,.21.62A1.5,1.5,0,0,1,137.71,623.77Z"/></svg>