<svg id="Layer_1" data-name="Layer 1" xmlns="http://www.w3.org/2000/svg" xmlns:xlink="http://www.w3.org/1999/xlink" width="90" height="40" viewBox="0 0 90 40"><defs><style>.cls-1{fill:url(#linear-gradient);}.cls-2{fill:url(#linear-gradient-2);}.cls-3{fill:url(#linear-gradient-3);}.cls-4{fill:url(#linear-gradient-4);}.cls-5{fill:url(#linear-gradient-5);}.cls-6{fill:url(#linear-gradient-6);}.cls-7{fill:url(#linear-gradient-7);}.cls-8{fill:url(#linear-gradient-8);}.cls-9{fill:url(#linear-gradient-9);}</style><linearGradient id="linear-gradient" x1="3.74" y1="20.99" x2="22.95" y2="20.99" gradientUnits="userSpaceOnUse"><stop offset="0.22"/><stop offset="0.34" stop-color="#00042f"/><stop offset="0.53" stop-color="#000975"/><stop offset="0.7" stop-color="#000da8"/><stop offset="0.82" stop-color="#000fc8"/><stop offset="0.89" stop-color="#0010d4"/></linearGradient><linearGradient id="linear-gradient-2" x1="18.3" y1="18.27" x2="71.3" y2="18.27" xlink:href="#linear-gradient"/><linearGradient id="linear-gradient-3" x1="26.72" y1="20.33" x2="29.8" y2="20.33" xlink:href="#linear-gradient"/><linearGradient id="linear-gradient-4" x1="33.95" y1="20" x2="37.44" y2="20" xlink:href="#linear-gradient"/><linearGradient id="linear-gradient-5" x1="42.1" y1="20" x2="45.98" y2="20" xlink:href="#linear-gradient"/><linearGradient id="linear-gradient-6" x1="49.51" y1="20" x2="53" y2="20" xlink:href="#linear-gradient"/><linearGradient id="linear-gradient-7" x1="56.92" y1="19.89" x2="60.01" y2="19.89" xlink:href="#linear-gradient"/><linearGradient id="linear-gradient-8" x1="63.59" y1="20.11" x2="66.35" y2="20.11" xlink:href="#linear-gradient"/><linearGradient id="linear-gradient-9" x1="69.48" y1="22.89" x2="86.26" y2="22.89" xlink:href="#linear-gradient"/></defs><title>liv ui</title><path class="cls-1" d="M18.64,35,4.76,27.39c-1.26-1-1.24-2.53-.56-4.14l8.49-14.7c.69-1.42,4.44-2.71,4.79-1.13L22.92,33C23.28,34.53,19.83,35.85,18.64,35Z"/><path class="cls-2" d="M70.83,21.09a106.42,106.42,0,0,0-52.06,0,.36.36,0,0,1-.47-.36V19.26a.65.65,0,0,1,.47-.59,106.66,106.66,0,0,1,52.06,0,.65.65,0,0,1,.47.59v1.47A.36.36,0,0,1,70.83,21.09Z"/><path class="cls-3" d="M26.93,33.29l.9-1.35a3,3,0,0,0,.37-.69,38,38,0,0,0,0-21.85,2.77,2.77,0,0,0-.37-.68l-.9-1.35c-.16-.24-.25-.3-.2-.13a45.46,45.46,0,0,1,0,26.17C26.68,33.59,26.77,33.53,26.93,33.29Z"/><path class="cls-4" d="M34.16,36.09l.9-1.68a6.88,6.88,0,0,0,.37-.79,47.15,47.15,0,0,0,0-27.24,5.49,5.49,0,0,0-.37-.79l-.9-1.68c-.16-.29-.25-.4-.2-.22a56.45,56.45,0,0,1,0,32.62C33.91,36.49,34,36.38,34.16,36.09Z"/><path class="cls-5" d="M42.31,39.1l.9-2c.17-.35.32-.75.37-.89a56,56,0,0,0,0-32.44c0-.14-.21-.54-.37-.89l-.9-2c-.16-.35-.25-.49-.2-.32a67.08,67.08,0,0,1,0,38.84C42.06,39.59,42.15,39.45,42.31,39.1Z"/><path class="cls-6" d="M49.72,36.09l.9-1.68a4.57,4.57,0,0,0,.37-.79A47.15,47.15,0,0,0,51,6.38a4.57,4.57,0,0,0-.37-.79l-.9-1.68c-.16-.29-.25-.4-.19-.22a56.62,56.62,0,0,1,0,32.62C49.47,36.49,49.56,36.38,49.72,36.09Z"/><path class="cls-7" d="M57.13,32.85,58,31.5a3.57,3.57,0,0,0,.36-.69A38,38,0,0,0,58.4,9,3.3,3.3,0,0,0,58,8.28l-.91-1.35c-.16-.24-.24-.3-.19-.13a45.58,45.58,0,0,1,0,26.18C56.89,33.15,57,33.09,57.13,32.85Z"/><path class="cls-8" d="M63.8,30.53c.3-.37.61-.73.91-1.09a2.1,2.1,0,0,0,.36-.6,30.52,30.52,0,0,0,0-17.46,2.1,2.1,0,0,0-.36-.6L63.8,9.69c-.16-.19-.24-.21-.19,0a36.66,36.66,0,0,1,0,20.91C63.55,30.74,63.64,30.72,63.8,30.53Z"/><path class="cls-9" d="M77.31,37.73c-.68.05-7.47-15.5-7.47-15.5a3.56,3.56,0,0,1,1.09-4.47S85.47,7.19,86.26,8.11C77.73,21.94,78,37.69,77.31,37.73Z"/></svg>