<svg id="Layer_1" data-name="Layer 1" xmlns="http://www.w3.org/2000/svg" xmlns:xlink="http://www.w3.org/1999/xlink" width="430" height="370" viewBox="0 0 430 370"><defs><style>.cls-1{fill:#3a6d19;}.cls-2{fill:url(#linear-gradient);}.cls-3{fill:#d88a55;}.cls-4{fill:url(#linear-gradient-2);}.cls-5{fill:url(#linear-gradient-3);}.cls-6{fill:#3b7515;}.cls-7{fill:url(#linear-gradient-4);}.cls-8{fill:#29590a;}.cls-9{fill:url(#linear-gradient-5);}.cls-10{fill:#d6551a;}.cls-11{fill:#c63;}.cls-12{fill:#dd6b1d;}.cls-13{fill:#d87a35;}.cls-14{fill:#ad5e1e;}.cls-15{fill:url(#linear-gradient-6);}.cls-16{fill:#315916;}.cls-17{fill:#fff;}.cls-18{fill:#1270d0;}.cls-19{fill:#050505;}.cls-20{fill:#f9f9f9;}.cls-21{fill:none;stroke:#29590a;stroke-linecap:round;stroke-linejoin:round;}.cls-22{fill:#78c943;}</style><linearGradient id="linear-gradient" x1="-123.11" y1="1117.96" x2="7.39" y2="1193.31" gradientTransform="translate(1172.4 -414.83) rotate(52.34)" gradientUnits="userSpaceOnUse"><stop offset="0.24" stop-color="#3b7218"/><stop offset="0.94" stop-color="#83c458"/></linearGradient><linearGradient id="linear-gradient-2" x1="427.79" y1="327.96" x2="459.46" y2="346.25" gradientTransform="matrix(1.21, 0.07, 0.55, 1.2, -644.9, -248.22)" xlink:href="#linear-gradient"/><linearGradient id="linear-gradient-3" x1="16.53" y1="185.24" x2="104.65" y2="236.12" gradientTransform="matrix(1, 0, 0, 1, 0, 0)" xlink:href="#linear-gradient"/><linearGradient id="linear-gradient-4" x1="42.66" y1="219.58" x2="98.07" y2="251.57" gradientTransform="matrix(1, 0, 0, 1, 0, 0)" xlink:href="#linear-gradient"/><linearGradient id="linear-gradient-5" x1="84.29" y1="499.95" x2="180.24" y2="490.15" gradientTransform="translate(282.22 -252.71) rotate(15.83)" gradientUnits="userSpaceOnUse"><stop offset="0.24" stop-color="#3b7218"/><stop offset="0.82" stop-color="#83c458"/></linearGradient><linearGradient id="linear-gradient-6" x1="165.09" y1="136.92" x2="188.89" y2="313.8" gradientTransform="translate(212.34 -164.79) rotate(14.23)" xlink:href="#linear-gradient"/></defs><title>mr turtle</title><path class="cls-1" d="M259.61,251.45c-5,6.24-23.34,46.57-52,64.87-17.22,11-37.77,13.25-40.79,9.52-6.63-8.18,14.39-19.73,20.08-46.32,13.31-62.21,45.71-80.78,55.52-80.78,6.83,0-8.89-27.11-1.1-31.86,6.8-4.14,18.71-2.36,24.35-.43,14.92,5.11-3.52,18.67,4.5,29.06C286.05,216.14,266.62,242.7,259.61,251.45Z"/><path class="cls-2" d="M263.39,250.82c-5,6.2-23.25,47.11-51.75,65.29-17.09,10.9-37.5,13.15-40.5,9.45-6.58-8.12,14.29-19.59,19.94-46,13.22-61.77,45.38-80.2,55.13-80.2,6.78,0-8.83-26.92-1.1-31.64,6.75-4.11,18.58-2.34,24.18-.42,14.82,5.07-3.5,18.53,4.47,28.85C289.57,216.63,270.36,242.13,263.39,250.82Z"/><ellipse class="cls-3" cx="139.14" cy="195.64" rx="39.73" ry="29.96"/><ellipse class="cls-3" cx="179.19" cy="200.37" rx="37.53" ry="28.38"/><ellipse class="cls-3" cx="216.72" cy="187.75" rx="42.89" ry="30.9"/><path class="cls-4" d="M66.63,181.26c-.95.22-15.07-1.33-16.28-.95s-1.36,1.26-.18,4c1,2.34,21,13.49,25.66,14.79,7.23,2,22-5.71,23.31-6.93s-4.8-7.32-5.63-8.12C92,182.64,76.75,179,66.63,181.26Z"/><path class="cls-5" d="M48.11,199c-2.5.65-34.27-1.07-37.56,0s-4.59,3.2-4.79,9.64C5.6,214.14,40.89,238,50.59,240.4c15,3.76,58.36-16.69,62.72-19.78s-3.47-16.81-4.56-18.61C106.79,198.79,74.57,192.14,48.11,199Z"/><path class="cls-6" d="M44.45,243.88c-1.69,2.75-28.26,17.42-30.33,21.26-2.14,4-1.62,6.94,3,13.16,3.89,5.26,52.11-2.6,62.33-8.64,15.77-9.31,38.31-65.73,39.82-72.37s-15.43-12.81-17.7-13.56C97.45,182.38,62.32,214.72,44.45,243.88Z"/><path class="cls-7" d="M47.37,244.06c-1.74,2.72-28.61,16.84-30.75,20.64s-1.76,6.9,2.7,13.21c3.77,5.35,52.15-1.53,62.48-7.35,16-9,39.66-64.93,41.3-71.55s-15.16-13.12-17.42-13.92C101.63,183.66,65.84,215.27,47.37,244.06Z"/><circle class="cls-8" cx="64.09" cy="241.36" r="6.94"/><path class="cls-8" d="M72.29,208.57c5.33,5,6.49,13.69,1.81,18.73s-12.81,5.11-18.14.15l8.76-10.68Z"/><circle class="cls-8" cx="94.05" cy="211.4" r="10.41"/><circle class="cls-8" cx="87.74" cy="229.06" r="4.1"/><circle class="cls-8" cx="77.02" cy="232.22" r="2.84"/><path class="cls-1" d="M320.77,227.7c-.33,8.7-4.56,64.39-17.82,99-8,20.78-24.49,36.08-29.55,34.77-11.11-2.86-.19-26.6-12.44-53.57-28.67-63.11-12.33-100.36-3.73-106.72,6-4.42-25.37-18-21.62-27.19,3.27-8,14.85-14.19,21-16.16,16.38-5.2,9,18.63,22.78,22.53C306.74,188.13,321.24,215.48,320.77,227.7Z"/><path class="cls-9" d="M325.82,227.7c-.34,8.7-4.56,64.39-17.83,99-8,20.78-24.49,36.08-29.55,34.77-11.1-2.86-.19-26.6-12.44-53.57-28.66-63.11-12.33-100.36-3.73-106.72,6-4.42-25.36-18-21.61-27.19,3.26-8,14.85-14.19,21-16.16,16.38-5.2,9,18.63,22.78,22.53C311.78,188.13,326.29,215.48,325.82,227.7Z"/><path class="cls-10" d="M281.83,128.55c6.42,22.12-43.52,64.95-91.92,75.92S89.84,213.75,72.72,185.82s29-11.94,63.56-16.12C251.68,155.74,275.42,106.43,281.83,128.55Z"/><path class="cls-11" d="M281.83,123.5c6.42,22.13-43.52,65-91.92,75.92S89.84,208.71,72.72,180.77s29-11.93,63.56-16.12C251.68,150.7,275.42,101.38,281.83,123.5Z"/><path class="cls-12" d="M161.53,87.16c20.91-4.48,34.72-2.11,47.93,6.3,6.94,4.42,50.46,1.9,59.29,37.85,1.68,6.84-19.55,34.68-27.75,41-23.3,17.93-49.83,10.72-61.81,15.77-50.28,21.17-49.19-1.89-61.81-.63-30.78,3.08-35-11.76-34.69-27.12.61-27.77,24-39.74,29.65-42.89C118.62,113.94,126.21,94.72,161.53,87.16Z"/><path class="cls-13" d="M162.79,82.74c20.91-4.48,34.72-2.1,47.94,6.31,6.93,4.41,50.45,1.89,59.28,37.84,1.68,6.85-19.55,34.69-27.75,41-23.3,17.92-49.82,10.72-61.81,15.76-50.27,21.17-49.19-1.89-61.81-.63-30.77,3.08-35-11.76-34.69-27.12.61-27.77,24-39.73,29.65-42.89C119.88,109.52,127.47,90.31,162.79,82.74Z"/><circle class="cls-8" cx="80.17" cy="206.99" r="2.84"/><circle class="cls-8" cx="307.54" cy="218.66" r="12.61"/><circle class="cls-8" cx="282.31" cy="228.12" r="8.83"/><circle class="cls-8" cx="296.19" cy="233.16" r="3.78"/><path class="cls-8" d="M322.11,267c-7.23-.82-13-10.24-11.8-20.85s8.05-18.56,15.28-17.74L324,249.82Z"/><circle class="cls-8" cx="297.13" cy="196.9" r="6.62"/><circle class="cls-8" cx="284.83" cy="208.57" r="4.41"/><circle class="cls-8" cx="300.92" cy="247.99" r="6.62"/><ellipse class="cls-14" cx="164.24" cy="108.41" rx="43.13" ry="21.44" transform="translate(-21.04 42.09) rotate(-13.73)"/><ellipse class="cls-14" cx="108.92" cy="149.8" rx="26.96" ry="20.59" transform="translate(-74.23 177.37) rotate(-62.54)"/><ellipse class="cls-14" cx="160.55" cy="160.44" rx="29.31" ry="25.12" transform="matrix(0.99, -0.15, 0.15, 0.99, -22.08, 25.66)"/><ellipse class="cls-14" cx="222.97" cy="136.47" rx="32.5" ry="29.14" transform="translate(-36.82 107.39) rotate(-25.08)"/><path class="cls-15" d="M247.58,76.56c-2.18,8.56-14.82.79-19.81,21.65-10.25,42.86,34.48,72.51,80.79,84.25,50,12.66,103.34,11.39,115.06-35.35,3.66-14.58-10.27-23.79-9-28.85,8.63-34,11.46-70.82-11.45-78.42C378.67,31.71,387.73,19.05,353,10.9s-29.4,6.86-48.66,3.28C275.83,8.87,256.88,39.85,247.58,76.56Z"/><ellipse class="cls-16" cx="296.05" cy="64.94" rx="35.63" ry="27.75" transform="translate(160.35 335.95) rotate(-75.77)"/><ellipse class="cls-16" cx="383.55" cy="85.5" rx="37.21" ry="27.44" transform="translate(206.42 436.28) rotate(-75.77)"/><ellipse class="cls-17" cx="381.79" cy="87.98" rx="35" ry="26.34" transform="translate(202.69 436.44) rotate(-75.77)"/><ellipse class="cls-17" cx="297.82" cy="69.51" rx="34.79" ry="26.17" transform="translate(157.25 341.11) rotate(-75.77)"/><ellipse class="cls-18" cx="302.82" cy="76.2" rx="21.13" ry="15.9" transform="translate(119.02 328.63) rotate(-68.07)"/><ellipse class="cls-19" cx="303.92" cy="80.53" rx="15.18" ry="11.42" transform="translate(144.55 351.55) rotate(-74.38)"/><circle class="cls-20" cx="301.62" cy="72.31" r="2.84"/><ellipse class="cls-18" cx="375.01" cy="91.85" rx="21.13" ry="15.9" transform="translate(173.21 421.01) rotate(-72.25)"/><ellipse class="cls-19" cx="374" cy="93.75" rx="15.18" ry="11.42" transform="translate(170.7 421.37) rotate(-72.25)"/><circle class="cls-20" cx="381.79" cy="87.83" r="2.84"/><ellipse class="cls-8" cx="317.95" cy="110.49" rx="4.1" ry="2.21" transform="translate(73.28 341.66) rotate(-62.54)"/><ellipse class="cls-8" cx="343.8" cy="117.11" rx="2.21" ry="3.78" transform="translate(-16.23 69.23) rotate(-11.24)"/><path class="cls-21" d="M361.46,140.14c-6.37,6.37-21.64,8.62-39.6,5.28s-32.7-13.3-32.93-22.31"/><path class="cls-21" d="M366.78,141.27c-2.47,1.77-3.91-.51-4.6-1.48s-3.25-4.22-.79-6"/><path class="cls-21" d="M289.77,117.6c2.41,2.56,0,4.57-1,5.51s-4.36,4.39-6.78,1.82"/><ellipse class="cls-22" cx="270.4" cy="103.71" rx="3.54" ry="8.45" transform="translate(53.69 295.82) rotate(-62.54)"/><ellipse class="cls-22" cx="382.91" cy="131.22" rx="8.51" ry="2.93"/><circle class="cls-8" cx="340.03" cy="27.24" r="5.08"/><circle class="cls-8" cx="357.83" cy="28.77" r="2.54"/><circle class="cls-8" cx="351.47" cy="35.63" r="2.8"/><circle class="cls-8" cx="366.73" cy="35.63" r="3.81"/><circle class="cls-8" cx="341.3" cy="38.68" r="3.81"/><circle class="cls-8" cx="357.57" cy="43.76" r="3.81"/><circle class="cls-8" cx="349.95" cy="23.43" r="3.81"/><circle class="cls-8" cx="339.02" cy="14.53" r="6.1"/><circle class="cls-8" cx="366.98" cy="23.68" r="6.1"/><circle class="cls-8" cx="357.57" cy="17.33" r="3.81"/><circle class="cls-8" cx="349.95" cy="14.78" r="2.29"/><circle class="cls-8" cx="374.86" cy="29.53" r="2.8"/></svg>