<svg id="Layer_1" data-name="Layer 1" xmlns="http://www.w3.org/2000/svg" xmlns:xlink="http://www.w3.org/1999/xlink" width="190" height="130" viewBox="0 0 190 130"><defs><style>.cls-1{opacity:0.77;fill:url(#linear-gradient);}.cls-2{fill:url(#linear-gradient-2);}.cls-3{fill:#ffffb5;}.cls-4{fill:#fff;}</style><linearGradient id="linear-gradient" x1="4.63" y1="65.94" x2="187.01" y2="65.94" gradientUnits="userSpaceOnUse"><stop offset="0" stop-color="#f15a24"/><stop offset="0.75" stop-color="#f7931e"/></linearGradient><linearGradient id="linear-gradient-2" x1="2.99" y1="62.91" x2="184.57" y2="62.91" xlink:href="#linear-gradient"/></defs><title>next level ui</title><ellipse class="cls-1" cx="95.82" cy="65.94" rx="91.19" ry="60.49"/><ellipse class="cls-2" cx="93.78" cy="62.91" rx="90.79" ry="59.34"/><ellipse class="cls-3" cx="34.78" cy="44.77" rx="3.89" ry="4.01"/><ellipse class="cls-3" cx="20.83" cy="47.72" rx="2.48" ry="2.56"/><ellipse class="cls-3" cx="40.56" cy="28.95" rx="5.62" ry="5.81"/><path class="cls-4" d="M50.5,52.12a1.48,1.48,0,0,1-.12.59,5,5,0,0,0-.26.77q-.3,9.24-.61,18.48c0-.06,0,.29.09,1s0,1.42-.36,1.69A3.44,3.44,0,0,1,47.1,75a8.6,8.6,0,0,1-2.16-.45c-1-.31-1.63-.66-1.72-1.05a6.39,6.39,0,0,0,0-1.2c-.87-2.73-1.89-5.72-3-9q-.18,4.16-.34,8.31a1.27,1.27,0,0,0,.15.58,3.89,3.89,0,0,1,.22.5,2.59,2.59,0,0,1,.1.83q0,1.13-1,1.17a8.49,8.49,0,0,1-2.58-.44A4.29,4.29,0,0,1,35,73.47,1.09,1.09,0,0,1,35,72.32a3.32,3.32,0,0,0,.35-.89q.39-8.81.79-17.61a2.25,2.25,0,0,0-.06-.5,1.17,1.17,0,0,1,0-.53,2.07,2.07,0,0,1,1.06-1.34,1.81,1.81,0,0,1,.57-.08,8,8,0,0,1,2,.19,3.37,3.37,0,0,1,1.87.88q.69.81,1.68,5.06a55.25,55.25,0,0,0,2,7c.13-3.67.27-7.34.4-11a2.43,2.43,0,0,0-.08-.63,3.82,3.82,0,0,1-.08-.63,1.08,1.08,0,0,1,.07-.31c.09-.32.43-.56,1-.73A3.55,3.55,0,0,1,47.91,51a7.5,7.5,0,0,1,1.41.26C50.1,51.53,50.49,51.8,50.5,52.12Z"/><path class="cls-4" d="M62.6,68.62c.15.28-.2,1.12-1.08,2.52a9.38,9.38,0,0,1-2.75,3.06,1.06,1.06,0,0,1-.47.1,7.4,7.4,0,0,1-2.66-.59,4.65,4.65,0,0,1-2.27-1.38A9.32,9.32,0,0,1,52,66.56a14.67,14.67,0,0,1,1.52-6.26q1.52-3,3.72-3.1a4.62,4.62,0,0,1,1.93.4,6,6,0,0,1,2.27,1.53,3.6,3.6,0,0,1,.41,1.5,13.77,13.77,0,0,1,.19,2.62,4.57,4.57,0,0,1-.63,2.64,20,20,0,0,1-5.51,1.18A10.63,10.63,0,0,0,56.16,70c.22,1,.46,1.5.72,1.51s.78-.31,1.28-1A4.34,4.34,0,0,0,59,69.11a17.29,17.29,0,0,1,.54-1.75,4.06,4.06,0,0,1,1.64.41A2.85,2.85,0,0,1,62.6,68.62Zm-4.43-8.43c-.29,0-.71.49-1.27,1.55a8.81,8.81,0,0,0-1,3,3.4,3.4,0,0,0,1.9-.67c.28-.23.44-1.17.49-2.81C58.29,60.59,58.26,60.23,58.17,60.19Z"/><path class="cls-4" d="M77.75,57.88a1.18,1.18,0,0,1-.48,1.17l-1,.85-3.36,4.78,3.58,5.66q.28.33.57.63a1.29,1.29,0,0,1,.39.81.84.84,0,0,1-.17.44,5.19,5.19,0,0,1-1.53,1A7.94,7.94,0,0,1,74.2,74a.84.84,0,0,1-.94-.7,25.8,25.8,0,0,0-2.68-5.12c-.78,1.36-1.58,2.71-2.37,4.07-.09.35-.18.7-.25,1-.15.55-.39.85-.73.91a5,5,0,0,1-2-.43,3.7,3.7,0,0,1-1.84-1,.6.6,0,0,1-.1-.33,1.47,1.47,0,0,1,.52-.87c.45-.5.68-.76.7-.8l3.67-5.86c-1-1.76-2.07-3.53-3.1-5.29a2.8,2.8,0,0,1-.73-.85c0-.22.43-.65,1.32-1.28a5.69,5.69,0,0,1,1.89-1c.33-.07.54,0,.65.24a7.13,7.13,0,0,1,.29.69q1.08,2.07,2.18,4.14,1.29-2,2.56-4l.27-.76c.07-.16.37-.28.91-.34a5.47,5.47,0,0,1,1.82.59Q77.68,57.55,77.75,57.88Z"/><path class="cls-4" d="M89.06,59.51a1.55,1.55,0,0,1-.32.89.78.78,0,0,1-.62.39.5.5,0,0,1-.18,0,5.59,5.59,0,0,0-1.64-.14c0,3.66,0,7.32,0,11a4,4,0,0,1,.17.45,2.55,2.55,0,0,1,.17.83q0,.81-1,.87a6.26,6.26,0,0,1-2-.49c-1.07-.36-1.64-.7-1.7-1a1.73,1.73,0,0,1,.19-.83,2.87,2.87,0,0,0,.24-1l.06-9.85h-.88c-.33,0-.73-.31-1.21-.92a2.71,2.71,0,0,1-.72-1.49,1.1,1.1,0,0,1,.31-.75.86.86,0,0,1,.66-.34h1.87c0-.84,0-1.67,0-2.51A2.08,2.08,0,0,1,82,53.42a.69.69,0,0,1,.47-.73,4.66,4.66,0,0,1,.65-.06,9.48,9.48,0,0,1,2.23.32A4.41,4.41,0,0,1,87,53.6a.55.55,0,0,1,.18.38,1.77,1.77,0,0,1-.42.84,2.12,2.12,0,0,0-.44.78c0,.5,0,1,0,1.5h.83c.17,0,.54.33,1.09,1A3,3,0,0,1,89.06,59.51Z"/><path class="cls-4" d="M101.34,51.59a1.34,1.34,0,0,1-.11.52c-.07.22-.12.36-.13.42a12.37,12.37,0,0,0-.3,1.71l.15,17a1.22,1.22,0,0,0,.16.6.85.85,0,0,1,.16.43c0,1.18-.19,1.82-.61,1.91A6.54,6.54,0,0,1,99,73.82a6.07,6.07,0,0,1-1.73-.69,1.4,1.4,0,0,1-.58-1,.42.42,0,0,1,.1-.25.73.73,0,0,0,.1-.47q0-9.78-.1-19.56a.76.76,0,0,0-.09-.35.79.79,0,0,1-.09-.35c0-.44.34-.74.94-.88a5.57,5.57,0,0,1,1.09,0,7.92,7.92,0,0,1,1.65.32C101,50.86,101.34,51.18,101.34,51.59Z"/><path class="cls-4" d="M113.92,68.48c.17.28-.16,1.09-1,2.44a8.25,8.25,0,0,1-2.63,2.92,1.1,1.1,0,0,1-.47.08,7.83,7.83,0,0,1-2.69-.71,5.2,5.2,0,0,1-2.33-1.46A9.77,9.77,0,0,1,103.25,66a13.43,13.43,0,0,1,1.26-6.14c.93-1.93,2.12-2.9,3.59-2.91a5,5,0,0,1,2,.47A6.89,6.89,0,0,1,112.39,59a3.68,3.68,0,0,1,.47,1.51,14,14,0,0,1,.31,2.6,4.18,4.18,0,0,1-.53,2.59,19.19,19.19,0,0,1-5.46.94,10,10,0,0,0,.35,2.86q.39,1.5.78,1.53c.35,0,.77-.27,1.25-.89a4.13,4.13,0,0,0,.79-1.35,13.66,13.66,0,0,1,.46-1.71,4.5,4.5,0,0,1,1.66.47A3.22,3.22,0,0,1,113.92,68.48Zm-4.78-8.56c-.3,0-.7.45-1.22,1.48a8,8,0,0,0-.88,2.95,3.2,3.2,0,0,0,1.87-.58c.27-.22.39-1.14.37-2.76C109.27,60.32,109.22,60,109.14,59.92Z"/><path class="cls-4" d="M126.86,58.39a74.26,74.26,0,0,0-2.06,8.3,44.87,44.87,0,0,0-1,5.74l0,1.36c0,.59-.2.92-.6,1a8.76,8.76,0,0,1-2.86-.59,6.77,6.77,0,0,1-2.54-1.08,1.28,1.28,0,0,1-.14-.61,1.84,1.84,0,0,0-.06-.53c-.87-2.71-1.5-4.91-1.9-6.62a54.75,54.75,0,0,1-1.08-7,4.68,4.68,0,0,0-.06-.47,2.76,2.76,0,0,1-.06-.5.75.75,0,0,1,.5-.82,7.35,7.35,0,0,1,2,.42c1.18.33,1.82.62,1.94.86a1,1,0,0,1,.08.39,1.88,1.88,0,0,1-.14.7,2.55,2.55,0,0,0-.14.57c.23,1.44.44,2.71.64,3.82a25.74,25.74,0,0,0,1.11,4.76q.33-2.4,1.22-6.21c.28-1.23.57-2.46.86-3.68,0-.33.09-.66.13-1a.88.88,0,0,1,.63-.67,3.55,3.55,0,0,1,1.67.54A4.17,4.17,0,0,1,126.86,58.39Z"/><path class="cls-4" d="M138.76,69.21c.17.28-.13,1.09-.92,2.41a7.68,7.68,0,0,1-2.56,2.85.88.88,0,0,1-.47.07,8.11,8.11,0,0,1-2.7-.75,5.46,5.46,0,0,1-2.36-1.52,10,10,0,0,1-1.7-5.78,13.06,13.06,0,0,1,1.13-6.09q1.33-2.85,3.53-2.82a5,5,0,0,1,2,.51A7.13,7.13,0,0,1,137,59.76a3.85,3.85,0,0,1,.5,1.5,14.24,14.24,0,0,1,.36,2.6,4.11,4.11,0,0,1-.47,2.57,18.87,18.87,0,0,1-5.44.82,10.17,10.17,0,0,0,.41,2.85c.28,1,.55,1.52.81,1.55s.76-.26,1.23-.87a3.87,3.87,0,0,0,.76-1.32,12.71,12.71,0,0,1,.43-1.69,4.35,4.35,0,0,1,1.66.5A3.42,3.42,0,0,1,138.76,69.21Zm-4.95-8.62c-.3,0-.69.44-1.19,1.45A7.82,7.82,0,0,0,131.8,65a3.07,3.07,0,0,0,1.86-.54c.27-.21.37-1.13.31-2.75C134,61,133.89,60.63,133.81,60.59Z"/><path class="cls-4" d="M144.93,52.91a2,2,0,0,1-.09.51c-.07.22-.11.36-.13.41a12.77,12.77,0,0,0-.23,1.69q.39,8.46.77,16.91a1.24,1.24,0,0,0,.18.6.85.85,0,0,1,.18.43c.06,1.18-.12,1.8-.54,1.88a6.79,6.79,0,0,1-1.69-.45,6.37,6.37,0,0,1-1.74-.75,1.54,1.54,0,0,1-.62-1,.38.38,0,0,1,.09-.24.71.71,0,0,0,.09-.46q-.42-9.72-.82-19.43a.85.85,0,0,0-.1-.35.71.71,0,0,1-.11-.35c0-.43.32-.71.92-.83a4.42,4.42,0,0,1,1.08,0,7.68,7.68,0,0,1,1.66.38C144.55,52.17,144.91,52.5,144.93,52.91Z"/></svg>