<svg id="Layer_1" data-name="Layer 1" xmlns="http://www.w3.org/2000/svg" xmlns:xlink="http://www.w3.org/1999/xlink" width="390" height="390" viewBox="0 0 390 390"><defs><style>.cls-1{fill:#734a00;}.cls-2{fill:url(#linear-gradient);}.cls-3{fill:url(#linear-gradient-2);}.cls-4{fill:url(#linear-gradient-3);}.cls-5{fill:url(#linear-gradient-4);}.cls-6{fill:#fff;}</style><linearGradient id="linear-gradient" x1="5.52" y1="188.74" x2="372.99" y2="188.74" gradientUnits="userSpaceOnUse"><stop offset="0" stop-color="#f15a24"/><stop offset="0.75" stop-color="#f7931e"/></linearGradient><linearGradient id="linear-gradient-2" x1="108.09" y1="97.05" x2="127.66" y2="97.05" xlink:href="#linear-gradient"/><linearGradient id="linear-gradient-3" x1="76.51" y1="104.47" x2="89" y2="104.47" xlink:href="#linear-gradient"/><linearGradient id="linear-gradient-4" x1="118.27" y1="57.21" x2="146.59" y2="57.21" xlink:href="#linear-gradient"/></defs><title>play ui</title><circle class="cls-1" cx="197.61" cy="198.13" r="186.87"/><circle class="cls-2" cx="189.26" cy="188.74" r="183.74"/><ellipse class="cls-3" cx="117.88" cy="97.05" rx="9.79" ry="10.11"/><ellipse class="cls-4" cx="82.76" cy="104.47" rx="6.25" ry="6.45"/><ellipse class="cls-5" cx="132.43" cy="57.21" rx="14.16" ry="14.62"/><path class="cls-6" d="M183.93,120l85.7,63.65a25.79,25.79,0,0,1,10.22,16.61l.06.4A26,26,0,0,1,269,225.53l-87.44,61.68a18.71,18.71,0,0,0-1.69,1.37c-12.61,11.2-40.61-1-40.37-18.08V131.56c.24-17.12,30.48-24.24,42.78-12.94A17.86,17.86,0,0,0,183.93,120Z"/></svg>