<svg id="Layer_1" data-name="Layer 1" xmlns="http://www.w3.org/2000/svg" xmlns:xlink="http://www.w3.org/1999/xlink" width="240" height="270" viewBox="0 0 240 270"><defs><style>.cls-1{fill:#1a6172;}.cls-2{fill:url(#linear-gradient);}.cls-3{fill:#fff;}.cls-4{fill:#050505;}.cls-5{fill:none;stroke:#000;stroke-linecap:round;stroke-linejoin:round;stroke-width:2px;}</style><linearGradient id="linear-gradient" x1="-1406.27" y1="418.61" x2="-1139.01" y2="418.61" gradientTransform="translate(538.61 1407.64) rotate(90)" gradientUnits="userSpaceOnUse"><stop offset="0" stop-color="#f8fdfe"/><stop offset="0" stop-color="#42cbea"/><stop offset="0.67" stop-color="#f9fdfe"/><stop offset="0.99" stop-color="#70d0e2"/></linearGradient></defs><title>pose</title><path class="cls-1" d="M7.68,234.82c0-.17,0-.33,0-.49C6.85,226.7,22.19,100.93,27,71.62,40.18-9,44.43,136.8,35.63,89.13S72.32,89,97.22,91.41a18.55,18.55,0,0,0,5.85-.36l16-2.27.27,0c1.47-.34,12.08-3,14.78-4.72,22.08-14.26,36.18-14.24,40.08-17.25,12.41-9.55.85-91.51,14.76-16.14.13.73,21.14,80.8,21.65,99a18.81,18.81,0,0,0,1.08,5.74c13.6,38,14.62,75.57,14.69,82.4,0,.61,0,1.21.11,1.82,3.16,25.47-46.39,24.78-48.67,24.78L38.26,261.46a31.64,31.64,0,0,1-30-23.7A17.05,17.05,0,0,1,7.68,234.82Z"/><path class="cls-2" d="M145.35,98.78a9.48,9.48,0,0,0,5.12-2.37C170.56,78,167.87-77.85,196,53.62c.17.81,22.24,84.48,22.24,97.68,16.87,45.1,16.5,90.56,16.5,90.56,4.4,27.5-48.54,26.77-51,26.77L29.18,265.38a13.51,13.51,0,0,1-5.24-1.16C9.35,257.67,5.33,240.35,5.2,237.59c0-.17,0-.34,0-.52-.83-8,1.79-128.25,18.83-191.45C52.06-58.47,47.49,69.91,59.22,99.76a13.74,13.74,0,0,0,13.29,8.72,7.77,7.77,0,0,0,.83-.08Z"/><ellipse class="cls-1" cx="130.15" cy="164.06" rx="22.96" ry="17.27" transform="translate(-60.87 249.9) rotate(-75.77)"/><ellipse class="cls-3" cx="129.42" cy="166.36" rx="22" ry="16.55" transform="translate(-63.64 250.93) rotate(-75.77)"/><ellipse class="cls-4" cx="127.7" cy="173.16" rx="9.54" ry="7.18" transform="translate(-76.15 241.99) rotate(-72.25)"/><ellipse class="cls-1" cx="82.77" cy="163.3" rx="17.27" ry="22.96" transform="translate(-9.58 5.22) rotate(-3.42)"/><ellipse class="cls-3" cx="82.78" cy="165.71" rx="16.55" ry="22" transform="translate(-9.73 5.23) rotate(-3.42)"/><ellipse class="cls-4" cx="83.19" cy="172.71" rx="9.54" ry="7.18" transform="translate(-89.68 255.58) rotate(-89.89)"/><circle class="cls-3" cx="129.53" cy="170.4" r="3.17"/><circle class="cls-3" cx="82.36" cy="170.4" r="3.17"/><ellipse class="cls-1" cx="85.33" cy="134.62" rx="1.43" ry="14.84" transform="matrix(0.56, -0.83, 0.83, 0.56, -73.98, 129.7)"/><ellipse class="cls-1" cx="129.62" cy="134.84" rx="14.01" ry="0.74" transform="translate(-55.16 105.84) rotate(-37.21)"/><path class="cls-5" d="M58,188.62c3.41,0,5.83,14.17,9.12,14.65,3.47.5,10.22-12.24,13.3-11.22,6.42,2.48,7.28,18.72,13.33,21.21s14.67-9.11,21.75-9.62"/></svg>
