<svg id="Layer_1" data-name="Layer 1" xmlns="http://www.w3.org/2000/svg" xmlns:xlink="http://www.w3.org/1999/xlink" width="1920" height="1080" viewBox="0 0 1920 1080"><defs><style>.cls-1{fill:url(#linear-gradient);}.cls-2,.cls-8{fill:#cff;}.cls-2{opacity:0.2;}.cls-3{fill:#009bca;}.cls-4,.cls-9{fill:#0081ca;}.cls-5{fill:#e6b15f;}.cls-6{fill:#fc6;}.cls-7{fill:#ffdb8f;}.cls-9{stroke:#0081ca;}.cls-20,.cls-9{stroke-linecap:round;stroke-linejoin:round;stroke-width:2px;}.cls-10{fill:url(#linear-gradient-2);}.cls-11{fill:url(#linear-gradient-3);}.cls-12{fill:url(#linear-gradient-4);}.cls-13{fill:url(#linear-gradient-5);}.cls-14{fill:url(#linear-gradient-6);}.cls-15{fill:url(#linear-gradient-7);}.cls-16{fill:url(#linear-gradient-8);}.cls-17{fill:#1a6172;}.cls-18{fill:#fff;}.cls-19{fill:#050505;}.cls-20,.cls-21{fill:none;}.cls-20{stroke:#000;}.cls-22{fill:#ffffb5;}</style><linearGradient id="linear-gradient" x1="959" y1="1080" x2="959" gradientTransform="matrix(-1, 0, 0, 1, 1918, 0)" gradientUnits="userSpaceOnUse"><stop offset="0" stop-color="#55a7fc"/><stop offset="0" stop-color="#58c9fd"/><stop offset="0.25" stop-color="#5dc8ff"/><stop offset="0.71" stop-color="#00d3db"/><stop offset="1" stop-color="#c9d5e2"/></linearGradient><linearGradient id="linear-gradient-2" x1="977.08" y1="391.88" x2="978.27" y2="391.88" gradientTransform="translate(-225.97 522.78) rotate(-27.52)" gradientUnits="userSpaceOnUse"><stop offset="0.47" stop-color="#01687f"/><stop offset="1" stop-color="#42cbea"/></linearGradient><linearGradient id="linear-gradient-3" x1="977.06" y1="391.89" x2="978.25" y2="391.89" gradientTransform="translate(-225.97 522.78) rotate(-27.52)" gradientUnits="userSpaceOnUse"><stop offset="0.02" stop-color="#fff"/><stop offset="1" stop-color="#42cbea"/></linearGradient><linearGradient id="linear-gradient-4" x1="977.47" y1="390.18" x2="977.91" y2="390.18" gradientTransform="translate(-156.32 26.85)" xlink:href="#linear-gradient-2"/><linearGradient id="linear-gradient-5" x1="977.47" y1="390.09" x2="977.89" y2="390.09" gradientTransform="translate(-156.36 26.86)" xlink:href="#linear-gradient-2"/><linearGradient id="linear-gradient-6" x1="977.48" y1="390.08" x2="977.9" y2="390.08" gradientTransform="translate(-156.36 26.86)" gradientUnits="userSpaceOnUse"><stop offset="0.3" stop-color="#3cc"/><stop offset="0.79" stop-color="#42cbea"/></linearGradient><linearGradient id="linear-gradient-7" x1="977.44" y1="390.34" x2="977.93" y2="390.34" gradientTransform="translate(-156.24 26.83)" xlink:href="#linear-gradient-3"/><linearGradient id="linear-gradient-8" x1="977.08" y1="391.45" x2="978.23" y2="391.45" gradientTransform="translate(-225.97 522.78) rotate(-27.52)" xlink:href="#linear-gradient-6"/></defs><title>Scene</title><rect class="cls-1" x="-1" width="1920" height="1080"/><polyline class="cls-2" points="357 4 446 0 1042 1082"/><polyline class="cls-2" points="1528 0 1608 2 963.61 1107.92"/><polyline class="cls-2" points="657.61 0.84 743.51 -2.75 1028 1108"/><polyline class="cls-2" points="1289 0 1374.44 1.56 972.94 1015.51"/><polyline class="cls-2" points="1815 -3 1911 0 1074.55 968.95"/><polyline class="cls-2" points="117 -3 208 0 902.53 1020.3"/><ellipse class="cls-3" cx="395.05" cy="396.59" rx="7.67" ry="37.43" transform="translate(-43.26 48.4) rotate(-6.65)"/><ellipse class="cls-3" cx="383.06" cy="359.99" rx="9.82" ry="26.08" transform="translate(-132.97 259.79) rotate(-32.23)"/><ellipse class="cls-3" cx="376.31" cy="330.23" rx="20.56" ry="9.2" transform="translate(-38.27 610.91) rotate(-75.37)"/><ellipse class="cls-3" cx="413.74" cy="380.72" rx="32.22" ry="8.97" transform="translate(-143.74 453.83) rotate(-50.09)"/><ellipse class="cls-3" cx="430.21" cy="350.61" rx="7.03" ry="15.95" transform="translate(-11.84 15.06) rotate(-1.98)"/><ellipse class="cls-3" cx="393.68" cy="442.26" rx="25.16" ry="7.06" transform="translate(-133.69 711.44) rotate(-75.37)"/><ellipse class="cls-3" cx="395.45" cy="475.85" rx="6.75" ry="26.09" transform="translate(-131.53 151.64) rotate(-18.67)"/><ellipse class="cls-3" cx="374.24" cy="315.1" rx="8.9" ry="11.97" transform="translate(-25.18 597.6) rotate(-75.37)"/><ellipse class="cls-3" cx="415.38" cy="440.58" rx="37.43" ry="7.67" transform="translate(-185.09 518.57) rotate(-54.09)"/><ellipse class="cls-3" cx="443.72" cy="414.51" rx="26.08" ry="9.82" transform="translate(-144.02 261.98) rotate(-28.5)"/><ellipse class="cls-3" cx="464.16" cy="391.85" rx="20.56" ry="9.2" transform="translate(-32.24 741.97) rotate(-75.37)"/><ellipse class="cls-3" cx="473.37" cy="379.67" rx="8.9" ry="11.97" transform="translate(-13.57 741.77) rotate(-75.37)"/><ellipse class="cls-3" cx="378.99" cy="416.36" rx="6.89" ry="24.58" transform="translate(-183.66 395.83) rotate(-45.6)"/><ellipse class="cls-3" cx="364.18" cy="394.71" rx="5.35" ry="12.26" transform="translate(-25.03 24.66) rotate(-3.75)"/><ellipse class="cls-3" cx="419.17" cy="475.73" rx="26.08" ry="9.82" transform="translate(-124.53 149.51) rotate(-17.65)"/><ellipse class="cls-3" cx="442.51" cy="458.26" rx="20.56" ry="9.2" transform="translate(-161.55 660.57) rotate(-64.52)"/><ellipse class="cls-3" cx="456.21" cy="446.93" rx="8.9" ry="11.97" transform="translate(-143.52 666.48) rotate(-64.52)"/><ellipse class="cls-3" cx="364.65" cy="443.13" rx="7.94" ry="38.74" transform="translate(-204.86 513.76) rotate(-57.62)"/><ellipse class="cls-3" cx="334.99" cy="416.87" rx="7.59" ry="15.72" transform="translate(-145.55 182.19) rotate(-25.19)"/><path class="cls-3" d="M1709,661c-30,37-62,142.79-62,142.79C1484.55,764.52,1263,978,1145,973c-328.81,28.07-674-480-827-531S2,490,2,490V936H1919c-2.13,12.58-.16-395.61,0-421C1919,515,1739,624,1709,661Z"/><path class="cls-4" d="M1,1016l1918.78.93c-2.13,19.58.06-589.42.22-628.93,0,0-417,152-135,189,50.33,6.6,102,60,36,66-60.48,5.5,67,84,24,80-161.19-15-13,117-108.67,81-162.43-61.12-310,46.2-428,38.39-328.81,43.68-669.13-47.46-743.95-99C335,643.72,1.36,625.93,1.36,625.93Z"/><path class="cls-5" d="M1922,1057H-1.14s.23-49.93,0-75.27C-2,886,16.83,991.88,169,933s372,89,501-11c90-18,454,88,612.29-8.84C1700,815,1922,922.85,1922,922.85Z"/><path class="cls-6" d="M1921,1080H-2.14v-75.27c0-25.34,67.08,22.36,219.25-36.52s254.45,1.47,374.41-3.73c334.37,29.07,613.69,6,689.77-28.32,233.26-66.33,639.71,9.69,639.71,9.69Z"/><path class="cls-7" d="M371.49,973.84c-53.59-13.48-77.26-13.08-118.17,8.93-46.82,25.19-73,19-99.82,20.74-41.66,2.7,63,34.69,112.53,11.17C336.18,981.36,394.12,979.54,371.49,973.84Z"/><path class="cls-7" d="M1676.12,929c-101.83,37.37-115,52.25-31.08,72.54,96,23.23,48.32,41.37,39.81,57.92-13.2,25.69,214-48.75,128.05-74.1C1691.12,949.44,1719.11,913.22,1676.12,929Z"/><path class="cls-7" d="M367.12,1013.15c-26.7,9.8-30.15,13.7-8.15,19,25.18,6.09,12.67,10.85,10.44,15.19-3.47,6.73,56.1-12.78,33.57-19.43C371.05,1018.51,378.39,1009,367.12,1013.15Z"/><path class="cls-7" d="M1459.12,1063.36c-38-45.1-33.32-34-102.81-35.37-35.83-.73,30.83-170.56-106.47-30.09-26.82,27.44,25.48,84.7,96.69,84.19C1416.28,1081.59,1475.16,1082.4,1459.12,1063.36Z"/><path class="cls-7" d="M1034,1062c-47.87-56.82-210.14-4.79-283.85-52.08-108.44-69.58,23.09,47.81-6.15,37.08-45.39-16.65-95.91,31.72-6.17,31.08C825.72,1077.45,1054.21,1086,1034,1062Z"/><path class="cls-4" d="M250.54,739.28l-30-1.13s18.35-127.24,9.63-131.49-60.45-61.35-51.76-92.57c13.08-39,57.18-80.07,8.64-1.26-7.73,27.14,45.55,73.77,53.56,83.64S250.54,739.28,250.54,739.28Z"/><path class="cls-4" d="M116.73,723.16l36.45,7.05s12.33-103.37,25.15-124.6c3.94-6.54,59.91-58.41,67.64-88.52,8.58-37.71-60.51-110.63-17.71,3-8.09,30.53-44.78,59.86-52.32,68.52S116.73,723.16,116.73,723.16Z"/><path class="cls-4" d="M141.41,696.07l-26.74-13.52s44-77.43,46.53-98.51c.77-6.49-8.82-70.43,1.37-95.07,13.46-30.3,51.41-93,9.77,11-10.17,25.11-1.54,63.81-1.08,73.58S141.41,696.07,141.41,696.07Z"/><path class="cls-4" d="M153.92,717.89l-39.69-1.32s25.14-79.34,19.83-97.48c-1.63-5.59-39.71-54.38-36.61-78.23,5-29.68,102-71.61,17,5.41-2.9,24.24,23.77,52.74,28.3,60.55S153.92,717.89,153.92,717.89Z"/><path class="cls-4" d="M148,718.74l-44.94-1.48s28.46-89.87,22.45-110.42c-1.85-6.33-56.19-51.93-52.67-79,5.68-33.62,28.23-107.84,15.37,5.64C85,561,133.92,596.11,139,605S148,718.74,148,718.74Z"/><path class="cls-4" d="M165.61,723.19l29.47,4.61s8.37-85.31,18.37-103.16c3.08-5.5,47.39-49.91,53.16-74.89,6.34-31.25,11.26-101.66-14.22,3-6,25.33-35.17,50.61-41.12,58S165.61,723.19,165.61,723.19Z"/><path class="cls-4" d="M1888.54,558.28l-30-1.13s18.35-127.24,9.63-131.49-60.45-61.35-51.76-92.57c13.08-39,57.18-80.07,8.64-1.26-7.73,27.14,45.55,73.77,53.56,83.64S1888.54,558.28,1888.54,558.28Z"/><path class="cls-4" d="M1754.73,542.16l36.45,7.05s12.33-103.37,25.15-124.6c3.94-6.54,59.91-58.41,67.64-88.52,8.58-37.71-60.51-110.63-17.71,3-8.09,30.53-44.78,59.86-52.32,68.52S1754.73,542.16,1754.73,542.16Z"/><path class="cls-4" d="M1779.41,515.07l-26.74-13.52s44-77.43,46.53-98.51c.77-6.49-8.82-70.43,1.37-95.07,13.46-30.3,51.41-93,9.77,11-10.17,25.11-1.54,63.81-1.08,73.58S1779.41,515.07,1779.41,515.07Z"/><path class="cls-4" d="M1791.92,536.89l-39.69-1.32s25.14-79.34,19.83-97.48c-1.63-5.59-39.71-54.38-36.61-78.23,5-29.68,102-71.61,17,5.41-2.9,24.24,23.77,52.74,28.3,60.55S1791.92,536.89,1791.92,536.89Z"/><path class="cls-4" d="M1786,537.74l-44.94-1.48s28.46-89.87,22.45-110.42c-1.85-6.33-56.19-51.93-52.67-78.95,5.68-33.62,28.23-107.84,15.37,5.64C1723,380,1771.92,415.11,1777,424S1786,537.74,1786,537.74Z"/><path class="cls-4" d="M1803.61,542.19l29.47,4.61s8.37-85.31,18.37-103.16c3.08-5.5,47.39-49.91,53.16-74.89,6.34-31.25,11.26-101.66-14.22,3-6.05,25.33-35.17,50.61-41.12,58S1803.61,542.19,1803.61,542.19Z"/><circle class="cls-8" cx="237" cy="270" r="16"/><circle class="cls-8" cx="252.5" cy="298.5" r="9.5"/><circle class="cls-8" cx="243" cy="328" r="8"/><circle class="cls-8" cx="155" cy="109" r="16"/><circle class="cls-8" cx="170.5" cy="137.5" r="9.5"/><circle class="cls-8" cx="161" cy="167" r="8"/><circle class="cls-8" cx="1715" cy="199" r="16"/><circle class="cls-8" cx="1699.5" cy="227.5" r="9.5"/><circle class="cls-8" cx="1709" cy="257" r="8"/><circle class="cls-8" cx="1759" cy="92" r="16"/><circle class="cls-8" cx="1774.5" cy="120.5" r="9.5"/><circle class="cls-8" cx="1765" cy="150" r="8"/><ellipse class="cls-4" cx="1469.12" cy="197.31" rx="22.98" ry="7.51"/><polygon class="cls-9" points="1503.11 209.79 1489.38 197.07 1502.41 183 1503.11 209.79"/><ellipse class="cls-4" cx="1495.08" cy="219.04" rx="14.81" ry="4.84"/><polygon class="cls-9" points="1516.98 227.09 1508.13 218.89 1516.53 209.82 1516.98 227.09"/><ellipse class="cls-4" cx="1492.51" cy="239.62" rx="16.34" ry="5.6"/><polygon class="cls-9" points="1516.68 248.93 1506.91 239.44 1516.18 228.94 1516.68 248.93"/><ellipse class="cls-4" cx="1537.99" cy="239.49" rx="14.03" ry="4.58"/><polygon class="cls-9" points="1558.74 247.11 1550.35 239.35 1558.31 230.76 1558.74 247.11"/><ellipse class="cls-4" cx="1527.82" cy="194.24" rx="15.24" ry="4.98"/><polygon class="cls-9" points="1550.36 202.51 1541.25 194.08 1549.89 184.75 1550.36 202.51"/><ellipse class="cls-4" cx="1434.98" cy="227.8" rx="22.98" ry="7.51"/><polygon class="cls-9" points="1468.98 240.29 1455.24 227.57 1468.28 213.49 1468.98 240.29"/><path class="cls-10" d="M823.23,419.65l-.8.41a0,0,0,0,1-.06,0,1.58,1.58,0,0,1-.33-.63c-.19-.06-.4-.52-.33-.64-.18-.07-.44-.83-.44-.83a.78.78,0,0,1,0-.62l.37-.19c.07,0,.34.15.47.33,0,0,.48.64.45.86.13-.11.4.54.35.67.11,0,.31.59.31.59A.07.07,0,0,1,823.23,419.65Z"/><path class="cls-11" d="M823.22,419.67l-.8.41s0,0-.06,0a1.58,1.58,0,0,1-.33-.63c-.2-.06-.41-.52-.34-.64-.17-.08-.43-.84-.43-.84a.71.71,0,0,1,0-.62l.37-.19c.06,0,.34.16.46.33,0,0,.48.64.45.86.13-.1.41.55.36.68.11,0,.31.59.31.59A.06.06,0,0,1,823.22,419.67Z"/><rect class="cls-12" x="821.16" y="416.93" width="0.44" height="0.19" rx="0.1" ry="0.1" transform="translate(-99.75 426.73) rotate(-27.52)"/><ellipse class="cls-13" cx="821.33" cy="416.96" rx="0.21" ry="0.11" transform="translate(-99.72 426.7) rotate(-27.52)"/><ellipse class="cls-14" cx="821.33" cy="416.94" rx="0.21" ry="0.11" transform="translate(-99.72 426.7) rotate(-27.52)"/><rect class="cls-15" x="821.2" y="417.1" width="0.49" height="0.14" rx="0.07" ry="0.07" transform="translate(-99.81 426.78) rotate(-27.52)"/><path class="cls-16" d="M821.69,418.8a1.69,1.69,0,0,1-.44-.84l.87-.49s.51.65.49.84l0,0A1.45,1.45,0,0,1,821.69,418.8Z"/><ellipse class="cls-17" cx="822.08" cy="418.01" rx="0.15" ry="0.2" transform="translate(-74.1 200.26) rotate(-13.3)"/><ellipse class="cls-18" cx="822.09" cy="418.03" rx="0.15" ry="0.19" transform="translate(-74.1 200.26) rotate(-13.3)"/><ellipse class="cls-19" cx="822.1" cy="418.09" rx="0.06" ry="0.08" transform="matrix(0.99, -0.17, 0.17, 0.99, -59.04, 145.61)"/><ellipse class="cls-17" cx="821.71" cy="418.2" rx="0.15" ry="0.2" transform="translate(-98.09 481.93) rotate(-30.94)"/><ellipse class="cls-18" cx="821.72" cy="418.22" rx="0.15" ry="0.19" transform="translate(-98.1 481.94) rotate(-30.94)"/><ellipse class="cls-19" cx="821.75" cy="418.27" rx="0.06" ry="0.08" transform="translate(-100.3 425.32) rotate(-27.41)"/><circle class="cls-18" cx="822.1" cy="418.06" r="0.03"/><circle class="cls-18" cx="821.74" cy="418.25" r="0.03"/><ellipse class="cls-17" cx="821.61" cy="417.96" rx="0.01" ry="0.13" transform="translate(311.8 1185.97) rotate(-83.39)"/><ellipse class="cls-17" cx="821.96" cy="417.79" rx="0.12" ry="0.01" transform="translate(93.3 982.78) rotate(-64.73)"/><path class="cls-20" d="M815,419c0-.25,14-.25,14-.5s-14-.25-14-.5"/><rect class="cls-21" x="981.84" y="116.44" width="141.16" height="291.49"/><rect class="cls-21" x="950.68" y="212.51" width="217.43" height="213.4" rx="12" ry="12"/><ellipse class="cls-4" cx="1439.8" cy="768.14" rx="4.89" ry="23.84" transform="translate(-153.52 415.45) rotate(-15.6)"/><ellipse class="cls-4" cx="1428.63" cy="746.3" rx="6.25" ry="16.61" transform="translate(-137.98 1125.34) rotate(-41.18)"/><ellipse class="cls-4" cx="1421.44" cy="728.25" rx="13.09" ry="5.86" transform="translate(556.03 2070.6) rotate(-84.32)"/><ellipse class="cls-4" cx="1449.99" cy="756.3" rx="20.52" ry="5.72" transform="translate(55.53 1610.67) rotate(-59.04)"/><ellipse class="cls-4" cx="1457.36" cy="735.73" rx="4.48" ry="10.16" transform="translate(-113.05 289.64) rotate(-10.93)"/><ellipse class="cls-4" cx="1443.46" cy="797.01" rx="16.02" ry="4.49" transform="matrix(0.1, -1, 1, 0.1, 507.45, 2154.47)"/><ellipse class="cls-4" cx="1447.9" cy="817.97" rx="4.3" ry="16.62" transform="translate(-214.22 764.53) rotate(-27.62)"/><ellipse class="cls-4" cx="1418.63" cy="718.93" rx="5.67" ry="7.62" transform="translate(562.77 2059.41) rotate(-84.32)"/><ellipse class="cls-4" cx="1456.95" cy="793.8" rx="23.84" ry="4.89" transform="translate(88.83 1732.46) rotate(-63.04)"/><ellipse class="cls-4" cx="1472.2" cy="774.59" rx="16.61" ry="6.25" transform="translate(-167.55 1054.93) rotate(-37.45)"/><ellipse class="cls-4" cx="1482.81" cy="758.31" rx="13.09" ry="5.86" transform="translate(581.42 2158.76) rotate(-84.32)"/><ellipse class="cls-4" cx="1487.4" cy="749.73" rx="5.67" ry="7.62" transform="translate(594.08 2155.59) rotate(-84.32)"/><ellipse class="cls-4" cx="1431.65" cy="782.17" rx="4.39" ry="15.66" transform="matrix(0.58, -0.81, 0.81, 0.58, -35.86, 1494.8)"/><ellipse class="cls-4" cx="1420.19" cy="770.01" rx="3.41" ry="7.81" transform="translate(-134.54 331.06) rotate(-12.7)"/><ellipse class="cls-4" cx="1462.82" cy="815.54" rx="16.61" ry="6.25" transform="translate(-210.34 741.41) rotate(-26.6)"/><ellipse class="cls-4" cx="1475.77" cy="802.24" rx="13.09" ry="5.86" transform="matrix(0.28, -0.96, 0.96, 0.28, 286.77, 1988.74)"/><ellipse class="cls-4" cx="1483.27" cy="793.75" rx="5.67" ry="7.62" transform="translate(300.27 1989.85) rotate(-73.47)"/><ellipse class="cls-4" cx="1425.29" cy="800.43" rx="5.06" ry="24.67" transform="translate(124.09 1789.9) rotate(-66.57)"/><ellipse class="cls-4" cx="1404.02" cy="786.85" rx="4.84" ry="10.01" transform="translate(-199.65 923.46) rotate(-34.14)"/><path class="cls-22" d="M1743.23,954.7a1.23,1.23,0,0,1-.39.9.94.94,0,0,1-.9.24,11.21,11.21,0,0,1-1.84-1.11c-1-.63-1.51-1-1.52-1.22a1.64,1.64,0,0,1,.07-.43,1.53,1.53,0,0,0,.06-.41c0-3.17-.06-6.35-.1-9.52,0-.35-.41-.58-1.23-.61s-1.42-.14-1.56-.43a1.26,1.26,0,0,1-.12-.45,2.47,2.47,0,0,1,.55-1.33c.53-.74.86-1.19,1-1.39.21-.63.43-1.25.65-1.86a1.69,1.69,0,0,1,1.69-1.07,4.52,4.52,0,0,1,2.47.82c.91.6,1.33,1.24,1.31,1.78l-.51,14.81a1.52,1.52,0,0,0,.21.63A1.34,1.34,0,0,1,1743.23,954.7Z"/></svg>
