<svg id="Layer_1" data-name="Layer 1" xmlns="http://www.w3.org/2000/svg" xmlns:xlink="http://www.w3.org/1999/xlink" width="110" height="150" viewBox="0 0 110 150"><defs><style>.cls-1{fill:#c69;}.cls-2,.cls-9{fill:none;}.cls-3{fill:#c39;}.cls-4{fill:url(#linear-gradient);}.cls-5{fill:#603;}.cls-6{fill:#fff;}.cls-7{fill:#050505;}.cls-8{fill:#f9c;}.cls-9{stroke:#000;stroke-linecap:round;stroke-linejoin:round;stroke-width:2px;}</style><linearGradient id="linear-gradient" x1="8.07" y1="77.93" x2="89.09" y2="77.93" gradientUnits="userSpaceOnUse"><stop offset="0" stop-color="#fff"/><stop offset="0" stop-color="#ed1e79"/><stop offset="0.62" stop-color="#ff7bac"/></linearGradient></defs><title>seahorse</title><rect class="cls-1" x="27.17" y="52.24" width="8.23" height="8.17" rx="4.09" ry="4.09" transform="translate(-23.97 23.19) rotate(-30)"/><rect class="cls-1" x="22.16" y="73.87" width="8.23" height="8.17" rx="4.09" ry="4.09" transform="translate(-35.46 23.58) rotate(-30)"/><rect class="cls-1" x="19.8" y="82.97" width="8.23" height="8.17" rx="4.09" ry="4.09" transform="translate(-40.32 23.62) rotate(-30)"/><path class="cls-1" d="M25.65,99.11l-4.71,2.72a1.4,1.4,0,0,1-1.9-.51l-2.7-4.66c-.38-.67-.15-1.52,1.93-2.73L23,91.22c-.75.43.1.66.49,1.32l2.69,4.66A1.4,1.4,0,0,1,25.65,99.11Z"/><rect class="cls-1" x="39.81" y="5.44" width="10.19" height="10.3" rx="5.1" ry="5.1" transform="translate(0.7 -2.61) rotate(3.36)"/><rect class="cls-1" x="47.86" y="2.76" width="10.08" height="10.18" rx="5.04" ry="5.04" transform="translate(16.73 -31.54) rotate(39)"/><rect class="cls-1" x="54.97" y="5.33" width="8.94" height="9.03" rx="4.47" ry="4.47" transform="translate(59.71 -50.4) rotate(80.85)"/><rect class="cls-2" x="4.75" y="2.4" width="100.5" height="134.68"/><rect class="cls-1" x="29.21" y="42.52" width="8.23" height="8.17" rx="4.09" ry="4.09" transform="translate(-18.84 22.91) rotate(-30)"/><rect class="cls-1" x="30.23" y="34.01" width="7.87" height="7.95" rx="3.94" ry="3.94" transform="matrix(0.87, -0.5, 0.5, 0.87, -14.42, 22.17)"/><rect class="cls-1" x="30.4" y="25.96" width="9.35" height="9.25" rx="4.62" ry="4.62" transform="translate(-10.59 21.64) rotate(-30)"/><rect class="cls-1" x="33.33" y="19.39" width="8.86" height="8.76" rx="4.38" ry="4.38" transform="translate(-6.83 22.07) rotate(-30)"/><rect class="cls-1" x="35.06" y="12.17" width="9.82" height="9.87" rx="4.91" ry="4.91" transform="translate(-2.68 8.65) rotate(-11.95)"/><path class="cls-3" d="M13.29,111.44c-10.69,16.67-11.55,34.17,11,36.06,25.92,2.17,35.12-32.3,22.89-15.68-13.21,18-27,1.66-22.89-2.19,8.78-8.31,42.15-49,25.4-71-17.09-22.42.42-4.22,13.17-16.15C67.7,37.91,88.4,45.28,87,34.77c-.33-2.48-6-.81-10.81-2C71.68,31.59,68,27.5,68.33,26,71.51,10.1,59.15,3.67,43.71,11.72,32.89,17.37,27.55,89.21,13.29,111.44Z"/><path class="cls-4" d="M15.33,111.44c-10.69,16.67-11.55,34.17,11,36.06,25.92,2.17,30.26-30.57,22.89-15.68-9.89,20-27,1.66-22.89-2.19,8.78-8.31,42.15-49,25.4-71-17.09-22.42.42-4.22,13.17-16.15,4.86-4.54,25.55,2.83,24.14-7.68-.33-2.49-2.53-6-10.82-2.82-4.31,1.65-8.14-4.45-7.83-6C73.54,10.1,61.19,3.67,45.75,11.72,34.93,17.37,29.59,89.21,15.33,111.44Z"/><ellipse class="cls-5" cx="52.1" cy="72.17" rx="7.76" ry="14.5" transform="translate(-17.08 16.17) rotate(-15.19)"/><ellipse class="cls-5" cx="49.15" cy="82.04" rx="9.04" ry="15.3" transform="translate(-19.77 15.74) rotate(-15.19)"/><ellipse class="cls-5" cx="44.08" cy="93.5" rx="8.49" ry="14.29" transform="translate(-22.95 14.81) rotate(-15.19)"/><ellipse class="cls-5" cx="38.67" cy="102.01" rx="7.64" ry="11.71" transform="matrix(0.97, -0.26, 0.26, 0.97, -25.37, 13.69)"/><ellipse class="cls-5" cx="27.65" cy="61.43" rx="2.58" ry="9.09" transform="translate(-36.35 40.42) rotate(-47.6)"/><ellipse class="cls-5" cx="25.14" cy="65.97" rx="2.58" ry="9.09" transform="translate(-45.03 73.71) rotate(-75.43)"/><ellipse class="cls-5" cx="26.24" cy="71.15" rx="9.09" ry="2.58" transform="translate(-28.23 18.39) rotate(-25.67)"/><ellipse class="cls-5" cx="59.43" cy="25.31" rx="5.24" ry="6.97" transform="translate(-5.14 27.26) rotate(-24.8)"/><ellipse class="cls-6" cx="59.7" cy="25.99" rx="5.03" ry="6.68" transform="translate(-5.4 27.44) rotate(-24.8)"/><ellipse class="cls-7" cx="60.91" cy="28.62" rx="2.18" ry="2.9" transform="translate(-5.84 20.02) rotate(-17.82)"/><circle class="cls-6" cx="61.22" cy="27.42" r="0.96"/><circle class="cls-8" cx="50.77" cy="12.66" r="2.04"/><circle class="cls-8" cx="47.4" cy="16.04" r="1.33"/><circle class="cls-8" cx="50.85" cy="16.51" r="1.33"/><circle class="cls-8" cx="54.45" cy="14.62" r="1.33"/><circle class="cls-8" cx="48.57" cy="18.62" r="0.94"/><ellipse class="cls-5" cx="86.75" cy="35.87" rx="2.27" ry="3.92"/><ellipse class="cls-5" cx="50.42" cy="57.96" rx="5.52" ry="8.23" transform="translate(-22.22 32.98) rotate(-30)"/><ellipse class="cls-1" cx="56.65" cy="34.58" rx="3.53" ry="1.76"/><path class="cls-9" d="M64.16,42.69c-1,.66-3,.58-5.19-.28s-3.85-2.49-3.67-3.65"/><path class="cls-9" d="M55.54,38.08c.25.39-.11.58-.26.68s-.66.45-.91.07"/></svg>
