<svg id="Layer_1" data-name="Layer 1" xmlns="http://www.w3.org/2000/svg" xmlns:xlink="http://www.w3.org/1999/xlink" width="170" height="180" viewBox="0 0 170 180"><defs><style>.cls-1{fill:#c63;}.cls-2{fill:url(#linear-gradient);}.cls-3{fill:#c60;}.cls-4{fill:#fff;}.cls-5{fill:#050505;}.cls-6{fill:#fc9;}.cls-7{fill:none;stroke:#000;stroke-linecap:round;stroke-linejoin:round;stroke-width:2px;}.cls-8{fill:#f93;}</style><linearGradient id="linear-gradient" x1="-198.07" y1="276.96" x2="-34.59" y2="276.96" gradientTransform="translate(246.25 -163.3) rotate(11.21)" gradientUnits="userSpaceOnUse"><stop offset="0" stop-color="#f15a24"/><stop offset="0.75" stop-color="#f7931e"/></linearGradient></defs><title>seastar</title><path class="cls-1" d="M100.77,5.93l11.17,55.9a1.86,1.86,0,0,0,1.17,1.2l50.41,2.7c6.49,1.08.13,14.81-1.45,15.49l-55.32,25.61a1.86,1.86,0,0,0-1.14,1.63l9.3,66.14c-.09,1.84-11.1,5.73-14.16-.37l-31.5-45.31a1.88,1.88,0,0,0-2.55-.62L18.84,156.67c-1.5.89-8.43-2.64-7.87-4.29L36.38,94.93a1.89,1.89,0,0,0-.26-1.72L9,56.19c-6.89-10.67-2.81-22.9,3-21.71L52.83,53.53a1.87,1.87,0,0,0,1.85-.68L85,8.32c.69-.94.95-2.19,1.78-3C91.69.47,100.34,4.6,100.77,5.93Z"/><path class="cls-2" d="M99.05,5.39l11.17,55.9a1.86,1.86,0,0,0,1.17,1.2l50.4,2.69c6.5,1.09.14,14.82-1.44,15.49L105,106.28a1.86,1.86,0,0,0-1.14,1.64l9.29,66.14c-.08,1.83-11.09,5.72-14.15-.37l-31.5-45.31a1.87,1.87,0,0,0-2.55-.62L17.12,156.12c-1.5.89-8.43-2.64-7.87-4.29L34.66,94.38a1.86,1.86,0,0,0-.26-1.71l-27.17-37C.34,45,4.42,32.75,10.25,33.93L51.11,53A1.87,1.87,0,0,0,53,52.3L83.29,7.78c.69-1,.95-2.19,1.78-3C90-.07,98.62,4.05,99.05,5.39Z"/><ellipse class="cls-3" cx="94.36" cy="56.29" rx="11.55" ry="8.69" transform="translate(2.99 117.33) rotate(-64.56)"/><ellipse class="cls-4" cx="93.77" cy="57.36" rx="11.07" ry="8.33" transform="translate(1.7 117.41) rotate(-64.56)"/><ellipse class="cls-3" cx="73.76" cy="51.83" rx="11.55" ry="8.69" transform="translate(19.48 123.81) rotate(-88.08)"/><ellipse class="cls-5" cx="92.85" cy="61.67" rx="4.8" ry="3.61" transform="translate(4.64 129.82) rotate(-71.29)"/><circle class="cls-4" cx="94.45" cy="60.38" r="1.6"/><ellipse class="cls-4" cx="73.65" cy="53.04" rx="11.07" ry="8.33" transform="translate(18.17 124.87) rotate(-88.08)"/><ellipse class="cls-5" cx="73.48" cy="57.84" rx="4.8" ry="3.61" transform="matrix(0.15, -0.99, 0.99, 0.15, 4.98, 121.49)"/><circle class="cls-4" cx="74.84" cy="56.28" r="1.6"/><circle class="cls-6" cx="101.97" cy="158.82" r="4.19"/><circle class="cls-6" cx="97.65" cy="146.28" r="3.89"/><circle class="cls-6" cx="93.41" cy="134.36" r="3.59"/><circle class="cls-6" cx="89.99" cy="123.93" r="3.59"/><circle class="cls-6" cx="82.79" cy="98.21" r="2.69"/><circle class="cls-6" cx="87.31" cy="113.84" r="3.59"/><circle class="cls-6" cx="84.6" cy="105.48" r="2.69"/><circle class="cls-6" cx="13.76" cy="47.03" r="3.59"/><circle class="cls-6" cx="107.66" cy="76.31" r="2.69"/><ellipse class="cls-6" cx="79.51" cy="74.29" rx="6.98" ry="5.2" transform="translate(-8.81 137.84) rotate(-78.79)"/><circle class="cls-6" cx="53.09" cy="65.49" r="2.69"/><circle class="cls-6" cx="42.64" cy="60.78" r="2.69"/><circle class="cls-6" cx="32.97" cy="57.24" r="2.69"/><circle class="cls-6" cx="22.88" cy="52.29" r="2.99"/><circle class="cls-6" cx="92.14" cy="16.62" r="4.19"/><circle class="cls-6" cx="89.97" cy="27.58" r="3.39"/><circle class="cls-6" cx="88" cy="37.04" r="2.69"/><circle class="cls-6" cx="153.09" cy="73.72" r="4.09"/><circle class="cls-6" cx="142.57" cy="74.49" r="3.89"/><circle class="cls-6" cx="130.57" cy="75.56" r="3.69"/><circle class="cls-6" cx="119.89" cy="76.09" r="2.69"/><path class="cls-7" d="M86.81,89.62c-2.31,1.67-7.19,1.61-12.63-.33S64.64,83.51,65,80.68"/><path class="cls-7" d="M88.41,90.24c-.86.43-1.19-.36-1.36-.69s-.81-1.49,0-1.92"/><path class="cls-7" d="M65.55,79c.63.92-.22,1.42-.58,1.67s-1.58,1.15-2.21.23"/><circle class="cls-6" cx="101.97" cy="158.82" r="4.19"/><circle class="cls-6" cx="97.65" cy="146.28" r="3.89"/><circle class="cls-6" cx="93.41" cy="134.36" r="3.59"/><circle class="cls-6" cx="89.99" cy="123.93" r="3.59"/><circle class="cls-6" cx="82.79" cy="98.21" r="2.69"/><circle class="cls-6" cx="87.31" cy="113.84" r="3.59"/><circle class="cls-6" cx="84.6" cy="105.48" r="2.69"/><circle class="cls-6" cx="26.74" cy="142.1" r="4.01"/><circle class="cls-6" cx="34.62" cy="132.13" r="3.72"/><circle class="cls-6" cx="42.04" cy="122.56" r="3.44"/><circle class="cls-6" cx="48.69" cy="114.41" r="3.44"/><circle class="cls-6" cx="65.7" cy="95.33" r="2.58"/><circle class="cls-6" cx="55.44" cy="107.05" r="3.44"/><circle class="cls-6" cx="60.78" cy="100.54" r="2.58"/><ellipse class="cls-8" cx="65.78" cy="66.08" rx="1.79" ry="5.08" transform="translate(-11.83 117.75) rotate(-78.79)"/><ellipse class="cls-8" cx="95.66" cy="71.19" rx="1.79" ry="5.08" transform="translate(7.24 151.18) rotate(-78.79)"/></svg>
