<svg id="Layer_1" data-name="Layer 1" xmlns="http://www.w3.org/2000/svg" xmlns:xlink="http://www.w3.org/1999/xlink" width="750" height="750" viewBox="0 0 750 750"><defs><style>.cls-1{fill:#39f;}.cls-2{opacity:0.46;fill:url(#linear-gradient);}.cls-3{fill:#1270d0;opacity:0.66;}.cls-4,.cls-5{fill:#fff;}.cls-5{stroke:#fff;stroke-linecap:round;stroke-linejoin:round;stroke-width:4px;}.cls-6{fill:#069;}.cls-7{fill:#e7fffe;}.cls-8,.cls-9{opacity:0.7;}.cls-8{fill:url(#radial-gradient);}.cls-9{fill:url(#radial-gradient-2);}</style><linearGradient id="linear-gradient" x1="5.69" y1="367.8" x2="733.83" y2="367.8" gradientUnits="userSpaceOnUse"><stop offset="0.22"/><stop offset="0.34" stop-color="#00042f"/><stop offset="0.53" stop-color="#000975"/><stop offset="0.7" stop-color="#000da8"/><stop offset="0.82" stop-color="#000fc8"/><stop offset="0.89" stop-color="#0010d4"/></linearGradient><radialGradient id="radial-gradient" cx="505.96" cy="354.05" r="20.95" gradientUnits="userSpaceOnUse"><stop offset="0.34" stop-color="#39c"/><stop offset="0.55" stop-color="#339acd"/><stop offset="0.64" stop-color="#339fd2"/><stop offset="0.76" stop-color="#33aee1"/><stop offset="0.9" stop-color="#33c7fa"/><stop offset="0.92" stop-color="#3cf"/></radialGradient><radialGradient id="radial-gradient-2" cx="591.09" cy="481.08" r="20.95" xlink:href="#radial-gradient"/></defs><title>setting ui</title><circle class="cls-1" cx="376.31" cy="375" r="368"/><ellipse class="cls-2" cx="369.76" cy="367.8" rx="364.07" ry="359.49"/><ellipse class="cls-3" cx="182.83" cy="191.15" rx="23.17" ry="23.93"/><ellipse class="cls-3" cx="130.01" cy="218.18" rx="14.79" ry="15.28"/><ellipse class="cls-3" cx="206.9" cy="111.03" rx="33.52" ry="34.62"/><path class="cls-4" d="M274.53,243.74a13.32,13.32,0,0,1-4,10c-2.7,2.62-6.43,4-11.22,4.09a14.67,14.67,0,0,1-3.88-.58c-2.53-.71-3.85-1.07-4-1.07l-4-.87a7.37,7.37,0,0,1-3.51-1.85,14.33,14.33,0,0,1-3.63-6.44,32.39,32.39,0,0,0-2.64-6.52,10.66,10.66,0,0,1-1.56-2.31,3.33,3.33,0,0,1,.45-2.43,3.19,3.19,0,0,1,1.69-1.53,6.74,6.74,0,0,1,1.82-.16,43.39,43.39,0,0,1,7,.7c2.78.47,4.33.89,4.66,1.28s.77,2.36,1.32,5.94q.75,5,2.23,5.53a1.64,1.64,0,0,0,.74.16c1.05,0,1.94-.87,2.68-2.6a14.71,14.71,0,0,0,1.12-5.9q0-7.17-4.46-9.57Q245.16,224.11,241,219.4a17,17,0,0,1-4.29-12.87,26.17,26.17,0,0,1,4.49-12.5q4.09-6.32,8.62-7.38,1.9-.42,11.55,3.63,2.4.9,4.83,1.89a9.38,9.38,0,0,1,3.92,2.89q2.31,2.9,2.31,10c0,.88,0,2.17-.08,3.87-.06,1.49-.08,2.53-.08,3.14a10.09,10.09,0,0,0,.57,1.9,3.43,3.43,0,0,1,.33,1.81c-.11,2.42-1.12,3.77-3,4q-1.65.25-6.1-1.23-5-1.58-6.27-3.39a4.1,4.1,0,0,1-.17-1.65c0-.82.1-2.69.29-5.61s.29-5,.29-6.35c0-2.36-.28-3.52-.83-3.46q-2.55.16-4.25,3.67a18.21,18.21,0,0,0-1.69,8q0,7.42,4.37,10.56l9.91,6.27a20.18,20.18,0,0,1,6.51,6.1Q274.53,236.64,274.53,243.74Z"/><path class="cls-4" d="M314.46,241.1q.75,1.23-3.21,7.34-4.29,6.52-8.42,8.83a3.34,3.34,0,0,1-1.48.25,25.09,25.09,0,0,1-8.42-2q-5.52-2-7.26-4.29-4.79-6.19-4.78-17.16a38.54,38.54,0,0,1,4.2-18.32q4.55-8.67,11.55-8.83a16.45,16.45,0,0,1,6.19,1.32,20.24,20.24,0,0,1,7.34,4.71c.5.49,1,2,1.41,4.45a38,38,0,0,1,.82,7.76q0,5.61-1.81,7.75a63.87,63.87,0,0,1-17.33,3,29.09,29.09,0,0,0,1,8.5c.77,3,1.57,4.49,2.39,4.54q1.65.09,4-2.72a12.07,12.07,0,0,0,2.56-4.05,42.75,42.75,0,0,1,1.57-5.11q1.32-.16,5.2,1.32T314.46,241.1Zm-14.68-25.25c-.94-.11-2.24,1.38-3.92,4.46a23.36,23.36,0,0,0-2.93,8.83,10.55,10.55,0,0,0,5.94-1.82q1.32-1,1.32-8.25C300.19,217,300.05,216,299.78,215.85Z"/><path class="cls-4" d="M347.88,215.11a4.66,4.66,0,0,1-1,2.64,2.57,2.57,0,0,1-2,1.16,1.72,1.72,0,0,1-.58-.09,20,20,0,0,0-5.2-.41V251a12.53,12.53,0,0,1,.54,1.32,7,7,0,0,1,.54,2.48q0,2.38-3.3,2.55c-1.16.06-3.28-.44-6.36-1.48q-5-1.65-5.36-3.05a4.93,4.93,0,0,1,.58-2.44,8.5,8.5,0,0,0,.74-2.84V218.33h-2.8q-1.57,0-3.88-2.76t-2.31-4.42a3.11,3.11,0,0,1,1-2.23,2.85,2.85,0,0,1,2.1-1h5.94v-7.42a5.83,5.83,0,0,1-1.24-3.55,2,2,0,0,1,1.49-2.14,9.89,9.89,0,0,1,2.06-.17,32.39,32.39,0,0,1,7.14.95q4.08.94,5.32,1.94a1.49,1.49,0,0,1,.58,1.15,4.89,4.89,0,0,1-1.32,2.48,6.42,6.42,0,0,0-1.41,2.31v4.45h2.64q.83,0,3.47,3C347,212.88,347.88,214.29,347.88,215.11Z"/><path class="cls-4" d="M382.86,215.11a4.52,4.52,0,0,1-1,2.64,2.57,2.57,0,0,1-2,1.16,1.72,1.72,0,0,1-.58-.09,20,20,0,0,0-5.19-.41V251c0-.05.17.39.53,1.32a7,7,0,0,1,.54,2.48q0,2.38-3.3,2.55c-1.16.06-3.28-.44-6.36-1.48q-5-1.65-5.36-3.05a4.93,4.93,0,0,1,.58-2.44,8.5,8.5,0,0,0,.74-2.84V218.33h-2.8q-1.57,0-3.88-2.76t-2.31-4.42a3.11,3.11,0,0,1,.95-2.23,2.85,2.85,0,0,1,2.1-1h5.94v-7.42a5.83,5.83,0,0,1-1.24-3.55,2,2,0,0,1,1.49-2.14,9.89,9.89,0,0,1,2.06-.17,32.24,32.24,0,0,1,7.14.95c2.72.63,4.5,1.28,5.32,1.94a1.49,1.49,0,0,1,.58,1.15,4.89,4.89,0,0,1-1.32,2.48,6.19,6.19,0,0,0-1.4,2.31v4.45h2.63q.83,0,3.47,3C382,212.88,382.86,214.29,382.86,215.11Z"/><path class="cls-4" d="M404.31,253.89q.33,3-2.06,3.71a6.81,6.81,0,0,1-1.16.08,28,28,0,0,1-7.34-1.23c-3.13-.88-5-1.82-5.53-2.81-.27-.44,0-1.29.74-2.56a9.5,9.5,0,0,0,.75-4.53V211.89a17.84,17.84,0,0,1-1-4.2c0-.72,1-1.08,3-1.08a22.75,22.75,0,0,1,6.89,1.53q4.41,1.53,5.32,2.68a1.32,1.32,0,0,1,.25.83,7,7,0,0,1-1,2.47,6.82,6.82,0,0,0-.95,2.72V250a3.72,3.72,0,0,0,.95,2.06A4.83,4.83,0,0,1,404.31,253.89Zm.25-57a1.84,1.84,0,0,1,.08.66,20,20,0,0,1-.74,4.7c-.55,2.09-1.07,3.25-1.57,3.47s-2.92-.38-7.09-1.78-6.41-2.4-6.69-3a2.5,2.5,0,0,1-.25-1.24,11.15,11.15,0,0,1,1.16-4.7c.88-1.87,1.87-2.91,3-3.14,1.26-.21,3.47.27,6.6,1.45S404,195.67,404.56,196.88Z"/><path class="cls-4" d="M449.85,250.26a8,8,0,0,1,.66,3.13,3.42,3.42,0,0,1-1.89,3.39,6.12,6.12,0,0,1-2.07.24,31.71,31.71,0,0,1-6.68-.86c-2.59-.58-4.15-1.15-4.7-1.69a1.63,1.63,0,0,1-.42-1.08,6.9,6.9,0,0,1,1.24-2.92,6.84,6.84,0,0,0,1.24-2.93q.16-32.5-.5-32.76-1.16-.41-5.69,7.43-4.79,8.25-4.78,12.45v15.43a3.62,3.62,0,0,1,1.07,2.64,4.26,4.26,0,0,1-2.81,4.29,2.29,2.29,0,0,1-1,.17,30.87,30.87,0,0,1-6.51-1q-4.29-1-4.79-1.69a2.42,2.42,0,0,1-.49-1.49,3.38,3.38,0,0,1,.94-2,3.82,3.82,0,0,0,.95-1.48V211.15a3.59,3.59,0,0,0-.66-1.73,2.22,2.22,0,0,1-.41-1.82,3.16,3.16,0,0,1,2.56-2.22q1.32-.33,6.19.9,5.28,1.32,5.77,2.73a4.47,4.47,0,0,1-.25,2.72,22.65,22.65,0,0,0-.9,3.3,6.82,6.82,0,0,0,.33,2,25.94,25.94,0,0,1,3.46-7.35c1.82-2.58,3.63-3.87,5.45-3.87a19.18,19.18,0,0,1,7.26,1.94q4.45,1.94,5.11,3.5Q449.85,216.51,449.85,250.26Z"/><path class="cls-4" d="M492.51,211.89a15.37,15.37,0,0,1-.91,1.65,4.45,4.45,0,0,0-.58,1.82V251.5q0,13.69-10.15,17.57a24,24,0,0,1-8.58,1.82,13.9,13.9,0,0,1-9.73-3.8,45.34,45.34,0,0,1-4-4.29c-.11-.11-.64-.63-1.57-1.57a3.24,3.24,0,0,1-.91-1.9c-.05-.82.77-1.48,2.48-2a4.75,4.75,0,0,1,1-.08,15.87,15.87,0,0,1,4.33.74,8.52,8.52,0,0,1,3.59,1.82l2.72,3.38a4.71,4.71,0,0,0,3.3,1.9c2.26.22,3.71-1.32,4.37-4.62a48.67,48.67,0,0,0,.5-8.5c-.17.22-.69.94-1.57,2.15A10.48,10.48,0,0,1,475.1,256a2.82,2.82,0,0,1-1.9.83,11.36,11.36,0,0,1-7.34-2.39Q457,247,457,232.6a34.27,34.27,0,0,1,3.88-16.42q4-7.76,10.56-9.73a2.9,2.9,0,0,1,.91-.17,5.19,5.19,0,0,1,3,1.24c.93.72,1.87,1.46,2.8,2.23.33-.94.68-1.86,1-2.77a2.15,2.15,0,0,1,1.69-1.52q1.74-.26,6.15,1.11c2.94.91,4.61,1.69,5,2.35A3.37,3.37,0,0,1,492.51,211.89Zm-14.61,20.3a84,84,0,0,0,.66-9.32q0-6.69-2.14-7.51-1.74-.66-4.21,5.86a33.72,33.72,0,0,0-2.47,11.88q0,9.74,2.22,15.43A37.73,37.73,0,0,0,477.9,232.19Z"/><line class="cls-5" x1="523.1" y1="106.87" x2="497.99" y2="125.38"/><line class="cls-5" x1="521.3" y1="127.42" x2="499.79" y2="104.84"/><path class="cls-4" d="M175.27,371.38q-.35,2.13-1.2,2.34a11.09,11.09,0,0,1-4.57-.65q-3.58-1-4.09-2a1.86,1.86,0,0,1-.15-.75,6.67,6.67,0,0,1,.13-1,6.59,6.59,0,0,0,.12-1.12V345.65q-2.34,4.58-6.12,20.6a2.06,2.06,0,0,0,0,.45,11.08,11.08,0,0,0,.18,1.59,13.44,13.44,0,0,1,.17,1.4,13.12,13.12,0,0,1-.15,2,1.45,1.45,0,0,1-1,1.19,7,7,0,0,1-1.75.15q-6.47,0-8.9-2.24a1.36,1.36,0,0,1-.3-1.24,5.48,5.48,0,0,0,0-1.45q-1.85-5.67-3.29-9.95-3.48-10.35-4.52-12.19v19.8a6,6,0,0,0,.39,1.8,13.37,13.37,0,0,1,.55,1.74,9,9,0,0,1,.1,2.39c-.07,1.12-.3,1.82-.7,2.09a2.28,2.28,0,0,1-1.14.2,18.19,18.19,0,0,1-4.38-.65c-1.83-.43-2.9-.88-3.23-1.34a1.42,1.42,0,0,1-.25-.85,4.5,4.5,0,0,1,.17-1,4.47,4.47,0,0,0,.17-1.09V333.75a2.62,2.62,0,0,1,.5-1.36,2.35,2.35,0,0,1,1.15-1c.56-.23,2.73.16,6.52,1.19,3.94,1,6,1.92,6.27,2.69a2.8,2.8,0,0,1,0,1.19c-.1.7-.15,1.12-.15,1.25a2,2,0,0,0,.15.79l6.71,18.07q1.4-4.44,5.08-18c1.23-4.61,2.22-7,3-7.21a2.71,2.71,0,0,1,.79-.1,14.9,14.9,0,0,1,2.84.45,19.84,19.84,0,0,0,3,.59q3.94.35,4.53.45c1.56.3,2.44.85,2.64,1.64a2.61,2.61,0,0,1,.1.75,5.78,5.78,0,0,1-.25,1.42,6.17,6.17,0,0,0-.25,1.37v30.45a3.34,3.34,0,0,0,.63,1.5A2.43,2.43,0,0,1,175.27,371.38Z"/><path class="cls-4" d="M201.89,343.91a1.73,1.73,0,0,1,.35,1,2.08,2.08,0,0,1-.57,1.2,2.29,2.29,0,0,0-.58.89v23.14a3.2,3.2,0,0,0,.33,1.05,3.3,3.3,0,0,1,.32,1.09c0,.6-.51,1-1.54,1.3a10.47,10.47,0,0,1-3.73-.55c-2.13-.53-3.29-1.06-3.49-1.59a2.61,2.61,0,0,1,.15-1.74,6.26,6.26,0,0,0,.5-1.8,7.28,7.28,0,0,0-.15-1.29,15.61,15.61,0,0,1-2.09,4.43c-1.1,1.53-2.19,2.29-3.28,2.29a11.73,11.73,0,0,1-4.38-1.15c-1.8-.76-2.82-1.46-3.09-2.09q-1.39-3.18-1.39-23.53a4.84,4.84,0,0,1-.4-1.9,2.11,2.11,0,0,1,1.14-2.09,3.59,3.59,0,0,1,1.25-.15,18.84,18.84,0,0,1,4,.53,6.4,6.4,0,0,1,2.84,1.07,1,1,0,0,1,.24.64,4,4,0,0,1-.74,1.77,4.09,4.09,0,0,0-.75,1.77q-.11,19.6.3,19.75c.46.17,1.63-1.37,3.51-4.6s2.81-5.7,2.81-7.39v-9.3a2.2,2.2,0,0,1-.65-1.6,2.62,2.62,0,0,1,1.7-2.64,1.49,1.49,0,0,1,.59-.09,17.94,17.94,0,0,1,3.93.62A7.75,7.75,0,0,1,201.89,343.91Z"/><path class="cls-4" d="M223.94,367.4a5.64,5.64,0,0,1-1.82,4.38,7.57,7.57,0,0,1-5.1,1.69,6.7,6.7,0,0,1-1.74-.25c-1.13-.3-1.73-.47-1.79-.5l-1.82-.42a3.85,3.85,0,0,1-1.57-.77,12.37,12.37,0,0,1-2.14-2.74c-.56-.93-1.11-1.87-1.64-2.84a6.54,6.54,0,0,1-.8-1.74c0-.46.33-.81,1-1a2.57,2.57,0,0,1,.89-.1,26.71,26.71,0,0,1,3.76.32,7.87,7.87,0,0,1,2.47.55,11.74,11.74,0,0,1,.54,2.86c.2,1.52.55,2.29,1,2.29q1.14,0,1.14-3.09c0-2.62-.69-4.26-2.09-4.92-3.18-1.5-5.27-2.82-6.27-4-1.23-1.42-1.84-3.58-1.84-6.46a10.31,10.31,0,0,1,1.49-5.35,6,6,0,0,1,3.54-3c.59-.13,2.52.5,5.77,1.9q.45.15,2.64.54a3.78,3.78,0,0,1,2.19,1.05,6.27,6.27,0,0,1,1.09,3.63c0,1.23.05,2.46.05,3.68a18.17,18.17,0,0,1,.35,2,1.44,1.44,0,0,1-1.34,1.59,8,8,0,0,1-2.74-.55,6.18,6.18,0,0,1-2.84-1.54,21.31,21.31,0,0,1-.3-3.74q-.15-3.33-.69-3.33c-.5,0-1,.65-1.4,1.94a12.73,12.73,0,0,0-.64,4c0,1.76.38,2.87,1.14,3.34,1.63.89,3.24,1.8,4.85,2.71a9.57,9.57,0,0,1,3.36,2.81A9.11,9.11,0,0,1,223.94,367.4Z"/><path class="cls-4" d="M237.72,371.33a1.83,1.83,0,0,1-1.24,2.24,4.12,4.12,0,0,1-.7.05,16.73,16.73,0,0,1-4.43-.75c-1.89-.53-3-1.09-3.33-1.69-.17-.27,0-.78.44-1.54a5.8,5.8,0,0,0,.45-2.74V346a10.72,10.72,0,0,1-.6-2.54c0-.43.62-.65,1.85-.65a13.85,13.85,0,0,1,4.15.92,8.1,8.1,0,0,1,3.21,1.62.8.8,0,0,1,.15.5,4.25,4.25,0,0,1-.57,1.49,4.1,4.1,0,0,0-.57,1.64v20a2.25,2.25,0,0,0,.57,1.24A2.94,2.94,0,0,1,237.72,371.33Zm.15-34.39a1.13,1.13,0,0,1,0,.4,11.83,11.83,0,0,1-.45,2.83c-.33,1.27-.65,2-.94,2.09s-1.76-.22-4.28-1.06-3.87-1.46-4-1.82a1.64,1.64,0,0,1-.14-.75,6.74,6.74,0,0,1,.69-2.83c.53-1.13,1.13-1.76,1.79-1.9a9.08,9.08,0,0,1,4,.88Q237.38,335.85,237.87,336.94Z"/><path class="cls-4" d="M262.55,362.62c0,.63-.54,1.48-1.64,2.54a21.54,21.54,0,0,1-2.39,4.23,8.7,8.7,0,0,1-5.62,3.53,9,9,0,0,1-1.35.1q-2.78,0-6.86-2.69-3.54-2.38-3.54-11a32.75,32.75,0,0,1,1.94-11.54q2.15-5.62,5.23-5.82a14.05,14.05,0,0,1,6,1.29,10.71,10.71,0,0,1,4.78,3.19,6.34,6.34,0,0,1,1,3.83c0,.43,0,1.05-.1,1.86a12.45,12.45,0,0,0-.05,1.72c.07.9.1,1.31.1,1.24,0,1.07-.51,1.58-1.54,1.55a12.78,12.78,0,0,1-3.38-.55,3.8,3.8,0,0,1-2.59-2c-.1-.3,0-.7.42-1.19a1.72,1.72,0,0,0,.48-1.25,9.61,9.61,0,0,0,.09-1.74c0-2-.34-3-1-3.09q-1.59-.09-2.69,4.83a43.38,43.38,0,0,0-1,9.56c0,4.08.48,6.23,1.44,6.47.76.16,1.76-.67,3-2.49a11,11,0,0,0,1.66-3.16c.09-.55.16-1.1.23-1.67a1.54,1.54,0,0,1,1.79-1.29,11.82,11.82,0,0,1,3.13,1.14c1.5.7,2.28,1.22,2.37,1.57A4.05,4.05,0,0,1,262.55,362.62Z"/><path class="cls-4" d="M153.89,492.24a8.08,8.08,0,0,1-2.44,6.05,9.7,9.7,0,0,1-6.77,2.46,8.8,8.8,0,0,1-2.34-.35c-1.53-.43-2.32-.65-2.39-.65-.79-.16-1.6-.34-2.41-.52a4.37,4.37,0,0,1-2.12-1.12,8.62,8.62,0,0,1-2.19-3.88,19.24,19.24,0,0,0-1.59-3.93,6.24,6.24,0,0,1-.94-1.4,2,2,0,0,1,.27-1.46,1.9,1.9,0,0,1,1-.92,3.83,3.83,0,0,1,1.09-.1,26.53,26.53,0,0,1,4.26.42,7.27,7.27,0,0,1,2.81.77,13.12,13.12,0,0,1,.8,3.58c.3,2,.74,3.11,1.34,3.34a.93.93,0,0,0,.45.1c.63,0,1.17-.52,1.62-1.57a9.07,9.07,0,0,0,.67-3.56c0-2.88-.9-4.81-2.69-5.77q-6.17-3.33-8.66-6.17a10.29,10.29,0,0,1-2.59-7.76,15.76,15.76,0,0,1,2.72-7.54q2.46-3.81,5.2-4.46,1.14-.24,7,2.19c1,.37,1.94.75,2.91,1.15a5.69,5.69,0,0,1,2.37,1.74q1.4,1.74,1.39,6c0,.53,0,1.31,0,2.34s-.05,1.53-.05,1.89a7,7,0,0,0,.35,1.14,2.15,2.15,0,0,1,.2,1.1c-.07,1.46-.68,2.27-1.84,2.44a9.65,9.65,0,0,1-3.68-.75c-2-.63-3.26-1.31-3.79-2a2.78,2.78,0,0,1-.1-1q0-.75.18-3.39c.11-1.76.17-3,.17-3.83,0-1.43-.16-2.12-.49-2.09-1,.07-1.89.8-2.57,2.21a11,11,0,0,0-1,4.81c0,3,.88,5.11,2.64,6.37l6,3.78a12.17,12.17,0,0,1,3.93,3.68A13.3,13.3,0,0,1,153.89,492.24Z"/><path class="cls-4" d="M174.74,470.84c1.82.86,3.23,2.61,4.23,5.23a24.23,24.23,0,0,1,1.34,8.46A27.35,27.35,0,0,1,178,496.17q-2.53,5.28-6.32,4.78c-.93-.23-2.32-.52-4.18-.85a21.35,21.35,0,0,1-3.68-.74q-2.84-.75-4.53-4.83a23.31,23.31,0,0,1-1.54-8.86,26,26,0,0,1,1.59-9.31,12,12,0,0,1,5-6.41,3.1,3.1,0,0,1,1.49-.3,23,23,0,0,1,3.93.64A29.72,29.72,0,0,1,174.74,470.84Zm-5.58,4.48c-.89,0-1.72,1.09-2.49,3.26a18.86,18.86,0,0,0-1.14,6.24,29.54,29.54,0,0,0,.85,7.07q.94,3.78,2.19,4.08c1.06.24,2-1,2.83-3.58a27.54,27.54,0,0,0,1.2-8.36,20,20,0,0,0-.65-5Q171.05,475.33,169.16,475.32Z"/><path class="cls-4" d="M207.33,470.94a1.74,1.74,0,0,1,.35,1,2,2,0,0,1-.57,1.19,2.28,2.28,0,0,0-.57.9v23.14a3.07,3.07,0,0,0,.32,1,3.28,3.28,0,0,1,.32,1.1c0,.59-.51,1-1.54,1.29a10.47,10.47,0,0,1-3.73-.55c-2.13-.53-3.29-1.06-3.49-1.59a2.61,2.61,0,0,1,.15-1.74,6.22,6.22,0,0,0,.5-1.79,7.38,7.38,0,0,0-.15-1.3,15.48,15.48,0,0,1-2.09,4.43c-1.09,1.53-2.19,2.29-3.28,2.29a11.88,11.88,0,0,1-4.38-1.14c-1.79-.77-2.82-1.46-3.09-2.09q-1.4-3.19-1.39-23.54a4.76,4.76,0,0,1-.4-1.89,2.09,2.09,0,0,1,1.14-2.09,3.59,3.59,0,0,1,1.25-.15,18.76,18.76,0,0,1,4,.52,6.4,6.4,0,0,1,2.84,1.07,1,1,0,0,1,.25.65,4.12,4.12,0,0,1-.75,1.76,4.19,4.19,0,0,0-.75,1.77q-.09,19.61.3,19.76c.47.16,1.63-1.37,3.51-4.61s2.81-5.69,2.81-7.39v-9.3a2.17,2.17,0,0,1-.65-1.6,2.6,2.6,0,0,1,1.7-2.63,1.31,1.31,0,0,1,.59-.1,18.74,18.74,0,0,1,3.94.62A8,8,0,0,1,207.33,470.94Z"/><path class="cls-4" d="M234.8,496.17a4.76,4.76,0,0,1,.4,1.89,2,2,0,0,1-1.14,2,3.59,3.59,0,0,1-1.25.15,18.76,18.76,0,0,1-4-.52,7.16,7.16,0,0,1-2.84-1,1,1,0,0,1-.24-.65,4.06,4.06,0,0,1,.74-1.76,4.14,4.14,0,0,0,.75-1.77q.09-19.61-.3-19.76-.7-.24-3.43,4.48c-1.93,3.32-2.89,5.82-2.89,7.52v9.3a2.16,2.16,0,0,1,.65,1.59,2.56,2.56,0,0,1-1.7,2.59,1.31,1.31,0,0,1-.59.1,18.57,18.57,0,0,1-3.93-.62c-1.73-.41-2.69-.75-2.89-1a1.46,1.46,0,0,1-.3-.9,2,2,0,0,1,.57-1.19c.38-.47.58-.76.58-.9V472.58a2.25,2.25,0,0,0-.4-1,1.32,1.32,0,0,1-.25-1.1,1.92,1.92,0,0,1,1.54-1.34,10.47,10.47,0,0,1,3.73.55c2.13.53,3.29,1.08,3.49,1.64a2.76,2.76,0,0,1-.15,1.64,13.42,13.42,0,0,0-.55,2,4.18,4.18,0,0,0,.2,1.2,15.48,15.48,0,0,1,2.09-4.43c1.09-1.56,2.19-2.34,3.28-2.34a11.63,11.63,0,0,1,4.38,1.17c1.8.78,2.82,1.48,3.09,2.11Q234.81,475.83,234.8,496.17Z"/><path class="cls-4" d="M262.67,461.09a4.8,4.8,0,0,1-.37,1.94,11.19,11.19,0,0,0-.48,1.64v32.45a5,5,0,0,0,.25,2q.75,1.29.45,1.74c-.17.26-.6.4-1.29.4a20.4,20.4,0,0,1-3.49-.45c-1.76-.37-2.68-.55-2.78-.55a1.58,1.58,0,0,1-1.3-1.19,2.38,2.38,0,0,1,0-.65,48.49,48.49,0,0,1,.55-6.07q-1.2,2.39-2.34,4.78c-1.09,1.95-2.07,2.85-2.94,2.68q-9.8-2-9.8-12a24.75,24.75,0,0,1,3.14-11.64q3-5.73,6.66-7.47a2.24,2.24,0,0,1,1-.25q1.24,0,4.33,3.09v-9.66a6.84,6.84,0,0,0-.45-1.41,4.92,4.92,0,0,1-.4-1.52c0-.7.47-1.05,1.4-1.05a13.92,13.92,0,0,1,3.58.7c1,.33,2,.64,2.94.94A1.84,1.84,0,0,1,262.67,461.09ZM254,473.93q-2.79,1.24-5,5.47a16.79,16.79,0,0,0-2.26,7.86c0,2.82,1.09,4.37,3.28,4.63Q251.72,492.09,254,473.93Z"/><path class="cls-4" d="M300.39,493.48a4.42,4.42,0,0,1-.87,1.82,3.18,3.18,0,0,1-1.27,1.17.86.86,0,0,1-.55-.17,1.42,1.42,0,0,0-.64-.23.46.46,0,0,0-.2.05,19.68,19.68,0,0,0-3.09,1.2,28.87,28.87,0,0,0-6.77,4.33l-5.42-2.24c-2.06-.9-3.08-1.56-3.08-2V460c0-.23.38-.56,1.16-1a3.61,3.61,0,0,1,1.72-.6,10.54,10.54,0,0,1,2.39.77,8.27,8.27,0,0,0,2.94.72,8.62,8.62,0,0,0,3.88-1.34c1.46-.86,2.37-1.23,2.74-1.1a12.15,12.15,0,0,1,3.55,2.62c1.58,1.47,2.43,2.53,2.57,3.16.06.3-.24.81-.92,1.54s-1.24,1.09-1.67,1.09a1.63,1.63,0,0,1-.8-.14c-.16-.1-.28-.14-.35-.1a28.57,28.57,0,0,0-3.33.94,14.73,14.73,0,0,0-5.42,2.89v8.11a33.32,33.32,0,0,1,4.52-1.84c.53-.07,1.65.67,3.36,2.21s2.57,2.62,2.57,3.21a2.12,2.12,0,0,1-.7,1.3,3.3,3.3,0,0,1-1.34.94c-.34,0-.92,0-1.75.1-1.26.23-3.48,1.3-6.66,3.19v5.22q1.49-.9,4.05-2.11a11.64,11.64,0,0,1,3.16-1.22q.69,0,3.51,2.16C299.55,492.16,300.46,493.09,300.39,493.48Z"/><path class="cls-4" d="M317.66,462a2.64,2.64,0,0,1-.45,1.69c-.36.64-.74.93-1.14.9a1.67,1.67,0,0,1-.95-.52,2.05,2.05,0,0,0-1-.57q-2.29-.41-2.29,4.23v1.54c0,.66,0,1.13,0,1.39h1.59c.36,0,1.08.6,2.14,1.79s1.58,2,1.54,2.54a2.74,2.74,0,0,1-.59,1.59,1.54,1.54,0,0,1-1.2.7,1.23,1.23,0,0,1-.35-.05,11.75,11.75,0,0,0-3.13-.25v19.66a2,2,0,0,0,.42,1,1.41,1.41,0,0,1,.32,1.07,2,2,0,0,1-2.09,1.74,13.28,13.28,0,0,1-3.83-.89c-2-.67-3.1-1.28-3.23-1.85a2.91,2.91,0,0,1,.35-1.46,5.29,5.29,0,0,0,.44-1.72V476.91h-1.69c-.63,0-1.4-.55-2.31-1.67a4.77,4.77,0,0,1-1.37-2.66,1.91,1.91,0,0,1,.55-1.34,1.64,1.64,0,0,1,1.24-.6h3.58a30.13,30.13,0,0,1,.65-7.61,6.17,6.17,0,0,1,6.42-4.68c.43,0,.86,0,1.29,0A6.92,6.92,0,0,1,316,460C317,460.87,317.59,461.52,317.66,462Z"/><path class="cls-4" d="M338.81,462a2.7,2.7,0,0,1-.45,1.69c-.36.64-.74.93-1.14.9a1.67,1.67,0,0,1-1-.52,2.05,2.05,0,0,0-1-.57q-2.3-.41-2.29,4.23v1.54c0,.66.05,1.13.05,1.39h1.59c.36,0,1.08.6,2.14,1.79s1.57,2,1.54,2.54a2.69,2.69,0,0,1-.6,1.59,1.51,1.51,0,0,1-1.19.7,1.23,1.23,0,0,1-.35-.05A11.75,11.75,0,0,0,333,477v19.66a2,2,0,0,0,.42,1,1.41,1.41,0,0,1,.32,1.07,2,2,0,0,1-2.09,1.74,13.28,13.28,0,0,1-3.83-.89c-2-.67-3.1-1.28-3.23-1.85a3,3,0,0,1,.34-1.46,5.11,5.11,0,0,0,.45-1.72V476.91h-1.69c-.63,0-1.4-.55-2.31-1.67a4.77,4.77,0,0,1-1.37-2.66,1.91,1.91,0,0,1,.55-1.34,1.64,1.64,0,0,1,1.24-.6h3.58A30.13,30.13,0,0,1,326,463a6.16,6.16,0,0,1,6.42-4.68c.43,0,.86,0,1.29,0a7,7,0,0,1,3.39,1.64C338.18,460.87,338.74,461.52,338.81,462Z"/><path class="cls-4" d="M360.41,490.65c.3.5-.35,2-1.94,4.43a16.1,16.1,0,0,1-5.08,5.32,2.09,2.09,0,0,1-.9.15,15.24,15.24,0,0,1-5.07-1.19q-3.33-1.2-4.38-2.59-2.9-3.74-2.89-10.35a23.25,23.25,0,0,1,2.54-11.05q2.73-5.22,7-5.32a9.72,9.72,0,0,1,3.73.79,12.26,12.26,0,0,1,4.43,2.84,6.16,6.16,0,0,1,.84,2.68,22.46,22.46,0,0,1,.5,4.68c0,2.26-.36,3.82-1.09,4.68a38.56,38.56,0,0,1-10.45,1.84,17.57,17.57,0,0,0,.59,5.13c.47,1.79,1,2.7,1.45,2.73.66,0,1.46-.51,2.39-1.64a7.41,7.41,0,0,0,1.54-2.44,26.08,26.08,0,0,1,.94-3.08,8.3,8.3,0,0,1,3.14.8C359.23,489.65,360.14,490.18,360.41,490.65Zm-8.86-15.23c-.57-.07-1.35.83-2.37,2.69a14,14,0,0,0-1.76,5.32,6.34,6.34,0,0,0,3.58-1.09c.53-.4.8-2.06.8-5C351.8,476.13,351.71,475.49,351.55,475.42Z"/><path class="cls-4" d="M385.69,489.65c0,.63-.55,1.48-1.64,2.54a21.44,21.44,0,0,1-2.39,4.23A8.72,8.72,0,0,1,376,500a8.92,8.92,0,0,1-1.34.1q-2.79,0-6.87-2.68-3.52-2.4-3.53-11a32.77,32.77,0,0,1,1.94-11.55q2.14-5.62,5.23-5.82a14.11,14.11,0,0,1,6,1.29,11,11,0,0,1,4.78,3.19,6.43,6.43,0,0,1,1,3.83c0,.43,0,1.05-.1,1.87a10.86,10.86,0,0,0,0,1.71c.07.9.1,1.31.1,1.25,0,1.06-.51,1.57-1.54,1.54a12,12,0,0,1-3.39-.55,3.73,3.73,0,0,1-2.58-2c-.1-.3,0-.69.42-1.19a1.65,1.65,0,0,0,.47-1.25,8.4,8.4,0,0,0,.1-1.74c0-2-.35-3-1-3.08-1.07-.07-2,1.54-2.69,4.82a42.77,42.77,0,0,0-1,9.56q0,6.12,1.45,6.47c.76.16,1.75-.67,3-2.49a10.74,10.74,0,0,0,1.67-3.16c.08-.55.16-1.1.22-1.67a1.55,1.55,0,0,1,1.8-1.29,12.77,12.77,0,0,1,3.13,1.14c1.49.7,2.28,1.22,2.36,1.57A3.59,3.59,0,0,1,385.69,489.65Z"/><path class="cls-4" d="M405.2,475a2.83,2.83,0,0,1-.6,1.59,1.53,1.53,0,0,1-1.19.7,1.18,1.18,0,0,1-.35-.05,12.23,12.23,0,0,0-3.14-.25v19.66a7,7,0,0,1,.33.79,4.45,4.45,0,0,1,.32,1.5c0,1-.67,1.47-2,1.54a12.76,12.76,0,0,1-3.83-.89c-2-.67-3.11-1.28-3.24-1.85a2.91,2.91,0,0,1,.35-1.46,5.11,5.11,0,0,0,.45-1.72V476.91h-1.69c-.63,0-1.41-.55-2.34-1.67a4.79,4.79,0,0,1-1.4-2.66,1.86,1.86,0,0,1,.58-1.34,1.71,1.71,0,0,1,1.26-.6h3.59v-4.48a3.47,3.47,0,0,1-.75-2.14,1.19,1.19,0,0,1,.9-1.29,5.76,5.76,0,0,1,1.24-.1,19.52,19.52,0,0,1,4.31.57,9.08,9.08,0,0,1,3.21,1.17.89.89,0,0,1,.34.7,2.91,2.91,0,0,1-.79,1.49,3.88,3.88,0,0,0-.85,1.39v2.69h1.59c.34,0,1,.6,2.09,1.79S405.2,474.47,405.2,475Z"/><circle class="cls-6" cx="509.82" cy="356.74" r="23.5"/><circle class="cls-6" cx="592.47" cy="356.74" r="23.5"/><rect class="cls-6" x="512.25" y="333.24" width="79.41" height="47"/><circle class="cls-7" cx="505.89" cy="354.12" r="23.5"/><circle class="cls-7" cx="588.54" cy="354.12" r="23.5"/><rect class="cls-7" x="508.32" y="330.62" width="79.41" height="47"/><circle class="cls-8" cx="505.96" cy="354.05" r="20.95"/><circle class="cls-6" cx="512.44" cy="483.77" r="23.5"/><circle class="cls-6" cx="595.09" cy="483.77" r="23.5"/><rect class="cls-6" x="514.87" y="460.27" width="79.41" height="47"/><circle class="cls-7" cx="508.51" cy="481.15" r="23.5"/><circle class="cls-7" cx="591.16" cy="481.15" r="23.5"/><rect class="cls-7" x="510.94" y="457.65" width="79.41" height="47"/><circle class="cls-9" cx="591.09" cy="481.08" r="20.95"/></svg>