<svg id="Layer_1" data-name="Layer 1" xmlns="http://www.w3.org/2000/svg" xmlns:xlink="http://www.w3.org/1999/xlink" width="1920" height="1080" viewBox="0 0 1920 1080"><defs><style>.cls-1,.cls-69,.cls-79,.cls-95,.cls-96{fill:none;}.cls-2{fill:#ffdb8f;}.cls-3{fill:url(#linear-gradient);}.cls-18,.cls-4,.cls-9{fill:#cff;}.cls-4{opacity:0.2;}.cls-5{fill:#009bca;}.cls-19,.cls-6{fill:#0081ca;}.cls-7{fill:#e6b15f;}.cls-8{fill:#fc6;}.cls-9{opacity:0.66;}.cls-10{opacity:0.7;}.cls-11{isolation:isolate;}.cls-12{fill:#b6f1ef;}.cls-13{clip-path:url(#clip-path);}.cls-14{fill:#9ce1dd;}.cls-15{fill:#a3e5e2;}.cls-16{fill:#96ddd8;}.cls-17{fill:#8fd9d3;}.cls-19{stroke:#0081ca;}.cls-19,.cls-69,.cls-79,.cls-95{stroke-linecap:round;}.cls-19,.cls-69,.cls-79,.cls-95,.cls-96{stroke-linejoin:round;}.cls-19,.cls-79{stroke-width:2px;}.cls-20{opacity:0.76;}.cls-21{fill:url(#linear-gradient-2);}.cls-22{fill:url(#linear-gradient-3);}.cls-23{fill:url(#linear-gradient-4);}.cls-24{fill:url(#linear-gradient-5);}.cls-25{fill:url(#linear-gradient-6);}.cls-26{fill:url(#linear-gradient-7);}.cls-27{fill:url(#linear-gradient-8);}.cls-28{fill:url(#linear-gradient-9);}.cls-29{fill:url(#linear-gradient-10);}.cls-30{fill:url(#linear-gradient-11);}.cls-31{fill:url(#linear-gradient-12);}.cls-32{fill:url(#linear-gradient-13);}.cls-33{fill:url(#linear-gradient-14);}.cls-34{fill:url(#linear-gradient-15);}.cls-35{fill:url(#linear-gradient-16);}.cls-36{fill:url(#linear-gradient-17);}.cls-37{fill:url(#linear-gradient-18);}.cls-38{fill:url(#linear-gradient-19);}.cls-39{fill:url(#linear-gradient-20);}.cls-40{fill:url(#linear-gradient-21);}.cls-41{fill:url(#linear-gradient-22);}.cls-42{fill:url(#linear-gradient-23);}.cls-43{fill:url(#linear-gradient-24);}.cls-44{fill:url(#linear-gradient-25);}.cls-45{fill:url(#linear-gradient-26);}.cls-46{fill:url(#linear-gradient-27);}.cls-47{fill:url(#linear-gradient-28);}.cls-48{fill:#0010b1;}.cls-49{fill:#3a6d19;}.cls-50{fill:url(#linear-gradient-29);}.cls-51{fill:#d88a55;}.cls-52{fill:url(#linear-gradient-30);}.cls-53{fill:url(#linear-gradient-31);}.cls-54{fill:#3b7515;}.cls-55{fill:url(#linear-gradient-32);}.cls-56{fill:#29590a;}.cls-57{fill:url(#linear-gradient-33);}.cls-58{fill:#d6551a;}.cls-59{fill:#c63;}.cls-60{fill:#dd6b1d;}.cls-61{fill:#d87a35;}.cls-62{fill:#ad5e1e;}.cls-63{fill:url(#linear-gradient-34);}.cls-64{fill:#315916;}.cls-65{fill:#fff;}.cls-66{fill:#1270d0;}.cls-67{fill:#050505;}.cls-68{fill:#f9f9f9;}.cls-69{stroke:#29590a;}.cls-70{fill:#78c943;}.cls-71{fill:url(#linear-gradient-35);}.cls-72{fill:url(#linear-gradient-36);}.cls-73{fill:url(#linear-gradient-37);}.cls-74{fill:url(#linear-gradient-38);}.cls-75{fill:url(#linear-gradient-39);}.cls-76{fill:url(#linear-gradient-40);}.cls-77{fill:url(#linear-gradient-41);}.cls-78{fill:#1a6172;}.cls-79{stroke:#000;}.cls-80{fill:url(#linear-gradient-42);}.cls-81{fill:url(#linear-gradient-43);}.cls-82{fill:#c60;}.cls-83{fill:#fc9;}.cls-84{fill:#f93;}.cls-85{fill:#734a00;}.cls-86{fill:url(#linear-gradient-44);}.cls-87{fill:url(#linear-gradient-45);}.cls-88{fill:url(#linear-gradient-46);}.cls-89{fill:url(#linear-gradient-47);}.cls-90{fill:url(#linear-gradient-48);}.cls-91{fill:url(#linear-gradient-49);}.cls-92{fill:url(#linear-gradient-50);}.cls-93{fill:url(#linear-gradient-51);}.cls-94{fill:url(#linear-gradient-52);}.cls-95,.cls-96{stroke:#fff;stroke-width:5px;}</style><linearGradient id="linear-gradient" x1="-6860.97" y1="1078.56" x2="-6860.97" y2="0.99" gradientTransform="matrix(-1, 0, 0, 1, -5901.86, 0)" gradientUnits="userSpaceOnUse"><stop offset="0" stop-color="#55a7fc"/><stop offset="0" stop-color="#58c9fd"/><stop offset="0.25" stop-color="#5dc8ff"/><stop offset="0.71" stop-color="#00d3db"/><stop offset="1" stop-color="#c9d5e2"/></linearGradient><clipPath id="clip-path"><path class="cls-1" d="M197.71,100.74,206,104a71,71,0,0,1,44.64,57.51c5,39.5-22.66,76-61.8,81.47a70.14,70.14,0,0,1-35.27-4l-8.32-3.23a70.13,70.13,0,0,0,35.27,4c39.13-5.5,66.8-42,61.79-81.47A70.93,70.93,0,0,0,197.71,100.74Z"/></clipPath><linearGradient id="linear-gradient-2" x1="143.49" y1="52.53" x2="162.7" y2="52.53" gradientUnits="userSpaceOnUse"><stop offset="0.22"/><stop offset="0.34" stop-color="#00042f"/><stop offset="0.53" stop-color="#000975"/><stop offset="0.7" stop-color="#000da8"/><stop offset="0.82" stop-color="#000fc8"/><stop offset="0.89" stop-color="#0010d4"/></linearGradient><linearGradient id="linear-gradient-3" x1="158.05" y1="49.82" x2="211.05" y2="49.82" xlink:href="#linear-gradient-2"/><linearGradient id="linear-gradient-4" x1="166.47" y1="51.87" x2="169.56" y2="51.87" xlink:href="#linear-gradient-2"/><linearGradient id="linear-gradient-5" x1="173.7" y1="51.54" x2="177.19" y2="51.54" xlink:href="#linear-gradient-2"/><linearGradient id="linear-gradient-6" x1="181.85" y1="51.54" x2="185.73" y2="51.54" xlink:href="#linear-gradient-2"/><linearGradient id="linear-gradient-7" x1="189.26" y1="51.54" x2="192.75" y2="51.54" xlink:href="#linear-gradient-2"/><linearGradient id="linear-gradient-8" x1="196.67" y1="51.43" x2="199.76" y2="51.43" xlink:href="#linear-gradient-2"/><linearGradient id="linear-gradient-9" x1="203.34" y1="51.65" x2="206.1" y2="51.65" xlink:href="#linear-gradient-2"/><linearGradient id="linear-gradient-10" x1="209.23" y1="54.44" x2="226.01" y2="54.44" xlink:href="#linear-gradient-2"/><linearGradient id="linear-gradient-11" x1="241.54" y1="52.53" x2="260.75" y2="52.53" xlink:href="#linear-gradient-2"/><linearGradient id="linear-gradient-12" x1="256.11" y1="49.82" x2="309.1" y2="49.82" xlink:href="#linear-gradient-2"/><linearGradient id="linear-gradient-13" x1="264.53" y1="51.87" x2="267.61" y2="51.87" xlink:href="#linear-gradient-2"/><linearGradient id="linear-gradient-14" x1="271.75" y1="51.54" x2="275.24" y2="51.54" xlink:href="#linear-gradient-2"/><linearGradient id="linear-gradient-15" x1="279.9" y1="51.54" x2="283.79" y2="51.54" xlink:href="#linear-gradient-2"/><linearGradient id="linear-gradient-16" x1="287.32" y1="51.54" x2="290.81" y2="51.54" xlink:href="#linear-gradient-2"/><linearGradient id="linear-gradient-17" x1="294.73" y1="51.43" x2="297.81" y2="51.43" xlink:href="#linear-gradient-2"/><linearGradient id="linear-gradient-18" x1="301.4" y1="51.65" x2="304.15" y2="51.65" xlink:href="#linear-gradient-2"/><linearGradient id="linear-gradient-19" x1="307.28" y1="54.44" x2="324.07" y2="54.44" xlink:href="#linear-gradient-2"/><linearGradient id="linear-gradient-20" x1="43.52" y1="54.04" x2="62.73" y2="54.04" xlink:href="#linear-gradient-2"/><linearGradient id="linear-gradient-21" x1="58.09" y1="51.33" x2="111.08" y2="51.33" xlink:href="#linear-gradient-2"/><linearGradient id="linear-gradient-22" x1="66.51" y1="53.38" x2="69.59" y2="53.38" xlink:href="#linear-gradient-2"/><linearGradient id="linear-gradient-23" x1="73.73" y1="53.05" x2="77.22" y2="53.05" xlink:href="#linear-gradient-2"/><linearGradient id="linear-gradient-24" x1="81.89" y1="53.05" x2="85.77" y2="53.05" xlink:href="#linear-gradient-2"/><linearGradient id="linear-gradient-25" x1="89.3" y1="53.05" x2="92.79" y2="53.05" xlink:href="#linear-gradient-2"/><linearGradient id="linear-gradient-26" x1="96.71" y1="52.94" x2="99.79" y2="52.94" xlink:href="#linear-gradient-2"/><linearGradient id="linear-gradient-27" x1="103.38" y1="53.16" x2="106.13" y2="53.16" xlink:href="#linear-gradient-2"/><linearGradient id="linear-gradient-28" x1="109.26" y1="55.94" x2="126.05" y2="55.94" xlink:href="#linear-gradient-2"/><linearGradient id="linear-gradient-29" x1="321.53" y1="-2337.17" x2="444.86" y2="-2265.97" gradientTransform="translate(-1670.96 2014.93) rotate(52.34)" gradientUnits="userSpaceOnUse"><stop offset="0.24" stop-color="#3b7218"/><stop offset="0.94" stop-color="#83c458"/></linearGradient><linearGradient id="linear-gradient-30" x1="-915.55" y1="461.42" x2="-885.61" y2="478.71" gradientTransform="matrix(1.21, 0.07, 0.55, 1.2, 1074.86, 357.08)" xlink:href="#linear-gradient-29"/><linearGradient id="linear-gradient-31" x1="190.7" y1="854.95" x2="273.98" y2="903.03" gradientTransform="matrix(1, 0, 0, 1, 0, 0)" xlink:href="#linear-gradient-29"/><linearGradient id="linear-gradient-32" x1="215.4" y1="887.41" x2="267.76" y2="917.64" gradientTransform="matrix(1, 0, 0, 1, 0, 0)" xlink:href="#linear-gradient-29"/><linearGradient id="linear-gradient-33" x1="732.59" y1="-29.47" x2="823.27" y2="-38.73" gradientTransform="translate(-323.31 745.88) rotate(15.83)" gradientUnits="userSpaceOnUse"><stop offset="0.24" stop-color="#3b7218"/><stop offset="0.82" stop-color="#83c458"/></linearGradient><linearGradient id="linear-gradient-34" x1="776.79" y1="-251.41" x2="799.29" y2="-84.25" gradientTransform="translate(-319.57 740.73) rotate(14.23)" xlink:href="#linear-gradient-29"/><linearGradient id="linear-gradient-35" x1="251.65" y1="1472.1" x2="327.06" y2="1472.1" gradientTransform="matrix(0.84, -0.55, 0.55, 0.84, -268.99, -585.52)" gradientUnits="userSpaceOnUse"><stop offset="0.47" stop-color="#01687f"/><stop offset="1" stop-color="#42cbea"/></linearGradient><linearGradient id="linear-gradient-36" x1="250.31" y1="1472.63" x2="325.83" y2="1472.63" gradientTransform="matrix(0.84, -0.55, 0.55, 0.84, -268.99, -585.52)" gradientUnits="userSpaceOnUse"><stop offset="0.02" stop-color="#fff"/><stop offset="1" stop-color="#42cbea"/></linearGradient><linearGradient id="linear-gradient-37" x1="274.55" y1="1374.56" x2="305.53" y2="1374.56" gradientTransform="translate(436.28 -968.68)" xlink:href="#linear-gradient-36"/><linearGradient id="linear-gradient-38" x1="276.39" y1="1364.19" x2="303.96" y2="1364.19" gradientTransform="translate(430.58 -967.05)" xlink:href="#linear-gradient-35"/><linearGradient id="linear-gradient-39" x1="251.44" y1="1445.07" x2="324.47" y2="1445.07" gradientTransform="matrix(0.84, -0.55, 0.55, 0.84, -268.99, -585.52)" gradientUnits="userSpaceOnUse"><stop offset="0.3" stop-color="#3cc"/><stop offset="0.79" stop-color="#42cbea"/></linearGradient><linearGradient id="linear-gradient-40" x1="276.39" y1="1358.93" x2="302.91" y2="1358.93" gradientTransform="translate(427.79 -965.91)" xlink:href="#linear-gradient-35"/><linearGradient id="linear-gradient-41" x1="276.91" y1="1358.15" x2="303.43" y2="1358.15" gradientTransform="translate(427.28 -966.07)" xlink:href="#linear-gradient-39"/><linearGradient id="linear-gradient-42" x1="-2645.06" y1="-4942.43" x2="-2377.8" y2="-4942.43" gradientTransform="translate(-3923.43 2713.43) rotate(90)" gradientUnits="userSpaceOnUse"><stop offset="0" stop-color="#f8fdfe"/><stop offset="0" stop-color="#42cbea"/><stop offset="0.67" stop-color="#f9fdfe"/><stop offset="0.99" stop-color="#70d0e2"/></linearGradient><linearGradient id="linear-gradient-43" x1="1079.25" y1="-104.25" x2="1242.74" y2="-104.25" gradientTransform="translate(-105.81 438.33) rotate(11.21)" gradientUnits="userSpaceOnUse"><stop offset="0" stop-color="#f15a24"/><stop offset="0.75" stop-color="#f7931e"/></linearGradient><linearGradient id="linear-gradient-44" x1="1816.52" y1="1015.04" x2="1891.33" y2="1015.04" gradientTransform="matrix(1, 0, 0, 1, 0, 0)" xlink:href="#linear-gradient-43"/><linearGradient id="linear-gradient-45" x1="1837.4" y1="996.38" x2="1841.39" y2="996.38" gradientTransform="matrix(1, 0, 0, 1, 0, 0)" xlink:href="#linear-gradient-43"/><linearGradient id="linear-gradient-46" x1="1839.48" y1="988.27" x2="1845.24" y2="988.27" gradientTransform="matrix(1, 0, 0, 1, 0, 0)" xlink:href="#linear-gradient-43"/><linearGradient id="linear-gradient-47" x1="1830.97" y1="997.89" x2="1833.52" y2="997.89" gradientTransform="matrix(1, 0, 0, 1, 0, 0)" xlink:href="#linear-gradient-43"/><linearGradient id="linear-gradient-48" x1="1842.67" y1="1016.5" x2="1867.12" y2="1016.5" gradientTransform="matrix(1, 0, 0, 1, 0, 0)" xlink:href="#linear-gradient-43"/><linearGradient id="linear-gradient-49" x1="1724.24" y1="1016.39" x2="1800.01" y2="1016.39" gradientTransform="matrix(1, 0, 0, 1, 0, 0)" xlink:href="#linear-gradient-43"/><linearGradient id="linear-gradient-50" x1="1745.39" y1="997.48" x2="1749.42" y2="997.48" gradientTransform="matrix(1, 0, 0, 1, 0, 0)" xlink:href="#linear-gradient-43"/><linearGradient id="linear-gradient-51" x1="1747.49" y1="989.27" x2="1753.32" y2="989.27" gradientTransform="matrix(1, 0, 0, 1, 0, 0)" xlink:href="#linear-gradient-43"/><linearGradient id="linear-gradient-52" x1="1738.87" y1="999.01" x2="1741.45" y2="999.01" gradientTransform="matrix(1, 0, 0, 1, 0, 0)" xlink:href="#linear-gradient-43"/></defs><title>spilscene</title><path class="cls-2" d="M368.51,1011.87c-26.63,9.77-30.08,13.67-8.13,19,25.13,6.08,12.65,10.82,10.42,15.15-3.46,6.72,56-12.75,33.5-19.38C372.44,1017.21,379.76,1007.74,368.51,1011.87Z"/><path class="cls-2" d="M1033.94,1060.6c-47.76-56.69-209.68-4.78-283.23-52-108.2-69.42,23,47.7-6.14,37-45.29-16.62-95.69,31.65-6.15,31C826.11,1076,1054.11,1084.54,1033.94,1060.6Z"/><rect class="cls-3" x="1.2" y="0.99" width="1915.81" height="1077.57"/><polyline class="cls-4" points="358.42 4.98 447.23 0.99 1041.92 1080.56"/><polyline class="cls-4" points="1526.86 0.99 1606.69 2.99 963.71 1106.42"/><polyline class="cls-4" points="658.37 1.83 744.09 -1.75 1027.95 1106.5"/><polyline class="cls-4" points="1288.38 0.99 1373.64 2.55 973.01 1014.22"/><polyline class="cls-4" points="1813.23 -2 1909.02 0.99 1074.41 967.76"/><polyline class="cls-4" points="118.94 -2 209.75 0.99 902.76 1018.99"/><ellipse class="cls-5" cx="396.39" cy="396.69" rx="7.65" ry="37.35" transform="translate(-43.26 48.56) rotate(-6.65)"/><ellipse class="cls-5" cx="384.43" cy="360.17" rx="9.8" ry="26.02" transform="translate(-132.86 260.56) rotate(-32.23)"/><ellipse class="cls-5" cx="377.69" cy="330.48" rx="20.51" ry="9.18" transform="matrix(0.25, -0.97, 0.97, 0.25, -37.49, 612.42)"/><ellipse class="cls-5" cx="415.04" cy="380.85" rx="32.14" ry="8.95" transform="translate(-143.38 454.85) rotate(-50.09)"/><ellipse class="cls-5" cx="431.47" cy="350.81" rx="7.01" ry="15.92" transform="translate(-11.85 15.1) rotate(-1.98)"/><ellipse class="cls-5" cx="395.02" cy="442.26" rx="25.1" ry="7.04" transform="translate(-132.69 712.73) rotate(-75.37)"/><ellipse class="cls-5" cx="396.78" cy="475.78" rx="6.74" ry="26.03" transform="translate(-131.44 152.08) rotate(-18.67)"/><ellipse class="cls-5" cx="375.62" cy="315.39" rx="8.88" ry="11.94" transform="translate(-24.41 599.17) rotate(-75.37)"/><ellipse class="cls-5" cx="416.67" cy="440.58" rx="37.35" ry="7.65" transform="translate(-184.56 519.59) rotate(-54.08)"/><ellipse class="cls-5" cx="444.95" cy="414.57" rx="26.02" ry="9.8" transform="translate(-143.9 262.55) rotate(-28.5)"/><ellipse class="cls-5" cx="465.34" cy="391.96" rx="20.51" ry="9.18" transform="translate(-31.47 743.18) rotate(-75.37)"/><ellipse class="cls-5" cx="474.53" cy="379.81" rx="8.88" ry="11.94" transform="translate(-12.81 743.03) rotate(-75.37)"/><ellipse class="cls-5" cx="380.36" cy="416.42" rx="6.87" ry="24.53" transform="translate(-183.29 396.85) rotate(-45.6)"/><ellipse class="cls-5" cx="365.58" cy="394.81" rx="5.34" ry="12.23" transform="translate(-25.04 24.75) rotate(-3.75)"/><ellipse class="cls-5" cx="420.46" cy="475.66" rx="26.02" ry="9.8" transform="translate(-124.43 149.88) rotate(-17.65)"/><ellipse class="cls-5" cx="443.75" cy="458.23" rx="20.51" ry="9.18" transform="translate(-160.82 661.64) rotate(-64.52)"/><ellipse class="cls-5" cx="457.41" cy="446.92" rx="8.88" ry="11.94" transform="translate(-142.81 667.61) rotate(-64.52)"/><ellipse class="cls-5" cx="366.06" cy="443.13" rx="7.92" ry="38.65" transform="translate(-204.21 514.96) rotate(-57.62)"/><ellipse class="cls-5" cx="336.46" cy="416.92" rx="7.58" ry="15.68" transform="translate(-145.45 182.83) rotate(-25.19)"/><path class="cls-5" d="M1707.47,660.51C1677.53,697.42,1645.58,803,1645.58,803,1483.5,763.79,1262.41,976.81,1144.7,971.8c-328.09,28-672.53-478.92-825.2-529.8S4.19,489.89,4.19,489.89v445H1917c-2.13,12.55-.16-394.73,0-420.06C1917,514.83,1737.4,623.59,1707.47,660.51Z"/><path class="cls-6" d="M3.2,1014.71l1914.58.92c-2.12,19.54.07-588.09.22-627.51,0,0-416.08,151.66-134.7,188.57,50.22,6.59,101.78,59.87,35.92,65.86-60.35,5.48,66.85,83.81,24,79.82-160.84-15-13,116.73-108.43,80.81-162.08-61-309.34,46.1-427,38.31C979.6,885.07,640,794.13,565.36,742.73,336.49,643.27,3.55,625.51,3.55,625.51Z"/><path class="cls-7" d="M1920,1055.61H1.07s.22-49.82,0-75.1C.2,885,19,990.64,170.83,931.89s371.19,88.8,499.91-11c89.8-18,453,87.8,611-8.82,416.8-97.94,638.31,9.67,638.31,9.67Z"/><path class="cls-8" d="M1919,1078.56H.07v-75.1C.07,978.18,67,1025.77,218.83,967s253.9,1.47,373.6-3.71c333.64,29,612.34,5.94,688.26-28.26,232.75-66.18,638.31,9.67,638.31,9.67Z"/><path class="cls-2" d="M372.88,972.64c-53.47-13.45-77.1-13-117.91,8.91-46.72,25.13-72.83,19-99.61,20.69-41.57,2.7,62.89,34.61,112.29,11.15C337.64,980.15,395.46,978.33,372.88,972.64Z"/><path class="cls-2" d="M1674.65,927.9c-101.6,37.29-114.74,52.14-31,72.38,95.84,23.18,48.22,41.28,39.73,57.79-13.18,25.63,213.53-48.64,127.77-73.93C1689.63,948.3,1717.56,912.16,1674.65,927.9Z"/><path class="cls-2" d="M1458.13,1062c-37.91-45-33.25-33.88-102.58-35.29-35.76-.73,30.76-170.18-106.24-30-26.76,27.37,25.42,84.5,96.48,84C1415.39,1080.14,1474.14,1081,1458.13,1062Z"/><path class="cls-6" d="M252.19,738.61l-29.92-1.13s18.31-127,9.61-131.19-60.32-61.21-51.65-92.37c13.05-38.86,57.06-79.88,8.62-1.25-7.71,27.08,45.45,73.6,53.44,83.45S252.19,738.61,252.19,738.61Z"/><path class="cls-6" d="M118.68,722.53l36.37,7s12.3-103.14,25.09-124.32c3.93-6.52,59.78-58.28,67.49-88.32,8.56-37.62-60.38-110.38-17.67,3-8.07,30.46-44.68,59.73-52.21,68.36S118.68,722.53,118.68,722.53Z"/><path class="cls-6" d="M143.3,695.49,116.62,682s43.93-77.26,46.42-98.29c.77-6.48-8.79-70.28,1.37-94.86,13.44-30.23,51.3-92.81,9.75,10.95-10.15,25.05-1.53,63.67-1.08,73.41S143.3,695.49,143.3,695.49Z"/><path class="cls-6" d="M155.78,717.26,116.18,716s25.08-79.16,19.79-97.26c-1.63-5.58-39.63-54.25-36.53-78.05,5-29.61,101.73-71.45,16.91,5.4-2.89,24.18,23.72,52.61,28.23,60.41S155.78,717.26,155.78,717.26Z"/><path class="cls-6" d="M149.91,718.12l-44.85-1.49S133.47,627,127.47,606.46c-1.85-6.31-56.07-51.81-52.56-78.77,5.67-33.53,28.17-107.6,15.34,5.63-3.27,27.39,45.57,62.44,50.69,71.27S149.91,718.12,149.91,718.12Z"/><path class="cls-6" d="M167.45,722.55l29.41,4.61s8.35-85.12,18.33-102.93c3.07-5.49,47.28-49.8,53-74.73,6.32-31.18,11.24-101.42-14.19,3-6,25.29-35.1,50.51-41,57.84S167.45,722.55,167.45,722.55Z"/><path class="cls-6" d="M1886.61,558l-29.92-1.13S1875,429.94,1866.3,425.7s-60.32-61.22-51.65-92.37c13-38.87,57.06-79.88,8.62-1.25-7.71,27.07,45.45,73.6,53.44,83.45S1886.61,558,1886.61,558Z"/><path class="cls-6" d="M1753.1,541.94l36.37,7s12.3-103.14,25.09-124.32c3.93-6.52,59.78-58.28,67.49-88.32,8.56-37.62-60.38-110.38-17.67,3-8.07,30.46-44.68,59.73-52.2,68.36S1753.1,541.94,1753.1,541.94Z"/><path class="cls-6" d="M1777.72,514.9,1751,501.41s43.93-77.25,46.43-98.28c.76-6.48-8.8-70.28,1.36-94.86,13.44-30.23,51.3-92.82,9.76,11-10.15,25-1.54,63.67-1.08,73.41S1777.72,514.9,1777.72,514.9Z"/><path class="cls-6" d="M1790.2,536.67l-39.59-1.31s25.07-79.16,19.78-97.26c-1.63-5.58-39.62-54.26-36.53-78.06,5-29.61,101.73-71.44,16.91,5.41-2.89,24.17,23.72,52.61,28.24,60.4S1790.2,536.67,1790.2,536.67Z"/><path class="cls-6" d="M1784.33,537.53,1739.48,536s28.41-89.66,22.41-110.17c-1.85-6.31-56.07-51.81-52.56-78.77,5.67-33.54,28.17-107.6,15.34,5.63-3.27,27.39,45.57,62.44,50.69,71.27S1784.33,537.53,1784.33,537.53Z"/><path class="cls-6" d="M1801.87,542l29.41,4.6s8.35-85.12,18.33-102.93c3.07-5.48,47.28-49.79,53-74.72,6.32-31.18,11.24-101.42-14.19,3-6,25.28-35.09,50.5-41,57.84S1801.87,542,1801.87,542Z"/><ellipse class="cls-9" cx="243.12" cy="252.56" rx="22.75" ry="22.53"/><ellipse class="cls-9" cx="224.41" cy="306.98" rx="13.54" ry="13.52"/><g class="cls-10"><g class="cls-11"><path class="cls-12" d="M162.45,96.7a70.62,70.62,0,0,1,79.9,61.55c5,39.49-22.66,76-61.79,81.47a70.65,70.65,0,0,1-79.92-61.56C95.64,138.68,123.31,102.2,162.45,96.7Z"/><g class="cls-11"><g class="cls-13"><g class="cls-11"><path class="cls-14" d="M197.71,100.74,206,104a70.45,70.45,0,0,1,18.24,10.46L216,111.2a70.5,70.5,0,0,0-18.25-10.46"/><path class="cls-15" d="M216,111.2l8.32,3.23a71.13,71.13,0,0,1,26.4,47q.33,2.69.48,5.34l-8.33-3.23q-.14-2.67-.48-5.34a71.08,71.08,0,0,0-26.39-47"/><path class="cls-14" d="M242.83,163.59l8.33,3.23a72.83,72.83,0,0,1-2.17,22l-8.32-3.23a72.82,72.82,0,0,0,2.16-21.95"/><path class="cls-16" d="M240.67,185.54l8.32,3.23a73.36,73.36,0,0,1-7.87,19l-8.32-3.23a73.51,73.51,0,0,0,7.87-19"/><path class="cls-17" d="M232.8,204.58l8.32,3.23A72.33,72.33,0,0,1,188.88,243a70.14,70.14,0,0,1-35.27-4l-8.32-3.23a70.13,70.13,0,0,0,35.27,4,72.35,72.35,0,0,0,52.24-35.14"/></g></g></g></g></g><circle class="cls-18" cx="1713.45" cy="199.55" r="15.96"/><circle class="cls-18" cx="1697.99" cy="227.98" r="9.48"/><circle class="cls-18" cx="1707.47" cy="257.41" r="7.98"/><circle class="cls-18" cx="1757.36" cy="92.79" r="15.96"/><circle class="cls-18" cx="1772.82" cy="121.22" r="9.48"/><circle class="cls-18" cx="1763.34" cy="150.66" r="7.98"/><ellipse class="cls-6" cx="1468.11" cy="197.86" rx="22.93" ry="7.49"/><polygon class="cls-19" points="1502.03 210.31 1488.32 197.62 1501.33 183.58 1502.03 210.31"/><ellipse class="cls-6" cx="1494.01" cy="219.54" rx="14.78" ry="4.83"/><polygon class="cls-19" points="1515.87 227.57 1507.03 219.39 1515.42 210.34 1515.87 227.57"/><ellipse class="cls-6" cx="1491.45" cy="240.07" rx="16.3" ry="5.59"/><polygon class="cls-19" points="1515.56 249.37 1505.82 239.9 1515.07 229.42 1515.56 249.37"/><ellipse class="cls-6" cx="1536.83" cy="239.95" rx="14" ry="4.57"/><polygon class="cls-19" points="1557.53 247.55 1549.16 239.81 1557.1 231.23 1557.53 247.55"/><ellipse class="cls-6" cx="1526.68" cy="194.79" rx="15.2" ry="4.97"/><polygon class="cls-19" points="1549.17 203.05 1540.08 194.64 1548.7 185.33 1549.17 203.05"/><ellipse class="cls-6" cx="1434.05" cy="228.28" rx="22.93" ry="7.49"/><polygon class="cls-19" points="1467.97 240.74 1454.26 228.05 1467.27 214 1467.97 240.74"/><ellipse class="cls-6" cx="1438.85" cy="767.4" rx="4.87" ry="23.79" transform="matrix(0.96, -0.27, 0.27, 0.96, -153.36, 415.2)"/><ellipse class="cls-6" cx="1427.71" cy="745.62" rx="6.24" ry="16.57" transform="translate(-137.74 1124.63) rotate(-41.19)"/><ellipse class="cls-6" cx="1420.53" cy="727.6" rx="13.06" ry="5.85" transform="translate(555.85 2069.1) rotate(-84.32)"/><ellipse class="cls-6" cx="1449.02" cy="755.59" rx="20.47" ry="5.7" transform="translate(55.64 1609.45) rotate(-59.04)"/><ellipse class="cls-6" cx="1456.38" cy="735.06" rx="4.47" ry="10.14" transform="translate(-112.95 289.47) rotate(-10.93)"/><ellipse class="cls-6" cx="1442.51" cy="796.21" rx="15.99" ry="4.48" transform="translate(507.38 2152.79) rotate(-84.32)"/><ellipse class="cls-6" cx="1446.94" cy="817.12" rx="4.29" ry="16.58" transform="translate(-213.94 764.03) rotate(-27.62)"/><ellipse class="cls-6" cx="1417.73" cy="718.31" rx="5.65" ry="7.6" transform="translate(562.61 2057.97) rotate(-84.32)"/><ellipse class="cls-6" cx="1455.96" cy="793.01" rx="23.79" ry="4.87" transform="translate(88.97 1731.11) rotate(-63.04)"/><ellipse class="cls-6" cx="1471.18" cy="773.84" rx="16.57" ry="6.24" transform="translate(-167.32 1054.09) rotate(-37.45)"/><ellipse class="cls-6" cx="1481.77" cy="757.6" rx="13.06" ry="5.85" transform="translate(581.17 2157.07) rotate(-84.32)"/><ellipse class="cls-6" cx="1486.34" cy="749.04" rx="5.65" ry="7.6" transform="translate(593.86 2153.94) rotate(-84.32)"/><ellipse class="cls-6" cx="1430.73" cy="781.41" rx="4.38" ry="15.62" transform="translate(-35.6 1493.78) rotate(-54.55)"/><ellipse class="cls-6" cx="1419.28" cy="769.28" rx="3.4" ry="7.79" transform="translate(-134.41 330.88) rotate(-12.7)"/><ellipse class="cls-6" cx="1461.82" cy="814.7" rx="16.57" ry="6.24" transform="translate(-210.06 740.81) rotate(-26.6)"/><ellipse class="cls-6" cx="1474.75" cy="801.43" rx="13.06" ry="5.85" transform="translate(286.79 1987.14) rotate(-73.47)"/><ellipse class="cls-6" cx="1482.22" cy="792.96" rx="5.65" ry="7.6" transform="translate(300.36 1988.36) rotate(-73.47)"/><ellipse class="cls-6" cx="1424.37" cy="799.63" rx="5.05" ry="24.62" transform="translate(124.31 1788.6) rotate(-66.57)"/><ellipse class="cls-6" cx="1403.15" cy="786.07" rx="4.82" ry="9.99" transform="translate(-199.35 922.91) rotate(-34.14)"/><g class="cls-20"><path class="cls-21" d="M158.39,66.58l-13.87-7.64c-1.27-1-1.25-2.54-.56-4.14l8.48-14.71c.69-1.41,4.44-2.71,4.79-1.13l5.44,25.54C163,66.08,159.58,67.4,158.39,66.58Z"/><path class="cls-22" d="M210.58,52.63a106.66,106.66,0,0,0-52.06,0,.35.35,0,0,1-.47-.35V50.81a.64.64,0,0,1,.47-.59,106.42,106.42,0,0,1,52.06,0,.64.64,0,0,1,.47.59v1.47A.35.35,0,0,1,210.58,52.63Z"/><path class="cls-23" d="M166.68,64.84l.91-1.35a3.3,3.3,0,0,0,.36-.69A38,38,0,0,0,168,41a3.3,3.3,0,0,0-.36-.69l-.91-1.35c-.16-.24-.24-.29-.19-.12a45.55,45.55,0,0,1,0,26.17C166.44,65.13,166.52,65.08,166.68,64.84Z"/><path class="cls-24" d="M173.91,67.63l.9-1.67a5.5,5.5,0,0,0,.37-.8,47.15,47.15,0,0,0,0-27.24,6,6,0,0,0-.37-.79l-.9-1.67c-.16-.3-.25-.4-.2-.23a56.49,56.49,0,0,1,0,32.63C173.66,68,173.75,67.93,173.91,67.63Z"/><path class="cls-25" d="M182.06,70.64l.9-2c.16-.35.33-.75.37-.89a56,56,0,0,0,0-32.43c0-.14-.21-.54-.37-.89l-.9-2c-.16-.35-.25-.5-.19-.33a67.12,67.12,0,0,1,0,38.85C181.81,71.14,181.9,71,182.06,70.64Z"/><path class="cls-26" d="M189.47,67.63l.91-1.67a5.23,5.23,0,0,0,.36-.8,47.15,47.15,0,0,0,0-27.24,5.7,5.7,0,0,0-.36-.79l-.91-1.67c-.16-.3-.24-.4-.19-.23a56.65,56.65,0,0,1,0,32.63C189.22,68,189.31,67.93,189.47,67.63Z"/><path class="cls-27" d="M196.88,64.4l.91-1.35a4,4,0,0,0,.37-.69,38.16,38.16,0,0,0,0-21.85,4,4,0,0,0-.37-.69l-.91-1.35c-.16-.24-.24-.29-.19-.12a45.55,45.55,0,0,1,0,26.17C196.64,64.69,196.72,64.64,196.88,64.4Z"/><path class="cls-28" d="M203.55,62.07l.91-1.08a2.67,2.67,0,0,0,.37-.61,30.66,30.66,0,0,0,0-17.45,2.31,2.31,0,0,0-.37-.61l-.91-1.08c-.16-.19-.25-.21-.19,0a36.66,36.66,0,0,1,0,20.91C203.31,62.28,203.39,62.26,203.55,62.07Z"/><path class="cls-29" d="M217.06,69.28c-.67,0-7.47-15.51-7.47-15.51a3.56,3.56,0,0,1,1.09-4.47S225.22,38.74,226,39.65C217.48,53.48,217.74,69.23,217.06,69.28Z"/><path class="cls-30" d="M256.44,66.58l-13.87-7.64c-1.26-1-1.25-2.54-.56-4.14l8.48-14.71c.7-1.41,4.44-2.71,4.8-1.13l5.44,25.54C261.08,66.08,257.64,67.4,256.44,66.58Z"/><path class="cls-31" d="M308.64,52.63a106.7,106.7,0,0,0-52.07,0,.35.35,0,0,1-.46-.35V50.81a.64.64,0,0,1,.46-.59,106.46,106.46,0,0,1,52.07,0,.63.63,0,0,1,.46.59v1.47A.35.35,0,0,1,308.64,52.63Z"/><path class="cls-32" d="M264.74,64.84l.9-1.35a3.44,3.44,0,0,0,.37-.69A38,38,0,0,0,266,41a3.44,3.44,0,0,0-.37-.69l-.9-1.35c-.16-.24-.25-.29-.2-.12a45.55,45.55,0,0,1,0,26.17C264.49,65.13,264.58,65.07,264.74,64.84Z"/><path class="cls-33" d="M272,67.63l.91-1.67a5.23,5.23,0,0,0,.36-.8,47.15,47.15,0,0,0,0-27.24,5.7,5.7,0,0,0-.36-.79L272,35.46c-.16-.3-.25-.4-.19-.23a56.65,56.65,0,0,1,0,32.63C271.72,68,271.8,67.93,272,67.63Z"/><path class="cls-34" d="M280.12,70.64l.9-2c.16-.35.32-.75.37-.89a56.14,56.14,0,0,0,0-32.43c-.05-.14-.21-.54-.37-.9l-.9-2c-.16-.35-.25-.5-.2-.33a67.12,67.12,0,0,1,0,38.85C279.86,71.14,280,71,280.12,70.64Z"/><path class="cls-35" d="M287.53,67.63l.9-1.67a7.72,7.72,0,0,0,.37-.8,47.15,47.15,0,0,0,0-27.24,6,6,0,0,0-.37-.79l-.9-1.67c-.16-.3-.25-.4-.2-.23a56.49,56.49,0,0,1,0,32.63C287.28,68,287.37,67.93,287.53,67.63Z"/><path class="cls-36" d="M294.94,64.4l.9-1.35a3.44,3.44,0,0,0,.37-.69,38,38,0,0,0,0-21.85,3.44,3.44,0,0,0-.37-.69l-.9-1.35c-.16-.24-.25-.29-.2-.12a45.55,45.55,0,0,1,0,26.17C294.69,64.69,294.78,64.64,294.94,64.4Z"/><path class="cls-37" d="M301.61,62.07l.9-1.08a2.35,2.35,0,0,0,.37-.61,30.49,30.49,0,0,0,0-17.45,2.07,2.07,0,0,0-.37-.61l-.9-1.08c-.16-.19-.25-.21-.2,0a36.49,36.49,0,0,1,0,20.91C301.36,62.28,301.45,62.26,301.61,62.07Z"/><path class="cls-38" d="M315.12,69.28c-.68,0-7.47-15.51-7.47-15.51a3.55,3.55,0,0,1,1.09-4.47s14.54-10.56,15.33-9.65C315.54,53.48,315.8,69.23,315.12,69.28Z"/><path class="cls-39" d="M58.42,68.08,44.55,60.45c-1.26-1-1.25-2.54-.56-4.14L52.47,41.6c.7-1.41,4.44-2.71,4.8-1.13L62.71,66C63.06,67.59,59.62,68.91,58.42,68.08Z"/><path class="cls-40" d="M110.62,54.14a106.7,106.7,0,0,0-52.07,0,.35.35,0,0,1-.46-.35V52.32a.64.64,0,0,1,.46-.59,106.46,106.46,0,0,1,52.07,0,.64.64,0,0,1,.46.59v1.47A.35.35,0,0,1,110.62,54.14Z"/><path class="cls-41" d="M66.72,66.34l.9-1.35a3.16,3.16,0,0,0,.37-.68,38,38,0,0,0,0-21.85,3.44,3.44,0,0,0-.37-.69l-.9-1.35c-.16-.24-.25-.3-.2-.12a45.55,45.55,0,0,1,0,26.17C66.47,66.64,66.56,66.58,66.72,66.34Z"/><path class="cls-42" d="M73.94,69.14l.91-1.67a5.71,5.71,0,0,0,.36-.8,47.15,47.15,0,0,0,0-27.24,5.7,5.7,0,0,0-.36-.79L73.94,37c-.15-.3-.24-.4-.19-.23a56.65,56.65,0,0,1,0,32.63C73.7,69.54,73.78,69.44,73.94,69.14Z"/><path class="cls-43" d="M82.1,72.15l.9-2c.16-.35.32-.75.37-.89a56.14,56.14,0,0,0,0-32.43c-.05-.14-.21-.54-.37-.9l-.9-2c-.17-.36-.25-.5-.2-.33a67.12,67.12,0,0,1,0,38.85C81.85,72.65,81.93,72.5,82.1,72.15Z"/><path class="cls-44" d="M89.51,69.14l.9-1.67a6,6,0,0,0,.37-.8,47.15,47.15,0,0,0,0-27.24,6,6,0,0,0-.37-.79L89.51,37c-.16-.3-.25-.4-.2-.23a56.49,56.49,0,0,1,0,32.63C89.26,69.54,89.35,69.44,89.51,69.14Z"/><path class="cls-45" d="M96.92,65.91l.9-1.35a3.44,3.44,0,0,0,.37-.69,38,38,0,0,0,0-21.85,3.44,3.44,0,0,0-.37-.69L96.92,40c-.16-.24-.25-.29-.2-.12a45.55,45.55,0,0,1,0,26.17C96.67,66.2,96.76,66.14,96.92,65.91Z"/><path class="cls-46" d="M103.59,63.58l.9-1.09a2.17,2.17,0,0,0,.37-.6,30.52,30.52,0,0,0,0-17.46,2.17,2.17,0,0,0-.37-.6l-.9-1.08c-.16-.2-.25-.21-.2,0a36.49,36.49,0,0,1,0,20.91C103.34,63.79,103.43,63.77,103.59,63.58Z"/><path class="cls-47" d="M117.1,70.79c-.68,0-7.47-15.51-7.47-15.51a3.55,3.55,0,0,1,1.09-4.47s14.54-10.57,15.33-9.65C117.52,55,117.78,70.74,117.1,70.79Z"/></g><path class="cls-48" d="M164.74,189a3.24,3.24,0,0,1-.61,1.93,1.74,1.74,0,0,1-1.55.81,10.52,10.52,0,0,1-3.17-1.85c-1.68-1.2-2.54-2-2.57-2.49a3.24,3.24,0,0,1,.13-.81,3.47,3.47,0,0,0,.12-.76V167.56q0-1-1.83-1.44c-1.36-.34-2.13-.82-2.32-1.43a2.8,2.8,0,0,1-.17-.91,4.19,4.19,0,0,1,.9-2.26,26.21,26.21,0,0,0,1.47-2.3c.32-1.13.65-2.26,1-3.39a2.47,2.47,0,0,1,2.4-1.91,6.44,6.44,0,0,1,3.5,1.13,3.52,3.52,0,0,1,2,2.87V186.7a2.38,2.38,0,0,0,.39,1.11A2.4,2.4,0,0,1,164.74,189Z"/><path class="cls-48" d="M192.32,155.92c1.33.32,2.38,1.82,3.17,4.52a35.05,35.05,0,0,1,1.06,9.37,50.43,50.43,0,0,1-1.67,12.86q-2.4,9.08-7,9.07a5.42,5.42,0,0,1-1.79-.39c-1.14-.46-1.76-.71-1.87-.74-.73-.32-1.94-.79-3.62-1.43-1.35-.49-2.47-2.55-3.33-6.17a49.44,49.44,0,0,1-1.22-11.59,41.9,41.9,0,0,1,1.26-11q1.38-5.12,4-6.12a1.24,1.24,0,0,1,.33,0,1.29,1.29,0,0,1,.69.26c.27.17.48.23.61.17a7,7,0,0,1,2.44-.43,11.86,11.86,0,0,1,3.5.65C190.94,155.51,192.07,155.86,192.32,155.92Zm-5.13,2.78q-2,0-3.05,4.69a40.63,40.63,0,0,0-.85,8.81,47.18,47.18,0,0,0,.85,8.6q.86,4.6,1.67,4.6c1.06,0,1.92-1.76,2.6-5.3a61,61,0,0,0,.86-10.85,46,46,0,0,0-.49-7.38C188.4,159.76,187.87,158.7,187.19,158.7Z"/><path class="cls-49" d="M420.42,917.53c-4.73,5.89-22.06,44-49.18,61.3-16.27,10.38-35.69,12.52-38.54,9-6.27-7.73,13.59-18.65,19-43.78,12.58-58.79,43.2-76.34,52.47-76.34,6.46,0-8.4-25.62-1-30.11,6.43-3.92,17.68-2.23,23-.41,14.1,4.83-3.33,17.65,4.26,27.47C445.41,884.15,427.05,909.25,420.42,917.53Z"/><path class="cls-50" d="M424,916.93c-4.69,5.85-22,44.52-48.9,61.7-16.16,10.3-35.44,12.43-38.27,8.93-6.22-7.68,13.5-18.52,18.84-43.47,12.49-58.37,42.89-75.8,52.1-75.79,6.4,0-8.35-25.44-1-29.9,6.38-3.89,17.56-2.22,22.85-.41,14,4.8-3.3,17.52,4.23,27.28C448.73,884.62,430.58,908.71,424,916.93Z"/><ellipse class="cls-51" cx="306.57" cy="864.78" rx="37.55" ry="28.31"/><ellipse class="cls-51" cx="344.42" cy="869.25" rx="35.46" ry="26.82"/><ellipse class="cls-51" cx="379.89" cy="857.33" rx="40.53" ry="29.21"/><path class="cls-52" d="M238.05,851.19c-.9.21-14.24-1.25-15.39-.89s-1.29,1.19-.17,3.8c.94,2.22,19.83,12.75,24.25,14,6.84,1.89,20.82-5.39,22-6.54s-4.54-6.92-5.32-7.67C262.05,852.5,247.62,849,238.05,851.19Z"/><path class="cls-53" d="M220.55,868c-2.37.61-32.39-1-35.5,0s-4.34,3-4.52,9.11c-.16,5.15,33.19,27.67,42.36,30,14.15,3.55,55.15-15.77,59.28-18.7s-3.29-15.88-4.32-17.58C276,867.76,245.55,861.48,220.55,868Z"/><path class="cls-54" d="M217.09,910.37c-1.6,2.6-26.71,16.46-28.66,20.09s-1.53,6.56,2.8,12.44c3.67,5,49.25-2.46,58.9-8.16,14.91-8.81,36.21-62.12,37.63-68.4S273.18,854.23,271,853.52C267.18,852.25,234,882.81,217.09,910.37Z"/><path class="cls-55" d="M219.85,910.54c-1.65,2.57-27,15.91-29.07,19.5s-1.66,6.53,2.56,12.49c3.56,5.05,49.28-1.45,59-6.95,15.08-8.5,37.48-61.36,39-67.61s-14.32-12.4-16.46-13.16C271.12,853.46,237.3,883.33,219.85,910.54Z"/><circle class="cls-56" cx="235.64" cy="907.99" r="6.56"/><path class="cls-56" d="M243.39,877c5,4.68,6.14,12.94,1.71,17.7s-12.1,4.83-17.14.14l8.28-10.09Z"/><circle class="cls-56" cx="263.96" cy="879.68" r="9.83"/><circle class="cls-56" cx="258" cy="896.37" r="3.87"/><circle class="cls-56" cx="247.86" cy="899.35" r="2.68"/><path class="cls-49" d="M478.22,895.08c-.31,8.22-4.31,60.85-16.84,93.58-7.53,19.63-23.15,34.09-27.93,32.86-10.5-2.71-.18-25.14-11.75-50.63C394.61,911.25,410,876,418.17,870c5.65-4.18-24-17-20.43-25.69,3.09-7.59,14-13.41,19.88-15.27,15.49-4.91,8.53,17.61,21.54,21.29C465,857.68,478.67,883.53,478.22,895.08Z"/><path class="cls-57" d="M483,895.08c-.31,8.22-4.31,60.85-16.85,93.58-7.52,19.63-23.14,34.09-27.92,32.86-10.5-2.71-.18-25.14-11.76-50.63C399.37,911.25,414.81,876,422.94,870c5.65-4.18-24-17-20.43-25.69,3.09-7.59,14-13.41,19.88-15.27,15.48-4.91,8.53,17.61,21.53,21.29C469.73,857.68,483.44,883.53,483,895.08Z"/><path class="cls-58" d="M441.42,801.38c6.07,20.9-41.13,61.38-86.87,71.74S260,881.9,243.8,855.5s27.39-11.28,60.07-15.23C412.93,827.08,435.36,780.47,441.42,801.38Z"/><path class="cls-59" d="M441.42,796.61c6.07,20.91-41.13,61.38-86.87,71.74S260,877.13,243.8,850.73s27.39-11.28,60.07-15.23C412.93,822.31,435.36,775.7,441.42,796.61Z"/><path class="cls-60" d="M327.73,762.26c19.76-4.23,32.81-2,45.3,6,6.56,4.17,47.69,1.79,56,35.76,1.59,6.47-18.48,32.78-26.23,38.74-22,16.95-47.08,10.14-58.41,14.91-47.51,20-46.49-1.79-58.41-.6-29.09,2.91-33.1-11.11-32.78-25.63.57-26.25,22.65-37.55,28-40.53C287.18,787.57,294.35,769.41,327.73,762.26Z"/><path class="cls-61" d="M328.93,758.09c19.75-4.24,32.81-2,45.29,6,6.56,4.17,47.69,1.79,56,35.76,1.59,6.47-18.48,32.78-26.22,38.74-22,16.94-47.09,10.14-58.42,14.9-47.51,20-46.49-1.78-58.41-.59-29.08,2.91-33.1-11.12-32.78-25.63.57-26.25,22.65-37.55,28-40.53C288.37,783.4,295.55,765.24,328.93,758.09Z"/><circle class="cls-56" cx="250.84" cy="875.51" r="2.68"/><circle class="cls-56" cx="465.72" cy="886.53" r="11.92"/><circle class="cls-56" cx="441.87" cy="895.47" r="8.34"/><circle class="cls-56" cx="454.99" cy="900.24" r="3.58"/><path class="cls-56" d="M479.49,932.26c-6.84-.78-12.29-9.68-11.15-19.71s7.6-17.53,14.44-16.76L481.3,916Z"/><circle class="cls-56" cx="455.88" cy="865.97" r="6.26"/><circle class="cls-56" cx="444.26" cy="877" r="4.17"/><circle class="cls-56" cx="459.46" cy="914.25" r="6.26"/><ellipse class="cls-62" cx="330.3" cy="782.34" rx="40.76" ry="20.27" transform="translate(-176.27 100.76) rotate(-13.73)"/><ellipse class="cls-62" cx="278.02" cy="821.46" rx="25.48" ry="19.46" transform="translate(-579.09 689.34) rotate(-62.54)"/><ellipse class="cls-62" cx="326.8" cy="831.52" rx="27.7" ry="23.74" transform="matrix(0.99, -0.15, 0.15, 0.99, -120.03, 57.85)"/><ellipse class="cls-62" cx="385.8" cy="808.86" rx="30.71" ry="27.53" transform="translate(-306.5 239.81) rotate(-25.08)"/><path class="cls-63" d="M409.05,752.24c-2.05,8.09-14,.76-18.72,20.47-9.69,40.5,32.58,68.52,76.36,79.62,47.2,12,97.65,10.76,108.73-33.41,3.46-13.78-9.71-22.48-8.5-27.27,8.15-32.14,10.84-66.92-10.82-74.1-23.17-7.69-14.6-19.66-47.39-27.36s-27.77,6.49-46,3.1C435.75,688.28,417.84,717.55,409.05,752.24Z"/><ellipse class="cls-64" cx="454.86" cy="741.26" rx="33.68" ry="26.23" transform="translate(-375.45 1000) rotate(-75.77)"/><ellipse class="cls-64" cx="537.55" cy="760.69" rx="35.17" ry="25.93" transform="translate(-331.91 1094.82) rotate(-75.77)"/><ellipse class="cls-65" cx="535.89" cy="763.03" rx="33.08" ry="24.89" transform="translate(-335.44 1094.97) rotate(-75.77)"/><ellipse class="cls-65" cx="456.53" cy="745.58" rx="32.88" ry="24.74" transform="translate(-378.38 1004.88) rotate(-75.77)"/><ellipse class="cls-66" cx="461.25" cy="751.91" rx="19.97" ry="15.02" transform="translate(-408.52 898.9) rotate(-68.07)"/><ellipse class="cls-67" cx="462.3" cy="755.99" rx="14.35" ry="10.79" transform="translate(-390.25 997.69) rotate(-74.38)"/><circle class="cls-68" cx="460.12" cy="748.23" r="2.68"/><ellipse class="cls-66" cx="529.47" cy="766.7" rx="19.97" ry="15.02" transform="translate(-362.14 1037.25) rotate(-72.25)"/><ellipse class="cls-67" cx="528.52" cy="768.49" rx="14.35" ry="10.79" transform="translate(-364.51 1037.59) rotate(-72.25)"/><circle class="cls-68" cx="535.88" cy="762.9" r="2.68"/><ellipse class="cls-56" cx="475.55" cy="784.31" rx="3.87" ry="2.09" transform="translate(-439.69 844.6) rotate(-62.54)"/><ellipse class="cls-56" cx="499.99" cy="790.57" rx="2.09" ry="3.58" transform="translate(-144.46 112.57) rotate(-11.24)"/><path class="cls-69" d="M516.68,812.33c-6,6-20.45,8.14-37.43,5s-30.9-12.57-31.12-21.09"/><path class="cls-69" d="M521.7,813.4c-2.33,1.68-3.69-.48-4.35-1.4s-3.07-4-.74-5.67"/><path class="cls-69" d="M448.92,791c2.28,2.42,0,4.31-.94,5.21s-4.12,4.14-6.41,1.72"/><ellipse class="cls-70" cx="430.62" cy="777.9" rx="3.34" ry="7.99" transform="translate(-458.21 801.27) rotate(-62.54)"/><ellipse class="cls-70" cx="536.94" cy="803.9" rx="8.05" ry="2.77"/><circle class="cls-56" cx="496.43" cy="705.64" r="4.8"/><circle class="cls-56" cx="513.24" cy="707.08" r="2.4"/><circle class="cls-56" cx="507.24" cy="713.56" r="2.64"/><circle class="cls-56" cx="521.65" cy="713.56" r="3.6"/><circle class="cls-56" cx="497.63" cy="716.45" r="3.6"/><circle class="cls-56" cx="513" cy="721.25" r="3.6"/><circle class="cls-56" cx="505.79" cy="702.03" r="3.6"/><circle class="cls-56" cx="495.46" cy="693.63" r="5.77"/><circle class="cls-56" cx="521.89" cy="702.27" r="5.77"/><circle class="cls-56" cx="513" cy="696.27" r="3.6"/><circle class="cls-56" cx="505.79" cy="693.87" r="2.16"/><circle class="cls-56" cx="529.34" cy="707.8" r="2.64"/><path class="cls-71" d="M853.93,550.67l-47.39,31a3.15,3.15,0,0,1-4.35-.9s-22.5-22.41-24.45-37.36c-12.58-3-28.62-30.26-25-38.24-11.51-3.7-32.59-49.81-32.59-49.81-5.29-8.09-7.66-31.82-1.91-39.32l22.16-14.5c4-2.59,22.36,7.83,31.41,17.83,0,0,34.11,37.28,33.6,51.34,7.41-7.35,28.64,31.81,26.28,40.17,7-2.31,23.18,35.43,23.18,35.43A3.15,3.15,0,0,1,853.93,550.67Z"/><path class="cls-72" d="M853.46,552.23l-47.46,31a3.16,3.16,0,0,1-4.36-.91S779,559.82,777.06,544.8c-12.62-3-28.76-30.45-25.16-38.45-11.55-3.74-32.78-50.1-32.78-50.1-5.32-8.13-7.74-32-2-39.49l22.19-14.52c3.95-2.59,22.43,7.91,31.52,18,0,0,34.28,37.51,33.79,51.63,7.42-7.36,28.78,32,26.43,40.4,7-2.31,23.31,35.63,23.31,35.63A3.16,3.16,0,0,1,853.46,552.23Z"/><rect class="cls-73" x="710.83" y="401.3" width="30.98" height="9.17" rx="4.59" ry="4.59" transform="translate(-103.69 463.93) rotate(-33.2)"/><rect class="cls-74" x="706.97" y="391.09" width="27.57" height="12.08" rx="6.04" ry="6.04" transform="translate(-99.8 459.45) rotate(-33.2)"/><path class="cls-75" d="M751.93,507c-21-12.91-32.78-50.1-32.78-50.1l51.69-36.65s36,37.83,35.57,49.84c0,.8,3.77-3.41-1.13,2C789.45,498.72,751.93,507,751.93,507Z"/><ellipse class="cls-76" cx="717.44" cy="393.02" rx="13.26" ry="7.09" transform="translate(-98.1 456.97) rotate(-33.2)"/><ellipse class="cls-77" cx="717.45" cy="392.08" rx="13.26" ry="7.09" transform="translate(-97.58 456.82) rotate(-33.2)"/><ellipse class="cls-78" cx="771.63" cy="454.73" rx="9.62" ry="12.78" transform="translate(-105.92 275.56) rotate(-18.97)"/><ellipse class="cls-65" cx="772" cy="456.03" rx="9.22" ry="12.25" transform="translate(-106.32 275.74) rotate(-18.97)"/><ellipse class="cls-67" cx="773.27" cy="459.72" rx="4" ry="5.31" transform="translate(-94.52 222.59) rotate(-15.45)"/><ellipse class="cls-78" cx="749.33" cy="468.82" rx="9.62" ry="12.78" transform="translate(-131.75 539.41) rotate(-36.61)"/><ellipse class="cls-65" cx="750.07" cy="469.94" rx="9.22" ry="12.25" transform="translate(-132.27 540.07) rotate(-36.61)"/><ellipse class="cls-67" cx="752.4" cy="473.08" rx="4" ry="5.31" transform="translate(-136.25 487.51) rotate(-33.09)"/><circle class="cls-65" cx="773.28" cy="457.88" r="1.77"/><circle class="cls-65" cx="751.3" cy="472.26" r="1.77"/><ellipse class="cls-78" cx="741.78" cy="454.68" rx="0.8" ry="8.26" transform="translate(275.02 1188.92) rotate(-89.06)"/><ellipse class="cls-78" cx="762.48" cy="441.29" rx="7.8" ry="0.41" transform="translate(91.08 1011.66) rotate(-70.41)"/><path class="cls-79" d="M749.7,486c2.51-2,11.94,8.82,14.82,7.82s1-14.85,4-15.85c2-1,10,10.73,12.13,9.63s-4-13.55-2.48-15.08"/><path class="cls-78" d="M906.68,301.82c0-.17,0-.33,0-.49-.79-7.63,14.55-133.4,19.34-162.71,13.2-80.64,17.45,65.18,8.65,17.51s36.69-.12,61.59,2.28a18.55,18.55,0,0,0,5.85-.36l16-2.27.27-.05c1.47-.34,12.08-3,14.78-4.72,22.08-14.26,36.18-14.24,40.08-17.25,12.41-9.55.85-91.51,14.76-16.14.13.73,21.14,80.8,21.65,99a18.81,18.81,0,0,0,1.08,5.74c13.6,38,14.62,75.57,14.69,82.4,0,.61,0,1.21.11,1.82,3.16,25.47-46.39,24.78-48.67,24.78l-139.58-2.93a31.64,31.64,0,0,1-30-23.7A17.05,17.05,0,0,1,906.68,301.82Z"/><path class="cls-80" d="M1044.35,165.78a9.48,9.48,0,0,0,5.12-2.37c20.09-18.42,17.4-174.26,45.51-42.79.17.81,22.24,84.48,22.24,97.68,16.87,45.1,16.5,90.56,16.5,90.56,4.4,27.5-48.54,26.77-51,26.77l-154.58-3.25a13.51,13.51,0,0,1-5.24-1.16c-14.59-6.55-18.61-23.87-18.74-26.63,0-.17,0-.34-.05-.52-.83-8,1.79-128.25,18.83-191.45,28.08-104.09,23.51,24.29,35.24,54.14a13.74,13.74,0,0,0,13.29,8.72,7.77,7.77,0,0,0,.83-.08Z"/><ellipse class="cls-78" cx="1029.15" cy="231.06" rx="22.96" ry="17.27" transform="translate(552.26 1171.87) rotate(-75.77)"/><ellipse class="cls-65" cx="1028.42" cy="233.36" rx="22" ry="16.55" transform="translate(549.48 1172.9) rotate(-75.77)"/><ellipse class="cls-67" cx="1026.7" cy="240.16" rx="9.54" ry="7.18" transform="translate(484.99 1144.78) rotate(-72.25)"/><ellipse class="cls-78" cx="981.77" cy="230.3" rx="17.27" ry="22.96" transform="translate(-11.98 58.9) rotate(-3.42)"/><ellipse class="cls-65" cx="981.78" cy="232.71" rx="16.55" ry="22" transform="translate(-12.12 58.9) rotate(-3.42)"/><ellipse class="cls-67" cx="982.19" cy="239.71" rx="9.54" ry="7.18" transform="translate(740.64 1221.46) rotate(-89.89)"/><circle class="cls-65" cx="1028.53" cy="237.4" r="3.17"/><circle class="cls-65" cx="981.36" cy="237.4" r="3.17"/><ellipse class="cls-78" cx="984.33" cy="201.62" rx="1.43" ry="14.84" transform="translate(265.09 903.22) rotate(-55.86)"/><ellipse class="cls-78" cx="1028.62" cy="201.84" rx="14.01" ry="0.74" transform="translate(87.35 663.16) rotate(-37.21)"/><path class="cls-79" d="M957,255.62c3.41,0,5.83,14.17,9.12,14.65,3.47.5,10.22-12.24,13.3-11.22,6.42,2.48,7.28,18.72,13.33,21.21s14.67-9.11,21.75-9.62"/><path class="cls-59" d="M1075.77,481.93l11.17,55.9a1.86,1.86,0,0,0,1.17,1.2l50.41,2.7c6.49,1.08.13,14.81-1.45,15.49l-55.32,25.61a1.86,1.86,0,0,0-1.14,1.63l9.3,66.14c-.09,1.84-11.1,5.73-14.16-.37l-31.5-45.31a1.88,1.88,0,0,0-2.55-.62l-47.86,28.37c-1.5.89-8.43-2.64-7.87-4.29l25.41-57.45a1.89,1.89,0,0,0-.26-1.72l-27.17-37c-6.89-10.67-2.81-22.9,3-21.71l40.86,19a1.87,1.87,0,0,0,1.85-.68L1060,484.32c.69-.94,1-2.19,1.78-3C1066.69,476.47,1075.34,480.6,1075.77,481.93Z"/><path class="cls-81" d="M1074.05,481.39l11.17,55.9a1.86,1.86,0,0,0,1.17,1.2l50.4,2.69c6.5,1.09.14,14.82-1.44,15.49L1080,582.28a1.86,1.86,0,0,0-1.14,1.64l9.29,66.14c-.08,1.83-11.09,5.72-14.15-.37l-31.5-45.31a1.87,1.87,0,0,0-2.55-.62l-47.86,28.36c-1.5.89-8.43-2.64-7.87-4.29l25.41-57.45a1.86,1.86,0,0,0-.26-1.71l-27.17-37c-6.89-10.66-2.81-22.89,3-21.71L1026.11,529a1.87,1.87,0,0,0,1.85-.69l30.33-44.52c.69-.95,1-2.19,1.78-3C1065,475.93,1073.62,480.05,1074.05,481.39Z"/><ellipse class="cls-82" cx="1069.36" cy="532.29" rx="11.55" ry="8.69" transform="translate(129.38 1269.38) rotate(-64.56)"/><ellipse class="cls-65" cx="1068.77" cy="533.36" rx="11.07" ry="8.33" transform="translate(128.09 1269.46) rotate(-64.56)"/><ellipse class="cls-82" cx="1048.76" cy="527.83" rx="11.55" ry="8.69" transform="matrix(0.03, -1, 1, 0.03, 486.07, 1558.31)"/><ellipse class="cls-67" cx="1067.85" cy="537.67" rx="4.8" ry="3.61" transform="translate(215.99 1376.56) rotate(-71.29)"/><circle class="cls-65" cx="1069.45" cy="536.38" r="1.6"/><ellipse class="cls-65" cx="1048.65" cy="529.04" rx="11.07" ry="8.33" transform="matrix(0.03, -1, 1, 0.03, 484.76, 1559.37)"/><ellipse class="cls-67" cx="1048.48" cy="533.84" rx="4.8" ry="3.61" transform="translate(358.92 1487.15) rotate(-81.1)"/><circle class="cls-65" cx="1049.84" cy="532.28" r="1.6"/><circle class="cls-83" cx="1076.97" cy="634.82" r="4.19"/><circle class="cls-83" cx="1072.65" cy="622.28" r="3.89"/><circle class="cls-83" cx="1068.41" cy="610.36" r="3.59"/><circle class="cls-83" cx="1064.99" cy="599.93" r="3.59"/><circle class="cls-83" cx="1057.79" cy="574.21" r="2.69"/><circle class="cls-83" cx="1062.31" cy="589.84" r="3.59"/><circle class="cls-83" cx="1059.6" cy="581.48" r="2.69"/><circle class="cls-83" cx="988.76" cy="523.03" r="3.59"/><circle class="cls-83" cx="1082.66" cy="552.31" r="2.69"/><ellipse class="cls-83" cx="1054.51" cy="550.29" rx="6.98" ry="5.2" transform="translate(309.74 1477.71) rotate(-78.79)"/><circle class="cls-83" cx="1028.09" cy="541.49" r="2.69"/><circle class="cls-83" cx="1017.64" cy="536.78" r="2.69"/><circle class="cls-83" cx="1007.97" cy="533.24" r="2.69"/><circle class="cls-83" cx="997.88" cy="528.29" r="2.99"/><circle class="cls-83" cx="1067.14" cy="492.62" r="4.19"/><circle class="cls-83" cx="1064.97" cy="503.58" r="3.39"/><circle class="cls-83" cx="1063" cy="513.04" r="2.69"/><circle class="cls-83" cx="1128.09" cy="549.72" r="4.09"/><circle class="cls-83" cx="1117.57" cy="550.49" r="3.89"/><circle class="cls-83" cx="1105.57" cy="551.56" r="3.69"/><circle class="cls-83" cx="1094.89" cy="552.09" r="2.69"/><path class="cls-79" d="M1061.81,565.62c-2.31,1.67-7.19,1.61-12.63-.33s-9.54-5.78-9.16-8.61"/><path class="cls-79" d="M1063.41,566.24c-.86.43-1.19-.36-1.36-.69s-.81-1.49,0-1.92"/><path class="cls-79" d="M1040.55,555c.63.92-.22,1.42-.58,1.67s-1.58,1.15-2.21.23"/><circle class="cls-83" cx="1076.97" cy="634.82" r="4.19"/><circle class="cls-83" cx="1072.65" cy="622.28" r="3.89"/><circle class="cls-83" cx="1068.41" cy="610.36" r="3.59"/><circle class="cls-83" cx="1064.99" cy="599.93" r="3.59"/><circle class="cls-83" cx="1057.79" cy="574.21" r="2.69"/><circle class="cls-83" cx="1062.31" cy="589.84" r="3.59"/><circle class="cls-83" cx="1059.6" cy="581.48" r="2.69"/><circle class="cls-83" cx="1001.74" cy="618.1" r="4.01"/><circle class="cls-83" cx="1009.62" cy="608.13" r="3.72"/><circle class="cls-83" cx="1017.04" cy="598.56" r="3.44"/><circle class="cls-83" cx="1023.69" cy="590.41" r="3.44"/><circle class="cls-83" cx="1040.7" cy="571.33" r="2.58"/><circle class="cls-83" cx="1030.44" cy="583.05" r="3.44"/><circle class="cls-83" cx="1035.78" cy="576.54" r="2.58"/><ellipse class="cls-84" cx="1040.78" cy="542.08" rx="1.79" ry="5.08" transform="matrix(0.19, -0.98, 0.98, 0.19, 306.72, 1457.62)"/><ellipse class="cls-84" cx="1070.66" cy="547.19" rx="1.79" ry="5.08" transform="matrix(0.19, -0.98, 0.98, 0.19, 325.79, 1491.05)"/><circle class="cls-85" cx="1855.63" cy="1016.96" r="38.04"/><circle class="cls-86" cx="1853.93" cy="1015.04" r="37.41"/><ellipse class="cls-87" cx="1839.4" cy="996.38" rx="1.99" ry="2.06"/><ellipse class="cls-88" cx="1842.36" cy="988.27" rx="2.88" ry="2.98"/><ellipse class="cls-89" cx="1832.25" cy="997.89" rx="1.27" ry="1.31"/><path class="cls-90" d="M1854.9,1028.73a12.23,12.23,0,1,1,12.22-12.23A12.24,12.24,0,0,1,1854.9,1028.73Z"/><path class="cls-65" d="M1854.9,1006.78a9.73,9.73,0,1,1-9.73,9.72,9.73,9.73,0,0,1,9.73-9.72m0-5a14.73,14.73,0,1,0,14.72,14.72,14.72,14.72,0,0,0-14.72-14.72Z"/><rect class="cls-65" x="1835.91" y="1007.78" width="6.59" height="6.59" rx="3.29" ry="3.29" transform="translate(294.97 2432.45) rotate(-71.43)"/><rect class="cls-65" x="1841.91" y="999.65" width="6.59" height="6.59" rx="3.29" ry="3.29" transform="translate(-240.01 1253) rotate(-35.36)"/><path class="cls-65" d="M1854.9,996.35a3.29,3.29,0,0,1,3.29,3.3h0a3.29,3.29,0,0,1-3.29,3.29h0a3.29,3.29,0,0,1-3.3-3.29h0a3.3,3.3,0,0,1,3.3-3.3"/><rect class="cls-65" x="1861.49" y="999.65" width="6.59" height="6.59" rx="3.29" ry="3.29" transform="translate(6.21 2017.34) rotate(-56.9)"/><path class="cls-65" d="M1873.45,1009.46a3.29,3.29,0,0,1-1.82,4.29h0a3.31,3.31,0,0,1-4.29-1.82h0a3.3,3.3,0,0,1,1.82-4.29h0a3.29,3.29,0,0,1,4.29,1.82"/><circle class="cls-65" cx="1854.8" cy="1016.41" r="5.91"/><path class="cls-65" d="M1873.57,1022.06a3.29,3.29,0,0,1-4.07,2.26h0a3.28,3.28,0,0,1-2.27-4.06h0a3.3,3.3,0,0,1,4.07-2.27h0a3.3,3.3,0,0,1,2.27,4.07"/><rect class="cls-65" x="1861.87" y="1026" width="6.59" height="6.59" rx="3.29" ry="3.29" transform="translate(-251.58 1269.42) rotate(-35.36)"/><rect class="cls-65" x="1851.6" y="1029.68" width="6.59" height="6.59" rx="3.29" ry="3.29"/><rect class="cls-65" x="1841.91" y="1026.97" width="6.59" height="6.59" rx="3.29" ry="3.29" transform="translate(-25.56 2013.34) rotate(-56.9)"/><rect class="cls-65" x="1835.91" y="1019.02" width="6.59" height="6.59" rx="3.29" ry="3.29" transform="translate(-249.12 764) rotate(-22.02)"/><circle class="cls-85" cx="1763.85" cy="1018.33" r="38.53"/><circle class="cls-91" cx="1762.12" cy="1016.39" r="37.89"/><ellipse class="cls-92" cx="1747.4" cy="997.48" rx="2.02" ry="2.08"/><ellipse class="cls-93" cx="1750.4" cy="989.27" rx="2.92" ry="3.02"/><ellipse class="cls-94" cx="1740.16" cy="999.01" rx="1.29" ry="1.33"/><path class="cls-95" d="M1776,1025.85c-2.47,10.11-15.67,11.69-22.68,6.65"/><path class="cls-96" d="M1749.9,1010.89a15.59,15.59,0,0,0,3.62,21.78"/><path class="cls-96" d="M1771.7,1007.4a15.58,15.58,0,0,0-21.8,3.45"/><path class="cls-65" d="M1777.1,1003l3.35,8.62a2.25,2.25,0,0,1,0,1.69v0a2.27,2.27,0,0,1-2,1.32l-9.26.48-.19,0c-1.44.23-2.93-2-2.13-3.19l6.42-10.2c.81-1.24,3.36-.37,3.74,1A1.21,1.21,0,0,0,1777.1,1003Z"/></svg>
