<svg id="Layer_1" data-name="Layer 1" xmlns="http://www.w3.org/2000/svg" xmlns:xlink="http://www.w3.org/1999/xlink" width="80" height="80" viewBox="0 0 80 80"><defs><style>.cls-1{fill:#734a00;}.cls-2{fill:url(#linear-gradient);}.cls-3{fill:url(#linear-gradient-2);}.cls-4{fill:url(#linear-gradient-3);}.cls-5{fill:url(#linear-gradient-4);}.cls-6{fill:url(#linear-gradient-5);}.cls-7{fill:#fff;}</style><linearGradient id="linear-gradient" x1="1.43" y1="38.72" x2="76.24" y2="38.72" gradientUnits="userSpaceOnUse"><stop offset="0" stop-color="#f15a24"/><stop offset="0.75" stop-color="#f7931e"/></linearGradient><linearGradient id="linear-gradient-2" x1="22.31" y1="20.06" x2="26.29" y2="20.06" xlink:href="#linear-gradient"/><linearGradient id="linear-gradient-3" x1="24.38" y1="11.95" x2="30.14" y2="11.95" xlink:href="#linear-gradient"/><linearGradient id="linear-gradient-4" x1="15.88" y1="21.57" x2="18.42" y2="21.57" xlink:href="#linear-gradient"/><linearGradient id="linear-gradient-5" x1="27.57" y1="40.19" x2="52.03" y2="40.19" xlink:href="#linear-gradient"/></defs><title>tandhjul orange lille</title><circle class="cls-1" cx="40.53" cy="40.64" r="38.04"/><circle class="cls-2" cx="38.83" cy="38.72" r="37.41"/><ellipse class="cls-3" cx="24.3" cy="20.06" rx="1.99" ry="2.06"/><ellipse class="cls-4" cx="27.26" cy="11.95" rx="2.88" ry="2.98"/><ellipse class="cls-5" cx="17.15" cy="21.57" rx="1.27" ry="1.31"/><path class="cls-6" d="M39.8,52.41A12.23,12.23,0,1,1,52,40.18,12.24,12.24,0,0,1,39.8,52.41Z"/><path class="cls-7" d="M39.8,30.46a9.73,9.73,0,1,1-9.73,9.73,9.74,9.74,0,0,1,9.73-9.73m0-5A14.73,14.73,0,1,0,54.53,40.19,14.73,14.73,0,0,0,39.8,25.46Z"/><rect class="cls-7" x="20.81" y="31.47" width="6.59" height="6.59" rx="3.29" ry="3.29" transform="translate(-16.52 46.54) rotate(-71.43)"/><rect class="cls-7" x="26.82" y="23.33" width="6.59" height="6.59" rx="3.29" ry="3.29" transform="translate(-9.85 22.34) rotate(-35.36)"/><path class="cls-7" d="M39.8,20a3.29,3.29,0,0,1,3.29,3.3h0a3.29,3.29,0,0,1-3.29,3.29h0a3.29,3.29,0,0,1-3.29-3.29h0A3.29,3.29,0,0,1,39.8,20"/><rect class="cls-7" x="46.39" y="23.33" width="6.59" height="6.59" rx="3.29" ry="3.29" transform="translate(0.25 53.7) rotate(-56.9)"/><path class="cls-7" d="M58.36,33.14a3.31,3.31,0,0,1-1.82,4.29h0a3.3,3.3,0,0,1-4.29-1.82h0a3.29,3.29,0,0,1,1.82-4.29h0a3.3,3.3,0,0,1,4.29,1.82"/><circle class="cls-7" cx="39.7" cy="40.09" r="5.91"/><path class="cls-7" d="M58.47,45.74A3.29,3.29,0,0,1,54.4,48h0a3.29,3.29,0,0,1-2.27-4.06h0a3.3,3.3,0,0,1,4.07-2.27h0a3.29,3.29,0,0,1,2.27,4.07"/><rect class="cls-7" x="46.78" y="49.68" width="6.59" height="6.59" rx="3.29" ry="3.29" transform="translate(-21.42 38.75) rotate(-35.36)"/><rect class="cls-7" x="36.51" y="53.36" width="6.59" height="6.59" rx="3.29" ry="3.29"/><rect class="cls-7" x="26.82" y="50.65" width="6.59" height="6.59" rx="3.29" ry="3.29" transform="translate(-31.52 49.71) rotate(-56.9)"/><rect class="cls-7" x="20.81" y="42.7" width="6.59" height="6.59" rx="3.29" ry="3.29" transform="translate(-15.49 12.39) rotate(-22.02)"/></svg>