<svg id="Layer_1" data-name="Layer 1" xmlns="http://www.w3.org/2000/svg" width="90" height="90" viewBox="0 0 90 90"><defs><style>.cls-1{fill:#3cf;}</style></defs><title>tandhjul blå</title><path class="cls-1" d="M45.2,26.42a19,19,0,1,1-19,19,19,19,0,0,1,19-19m0-12a31,31,0,1,0,31,31,31,31,0,0,0-31-31Z"/><rect class="cls-1" x="5.24" y="27.06" width="13.86" height="13.86" rx="6.93" ry="6.93" transform="translate(-23.92 34.7) rotate(-71.43)"/><rect class="cls-1" x="17.88" y="9.93" width="13.86" height="13.86" rx="6.93" ry="6.93" transform="translate(-5.18 17.47) rotate(-35.36)"/><rect class="cls-1" x="38.27" y="3" width="13.86" height="13.86" rx="6.93" ry="6.93"/><rect class="cls-1" x="59.07" y="9.93" width="13.86" height="13.86" rx="6.93" ry="6.93" transform="translate(15.83 62.94) rotate(-56.9)"/><rect class="cls-1" x="70.89" y="26.24" width="13.86" height="13.86" rx="6.93" ry="6.93" transform="translate(-6.76 31.59) rotate(-22.02)"/><circle class="cls-1" cx="45" cy="45.2" r="12.44"/><rect class="cls-1" x="70.89" y="48.26" width="13.86" height="13.86" rx="6.93" ry="6.93" transform="translate(3.47 114.98) rotate(-74.14)"/><rect class="cls-1" x="59.88" y="65.39" width="13.86" height="13.86" rx="6.93" ry="6.93" transform="translate(-29.53 52.01) rotate(-35.36)"/><rect class="cls-1" x="38.27" y="73.14" width="13.86" height="13.86" rx="6.93" ry="6.93"/><rect class="cls-1" x="17.88" y="67.43" width="13.86" height="13.86" rx="6.93" ry="6.93" transform="translate(-51.03 54.54) rotate(-56.9)"/><rect class="cls-1" x="5.24" y="50.71" width="13.86" height="13.86" rx="6.93" ry="6.93" transform="translate(-20.72 8.77) rotate(-22.02)"/></svg>