<svg id="Layer_1" data-name="Layer 1" xmlns="http://www.w3.org/2000/svg" xmlns:xlink="http://www.w3.org/1999/xlink" width="390" height="390" viewBox="0 0 390 390"><defs><style>.cls-1{fill:#734a00;}.cls-2{fill:url(#linear-gradient);}.cls-3{fill:url(#linear-gradient-2);}.cls-4{fill:url(#linear-gradient-3);}.cls-5{fill:url(#linear-gradient-4);}.cls-6{fill:url(#linear-gradient-5);}.cls-7{fill:#fff;}</style><linearGradient id="linear-gradient" x1="5.52" y1="188.74" x2="372.99" y2="188.74" gradientUnits="userSpaceOnUse"><stop offset="0" stop-color="#f15a24"/><stop offset="0.75" stop-color="#f7931e"/></linearGradient><linearGradient id="linear-gradient-2" x1="108.09" y1="97.05" x2="127.66" y2="97.05" xlink:href="#linear-gradient"/><linearGradient id="linear-gradient-3" x1="118.27" y1="57.21" x2="146.59" y2="57.21" xlink:href="#linear-gradient"/><linearGradient id="linear-gradient-4" x1="76.51" y1="104.47" x2="89" y2="104.47" xlink:href="#linear-gradient"/><linearGradient id="linear-gradient-5" x1="132.68" y1="195.91" x2="255.36" y2="195.91" xlink:href="#linear-gradient"/></defs><title>tandhjul orange stor</title><circle class="cls-1" cx="197.61" cy="198.13" r="186.87"/><circle class="cls-2" cx="189.26" cy="188.74" r="183.74"/><ellipse class="cls-3" cx="117.88" cy="97.05" rx="9.79" ry="10.11"/><ellipse class="cls-4" cx="132.43" cy="57.21" rx="14.16" ry="14.62"/><ellipse class="cls-5" cx="82.76" cy="104.47" rx="6.25" ry="6.45"/><circle class="cls-6" cx="194.02" cy="195.91" r="61.34"/><path class="cls-7" d="M194,145.57a50.34,50.34,0,1,1-50.34,50.34A50.39,50.39,0,0,1,194,145.57m0-22a72.34,72.34,0,1,0,72.34,72.34A72.34,72.34,0,0,0,194,123.57Z"/><rect class="cls-7" x="100.74" y="153.08" width="32.36" height="32.36" rx="16.18" ry="16.18" transform="translate(-80.76 226.18) rotate(-71.43)"/><rect class="cls-7" x="130.24" y="113.1" width="32.36" height="32.36" rx="16.18" ry="16.18" transform="translate(-47.81 108.6) rotate(-35.36)"/><path class="cls-7" d="M194,96.92A16.17,16.17,0,0,1,210.2,113.1h0A16.18,16.18,0,0,1,194,129.28h0a16.18,16.18,0,0,1-16.18-16.18h0A16.17,16.17,0,0,1,194,96.92"/><rect class="cls-7" x="226.38" y="113.1" width="32.36" height="32.36" rx="16.18" ry="16.18" transform="translate(1.8 261.87) rotate(-56.9)"/><path class="cls-7" d="M285.17,161.29a16.18,16.18,0,0,1-8.94,21.07h0a16.17,16.17,0,0,1-21.06-8.94h0a16.18,16.18,0,0,1,8.93-21.07h0a16.18,16.18,0,0,1,21.07,8.94"/><circle class="cls-7" cx="193.54" cy="195.43" r="29.03"/><path class="cls-7" d="M285.73,223.18a16.18,16.18,0,0,1-20,11.14h0a16.18,16.18,0,0,1-11.15-20h0a16.19,16.19,0,0,1,20-11.14h0a16.17,16.17,0,0,1,11.14,20"/><rect class="cls-7" x="228.29" y="242.55" width="32.36" height="32.36" rx="16.18" ry="16.18" transform="translate(-104.64 189.23) rotate(-35.36)"/><rect class="cls-7" x="177.84" y="260.64" width="32.36" height="32.36" rx="16.18" ry="16.18"/><rect class="cls-7" x="130.24" y="247.31" width="32.36" height="32.36" rx="16.18" ry="16.18" transform="translate(-154.27 242.25) rotate(-56.9)"/><rect class="cls-7" x="100.74" y="208.28" width="32.36" height="32.36" rx="16.18" ry="16.18" transform="translate(-75.62 60.2) rotate(-22.02)"/></svg>