<svg id="Layer_1" data-name="Layer 1" xmlns="http://www.w3.org/2000/svg" xmlns:xlink="http://www.w3.org/1999/xlink" width="180" height="240" viewBox="0 0 180 240"><defs><style>.cls-1{fill:none;}.cls-2{fill:#cff;opacity:0.66;}.cls-3{opacity:0.7;}.cls-4{isolation:isolate;}.cls-5{fill:#b6f1ef;}.cls-6{clip-path:url(#clip-path);}.cls-7{fill:#9ce1dd;}.cls-8{fill:#a3e5e2;}.cls-9{fill:#96ddd8;}.cls-10{fill:#8fd9d3;}.cls-11{fill:#0010b1;}</style><clipPath id="clip-path"><path class="cls-1" d="M104.75,12.49l8.32,3.23a71,71,0,0,1,44.64,57.51c5,39.49-22.67,76-61.81,81.46a70.1,70.1,0,0,1-35.26-4l-8.32-3.23a70.1,70.1,0,0,0,35.26,4c39.14-5.5,66.81-42,61.81-81.46A71,71,0,0,0,104.75,12.49Z"/></clipPath></defs><title>tid ui </title><ellipse class="cls-2" cx="150.15" cy="164.31" rx="22.75" ry="22.53"/><ellipse class="cls-2" cx="131.45" cy="218.72" rx="13.54" ry="13.52"/><g class="cls-3"><g class="cls-4"><path class="cls-5" d="M69.48,8.45A70.64,70.64,0,0,1,149.39,70c5,39.49-22.67,76-61.81,81.46A70.63,70.63,0,0,1,7.68,89.91C2.68,50.43,30.35,14,69.48,8.45Z"/><g class="cls-4"><g class="cls-6"><g class="cls-4"><path class="cls-7" d="M104.75,12.49l8.32,3.23a70.67,70.67,0,0,1,18.25,10.46L123,23a70.67,70.67,0,0,0-18.25-10.46"/><path class="cls-8" d="M123,23l8.32,3.23a71.1,71.1,0,0,1,26.39,47.05c.23,1.78.39,3.56.48,5.33l-8.32-3.23c-.09-1.77-.25-3.55-.48-5.33A71.16,71.16,0,0,0,123,23"/><path class="cls-7" d="M149.87,75.33l8.32,3.23a72.48,72.48,0,0,1-2.17,22l-8.32-3.23a72.79,72.79,0,0,0,2.17-22"/><path class="cls-9" d="M147.7,97.28l8.32,3.23a72.93,72.93,0,0,1-7.86,19l-8.32-3.23a73.27,73.27,0,0,0,7.86-19"/><path class="cls-10" d="M139.84,116.31l8.32,3.23A72.35,72.35,0,0,1,95.9,154.69a70.1,70.1,0,0,1-35.26-4l-8.32-3.23a70.1,70.1,0,0,0,35.26,4,72.35,72.35,0,0,0,52.26-35.15"/></g></g></g></g></g><path class="cls-11" d="M71.77,100.71a3.26,3.26,0,0,1-.61,1.93,1.73,1.73,0,0,1-1.55.8,10.15,10.15,0,0,1-3.17-1.84c-1.68-1.2-2.54-2-2.57-2.5a3.71,3.71,0,0,1,.13-.8,3.56,3.56,0,0,0,.12-.76V79.3c0-.66-.61-1.14-1.83-1.43S60.16,77,60,76.44a2.77,2.77,0,0,1-.16-.91,4.25,4.25,0,0,1,.89-2.26A25.26,25.26,0,0,0,62.17,71c.32-1.13.65-2.26,1-3.39a2.47,2.47,0,0,1,2.4-1.91A6.41,6.41,0,0,1,69,66.8,3.5,3.5,0,0,1,71,69.66V98.45a2.38,2.38,0,0,0,.39,1.11A2.4,2.4,0,0,1,71.77,100.71Z"/><path class="cls-11" d="M99.35,67.67q2,.48,3.17,4.51a35.18,35.18,0,0,1,1.06,9.38,50.35,50.35,0,0,1-1.67,12.85q-2.4,9.07-7,9.08a5.32,5.32,0,0,1-1.79-.39c-1.14-.47-1.77-.71-1.88-.74-.73-.32-1.94-.8-3.62-1.43-1.35-.5-2.47-2.55-3.33-6.17a49.5,49.5,0,0,1-1.22-11.59,41.85,41.85,0,0,1,1.26-11q1.38-5.13,4-6.12a1.13,1.13,0,0,1,.32,0,1.38,1.38,0,0,1,.69.26c.27.18.48.24.61.18A7,7,0,0,1,92.43,66a12.2,12.2,0,0,1,3.5.65Q99,67.58,99.35,67.67Zm-5.13,2.78q-1.95,0-3,4.68A40.72,40.72,0,0,0,90.32,84a47.27,47.27,0,0,0,.85,8.6c.57,3.06,1.13,4.6,1.67,4.6q1.59,0,2.6-5.3A61,61,0,0,0,96.3,81a45.1,45.1,0,0,0-.49-7.39C95.43,71.5,94.9,70.45,94.22,70.45Z"/></svg>