<svg id="Layer_1" data-name="Layer 1" xmlns="http://www.w3.org/2000/svg" xmlns:xlink="http://www.w3.org/1999/xlink" width="80" height="80" viewBox="0 0 80 80"><defs><style>.cls-1{fill:#734a00;}.cls-2{fill:url(#linear-gradient);}.cls-3{fill:url(#linear-gradient-2);}.cls-4{fill:url(#linear-gradient-3);}.cls-5{fill:url(#linear-gradient-4);}.cls-6,.cls-7{fill:none;stroke:#fff;stroke-linejoin:round;stroke-width:5px;}.cls-6{stroke-linecap:round;}.cls-8{fill:#fff;}</style><linearGradient id="linear-gradient" x1="0.93" y1="38.71" x2="76.7" y2="38.71" gradientUnits="userSpaceOnUse"><stop offset="0" stop-color="#f15a24"/><stop offset="0.75" stop-color="#f7931e"/></linearGradient><linearGradient id="linear-gradient-2" x1="22.08" y1="19.8" x2="26.11" y2="19.8" xlink:href="#linear-gradient"/><linearGradient id="linear-gradient-3" x1="24.18" y1="11.59" x2="30.02" y2="11.59" xlink:href="#linear-gradient"/><linearGradient id="linear-gradient-4" x1="15.57" y1="21.33" x2="18.14" y2="21.33" xlink:href="#linear-gradient"/></defs><title>tilbage ui lille</title><circle class="cls-1" cx="40.54" cy="40.65" r="38.53"/><circle class="cls-2" cx="38.82" cy="38.71" r="37.89"/><ellipse class="cls-3" cx="24.1" cy="19.8" rx="2.02" ry="2.08"/><ellipse class="cls-4" cx="27.1" cy="11.59" rx="2.92" ry="3.02"/><ellipse class="cls-5" cx="16.85" cy="21.33" rx="1.29" ry="1.33"/><path class="cls-6" d="M52.65,48.17C50.18,58.28,37,59.86,30,54.82"/><path class="cls-7" d="M26.6,33.21A15.59,15.59,0,0,0,30.21,55"/><path class="cls-7" d="M48.4,29.72a15.59,15.59,0,0,0-21.81,3.45"/><path class="cls-8" d="M53.79,25.33,57.14,34a2.2,2.2,0,0,1,0,1.69v0a2.25,2.25,0,0,1-2,1.33l-9.26.48-.19,0c-1.44.23-2.93-1.95-2.12-3.2L50,24.12c.81-1.24,3.36-.37,3.74,1A1.21,1.21,0,0,0,53.79,25.33Z"/></svg>