<svg id="Layer_1" data-name="Layer 1" xmlns="http://www.w3.org/2000/svg" xmlns:xlink="http://www.w3.org/1999/xlink" width="390" height="390" viewBox="0 0 390 390"><defs><style>.cls-1{fill:#734a00;}.cls-2{fill:url(#linear-gradient);}.cls-3{fill:url(#linear-gradient-2);}.cls-4{fill:url(#linear-gradient-3);}.cls-5{fill:url(#linear-gradient-4);}.cls-6,.cls-7{fill:none;stroke:#fff;stroke-linejoin:round;stroke-width:24px;}.cls-6{stroke-linecap:round;}.cls-8{fill:#fff;}</style><linearGradient id="linear-gradient" x1="8.52" y1="188.74" x2="375.99" y2="188.74" gradientUnits="userSpaceOnUse"><stop offset="0" stop-color="#f15a24"/><stop offset="0.75" stop-color="#f7931e"/></linearGradient><linearGradient id="linear-gradient-2" x1="111.09" y1="97.05" x2="130.66" y2="97.05" xlink:href="#linear-gradient"/><linearGradient id="linear-gradient-3" x1="121.27" y1="57.21" x2="149.59" y2="57.21" xlink:href="#linear-gradient"/><linearGradient id="linear-gradient-4" x1="79.51" y1="104.47" x2="92" y2="104.47" xlink:href="#linear-gradient"/></defs><title>tilbage ui</title><circle class="cls-1" cx="200.61" cy="198.13" r="186.87"/><circle class="cls-2" cx="192.26" cy="188.74" r="183.74"/><ellipse class="cls-3" cx="120.88" cy="97.05" rx="9.79" ry="10.11"/><ellipse class="cls-4" cx="135.43" cy="57.21" rx="14.16" ry="14.62"/><ellipse class="cls-5" cx="85.76" cy="104.47" rx="6.25" ry="6.45"/><path class="cls-6" d="M259.35,234.64c-12,49-76,56.66-110,32.22"/><path class="cls-7" d="M133,162.08A75.61,75.61,0,0,0,150.52,267.7"/><path class="cls-7" d="M238.72,145.14A75.62,75.62,0,0,0,133,161.89"/><path class="cls-8" d="M264.89,123.84l16.24,41.83a10.87,10.87,0,0,1-.09,8.2L281,174a10.91,10.91,0,0,1-9.44,6.4l-44.92,2.36a9,9,0,0,0-.91.11c-7,1.16-14.23-9.43-10.31-15.47L246.5,118c3.93-6,16.28-1.8,18.12,5A8.57,8.57,0,0,0,264.89,123.84Z"/></svg>