<svg id="Layer_1" data-name="Layer 1" xmlns="http://www.w3.org/2000/svg" width="1100" height="260" viewBox="0 0 1100 260"><defs><style>.cls-1{fill:#cff;}</style></defs><title>titel uden bobler</title><path class="cls-1" d="M196.6,191.69a23,23,0,0,1,5.07,6.64c.86,2,.91,3.66-.06,5s-3,2.15-5.94,2.51a27.06,27.06,0,0,1-11.24-1.53,29.23,29.23,0,0,1-9-4.52,80.71,80.71,0,0,1-7-6c-2.43-2.4-4.36-4.58-6-6.46a70.88,70.88,0,0,1-5.19-6.81A149.6,149.6,0,0,1,145,157.92c-3.53-7.62-6.9-15.34-11.1-22.76-.79,8.1-1.54,16.16-1.75,23.94a138.29,138.29,0,0,0,1.06,23,81.58,81.58,0,0,0,3.59,16.12c1.73,5.17,3.64,10.07,5.64,14.73a5.54,5.54,0,0,1,.13,4.62,7.7,7.7,0,0,1-3.41,3.67,13.58,13.58,0,0,1-5.76,1.68,13.37,13.37,0,0,1-6.67-1.23c-14-6.57-25.59-14.21-36.95-21.88S67.25,184.29,54.92,177c3.53,6.59,7.16,13.16,11,19.66s7.84,12.91,12,19.18c1.37,1.94,3.08,4.27,5.19,7s4.21,5.45,6.33,8.23,4.16,5.44,6.09,8a20.23,20.23,0,0,1,3.62,6.45c.91,2.85.65,5.17-.85,7a10.85,10.85,0,0,1-6.13,3.66,15.35,15.35,0,0,1-8.31-.54A17.45,17.45,0,0,1,76,250Q70,243,64.72,235.76T53.94,221.22q-12-15.89-23-32.06c-7.37-10.75-14.64-21.73-22.33-32.62a33.58,33.58,0,0,1-4.92-9.39c-1-3.14,0-6.27,3-9.36a12.41,12.41,0,0,1,4.4-3.08,16.61,16.61,0,0,1,5.84-1.32,33.43,33.43,0,0,1,13.63,2.48c4.36,1.8,8.37,3.58,12,5.31a186.28,186.28,0,0,1,17.5,9c5.49,3.22,10.67,6.54,15.61,10,6.17,4.43,12,8.93,17.58,13.4s11.2,9,17,13.45c-.31-2.26-.61-4.54-.88-6.81s-.47-4.59-.6-6.93c-.14-4.09-.27-8.22-.43-12.36s-.22-8.29-.22-12.41c.13-5.43.18-10.75,0-15.86a108.14,108.14,0,0,0-1.47-15.13,42.55,42.55,0,0,0-3-11.37,22.7,22.7,0,0,1-2.16-10.55,6.14,6.14,0,0,1,2.88-5.4,16.89,16.89,0,0,1,7.31-2.43,33.12,33.12,0,0,1,9.63.39,28.14,28.14,0,0,1,9.22,3.26,77.19,77.19,0,0,1,10.56,7.81,64.65,64.65,0,0,1,8.21,8.75,74.54,74.54,0,0,1,9.08,15.4c2.36,5.27,4.31,10.83,6.21,16.52,3.24,9.3,6.32,18.58,10.85,27.15a68.4,68.4,0,0,0,19.85,23.58C195.73,191,196.16,191.33,196.6,191.69Z"/><path class="cls-1" d="M229.14,179.75c2.91,2.73,4.88,5.11,5.43,7.32s.16,3.89-1.5,5.16-4.32,1.89-7.95,1.85a22.55,22.55,0,0,1-11.79-3.8c-17.22-11-23.87-26.62-26.06-44.57-2.37-17.89-.79-36.92-7.16-53a13.27,13.27,0,0,1-6.87-1.63,18.28,18.28,0,0,1-5-4.2,20.7,20.7,0,0,1-3.32-5.47A12.6,12.6,0,0,1,163.77,76a11.52,11.52,0,0,1,2.11-5.71,41.41,41.41,0,0,1,4.71-5.79,53.81,53.81,0,0,1,5.8-5.23,64.2,64.2,0,0,1,5.38-3.8c6.4-4,15.58-7,28-8.74a146.32,146.32,0,0,1,38.57-.42c12.66,1.66,23.44,5.52,29.7,12s6.53,15.57,1.82,27.13a104.46,104.46,0,0,1-5,9.94c-1.9,3.4-3.94,6.61-6.07,9.67a130.26,130.26,0,0,1-9.7,12.77q-5.06,5.83-10.23,11.16c2.28,2.24,4.53,4.65,6.87,7.16a32.24,32.24,0,0,0,8.24,6.33c1.2.67,3,1.74,5.58,3.18s5.29,3,8.26,4.61,5.95,3.22,9,4.78a33.15,33.15,0,0,1,6.64,4.14,54.84,54.84,0,0,1,6,5.87c1.53,1.83,2.47,3.32,2.55,4.52s-.78,2.06-2.69,2.59-5,.57-9,.12a112.09,112.09,0,0,1-14.62-3c-4.82-1.34-9-2.65-12.64-3.87a113.07,113.07,0,0,1-21-9.4,161.84,161.84,0,0,1-15.83-10.7,62.87,62.87,0,0,1-7.11,3.65c-2.42,1.06-4.79,2.16-7.12,3.28a47.76,47.76,0,0,0,15.84,26.41ZM245.07,67.62a51.55,51.55,0,0,0-22.17.52,50.22,50.22,0,0,0-19,8.77c7.89,14.18,6.19,31.45,6,48.41,5.87-2.45,11.69-5.22,17.53-8.35a68,68,0,0,0,17.08-13.53A54.4,54.4,0,0,0,252.24,93a29.09,29.09,0,0,0,3.83-10.67,13.12,13.12,0,0,0-1.95-9C252.39,70.63,249.32,68.75,245.07,67.62Z"/><path class="cls-1" d="M337.74,142.17a61,61,0,0,1,5.87,7.76c1.25,2.22,1.9,3.95,1.51,5.32s-1.68,2.31-4.05,2.92a29.58,29.58,0,0,1-8.94.54,47.21,47.21,0,0,1-11.49-2.29,28.27,28.27,0,0,1-10.74-6.16c-3.08-3-4.21-5.79-4-8.37a10.27,10.27,0,0,1,3.23-6.52,15.19,15.19,0,0,1,6.61-3.65,16.82,16.82,0,0,1,7.59-.29,18.12,18.12,0,0,1,7.3,3.46A42.18,42.18,0,0,1,337.74,142.17Z"/><path class="cls-1" d="M513.25,5.23a47.69,47.69,0,0,1,12.81,5c4.05,2.33,6.82,4.77,8.33,7.29a6.37,6.37,0,0,1,.28,6.87c-1.21,2.06-3.78,3.45-7.32,4.19a117,117,0,0,1-19.06,1.88c-5.88,0-11,.2-15.41.4-1.61,16.48-18.32,33.53-28.81,50.34s-17.51,34.35.54,50.48c4,3.51,6.81,6.08,7,7.78s-1,2.52-4.26,2.51a50.07,50.07,0,0,1-13.28-2.52c-5.45-1.68-10.54-4.17-14.18-7.64-15.48-14.52-10.66-31.39-.42-48.6,10-17.21,25.68-34.55,26.58-50.79q-2,.15-6.72.7T449,34c-3.74.26-7.58.33-11.56.23a36.45,36.45,0,0,1-10.62-1.71A11.84,11.84,0,0,1,421,28.32a26.3,26.3,0,0,1-3.53-6.14,25,25,0,0,1-1.7-6,3.61,3.61,0,0,1,2.1-4.17,337.61,337.61,0,0,1,35.66-4.11q18.12-1.12,36.34-2,5.4-.25,10.66-.55c3.51-.21,7.13-.36,10.88-.47Z"/><path class="cls-1" d="M634.19,17.07c-.62-2.8-1.12-5.1-.89-6.87s1-2.88,2.67-3.29,4.3-.06,7.73,1.06a40.47,40.47,0,0,1,11.23,6,32,32,0,0,1,3.47,2.83,10.27,10.27,0,0,1,2.29,2.93,20.12,20.12,0,0,1,1.87,7.85,24.86,24.86,0,0,1-2.27,10.73,41.71,41.71,0,0,1-5.88,9.32c-2.2,2.67-3.55,4-3.64,4.18C644.5,58.62,636.48,65.28,628.62,72S612.9,85.53,606.79,92.55a66,66,0,0,0-10.67,15.32,69.73,69.73,0,0,0-4.54,12.72,66.2,66.2,0,0,1-2.94,9.62,12.13,12.13,0,0,1-6.31,6.29,13.08,13.08,0,0,1-4.66,1.25,43.24,43.24,0,0,1-6,.22c-6.13-.19-14.42-1.68-24.11-4.32-11.16-3.2-22.59-8.19-29.68-15.25s-9.66-15.05-7.11-24.11S520,76,528,66.69s15-17.36,19-24.32a48.53,48.53,0,0,0,4.15-8.7A27.32,27.32,0,0,0,552.79,25a25.29,25.29,0,0,0-1.08-6.46c-.7-2.26-1.48-4.42-2.3-6.48a20.45,20.45,0,0,1-1.54-5.34c-.12-1.5.71-2.53,2.83-3.06a14.9,14.9,0,0,1,5.81.46,50,50,0,0,1,7.89,2.47,43.11,43.11,0,0,1,7.43,3.86,14.21,14.21,0,0,1,4.81,4.74,22.56,22.56,0,0,1,2.12,5.3,21.1,21.1,0,0,1,.58,3.51,14.22,14.22,0,0,1-.1,3.18,37.13,37.13,0,0,1-.81,4.29c-2.6,8.94-9.77,17.73-17.61,26.56s-16,17.72-21.18,26.64a39.75,39.75,0,0,0-4.83,11.52,12.12,12.12,0,0,0,2,10.24A15.23,15.23,0,0,0,545,111.8a25.4,25.4,0,0,0,10.18,1,26.52,26.52,0,0,0,9.48-2.92,28.15,28.15,0,0,0,8-6.36c2.4-2.67,5-5.8,8-9.39S587,86.85,590.76,83s7.68-7.54,11.59-11.22,7.6-7.06,10.86-10.14q5.87-5.37,9.52-9.21a80.15,80.15,0,0,0,7.71-9.3,33.2,33.2,0,0,0,4.39-8.31,26.87,26.87,0,0,0,1.53-8.53A21.28,21.28,0,0,0,634.19,17.07Z"/><path class="cls-1" d="M654.26,132.34c1.56,3.64,2.67,6.61,2.65,8.82s-.64,3.56-2.44,4-4.56-.23-8.24-1.89a31.2,31.2,0,0,1-11.1-8.61c-14.12-17.13-7.89-33,7.19-48.6,14.73-15.64,36.54-29.95,43.08-46a8.62,8.62,0,0,1-3.93-4.24,20.83,20.83,0,0,1-1.42-5.69,43.53,43.53,0,0,1-.31-6.16,18.51,18.51,0,0,1,.62-5.32,8.81,8.81,0,0,1,3-4.21,27,27,0,0,1,5.1-3.2,32.7,32.7,0,0,1,6-2.23A42.42,42.42,0,0,1,700,7.86c6.62-.89,16.31.5,28.54,4.37s24.68,9.52,34.76,16.44,16.8,14.85,17.66,23-5.16,15.89-17.28,23.52c-3.45,2.1-7.23,4.15-11.25,6.16s-8.09,3.81-12.12,5.43q-9,3.77-17.62,6.44t-17.08,4.86c.21,2.83.36,5.79.58,8.9a20.41,20.41,0,0,0,2.86,8.87c.62,1.08,1.49,2.77,2.85,5.11s2.8,4.84,4.41,7.52,3.28,5.35,5,8a24.66,24.66,0,0,1,3.29,6.44,51.06,51.06,0,0,1,1.69,7.63c.26,2.24.28,3.95-.28,5s-1.71,1.46-3.65,1.07-4.69-1.7-8.1-3.88a111.26,111.26,0,0,1-11.74-9.05c-3.69-3.29-6.76-6.24-9.41-8.9a77.85,77.85,0,0,1-13.21-17.12A65.42,65.42,0,0,1,673.79,102a87.38,87.38,0,0,1-8.86,0c-2.88-.15-5.73-.24-8.57-.29-5.82,9.16-7.75,18.74-2.87,29.11C653.73,131.31,654,131.82,654.26,132.34ZM749.93,46a38.64,38.64,0,0,0-17.41-8.83A46,46,0,0,0,713,36.66c-2,15.44-19.7,28.44-35.2,42.11q9.81.66,20.46.47a99,99,0,0,0,24.32-3.93A85.81,85.81,0,0,0,736.87,70,45.47,45.47,0,0,0,748,62.78c2.83-2.62,4.56-5.38,5.08-8.31S752.48,48.68,749.93,46Z"/><path class="cls-1" d="M896.53,60.69A26.7,26.7,0,0,1,904,68.85a15.47,15.47,0,0,1,2.44,8.88A8.24,8.24,0,0,1,902.82,84c-2.14,1.51-5.07,2-8.58,1.57a102.83,102.83,0,0,1-17.85-4.26c-5.26-1.82-9.89-3.31-13.88-4.52-8.9,14.9-28.23,26.41-43.16,39.11s-28,26.9-24.1,46.66c.92,4.32,1.16,7.34-.15,8.79s-3.22,1.67-6.12.58a33.84,33.84,0,0,1-9.91-6.56c-3.59-3.26-6.32-7.1-7.23-11.35-4-17.89,7.47-32,23-44.87,15.37-13,34.95-24.63,43.27-39.44q-1.82-.49-6.25-1.49c-3-.66-6.13-1.47-9.53-2.43a102.29,102.29,0,0,1-10.24-3.49,28.54,28.54,0,0,1-8.44-5,9,9,0,0,1-3-5.77,22.38,22.38,0,0,1,0-6.74,21.77,21.77,0,0,1,1.73-6,4.89,4.89,0,0,1,4.27-3.07,326.17,326.17,0,0,1,34.28,7.92q16.89,4.86,33.93,10c3.36,1,6.72,2,10,3s6.75,2,10.24,3.14Z"/><path class="cls-1" d="M919.77,187.05a16.55,16.55,0,0,1,3.8,8.18,14.57,14.57,0,0,1-.83,7.76,13.79,13.79,0,0,1-4.5,5.81,11.74,11.74,0,0,1-7.77,2.16,17.3,17.3,0,0,1-5-1.32c-2.12-.82-5.06-2-8.83-3.57s-8.56-3.5-14.36-5.77-13-5-21.52-7.91q-3.16-.93-6.56-2.13a15.23,15.23,0,0,1-6.56-5.23,20,20,0,0,1-4-8.19,25.86,25.86,0,0,1-.51-9.76A30.06,30.06,0,0,1,846,158a57.28,57.28,0,0,1,4.16-7,76,76,0,0,1,10.42-11.93,192.24,192.24,0,0,1,15.12-12.69c5.44-4.2,10.92-8.26,16-12.34a144.62,144.62,0,0,0,12.58-11.12,57.84,57.84,0,0,0,11.32-15.26,59,59,0,0,0,3.75-10.17c.72-2.53,1.36-4.33,2.35-5.26a7.43,7.43,0,0,1,4.09-1.82,9.7,9.7,0,0,1,5.35,1.12A23.68,23.68,0,0,1,937,75.48a20.07,20.07,0,0,1,4.41,5.73,9.38,9.38,0,0,1,1,6.2c-3.38,17-18.94,29.18-34.58,41.25-15.8,12-31.56,24.17-38.66,39.4l24.65,8.84q12.33,4.44,25,9.29Z"/><path class="cls-1" d="M1015.06,226.68a11.47,11.47,0,0,1,4.59,4.95,12,12,0,0,1,1.08,5.83,10.82,10.82,0,0,1-2.31,5.71,16.17,16.17,0,0,1-6,4.63,18.43,18.43,0,0,1-4.74,1.52,11,11,0,0,1-4.82.22,140.31,140.31,0,0,1-26.15-8.31,159.71,159.71,0,0,1-23.11-12.35q-3.18-2-7-4.37a17.87,17.87,0,0,1-6.09-6c-2.72-4.47-3.21-9.21-.68-13.94,14.26-27.33,46.82-46.3,67.15-70.82a10.82,10.82,0,0,1-.63-5.08,16.07,16.07,0,0,1,1.53-5.38,15,15,0,0,1,3.43-4.63,11.4,11.4,0,0,1,5.2-2.74,21.22,21.22,0,0,1,10.63-.21c3.67.85,7.24,1.79,10.74,2.82A131.1,131.1,0,0,1,1059,127q10.23,5.16,20.87,10.56a77.82,77.82,0,0,0,7.52,3.41,16.3,16.3,0,0,1,6.71,4.54,10.22,10.22,0,0,1,2.59,7,12.54,12.54,0,0,1-2.32,6.83,15.31,15.31,0,0,1-6.07,5,16.37,16.37,0,0,1-9,1.33,28.15,28.15,0,0,1-10.89-3.69q-5-2.94-9.65-5.42-6.86-3.63-13.91-7a129.47,129.47,0,0,0-14.72-5.91c-6.57,8-14.26,15.53-22.12,22.94a145.74,145.74,0,0,0,13.41,6.7q7,3.08,14.14,6.09c2.07.92,4.18,1.8,6.36,2.63a25.9,25.9,0,0,1,6,3.26c2.37,1.79,3.51,3.92,3.44,6.41a12.89,12.89,0,0,1-2.49,7.1,16.89,16.89,0,0,1-6.84,5.44,16.43,16.43,0,0,1-9.52,1.32,48.2,48.2,0,0,1-10.42-3c-4.07-1.59-8.23-3.38-12.49-5.34s-8.39-3.94-12.38-5.94-7.29-3.7-9.9-5.13a197.9,197.9,0,0,0-18.57,20.79A120.32,120.32,0,0,0,989.88,218a194.85,194.85,0,0,0,23.84,8Z"/></svg>