<svg id="Layer_1" data-name="Layer 1" xmlns="http://www.w3.org/2000/svg" xmlns:xlink="http://www.w3.org/1999/xlink" width="1920" height="1080" viewBox="0 0 1920 1080"><defs><style>.cls-1{fill:url(#linear-gradient);}.cls-2,.cls-5{fill:#cff;}.cls-2{opacity:0.2;}.cls-3{fill:#09c;}.cls-4{fill:#0081ca;}.cls-6{fill:#009bca;}.cls-7{fill:#0098d0;}.cls-8{fill:#3a6d19;}.cls-9{fill:url(#linear-gradient-2);}.cls-10{fill:#d88a55;}.cls-11{fill:url(#linear-gradient-3);}.cls-12{fill:url(#linear-gradient-4);}.cls-13{fill:#3b7515;}.cls-14{fill:url(#linear-gradient-5);}.cls-15{fill:#29590a;}.cls-16{fill:url(#linear-gradient-6);}.cls-17{fill:#d6551a;}.cls-18{fill:#c63;}.cls-19{fill:#dd6b1d;}.cls-20{fill:#d87a35;}.cls-21{fill:#ad5e1e;}.cls-22{fill:url(#linear-gradient-7);}.cls-23{fill:#315916;}.cls-24{fill:#fff;}.cls-25{fill:#1270d0;}.cls-26{fill:#050505;}.cls-27{fill:#f9f9f9;}.cls-28,.cls-43{fill:none;stroke-linecap:round;stroke-linejoin:round;}.cls-28{stroke:#29590a;}.cls-29{fill:#78c943;}.cls-30{fill:#734a00;}.cls-31{fill:url(#linear-gradient-8);}.cls-32{fill:url(#linear-gradient-9);}.cls-33{fill:url(#linear-gradient-10);}.cls-34{fill:url(#linear-gradient-11);}.cls-35{fill:url(#linear-gradient-12);}.cls-36{fill:url(#linear-gradient-13);}.cls-37{fill:url(#linear-gradient-14);}.cls-38{fill:url(#linear-gradient-15);}.cls-39{fill:url(#linear-gradient-16);}.cls-40{fill:url(#linear-gradient-17);}.cls-41{fill:url(#linear-gradient-18);}.cls-42{fill:#1a6172;}.cls-43{stroke:#000;stroke-width:2px;}.cls-44{fill:url(#linear-gradient-19);}.cls-45{fill:#3cf;}</style><linearGradient id="linear-gradient" x1="960.68" y1="1079.81" x2="960.68" y2="-0.19" gradientTransform="matrix(-1, 0, 0, 1, 1917.27, 0)" gradientUnits="userSpaceOnUse"><stop offset="0" stop-color="#55a7fc"/><stop offset="0" stop-color="#58c9fd"/><stop offset="0.25" stop-color="#5dc8ff"/><stop offset="0.71" stop-color="#00d3db"/><stop offset="1" stop-color="#c9d5e2"/></linearGradient><linearGradient id="linear-gradient-2" x1="1606.67" y1="873.88" x2="1797.55" y2="984.08" gradientTransform="translate(-286.78 -902.99) rotate(37.51)" gradientUnits="userSpaceOnUse"><stop offset="0.24" stop-color="#3b7218"/><stop offset="0.94" stop-color="#83c458"/></linearGradient><linearGradient id="linear-gradient-3" x1="-553.43" y1="581.47" x2="-507.09" y2="608.22" gradientTransform="matrix(1.18, -0.24, 0.83, 1.02, 398.09, 109.73)" xlink:href="#linear-gradient-2"/><linearGradient id="linear-gradient-4" x1="-137.05" y1="751.65" x2="-8.16" y2="826.06" gradientTransform="translate(124.43 100.44) rotate(-14.82)" xlink:href="#linear-gradient-2"/><linearGradient id="linear-gradient-5" x1="-98.83" y1="801.88" x2="-17.79" y2="848.67" gradientTransform="translate(124.43 100.44) rotate(-14.82)" xlink:href="#linear-gradient-2"/><linearGradient id="linear-gradient-6" x1="648.2" y1="1030.6" x2="788.55" y2="1016.27" gradientTransform="translate(-123.53 -165.08) rotate(1.01)" gradientUnits="userSpaceOnUse"><stop offset="0.24" stop-color="#3b7218"/><stop offset="0.82" stop-color="#83c458"/></linearGradient><linearGradient id="linear-gradient-7" x1="689.83" y1="560.46" x2="724.65" y2="819.19" gradientTransform="translate(-121.96 -61.61) rotate(-0.6)" xlink:href="#linear-gradient-2"/><linearGradient id="linear-gradient-8" x1="759.59" y1="592" x2="1187.99" y2="592" gradientUnits="userSpaceOnUse"><stop offset="0" stop-color="#f15a24"/><stop offset="0.75" stop-color="#f7931e"/></linearGradient><linearGradient id="linear-gradient-9" x1="879.17" y1="485.12" x2="901.98" y2="485.12" xlink:href="#linear-gradient-8"/><linearGradient id="linear-gradient-10" x1="842.35" y1="493.76" x2="856.91" y2="493.76" xlink:href="#linear-gradient-8"/><linearGradient id="linear-gradient-11" x1="891.03" y1="438.67" x2="924.04" y2="438.67" xlink:href="#linear-gradient-8"/><linearGradient id="linear-gradient-12" x1="697.76" y1="766.18" x2="790.18" y2="766.18" gradientTransform="translate(331.51 386.07) rotate(-27.52)" gradientUnits="userSpaceOnUse"><stop offset="0.47" stop-color="#01687f"/><stop offset="1" stop-color="#42cbea"/></linearGradient><linearGradient id="linear-gradient-13" x1="696.12" y1="766.82" x2="788.66" y2="766.82" gradientTransform="translate(331.51 386.07) rotate(-27.52)" gradientUnits="userSpaceOnUse"><stop offset="0.02" stop-color="#fff"/><stop offset="1" stop-color="#42cbea"/></linearGradient><linearGradient id="linear-gradient-14" x1="728.07" y1="633.92" x2="761.86" y2="633.92" gradientTransform="translate(540.13 -29.9)" xlink:href="#linear-gradient-12"/><linearGradient id="linear-gradient-15" x1="728.07" y1="627.49" x2="760.57" y2="627.49" gradientTransform="translate(537.23 -28.88)" xlink:href="#linear-gradient-12"/><linearGradient id="linear-gradient-16" x1="728.72" y1="626.52" x2="761.22" y2="626.52" gradientTransform="translate(536.71 -29.06)" gradientUnits="userSpaceOnUse"><stop offset="0.3" stop-color="#3cc"/><stop offset="0.79" stop-color="#42cbea"/></linearGradient><linearGradient id="linear-gradient-17" x1="725.82" y1="646.63" x2="763.79" y2="646.63" gradientTransform="translate(546.02 -31.26)" xlink:href="#linear-gradient-13"/><linearGradient id="linear-gradient-18" x1="697.5" y1="733.05" x2="787" y2="733.05" gradientTransform="translate(331.51 386.07) rotate(-27.52)" xlink:href="#linear-gradient-16"/><linearGradient id="linear-gradient-19" x1="1719" y1="-1528.85" x2="1901" y2="-1528.85" gradientTransform="translate(-1.92 -1184.19) rotate(90)" gradientUnits="userSpaceOnUse"><stop offset="0" stop-color="#f8fdfe"/><stop offset="0" stop-color="#42cbea"/><stop offset="0.67" stop-color="#f9fdfe"/><stop offset="0.99" stop-color="#70d0e2"/></linearGradient></defs><title>titelscene</title><rect class="cls-1" x="-3.41" y="-0.19" width="1920" height="1080"/><path class="cls-2" d="M1919.59,222.81c1.37,8.63,8.66-1.16,0,0-59.36,7.9-294.24,38.53-465.59,55.58C1327.39,291,702.37,224.16,615.66,190.26a18.32,18.32,0,0,0-1.9-.62C393,133.07,92.44,87.5,16.56,76.4a15.69,15.69,0,0,0-18,15.53V195.14c0,25.43,215.37,12.45,417.42,66.21,515.71,137.21,1497.78,115.94,1498.58,66.46C1915.54,268.8,1917.25,208.05,1919.59,222.81Z"/><path class="cls-3" d="M1704.59,743.81c-30,37-62,142.78-62,142.78-162.43-39.27-384,174.24-502,169.22-328.8,28.06-674-480-827-531s-316,48-316,48v446h1917c-2.13,12.58-.15-395.62,0-421C1914.59,597.81,1734.59,706.81,1704.59,743.81Z"/><path class="cls-4" d="M-3.76,1078.81l1918.78.92c-2.14,19.58.06-589.41.22-628.92,0,0-417,152-135,189,50.33,6.6,102,60,36,66-60.48,5.49,67,84,24,80-161.19-15-13,117-108.67,81-162.43-61.13-310,46.2-428,38.39-328.81,43.68-669.14-47.46-744-99-229.37-99.68-563-117.48-563-117.48Z"/><path class="cls-4" d="M343.13,781.09l-30-1.14s18.35-127.23,9.63-131.48S262.32,587.12,271,555.89c13.08-38.95,57.18-80.06,8.64-1.25-7.73,27.14,45.55,73.77,53.56,83.64S343.13,781.09,343.13,781.09Z"/><path class="cls-4" d="M209.32,765l36.45,7s12.33-103.38,25.15-124.61c3.94-6.53,59.91-58.4,67.64-88.51,8.58-37.71-60.51-110.63-17.71,3-8.08,30.53-44.78,59.86-52.32,68.51S209.32,765,209.32,765Z"/><path class="cls-4" d="M234,737.87l-26.73-13.51s44-77.43,46.52-98.51c.77-6.49-8.82-70.44,1.37-95.08,13.46-30.3,51.41-93,9.77,11-10.17,25.11-1.54,63.81-1.08,73.57S234,737.87,234,737.87Z"/><path class="cls-4" d="M246.51,759.69l-39.68-1.31S232,679,226.65,660.89c-1.63-5.58-39.71-54.37-36.6-78.22,5-29.68,101.95-71.61,16.94,5.41-2.89,24.23,23.77,52.73,28.3,60.55S246.51,759.69,246.51,759.69Z"/><path class="cls-4" d="M240.63,760.55l-44.95-1.49s28.47-89.86,22.45-110.42c-1.85-6.32-56.18-51.93-52.67-78.95,5.68-33.61,28.23-107.84,15.37,5.65-3.28,27.44,45.68,62.58,50.8,71.43S240.63,760.55,240.63,760.55Z"/><path class="cls-4" d="M258.2,765l29.47,4.62S296,684.3,306.05,666.44c3.08-5.49,47.38-49.9,53.15-74.89,6.34-31.25,11.27-101.65-14.22,3-6.05,25.34-35.17,50.62-41.11,58S258.2,765,258.2,765Z"/><path class="cls-4" d="M1875.13,599.09l-30-1.14s18.35-127.23,9.63-131.48-60.45-61.35-51.76-92.58c13.08-38.95,57.18-80.06,8.64-1.25-7.73,27.14,45.55,73.77,53.56,83.64S1875.13,599.09,1875.13,599.09Z"/><path class="cls-4" d="M1741.32,583l36.45,7s12.33-103.38,25.15-124.61c3.94-6.53,59.91-58.4,67.64-88.51,8.58-37.71-60.51-110.63-17.71,3-8.08,30.53-44.78,59.86-52.32,68.51S1741.32,583,1741.32,583Z"/><path class="cls-4" d="M1766,555.87l-26.73-13.51s44-77.43,46.52-98.51c.77-6.49-8.82-70.44,1.37-95.08,13.46-30.3,51.41-93,9.77,11-10.17,25.11-1.54,63.81-1.08,73.57S1766,555.87,1766,555.87Z"/><path class="cls-4" d="M1778.51,577.69l-39.68-1.31S1764,497,1758.65,478.89c-1.63-5.58-39.71-54.37-36.6-78.22,5-29.68,102-71.61,16.94,5.41-2.89,24.23,23.77,52.73,28.3,60.55S1778.51,577.69,1778.51,577.69Z"/><path class="cls-4" d="M1772.63,578.55l-45-1.49s28.47-89.86,22.45-110.42c-1.85-6.32-56.18-51.93-52.67-78.95,5.68-33.61,28.23-107.84,15.37,5.65-3.28,27.44,45.68,62.58,50.8,71.43S1772.63,578.55,1772.63,578.55Z"/><path class="cls-4" d="M1790.2,583l29.47,4.62s8.37-85.31,18.38-103.17c3.08-5.49,47.38-49.9,53.15-74.89,6.34-31.25,11.27-101.65-14.22,3-6,25.34-35.17,50.62-41.11,58S1790.2,583,1790.2,583Z"/><path class="cls-5" d="M632.44,352.91a22.69,22.69,0,0,1,5.06,6.63c.87,2,.92,3.67,0,5s-3,2.14-6,2.5a26.86,26.86,0,0,1-11.23-1.53,29.22,29.22,0,0,1-9-4.51,77.94,77.94,0,0,1-7-6.06c-2.43-2.4-4.37-4.58-6-6.46a69.65,69.65,0,0,1-5.19-6.81,148.62,148.62,0,0,1-12.28-22.51c-3.53-7.62-6.91-15.35-11.1-22.76-.79,8.1-1.54,16.16-1.75,23.94a138.35,138.35,0,0,0,1.05,22.95,82.21,82.21,0,0,0,3.6,16.11c1.73,5.18,3.64,10.08,5.64,14.74a5.61,5.61,0,0,1,.13,4.62A7.64,7.64,0,0,1,575,382.4a13.59,13.59,0,0,1-5.77,1.69,13.26,13.26,0,0,1-6.66-1.24c-14-6.57-25.6-14.21-37-21.87s-22.55-15.47-34.88-22.76c3.53,6.59,7.16,13.17,11,19.67s7.84,12.91,12,19.18c1.37,1.93,3.08,4.26,5.19,7s4.21,5.46,6.33,8.23,4.16,5.45,6.09,8a20.51,20.51,0,0,1,3.62,6.44c.91,2.85.64,5.18-.85,7a10.85,10.85,0,0,1-6.13,3.66,15.44,15.44,0,0,1-8.31-.54,17.61,17.61,0,0,1-7.92-5.58q-6-7.08-11.26-14.28t-10.78-14.55q-12-15.89-23-32.05c-7.37-10.76-14.64-21.73-22.33-32.63a33.19,33.19,0,0,1-4.92-9.39c-1-3.13,0-6.26,3-9.36a12.51,12.51,0,0,1,4.4-3.07,16.4,16.4,0,0,1,5.84-1.32,33.43,33.43,0,0,1,13.63,2.48q6.54,2.7,12.05,5.31a187.21,187.21,0,0,1,17.49,9c5.5,3.22,10.68,6.55,15.62,10,6.17,4.44,12,8.94,17.58,13.4s11.19,9,17,13.46c-.32-2.26-.61-4.54-.88-6.82s-.47-4.58-.6-6.92c-.14-4.09-.27-8.23-.43-12.37s-.22-8.28-.22-12.4c.12-5.44.18-10.75,0-15.86a108.43,108.43,0,0,0-1.47-15.14,43,43,0,0,0-3-11.37,22.52,22.52,0,0,1-2.16-10.54,6.09,6.09,0,0,1,2.88-5.4,16.72,16.72,0,0,1,7.31-2.43,33.12,33.12,0,0,1,9.63.39,28,28,0,0,1,9.22,3.25A77.91,77.91,0,0,1,577,260.41a64.63,64.63,0,0,1,8.21,8.74,73.85,73.85,0,0,1,9.07,15.41c2.37,5.27,4.31,10.83,6.22,16.52,3.24,9.3,6.32,18.57,10.85,27.15a68.37,68.37,0,0,0,19.84,23.58C631.57,352.18,632,352.55,632.44,352.91Z"/><path class="cls-5" d="M665,341c2.92,2.73,4.89,5.11,5.44,7.32s.15,3.88-1.5,5.15-4.33,1.89-7.95,1.86a22.48,22.48,0,0,1-11.79-3.81c-17.22-11-23.87-26.61-26.07-44.56C620.74,289,622.31,270,616,254a13.15,13.15,0,0,1-6.87-1.64,18.25,18.25,0,0,1-5-4.19,20.75,20.75,0,0,1-3.32-5.48,12.54,12.54,0,0,1-1.15-5.46,11.42,11.42,0,0,1,2.11-5.7,42.7,42.7,0,0,1,4.7-5.8,53.81,53.81,0,0,1,5.81-5.22c2-1.59,3.82-2.84,5.37-3.81,6.41-4,15.59-7,28-8.73a146.4,146.4,0,0,1,38.58-.42c12.66,1.66,23.43,5.51,29.7,12s6.53,15.57,1.82,27.12a108.27,108.27,0,0,1-5,9.95,114,114,0,0,1-6.08,9.66A129,129,0,0,1,695,279q-5.06,5.85-10.23,11.17c2.28,2.24,4.53,4.64,6.87,7.16a32,32,0,0,0,8.24,6.32c1.2.67,3,1.75,5.58,3.19s5.29,3,8.26,4.61,6,3.22,9,4.77a32.65,32.65,0,0,1,6.64,4.15,54.84,54.84,0,0,1,6,5.87c1.52,1.83,2.47,3.31,2.55,4.52s-.78,2.06-2.69,2.58-5,.58-9,.13a112.28,112.28,0,0,1-14.61-3c-4.83-1.34-9-2.65-12.64-3.87a112.47,112.47,0,0,1-21-9.4A163.25,163.25,0,0,1,662,306.53a65.28,65.28,0,0,1-7.1,3.65c-2.42,1.06-4.8,2.15-7.12,3.27a47.61,47.61,0,0,0,15.84,26.41C664.07,340.23,664.52,340.6,665,341Zm15.94-112.14a51.56,51.56,0,0,0-22.17.53,50,50,0,0,0-19,8.77c7.89,14.18,6.18,31.44,6,48.4,5.87-2.44,11.68-5.22,17.52-8.34a68.09,68.09,0,0,0,17.09-13.54,54.09,54.09,0,0,0,7.74-10.46,29.21,29.21,0,0,0,3.83-10.67,13.08,13.08,0,0,0-1.95-9C688.23,231.85,685.16,230,680.91,228.83Z"/><path class="cls-5" d="M773.57,303.38a60.06,60.06,0,0,1,5.87,7.77c1.26,2.21,1.91,4,1.52,5.31s-1.68,2.32-4.05,2.92a29.22,29.22,0,0,1-8.94.55,47.64,47.64,0,0,1-11.49-2.3,28.25,28.25,0,0,1-10.74-6.15c-3.08-3-4.21-5.8-4-8.38a10.27,10.27,0,0,1,3.23-6.52,15.23,15.23,0,0,1,6.61-3.65,16.64,16.64,0,0,1,7.58-.28,18,18,0,0,1,7.31,3.46A41.7,41.7,0,0,1,773.57,303.38Z"/><path class="cls-5" d="M949.09,166.45a47.62,47.62,0,0,1,12.81,5c4,2.33,6.81,4.77,8.32,7.29a6.33,6.33,0,0,1,.29,6.86c-1.21,2.07-3.78,3.46-7.32,4.19a117.07,117.07,0,0,1-19.06,1.89c-5.89.05-11,.19-15.41.39-1.61,16.48-18.33,33.53-28.81,50.34s-17.51,34.35.54,50.49c4,3.51,6.81,6.08,7,7.78s-1,2.51-4.26,2.51A50.16,50.16,0,0,1,890,300.62c-5.45-1.68-10.55-4.17-14.18-7.63-15.48-14.52-10.66-31.4-.42-48.61,10-17.21,25.68-34.55,26.58-50.78q-2,.14-6.72.7c-3.17.38-6.61.69-10.35.95s-7.59.33-11.57.23a36.1,36.1,0,0,1-10.61-1.72,11.72,11.72,0,0,1-5.88-4.23,25.9,25.9,0,0,1-3.53-6.13,24.18,24.18,0,0,1-1.7-6,3.61,3.61,0,0,1,2.1-4.17,337.31,337.31,0,0,1,35.66-4.11q18.1-1.12,36.34-2,5.4-.26,10.66-.56c3.51-.2,7.13-.36,10.88-.46Z"/><path class="cls-5" d="M1070,178.29c-.63-2.8-1.12-5.11-.89-6.88s1-2.87,2.67-3.29,4.29-.06,7.72,1.07a40.11,40.11,0,0,1,11.24,6,29.87,29.87,0,0,1,3.46,2.83,10.31,10.31,0,0,1,2.3,2.92,20.08,20.08,0,0,1,1.86,7.86,24.7,24.7,0,0,1-2.26,10.73,41.61,41.61,0,0,1-5.89,9.32c-2.19,2.67-3.54,4.05-3.64,4.18-6.26,6.81-14.29,13.47-22.14,20.18s-15.72,13.54-21.83,20.56A65.56,65.56,0,0,0,1032,269.09a69.4,69.4,0,0,0-4.54,12.71,66.2,66.2,0,0,1-2.94,9.62,12.1,12.1,0,0,1-6.31,6.29,12.92,12.92,0,0,1-4.66,1.26,44.9,44.9,0,0,1-6,.21c-6.13-.19-14.42-1.67-24.11-4.31-11.16-3.2-22.59-8.2-29.68-15.25s-9.66-15.06-7.12-24.11,9.2-18.32,17.22-27.61,15-17.35,19-24.32a48.8,48.8,0,0,0,4.15-8.69,27.37,27.37,0,0,0,1.63-8.71,25.37,25.37,0,0,0-1.08-6.47c-.7-2.26-1.48-4.42-2.3-6.47a19.8,19.8,0,0,1-1.54-5.34c-.12-1.51.71-2.53,2.82-3.07a15.29,15.29,0,0,1,5.81.46,49.85,49.85,0,0,1,7.9,2.48,43.44,43.44,0,0,1,7.43,3.85,14.23,14.23,0,0,1,4.81,4.75,22.67,22.67,0,0,1,2.12,5.3,20.93,20.93,0,0,1,.58,3.51,14.73,14.73,0,0,1-.1,3.17,36.73,36.73,0,0,1-.82,4.29c-2.59,9-9.77,17.73-17.61,26.57s-16,17.72-21.18,26.63a40.23,40.23,0,0,0-4.82,11.52,12.06,12.06,0,0,0,2,10.24,15.26,15.26,0,0,0,8.16,5.42A25.4,25.4,0,0,0,991,274a26.61,26.61,0,0,0,9.47-2.92,27.91,27.91,0,0,0,8-6.37c2.4-2.66,5-5.8,8-9.38s6.43-7.28,10.15-11.08,7.67-7.54,11.58-11.23,7.61-7.05,10.86-10.13q5.88-5.37,9.53-9.22a79.32,79.32,0,0,0,7.71-9.3,33.3,33.3,0,0,0,4.39-8.3,26.6,26.6,0,0,0,1.52-8.54A21.08,21.08,0,0,0,1070,178.29Z"/><path class="cls-5" d="M1090.09,293.55c1.57,3.65,2.68,6.61,2.66,8.83s-.64,3.55-2.44,4-4.56-.24-8.24-1.89a31.32,31.32,0,0,1-11.11-8.61c-14.11-17.14-7.88-33,7.19-48.6,14.74-15.64,36.54-30,43.08-46a8.56,8.56,0,0,1-3.92-4.24,20.77,20.77,0,0,1-1.43-5.68,45.15,45.15,0,0,1-.3-6.16,18.42,18.42,0,0,1,.62-5.32,8.74,8.74,0,0,1,3-4.21,26.1,26.1,0,0,1,5.09-3.2,32.83,32.83,0,0,1,6-2.24,42.23,42.23,0,0,1,5.58-1.12c6.62-.9,16.31.5,28.53,4.37s24.69,9.51,34.77,16.44,16.79,14.84,17.66,23-5.16,15.88-17.28,23.51c-3.45,2.11-7.23,4.15-11.26,6.16s-8.09,3.82-12.11,5.44c-6,2.51-11.87,4.65-17.62,6.43s-11.45,3.41-17.09,4.87c.22,2.82.37,5.78.59,8.89a20.2,20.2,0,0,0,2.86,8.87c.61,1.09,1.49,2.78,2.85,5.12s2.79,4.84,4.41,7.52,3.28,5.34,5,8a24.51,24.51,0,0,1,3.29,6.44,50.65,50.65,0,0,1,1.68,7.63c.27,2.24.29,3.94-.27,5s-1.71,1.45-3.65,1.07-4.7-1.7-8.1-3.88a110.54,110.54,0,0,1-11.74-9.05c-3.69-3.29-6.76-6.24-9.42-8.9a78.27,78.27,0,0,1-13.21-17.13,66,66,0,0,1-6.14-15.72q-4.56.22-8.86,0c-2.87-.15-5.72-.24-8.56-.29-5.82,9.16-7.75,18.74-2.88,29.11C1089.56,292.52,1089.82,293,1090.09,293.55Zm95.68-86.39a38.84,38.84,0,0,0-17.41-8.83,45.85,45.85,0,0,0-19.52-.45c-2,15.44-19.7,28.43-35.2,42.1q9.81.66,20.45.48a100.06,100.06,0,0,0,24.33-3.93,86.26,86.26,0,0,0,14.28-5.34,45.67,45.67,0,0,0,11.11-7.19c2.84-2.62,4.56-5.39,5.09-8.31S1188.32,209.9,1185.77,207.16Z"/><path class="cls-5" d="M1332.37,221.91a26.67,26.67,0,0,1,7.49,8.15,15.42,15.42,0,0,1,2.43,8.88,8.23,8.23,0,0,1-3.63,6.27c-2.14,1.51-5.07,2-8.58,1.57a104.69,104.69,0,0,1-17.85-4.26q-7.9-2.73-13.88-4.52c-8.9,14.89-28.23,26.41-43.17,39.11s-28,26.89-24.09,46.66c.92,4.32,1.16,7.34-.16,8.78s-3.21,1.68-6.11.59a33.57,33.57,0,0,1-9.91-6.57c-3.59-3.25-6.32-7.1-7.23-11.34-4-17.89,7.46-32,23-44.87,15.37-13,34.94-24.63,43.26-39.44-1.2-.33-3.28-.84-6.24-1.49s-6.13-1.47-9.53-2.44a105.87,105.87,0,0,1-10.25-3.48,28.28,28.28,0,0,1-8.43-5,9,9,0,0,1-3-5.77,23.69,23.69,0,0,1,1.76-12.76,4.87,4.87,0,0,1,4.27-3.06,326.13,326.13,0,0,1,34.28,7.91q16.88,4.88,33.92,10,5.05,1.53,10.06,3T1331,221Z"/><path class="cls-5" d="M1355.61,348.27a16.6,16.6,0,0,1,3.8,8.18,14.45,14.45,0,0,1-.84,7.75,13.69,13.69,0,0,1-4.49,5.81,11.63,11.63,0,0,1-7.77,2.16,17,17,0,0,1-5-1.32c-2.13-.82-5.07-2-8.84-3.57s-8.55-3.49-14.35-5.77-13-4.95-21.52-7.9q-3.16-.94-6.56-2.14a15.27,15.27,0,0,1-6.57-5.22,20.11,20.11,0,0,1-4-8.19,26.07,26.07,0,0,1-.5-9.76,30.06,30.06,0,0,1,2.87-9.08,57.28,57.28,0,0,1,4.16-7,75,75,0,0,1,10.42-11.94,194.44,194.44,0,0,1,15.12-12.69c5.44-4.19,10.91-8.25,16-12.33a145.09,145.09,0,0,0,12.59-11.12,52.48,52.48,0,0,0,15.06-25.44c.73-2.52,1.37-4.32,2.36-5.25a7.33,7.33,0,0,1,4.09-1.82,9.67,9.67,0,0,1,5.34,1.12,24,24,0,0,1,5.84,3.93,20.21,20.21,0,0,1,4.41,5.73,9.39,9.39,0,0,1,1,6.2c-3.38,17-18.94,29.18-34.59,41.26s-31.56,24.17-38.65,39.4q12.32,4.39,24.65,8.84t25,9.29Z"/><path class="cls-5" d="M1450.9,387.9a11.47,11.47,0,0,1,4.59,5,11.85,11.85,0,0,1,1.07,5.82,10.7,10.7,0,0,1-2.3,5.71,16.12,16.12,0,0,1-6,4.64,18.43,18.43,0,0,1-4.74,1.52,11.1,11.1,0,0,1-4.81.21,140.54,140.54,0,0,1-26.15-8.3,160.69,160.69,0,0,1-23.11-12.35q-3.18-2.06-7-4.37a17.88,17.88,0,0,1-6.09-6c-2.72-4.47-3.21-9.21-.68-13.94,14.26-27.33,46.82-46.3,67.15-70.82a10.83,10.83,0,0,1-.63-5.08,15.77,15.77,0,0,1,1.53-5.38,15.31,15.31,0,0,1,3.42-4.64,11.6,11.6,0,0,1,5.2-2.74,21.38,21.38,0,0,1,10.64-.2c3.67.85,7.24,1.78,10.73,2.82a131.16,131.16,0,0,1,21.15,8.48q10.23,5.17,20.86,10.57a77.78,77.78,0,0,0,7.52,3.4,16.43,16.43,0,0,1,6.72,4.54,10.25,10.25,0,0,1,2.59,7,12.54,12.54,0,0,1-2.32,6.83,15.25,15.25,0,0,1-6.08,5,16.26,16.26,0,0,1-9,1.34,28.11,28.11,0,0,1-10.89-3.7q-5-2.94-9.65-5.41-6.86-3.63-13.91-7a130.26,130.26,0,0,0-14.72-5.92c-6.58,8-14.26,15.54-22.13,22.94a147.27,147.27,0,0,0,13.42,6.71q7,3.08,14.13,6.08,3.11,1.4,6.37,2.63a26.28,26.28,0,0,1,6,3.26q3.56,2.68,3.43,6.42a12.71,12.71,0,0,1-2.49,7.09,16.74,16.74,0,0,1-6.84,5.44,16.33,16.33,0,0,1-9.51,1.32,47.48,47.48,0,0,1-10.42-3q-6.11-2.38-12.49-5.33t-12.38-5.94c-4-2-7.3-3.7-9.9-5.14a197.1,197.1,0,0,0-18.58,20.8,120.74,120.74,0,0,0,21.07,11.06,192.61,192.61,0,0,0,23.84,8Z"/><ellipse class="cls-6" cx="1648.5" cy="116.32" rx="31.35" ry="10.24"/><polygon class="cls-6" points="1694.87 133.35 1676.13 116 1693.92 96.81 1694.87 133.35"/><ellipse class="cls-6" cx="1683.91" cy="145.97" rx="20.2" ry="6.6"/><polygon class="cls-6" points="1713.79 156.94 1701.71 145.76 1713.17 133.4 1713.79 156.94"/><ellipse class="cls-6" cx="1680.41" cy="174.03" rx="22.28" ry="7.64"/><polygon class="cls-6" points="1713.37 186.74 1700.05 173.79 1712.69 159.47 1713.37 186.74"/><ellipse class="cls-6" cx="1742.44" cy="173.86" rx="19.13" ry="6.25"/><polygon class="cls-6" points="1770.74 184.26 1759.3 173.67 1770.16 161.95 1770.74 184.26"/><ellipse class="cls-6" cx="1728.57" cy="112.13" rx="20.78" ry="6.79"/><polygon class="cls-6" points="1759.31 123.42 1746.88 111.92 1758.67 99.19 1759.31 123.42"/><ellipse class="cls-6" cx="1601.94" cy="157.92" rx="31.35" ry="10.24"/><polygon class="cls-6" points="1648.31 174.95 1629.57 157.6 1647.36 138.4 1648.31 174.95"/><ellipse class="cls-6" cx="461.09" cy="431.15" rx="24.75" ry="8.09"/><polygon class="cls-6" points="424.48 444.6 439.28 430.9 425.24 415.75 424.48 444.6"/><ellipse class="cls-6" cx="433.14" cy="454.56" rx="15.95" ry="5.21"/><polygon class="cls-6" points="409.55 463.22 419.08 454.39 410.04 444.63 409.55 463.22"/><ellipse class="cls-6" cx="435.9" cy="476.71" rx="17.59" ry="6.03"/><polygon class="cls-6" points="409.88 486.74 420.4 476.52 410.42 465.21 409.88 486.74"/><ellipse class="cls-6" cx="386.94" cy="476.57" rx="15.1" ry="4.94"/><polygon class="cls-6" points="364.59 484.78 373.62 476.42 365.05 467.17 364.59 484.78"/><ellipse class="cls-6" cx="397.89" cy="427.84" rx="16.41" ry="5.36"/><polygon class="cls-6" points="373.62 436.76 383.42 427.68 374.12 417.63 373.62 436.76"/><ellipse class="cls-6" cx="497.84" cy="463.99" rx="24.75" ry="8.09"/><polygon class="cls-6" points="461.24 477.43 476.03 463.73 461.99 448.58 461.24 477.43"/><circle class="cls-5" cx="510.59" cy="182.81" r="16"/><circle class="cls-5" cx="526.09" cy="211.31" r="9.5"/><circle class="cls-5" cx="516.59" cy="240.81" r="8"/><circle class="cls-5" cx="985.59" cy="73.81" r="16"/><circle class="cls-5" cx="1001.09" cy="102.31" r="9.5"/><circle class="cls-5" cx="991.59" cy="131.81" r="8"/><circle class="cls-5" cx="1355.59" cy="125.81" r="16"/><circle class="cls-5" cx="1340.09" cy="154.31" r="9.5"/><circle class="cls-5" cx="1349.59" cy="183.81" r="8"/><circle class="cls-5" cx="1177.4" cy="342.41" r="16"/><circle class="cls-5" cx="1168.04" cy="373.48" r="9.5"/><circle class="cls-5" cx="1183.35" cy="400.42" r="8"/><circle class="cls-5" cx="815.59" cy="333.81" r="16"/><circle class="cls-5" cx="831.09" cy="362.31" r="9.5"/><circle class="cls-5" cx="821.59" cy="391.81" r="8"/><path class="cls-7" d="M353.64,213.42a3.34,3.34,0,0,1-1.3,1.9c-.82.75-1.42,1.13-1.78,1.13a5.12,5.12,0,0,0-.94.05v13.86a18.43,18.43,0,0,1,.55,2c.33,2.34.06,3.72-.82,4.12a2.47,2.47,0,0,1-.83.11,12.82,12.82,0,0,1-4.95-1.37q-3.24-1.44-4-2.86c0-.33-.09-.83-.16-1.49-.08-.25.05-.6.38-1a2.47,2.47,0,0,0,.5-.83V217.93c-.7.08-2.08.35-4.13.83a34.79,34.79,0,0,0-4.07,1.1V231a1.69,1.69,0,0,0,.36.91,2.49,2.49,0,0,1,.41.8c-.15.58-.27,1.15-.38,1.7a1.05,1.05,0,0,1-.61.77q-.89.33-4.92-1c-2.7-.89-4.12-1.62-4.26-2.17a3.77,3.77,0,0,1-.11-1.32,11.76,11.76,0,0,0,.16-1.54V194a16,16,0,0,1,.5-3c.07-.37.69-.88,1.87-1.54a1.68,1.68,0,0,1,.6-.06A15.24,15.24,0,0,1,330,190c1.94.59,3,1.36,3.08,2.31a4.94,4.94,0,0,1-.47,1.87,6.59,6.59,0,0,0-.52,1.87v13.42c2.49-.62,5.23-1.26,8.2-1.92V192.19a5.79,5.79,0,0,0-.25-.82,2.1,2.1,0,0,1-.14-1.16c.18-.66.79-1.08,1.82-1.26.77-.11,1.54-.2,2.31-.28a8,8,0,0,1,3.54.72c1.56.58,2.43,1.21,2.62,1.87a1.83,1.83,0,0,1-.22,1.15,4.26,4.26,0,0,0-.39,1.54v15.18c.18.22,1.05,1,2.59,2.37C353.2,212.38,353.67,213,353.64,213.42Z"/><path class="cls-7" d="M379.81,225q.49.83-2.14,4.9a17.89,17.89,0,0,1-5.61,5.88,2.29,2.29,0,0,1-1,.17,16.71,16.71,0,0,1-5.61-1.32c-2.46-.88-4.07-1.84-4.84-2.86q-3.19-4.12-3.19-11.44a25.64,25.64,0,0,1,2.8-12.21q3-5.78,7.7-5.89a11,11,0,0,1,4.13.88,13.52,13.52,0,0,1,4.89,3.14,6.84,6.84,0,0,1,.94,3,25.05,25.05,0,0,1,.55,5.17q0,3.73-1.21,5.17a42.72,42.72,0,0,1-11.55,2,19.64,19.64,0,0,0,.66,5.67c.51,2,1,3,1.59,3,.74,0,1.62-.57,2.64-1.81a8.2,8.2,0,0,0,1.71-2.7,28.47,28.47,0,0,1,1-3.41,9.32,9.32,0,0,1,3.47.88C378.51,223.87,379.52,224.46,379.81,225ZM370,208.14q-.93-.1-2.61,3a15.52,15.52,0,0,0-2,5.89,7.13,7.13,0,0,0,4-1.21c.59-.44.88-2.28.88-5.5C370.3,208.93,370.21,208.22,370,208.14Z"/><path class="cls-7" d="M394.39,191.81a3.1,3.1,0,0,1-.25,1c-.16.44-.27.72-.3.83a25.39,25.39,0,0,0-.66,3.41v33.77a2.16,2.16,0,0,0,.33,1.18,1.74,1.74,0,0,1,.33.85c0,2.35-.44,3.61-1.32,3.8a25.83,25.83,0,0,1-7.1-2.09,2.83,2.83,0,0,1-1.21-1.93.87.87,0,0,1,.22-.49,1.53,1.53,0,0,0,.22-.94V192.47a1.44,1.44,0,0,0-.19-.69,1.44,1.44,0,0,1-.19-.69c.07-.88.75-1.46,2-1.76a11.88,11.88,0,0,1,2.31,0,17,17,0,0,1,3.52.61C393.64,190.38,394.39,191,394.39,191.81Z"/><path class="cls-7" d="M412.76,235.31a2.43,2.43,0,0,1-1.05.28q-1.43,0-4.78-3.36v10.62a7.66,7.66,0,0,0,.49,1.56,5.09,5.09,0,0,1,.44,1.68c0,.77-.51,1.16-1.54,1.16a15.91,15.91,0,0,1-4-.77c-1.07-.33-2.13-.68-3.19-1a2,2,0,0,1-1.6-1.7,5.39,5.39,0,0,1,.42-2.15,13.8,13.8,0,0,0,.52-1.81V204a5.73,5.73,0,0,0-.28-2.31c-.55-.91-.71-1.56-.49-1.92s.62-.44,1.43-.44a21.56,21.56,0,0,1,3.79.49c1.95.41,3,.61,3.14.61a1.83,1.83,0,0,1,1.43,1.32,3.69,3.69,0,0,1,0,.77,50.15,50.15,0,0,1-.66,6.71q1.32-2.64,2.64-5.23c1.18-2.24,2.26-3.26,3.25-3.08q10.77,2.26,10.78,13.42A27.12,27.12,0,0,1,420.16,227Q416.77,233.45,412.76,235.31Zm-1.21-25.57q-2-.23-4.46,19.85,3.09-1.36,5.59-6.05a18.64,18.64,0,0,0,2.5-8.69C415.18,211.74,414,210,411.55,209.74Z"/><path class="cls-7" d="M1240.44,458.08c2,1,3.57,2.88,4.67,5.78a26.59,26.59,0,0,1,1.48,9.35,30.25,30.25,0,0,1-2.53,12.87q-2.79,5.82-7,5.28c-1-.26-2.57-.57-4.62-.94a24.58,24.58,0,0,1-4.07-.82q-3.14-.83-5-5.34a26,26,0,0,1-1.7-9.79,28.76,28.76,0,0,1,1.76-10.28q2-5.07,5.55-7.1a3.5,3.5,0,0,1,1.65-.33,25.17,25.17,0,0,1,4.35.72A32.47,32.47,0,0,1,1240.44,458.08Zm-6.16,4.95q-1.48,0-2.75,3.6a20.74,20.74,0,0,0-1.27,6.91,32.66,32.66,0,0,0,.94,7.81c.69,2.78,1.5,4.29,2.42,4.51q1.76.38,3.13-4a30.61,30.61,0,0,0,1.32-9.24,22.37,22.37,0,0,0-.71-5.56Q1236.37,463,1234.28,463Z"/><path class="cls-7" d="M1276.46,458.19a2,2,0,0,1,.38,1.1,2.24,2.24,0,0,1-.63,1.32,2.72,2.72,0,0,0-.63,1v25.58a3.52,3.52,0,0,0,.36,1.15,3.64,3.64,0,0,1,.35,1.21c0,.66-.56,1.14-1.7,1.43a11.46,11.46,0,0,1-4.13-.6c-2.34-.59-3.63-1.18-3.85-1.76a2.88,2.88,0,0,1,.17-1.93,6.63,6.63,0,0,0,.55-2,8.3,8.3,0,0,0-.17-1.43,17.17,17.17,0,0,1-2.31,4.9c-1.21,1.68-2.42,2.53-3.63,2.53a13.22,13.22,0,0,1-4.84-1.27c-2-.84-3.11-1.61-3.41-2.31q-1.53-3.51-1.54-26A5.45,5.45,0,0,1,1251,459a2.32,2.32,0,0,1,1.27-2.31,3.87,3.87,0,0,1,1.37-.17,20.58,20.58,0,0,1,4.46.58,7,7,0,0,1,3.13,1.18,1.07,1.07,0,0,1,.28.72,4.62,4.62,0,0,1-.83,2,4.56,4.56,0,0,0-.82,1.95q-.11,21.68.33,21.84.77.27,3.88-5.09t3.1-8.17V461.22a2.43,2.43,0,0,1-.71-1.76,2.89,2.89,0,0,1,1.87-2.92,1.57,1.57,0,0,1,.66-.11,20.17,20.17,0,0,1,4.34.69C1275.23,457.58,1276.28,457.94,1276.46,458.19Z"/><path class="cls-7" d="M1301.37,462.65a3,3,0,0,1-.66,1.76,1.7,1.7,0,0,1-1.32.77,1.12,1.12,0,0,1-.38-.06,13.47,13.47,0,0,0-3.47-.27v21.72a8.82,8.82,0,0,1,.36.88,4.74,4.74,0,0,1,.36,1.65c0,1.06-.74,1.63-2.2,1.71a14.65,14.65,0,0,1-4.24-1c-2.23-.74-3.43-1.41-3.57-2a3.2,3.2,0,0,1,.38-1.62,5.71,5.71,0,0,0,.5-1.9V464.79h-1.87c-.7,0-1.56-.61-2.59-1.84a5.37,5.37,0,0,1-1.54-2.94,2.08,2.08,0,0,1,.64-1.49,1.89,1.89,0,0,1,1.4-.66h4v-4.95a3.86,3.86,0,0,1-.83-2.36,1.31,1.31,0,0,1,1-1.43,6.26,6.26,0,0,1,1.38-.11,21.59,21.59,0,0,1,4.76.63,10,10,0,0,1,3.54,1.29,1,1,0,0,1,.39.77,3.29,3.29,0,0,1-.88,1.65,4.31,4.31,0,0,0-.94,1.54v3h1.76q.56,0,2.31,2C1300.79,461.16,1301.37,462.1,1301.37,462.65Z"/><path class="cls-7" d="M1335.47,458.08c2,1,3.58,2.88,4.68,5.78a26.59,26.59,0,0,1,1.48,9.35,30.25,30.25,0,0,1-2.53,12.87q-2.8,5.82-7,5.28c-1-.26-2.57-.57-4.62-.94a24.37,24.37,0,0,1-4.07-.82q-3.14-.83-5-5.34a26,26,0,0,1-1.7-9.79,28.54,28.54,0,0,1,1.76-10.28q2-5.07,5.55-7.1a3.5,3.5,0,0,1,1.65-.33,25.32,25.32,0,0,1,4.35.72A32.27,32.27,0,0,1,1335.47,458.08Zm-6.16,4.95c-1,0-1.9,1.2-2.75,3.6a21,21,0,0,0-1.26,6.91,33.17,33.17,0,0,0,.93,7.81c.7,2.78,1.51,4.29,2.42,4.51,1.18.25,2.22-1.07,3.14-4a30.61,30.61,0,0,0,1.32-9.24,21.92,21.92,0,0,0-.72-5.56C1331.73,464.39,1330.71,463,1329.31,463Z"/><path class="cls-7" d="M1364.46,448.29a3,3,0,0,1-.5,1.87q-.6,1.05-1.26,1a1.85,1.85,0,0,1-1-.58,2.33,2.33,0,0,0-1.15-.63q-2.54-.44-2.53,4.68v1.7c0,.74,0,1.25,0,1.54h1.76c.41,0,1.19.66,2.37,2s1.74,2.26,1.7,2.81a3.05,3.05,0,0,1-.66,1.76,1.7,1.7,0,0,1-1.32.77,1.08,1.08,0,0,1-.38-.06,13,13,0,0,0-3.47-.27v21.72a2.21,2.21,0,0,0,.47,1.13,1.59,1.59,0,0,1,.36,1.18,2.21,2.21,0,0,1-2.31,1.93,15.08,15.08,0,0,1-4.24-1c-2.24-.74-3.43-1.41-3.57-2a3.2,3.2,0,0,1,.38-1.62,5.71,5.71,0,0,0,.5-1.9V464.79h-1.87c-.7,0-1.55-.61-2.56-1.84a5.34,5.34,0,0,1-1.51-2.94,2.16,2.16,0,0,1,.6-1.49,1.84,1.84,0,0,1,1.38-.66h4a33.69,33.69,0,0,1,.71-8.41,6.81,6.81,0,0,1,7.1-5.17c.47,0,.95,0,1.43.05a7.65,7.65,0,0,1,3.74,1.82C1363.76,447.06,1364.38,447.78,1364.46,448.29Z"/><path class="cls-7" d="M1404.83,488.39a2.54,2.54,0,0,1-1.21,2,3.93,3.93,0,0,1-1.38.17,21.14,21.14,0,0,1-4.45-.58,7.8,7.8,0,0,1-3.14-1.13,1,1,0,0,1-.22-.66,5.64,5.64,0,0,1,.5-1.65l.71-1a2.2,2.2,0,0,0,.39-1.35q.1-21.66-.33-21.83-.83-.29-3.8,4c-2.13,3.05-3.19,5.48-3.19,7.32V486a2.41,2.41,0,0,1,.61,2.31,3,3,0,0,1-1.76,2.31,1.61,1.61,0,0,1-.66.11,20.33,20.33,0,0,1-4.35-.69,10,10,0,0,1-3.13-1,2,2,0,0,1-.11-2,1.84,1.84,0,0,1,.52-.58,1.14,1.14,0,0,0,.47-.8V446.7a2.45,2.45,0,0,0-.44-1.16,1.44,1.44,0,0,1-.28-1.21,2.11,2.11,0,0,1,1.71-1.48,11.41,11.41,0,0,1,4.12.6c2.35.59,3.63,1.19,3.85,1.82a3,3,0,0,1-.16,1.81,9.81,9.81,0,0,0-.39,3v10.29q3.07-3.91,5.94-3.91a12.88,12.88,0,0,1,4.84,1.29c2,.87,3.12,1.65,3.41,2.34q1.55,3.53,1.54,26A4.23,4.23,0,0,1,1404.83,488.39Z"/><path class="cls-7" d="M1420.17,488.5a2,2,0,0,1-1.37,2.47,3.86,3.86,0,0,1-.77.06,18.64,18.64,0,0,1-4.9-.83c-2.09-.59-3.32-1.21-3.68-1.87-.19-.29,0-.86.49-1.7a6.42,6.42,0,0,0,.5-3V460.5a11.89,11.89,0,0,1-.66-2.8c0-.48.68-.72,2-.72a15.15,15.15,0,0,1,4.59,1c2,.68,3.15,1.27,3.55,1.79a.88.88,0,0,1,.17.55,4.59,4.59,0,0,1-.64,1.65,4.48,4.48,0,0,0-.63,1.81v22.11a2.49,2.49,0,0,0,.63,1.38A3.16,3.16,0,0,1,1420.17,488.5Zm.17-38a1.37,1.37,0,0,1,.05.44,13.2,13.2,0,0,1-.49,3.14q-.56,2.08-1.05,2.31c-.37.14-1.94-.25-4.73-1.19s-4.27-1.6-4.45-2a1.66,1.66,0,0,1-.17-.83,7.45,7.45,0,0,1,.77-3.13c.59-1.25,1.25-2,2-2.09s2.31.17,4.4,1S1420,449.69,1420.34,450.49Z"/><path class="cls-7" d="M1444.1,484.15a6.2,6.2,0,0,1-2,4.84,8.33,8.33,0,0,1-5.64,1.87,7.64,7.64,0,0,1-1.92-.27c-1.25-.33-1.91-.52-2-.55l-2-.47a4.19,4.19,0,0,1-1.73-.85,13.53,13.53,0,0,1-2.37-3c-.62-1-1.23-2.07-1.81-3.13a7.13,7.13,0,0,1-.88-1.93c0-.51.36-.9,1.1-1.15a2.82,2.82,0,0,1,1-.11,31.57,31.57,0,0,1,4.15.35,8.28,8.28,0,0,1,2.72.61,12.56,12.56,0,0,1,.61,3.16c.22,1.69.6,2.53,1.15,2.53.84,0,1.27-1.13,1.27-3.41,0-2.89-.77-4.71-2.31-5.44q-5.28-2.48-6.93-4.4-2-2.37-2-7.15a11.44,11.44,0,0,1,1.65-5.92,6.47,6.47,0,0,1,3.91-3.32c.66-.15,2.78.55,6.38,2.09q.49.16,2.91.6a4.17,4.17,0,0,1,2.42,1.16,6.91,6.91,0,0,1,1.21,4c0,1.36.06,2.72.06,4.07a20.45,20.45,0,0,1,.38,2.2,1.57,1.57,0,0,1-1.48,1.76,8.57,8.57,0,0,1-3-.6,6.69,6.69,0,0,1-3.13-1.71,23.31,23.31,0,0,1-.33-4.12c-.11-2.46-.37-3.69-.77-3.69-.55,0-1.07.72-1.54,2.15a13.88,13.88,0,0,0-.72,4.45c0,1.95.42,3.17,1.27,3.69l5.36,3a10.65,10.65,0,0,1,3.71,3.11A10.08,10.08,0,0,1,1444.1,484.15Z"/><path class="cls-7" d="M1485.35,488.39a2.52,2.52,0,0,1-1.22,2,3.83,3.83,0,0,1-1.37.17,21.14,21.14,0,0,1-4.45-.58,7.8,7.8,0,0,1-3.14-1.13,1,1,0,0,1-.22-.66,5.64,5.64,0,0,1,.5-1.65l.71-1a2.2,2.2,0,0,0,.38-1.35q.12-21.66-.33-21.83c-.54-.19-1.81,1.15-3.79,4-2.13,3.05-3.19,5.48-3.19,7.32V486a2.41,2.41,0,0,1,.61,2.31,3,3,0,0,1-1.76,2.31,1.61,1.61,0,0,1-.66.11,20.33,20.33,0,0,1-4.35-.69,10,10,0,0,1-3.13-1,2,2,0,0,1-.11-2,1.84,1.84,0,0,1,.52-.58,1.14,1.14,0,0,0,.47-.8V446.7a2.38,2.38,0,0,0-.45-1.16,1.47,1.47,0,0,1-.27-1.21,2.11,2.11,0,0,1,1.71-1.48,11.41,11.41,0,0,1,4.12.6c2.35.59,3.63,1.19,3.85,1.82a3,3,0,0,1-.16,1.81,9.81,9.81,0,0,0-.39,3v10.29q3.07-3.91,5.94-3.91a12.88,12.88,0,0,1,4.84,1.29c2,.87,3.12,1.65,3.41,2.34q1.55,3.53,1.54,26A4.23,4.23,0,0,1,1485.35,488.39Z"/><path class="cls-7" d="M1515.16,458.19a2,2,0,0,1,.38,1.1,2.24,2.24,0,0,1-.63,1.32,2.72,2.72,0,0,0-.63,1v25.58a3.43,3.43,0,0,0,.35,1.15,3.48,3.48,0,0,1,.36,1.21c0,.66-.57,1.14-1.7,1.43a11.44,11.44,0,0,1-4.13-.6c-2.35-.59-3.63-1.18-3.85-1.76a2.86,2.86,0,0,1,.16-1.93,6.75,6.75,0,0,0,.56-2,8.3,8.3,0,0,0-.17-1.43,17.17,17.17,0,0,1-2.31,4.9c-1.21,1.68-2.42,2.53-3.63,2.53a13.18,13.18,0,0,1-4.84-1.27c-2-.84-3.12-1.61-3.41-2.31q-1.55-3.51-1.54-26a5.45,5.45,0,0,1-.44-2.09,2.3,2.3,0,0,1,1.27-2.31,3.83,3.83,0,0,1,1.37-.17,20.66,20.66,0,0,1,4.46.58,7,7,0,0,1,3.13,1.18,1.12,1.12,0,0,1,.28.72,4.62,4.62,0,0,1-.83,2,4.62,4.62,0,0,0-.83,1.95q-.11,21.68.33,21.84.78.27,3.88-5.09t3.11-8.17V461.22a2.4,2.4,0,0,1-.72-1.76,2.89,2.89,0,0,1,1.88-2.92,1.54,1.54,0,0,1,.66-.11,20.26,20.26,0,0,1,4.34.69C1513.93,457.58,1515,457.94,1515.16,458.19Z"/><path class="cls-7" d="M1541.22,460.45a1.24,1.24,0,0,1-.6,1.43c-.44.22-.86.46-1.27.71q-3.46,5.28-9.4,14.25c0,5.83,0,8.83,0,9s.18.65.42,1.4a6.57,6.57,0,0,1,.35,1.79,1.43,1.43,0,0,1-.93,1.43,4.14,4.14,0,0,1-1.65.27,13.49,13.49,0,0,1-4.62-.93c-2.13-.74-3.19-1.67-3.19-2.81a5.05,5.05,0,0,1,.44-1.59,5.25,5.25,0,0,0,.44-1.82V461.82c-.4-2.05-.61-3.11-.61-3.19a2,2,0,0,1,1.54-2.14,6.7,6.7,0,0,1,1.6-.17,14.17,14.17,0,0,1,4,.63c1.41.43,2.25.88,2.5,1.35a1.15,1.15,0,0,1,.11.55,18.78,18.78,0,0,1-.77,2.64v2.64c.88-1.57,1.75-3.15,2.59-4.73,1.14-2,2-3,2.53-3.13.81-.15,2,.33,3.68,1.43S1541,459.71,1541.22,460.45Z"/><path class="cls-7" d="M1567,447.3a5.34,5.34,0,0,1-.41,2.15,13,13,0,0,0-.53,1.81v35.86a5.34,5.34,0,0,0,.28,2.26c.55.95.71,1.59.49,1.92s-.66.44-1.43.44a22.65,22.65,0,0,1-3.85-.49c-1.94-.41-3-.61-3.08-.61a1.74,1.74,0,0,1-1.43-1.32,2.81,2.81,0,0,1,0-.71,54.87,54.87,0,0,1,.6-6.71q-1.32,2.64-2.58,5.28-1.82,3.24-3.25,3-10.83-2.2-10.83-13.31a27.35,27.35,0,0,1,3.46-12.87q3.36-6.33,7.37-8.25a2.3,2.3,0,0,1,1-.28q1.38,0,4.78,3.41V448.18a7.88,7.88,0,0,0-.49-1.57,5.32,5.32,0,0,1-.44-1.67c0-.77.51-1.16,1.54-1.16a15.31,15.31,0,0,1,4,.77q1.65.56,3.24,1.05A2,2,0,0,1,1567,447.3Zm-9.57,14.19c-2.06.92-3.91,2.94-5.58,6.05a18.61,18.61,0,0,0-2.51,8.69c0,3.12,1.21,4.82,3.63,5.12Q1554.93,481.56,1557.45,461.49Z"/><path class="cls-7" d="M1582.31,446.81a3.1,3.1,0,0,1-.25,1c-.16.44-.27.72-.3.83a25.39,25.39,0,0,0-.66,3.41v33.77a2.16,2.16,0,0,0,.33,1.18,1.74,1.74,0,0,1,.33.85c0,2.35-.44,3.61-1.32,3.8a25.83,25.83,0,0,1-7.1-2.09,2.83,2.83,0,0,1-1.21-1.93.87.87,0,0,1,.22-.49,1.53,1.53,0,0,0,.22-.94V447.47a1.44,1.44,0,0,0-.19-.69,1.44,1.44,0,0,1-.19-.69c.07-.88.75-1.46,2-1.76a11.88,11.88,0,0,1,2.31,0,17,17,0,0,1,3.52.61C1581.56,445.38,1582.31,446,1582.31,446.81Z"/><path class="cls-7" d="M1608.43,480q.49.82-2.14,4.9a17.89,17.89,0,0,1-5.61,5.88,2.29,2.29,0,0,1-1,.17,16.71,16.71,0,0,1-5.61-1.32c-2.46-.88-4.07-1.84-4.84-2.86q-3.2-4.12-3.19-11.44a25.64,25.64,0,0,1,2.8-12.21q3-5.77,7.7-5.89a11.07,11.07,0,0,1,4.13.88,13.52,13.52,0,0,1,4.89,3.14,7,7,0,0,1,.94,3,25.76,25.76,0,0,1,.55,5.17c0,2.49-.41,4.21-1.21,5.17a42.72,42.72,0,0,1-11.55,2,19,19,0,0,0,.66,5.67c.51,2,1,3,1.59,3,.74,0,1.62-.57,2.64-1.81a8.2,8.2,0,0,0,1.71-2.7,26.76,26.76,0,0,1,1-3.41,9.36,9.36,0,0,1,3.47.88C1607.13,478.87,1608.14,479.46,1608.43,480Zm-9.79-16.83q-.93-.11-2.61,3a15.52,15.52,0,0,0-2,5.89,7.13,7.13,0,0,0,4-1.21c.58-.44.88-2.28.88-5.5C1598.92,463.93,1598.83,463.22,1598.64,463.14Z"/><path class="cls-8" d="M552.7,864.81C548,875.5,537.13,939.38,503.39,976c-20.24,22-48.44,32.86-54.11,28.73-12.44-9.09,13-33.29,11.06-73-4.46-93,34.4-131.33,48.28-135,9.66-2.55-22.72-35-13.48-44.65,8.07-8.4,25.57-10.34,34.27-9.72,23,1.64,2,27.72,17.25,39.41C576.88,805,559.35,849.8,552.7,864.81Z"/><path class="cls-9" d="M557.82,862.5c-4.7,10.61-15.26,75.31-48.75,111.67C489,996,461,1006.8,455.34,1002.69c-12.35-9,12.87-33.05,11-72.49-4.42-92.3,34.16-130.4,47.94-134,9.59-2.53-22.56-34.77-13.38-44.33,8-8.34,25.39-10.26,34-9.65,22.86,1.63,2,27.52,17.13,39.13C582,804.35,564.42,847.6,557.82,862.5Z"/><ellipse class="cls-10" cx="361.48" cy="830.95" rx="58.12" ry="43.82" transform="translate(-200.54 120.12) rotate(-14.82)"/><ellipse class="cls-10" cx="419.88" cy="822.66" rx="54.89" ry="41.51" transform="translate(-196.47 134.78) rotate(-14.82)"/><ellipse class="cls-10" cx="468.22" cy="790.78" rx="62.73" ry="45.2" transform="translate(-186.71 146.09) rotate(-14.82)"/><path class="cls-11" d="M253.57,837.76c-1.27.66-21.81,3.76-23.39,4.75s-1.45,2.29,1.26,5.76c2.29,2.94,34.71,11.23,41.82,11.3,11,.12,29-16.3,30.37-18.51s-9.53-8.55-11-9.37C290,830.21,267,830.73,253.57,837.76Z"/><path class="cls-12" d="M234,869.81c-3.3,1.86-48.86,11.32-53.12,14.07-4.42,2.87-5.29,6.24-3.15,15.43,1.81,7.77,60.62,28.27,75.25,28.07,22.59-.29,76.28-45.44,81.29-51.44s-11.2-22.47-13.41-24.6C316.91,847.52,268.87,850.17,234,869.81Z"/><path class="cls-13" d="M245.63,934.6c-1.36,4.53-33.45,35.21-34.93,41.41-1.54,6.44.31,10.42,9.13,17.49,7.46,6,72.7-23.17,84.89-35.52C323.54,938.9,334.31,850.69,334,840.74s-26.61-12.35-30.1-12.56C297.57,827.8,260,886.68,245.63,934.6Z"/><path class="cls-14" d="M249.83,933.76c-1.45,4.5-34.16,34.52-35.77,40.69-1.67,6.41.1,10.42,8.77,17.68,7.34,6.14,73.17-21.68,85.6-33.78,19.21-18.69,31.79-106.66,31.63-116.62s-26.35-12.89-29.84-13.17C304,828.05,265.18,886.14,249.83,933.76Z"/><circle class="cls-15" cx="272.46" cy="923.69" r="10.15"/><path class="cls-15" d="M271.78,874.25c9.4,5,14.3,16.93,9.57,25.81s-16.2,12-25.59,7l8.39-18.38Z"/><circle class="cls-15" cx="303.61" cy="870.12" r="15.22"/><circle class="cls-15" cx="301.3" cy="897.45" r="6"/><circle class="cls-15" cx="287.32" cy="905.93" r="4.15"/><path class="cls-8" d="M630.31,808.33C633.09,820.76,648,901.09,642.15,955c-3.48,32.36-21.13,60.18-28.77,60.22-16.78.11-10.22-37.54-37.64-71.1-64.14-78.51-55-137.3-45.21-149.51,6.81-8.49-42.59-15.93-40.74-30.35,1.62-12.59,15.69-25.63,23.71-30.72,21.22-13.48,19.72,23,40.65,23.33C595.65,757.62,626.4,790.88,630.31,808.33Z"/><path class="cls-16" d="M637.44,806.44c2.78,12.43,17.65,92.76,11.84,146.69-3.48,32.36-21.12,60.18-28.77,60.23-16.78.1-10.22-37.55-37.64-71.11-64.14-78.51-55-137.3-45.2-149.5,6.8-8.5-42.59-15.94-40.74-30.36,1.61-12.59,15.69-25.63,23.7-30.72,21.22-13.48,19.73,23,40.65,23.33C602.79,755.73,633.53,789,637.44,806.44Z"/><path class="cls-17" d="M538.15,682.7c17.35,28.88-37.25,108.13-101.58,141.74s-138,50.58-172.7,17.48,36.52-27.72,83.86-46.57C505.68,732.43,520.79,653.82,538.15,682.7Z"/><path class="cls-18" d="M536.26,675.56C553.61,704.44,499,783.69,434.68,817.31s-138,50.58-172.69,17.47,36.52-27.71,83.85-46.57C503.79,725.3,518.91,646.68,536.26,675.56Z"/><path class="cls-19" d="M352.55,669.18c27.88-14.16,48.3-16,70.13-9,11.47,3.65,72.06-16.2,98,31.33,4.94,9-14.67,56.37-23.9,68.35-26.25,34.07-66.45,33.81-81.5,45.43C352.1,854,345,821,327.64,827.5c-42.37,15.87-53.92-3.52-59.2-25.37-9.54-39.49,19-65.15,25.87-71.73C301.89,723.11,305.43,693.1,352.55,669.18Z"/><path class="cls-20" d="M352.68,662.47c27.89-14.16,48.3-16,70.14-9,11.46,3.65,72.05-16.21,98,31.33,4.94,9.05-14.67,56.36-23.9,68.35-26.25,34.07-66.45,33.8-81.5,45.42-63.17,48.75-70.27,15.73-87.64,22.24-42.37,15.86-53.92-3.53-59.2-25.37-9.53-39.5,19-65.16,25.87-71.74C302,716.39,305.57,686.38,352.68,662.47Z"/><circle class="cls-15" cx="282.34" cy="869.07" r="4.15"/><circle class="cls-15" cx="608.21" cy="800.5" r="18.45"/><circle class="cls-15" cx="576.08" cy="823.31" r="12.92"/><circle class="cls-15" cx="597.58" cy="825.26" r="5.54"/><path class="cls-15" d="M646.92,863.46c-10.54,1.55-22.22-9.62-24.49-25.08s4.44-29.24,15-30.79l5.79,30.8Z"/><circle class="cls-15" cx="585.35" cy="773.62" r="9.69"/><circle class="cls-15" cx="572.33" cy="794.72" r="6.46"/><circle class="cls-15" cx="609.82" cy="844.44" r="9.69"/><ellipse class="cls-21" cx="364.33" cy="698.21" rx="63.09" ry="31.37" transform="translate(-289.41 259.06) rotate(-28.55)"/><ellipse class="cls-21" cx="301.6" cy="777.45" rx="39.43" ry="30.12" transform="translate(-523 901.62) rotate(-77.36)"/><ellipse class="cls-21" cx="378.57" cy="773.18" rx="42.87" ry="36.75" transform="translate(-275.68 213.65) rotate(-23.37)"/><ellipse class="cls-21" cx="457.87" cy="715.92" rx="47.54" ry="42.62" transform="translate(-352.63 460.44) rotate(-39.9)"/><path class="cls-22" d="M470.25,622c.13,12.92-20.65,6.67-19.9,38,1.53,64.44,75.88,89.62,145.77,88.9,75.37-.78,150.37-22.56,149.46-93-.28-22-23.42-29.8-23.5-37.44-.54-51.33-10.29-104.42-45.55-106.6-37.7-2.32-29.61-23.63-81.72-22.16-52.31,1.47-39,20.7-67.58,22.84C484.88,515.72,469.67,566.61,470.25,622Z"/><ellipse class="cls-23" cx="534.44" cy="587.43" rx="40.59" ry="52.12" transform="translate(-6.07 5.58) rotate(-0.6)"/><ellipse class="cls-23" cx="665.87" cy="583.76" rx="40.13" ry="54.43" transform="translate(-6.03 6.95) rotate(-0.6)"/><ellipse class="cls-24" cx="664.31" cy="587.93" rx="38.52" ry="51.2" transform="translate(-6.07 6.93) rotate(-0.6)"/><ellipse class="cls-24" cx="538.65" cy="593.24" rx="38.28" ry="50.89" transform="translate(-6.13 5.63) rotate(-0.6)"/><ellipse class="cls-25" cx="548.23" cy="600.83" rx="30.9" ry="23.25" transform="translate(-115.86 1070.44) rotate(-82.89)"/><ellipse class="cls-26" cx="551.41" cy="606.53" rx="22.21" ry="16.71" transform="translate(-62.73 1149.45) rotate(-89.2)"/><circle class="cls-27" cx="545.08" cy="595.78" r="4.15"/><ellipse class="cls-25" cx="656.16" cy="595.94" rx="30.9" ry="23.25" transform="translate(27.49 1220.81) rotate(-87.07)"/><ellipse class="cls-26" cx="655.45" cy="599" rx="22.21" ry="16.71" transform="translate(23.75 1223.01) rotate(-87.07)"/><circle class="cls-27" cx="664.25" cy="587.73" r="4.15"/><ellipse class="cls-15" cx="582.45" cy="643.65" rx="6" ry="3.23" transform="translate(-173.05 1071.15) rotate(-77.36)"/><ellipse class="cls-15" cx="621.5" cy="643.34" rx="3.23" ry="5.54" transform="translate(-219.43 338.39) rotate(-26.06)"/><path class="cls-28" d="M655.08,669.29c-6.63,11.4-27.38,20.28-54,22.29s-51.21-6.58-54.9-19.24"/><path class="cls-28" d="M663,668.9c-2.81,3.43-5.7.74-7-.37s-6.18-4.75-3.36-8.18"/><path class="cls-28" d="M545.27,664.25c4.37,2.72,1.72,6.45.65,8.17s-4.53,7.82-8.9,5.11"/><ellipse class="cls-29" cx="512.69" cy="651.85" rx="5.18" ry="12.37" transform="translate(-235.55 1009.47) rotate(-77.36)"/><ellipse class="cls-29" cx="682.07" cy="648.65" rx="12.45" ry="4.28" transform="matrix(0.97, -0.26, 0.26, 0.97, -143.24, 196.06)"/><circle class="cls-15" cx="582.53" cy="517.67" r="7.44"/><circle class="cls-15" cx="608.27" cy="513.17" r="3.72"/><circle class="cls-15" cx="601.85" cy="525.25" r="4.09"/><circle class="cls-15" cx="623.42" cy="519.54" r="5.58"/><circle class="cls-15" cx="588.61" cy="533.37" r="5.58"/><circle class="cls-15" cx="613.52" cy="534.47" r="5.58"/><circle class="cls-15" cx="595.13" cy="508.57" r="5.58"/><circle class="cls-15" cx="576.34" cy="500.08" r="8.92"/><circle class="cls-15" cx="619.31" cy="502.55" r="8.92"/><circle class="cls-15" cx="603.63" cy="497.09" r="5.58"/><circle class="cls-15" cx="591.89" cy="496.34" r="3.35"/><circle class="cls-15" cx="632.64" cy="507.87" r="4.09"/><circle class="cls-30" cx="983.53" cy="602.96" r="217.85"/><circle class="cls-31" cx="973.79" cy="592" r="214.2"/><ellipse class="cls-32" cx="890.58" cy="485.12" rx="11.41" ry="11.78"/><ellipse class="cls-33" cx="849.63" cy="493.76" rx="7.28" ry="7.52"/><ellipse class="cls-34" cx="907.54" cy="438.67" rx="16.51" ry="17.05"/><path class="cls-24" d="M967.58,511.89l99.91,74.2a30.06,30.06,0,0,1,11.91,19.36c0,.15,0,.31.07.46a30.34,30.34,0,0,1-12.7,29L964.83,706.81a21.27,21.27,0,0,0-2,1.59c-14.7,13.05-47.34-1.11-47.06-21.08v-162c.28-20,35.53-28.26,49.86-15.08C966.29,510.83,966.91,511.39,967.58,511.89Z"/><path class="cls-35" d="M1428.9,807.4l-61.56,32.08a3.85,3.85,0,0,1-5.19-1.62s-24.72-30.06-25.29-48.53c-15-5.2-31.24-40.37-25.87-49.66-13.59-5.91-33.72-64.7-33.72-64.7-5.47-10.5-5.47-39.73,2.44-48.18l28.79-15c5.13-2.67,26.32,12.26,36.14,25.55,0,0,37.08,49.6,34.75,66.69,9.93-8.06,31.08,42.26,27.18,52.17,8.76-2,24,46,24,46A3.85,3.85,0,0,1,1428.9,807.4Z"/><path class="cls-36" d="M1428.14,809.25l-61.64,32.12a3.88,3.88,0,0,1-5.21-1.64s-24.83-30.24-25.43-48.8c-15-5.25-31.38-40.61-26-49.94-13.63-6-33.9-65.06-33.9-65.06-5.5-10.56-5.56-39.92,2.36-48.4l28.82-15c5.14-2.68,26.4,12.37,36.27,25.73,0,0,37.24,49.9,34.94,67.06,9.94-8.08,31.22,42.52,27.34,52.47,8.77-2,24.11,46.27,24.11,46.27A3.88,3.88,0,0,1,1428.14,809.25Z"/><rect class="cls-37" x="1268.21" y="596.62" width="33.79" height="14.8" rx="7.4" ry="7.4" transform="translate(-133.68 662.17) rotate(-27.52)"/><ellipse class="cls-38" cx="1281.56" cy="598.61" rx="16.25" ry="8.69" transform="translate(-131.58 659.92) rotate(-27.52)"/><ellipse class="cls-39" cx="1281.68" cy="597.46" rx="16.25" ry="8.69" transform="translate(-131.04 659.85) rotate(-27.52)"/><rect class="cls-40" x="1271.85" y="609.75" width="37.97" height="11.24" rx="5.62" ry="5.62" transform="translate(-138.28 666.11) rotate(-27.52)"/><path class="cls-41" d="M1309.8,741.74c-24.08-18.3-33.9-65.07-33.9-65.07l67.49-38.43s39.3,50.5,37.33,65.1c-.13,1,5-3.71-1.62,2.29C1356.56,736.24,1309.8,741.74,1309.8,741.74Z"/><ellipse class="cls-42" cx="1340.17" cy="680.44" rx="11.79" ry="15.66" transform="translate(-120.56 326.43) rotate(-13.3)"/><ellipse class="cls-24" cx="1340.45" cy="682.06" rx="11.29" ry="15.01" transform="translate(-120.93 326.54) rotate(-13.3)"/><ellipse class="cls-26" cx="1341.55" cy="686.72" rx="4.9" ry="6.51" transform="translate(-97.1 237.68) rotate(-9.77)"/><ellipse class="cls-42" cx="1311.26" cy="694.92" rx="11.79" ry="15.66" transform="translate(-170.7 772.97) rotate(-30.94)"/><ellipse class="cls-24" cx="1312.02" cy="696.37" rx="11.29" ry="15.01" transform="translate(-171.34 773.57) rotate(-30.94)"/><ellipse class="cls-26" cx="1314.48" cy="700.48" rx="4.9" ry="6.51" transform="translate(-174.9 683.88) rotate(-27.41)"/><circle class="cls-24" cx="1341.79" cy="684.47" r="2.16"/><circle class="cls-24" cx="1313.25" cy="699.34" r="2.16"/><ellipse class="cls-42" cx="1303.76" cy="676.75" rx="0.98" ry="10.13" transform="translate(481.35 1893.89) rotate(-83.39)"/><ellipse class="cls-42" cx="1330.63" cy="662.93" rx="9.56" ry="0.5" transform="translate(163.17 1583.3) rotate(-64.73)"/><path class="cls-43" d="M1309.69,718.5c.5-.5,10.08,9.77,10.83,9.27s-5.73-13-5.23-13.47c5-2.52,15.34,9.49,20.88,8.35s5.9-15.23,10.87-18.21"/><path class="cls-42" d="M1450.44,693.79l0-.34c-.54-5.19,9.91-90.84,13.18-110.8,9-54.92,11.88,44.38,5.88,11.92s25-.08,42,1.55a12.68,12.68,0,0,0,4-.24l10.92-1.55a.47.47,0,0,0,.17,0c1-.23,8.23-2,10.07-3.21,15-9.72,24.64-9.7,27.3-11.75,8.45-6.51.57-62.33,10.05-11,.09.49,14.4,55,14.74,67.43a12.66,12.66,0,0,0,.74,3.91c9.26,25.9,9.95,51.47,10,56.12,0,.41,0,.83.08,1.24,2.15,17.34-31.59,16.88-33.15,16.88l-95-2a21.54,21.54,0,0,1-20.46-16.14A12.19,12.19,0,0,1,1450.44,693.79Z"/><path class="cls-44" d="M1544.19,601.14a6.4,6.4,0,0,0,3.49-1.61c13.69-12.55,11.85-118.67,31-29.14.11.55,15.14,57.53,15.14,66.52,11.49,30.71,11.24,61.67,11.24,61.67,3,18.73-33.06,18.23-34.71,18.23l-105.27-2.21a9.32,9.32,0,0,1-3.57-.79c-9.93-4.46-12.67-16.26-12.76-18.13l0-.36c-.56-5.45,1.21-87.34,12.82-130.38,19.12-70.88,16,16.54,24,36.87a9.37,9.37,0,0,0,9,5.94l.56,0Z"/><ellipse class="cls-42" cx="1533.84" cy="645.6" rx="15.64" ry="11.76" transform="translate(531.1 1973.75) rotate(-75.77)"/><ellipse class="cls-24" cx="1533.35" cy="647.17" rx="14.98" ry="11.27" transform="translate(529.21 1974.45) rotate(-75.77)"/><ellipse class="cls-26" cx="1532.17" cy="651.8" rx="6.5" ry="4.89" transform="translate(444.33 1912.35) rotate(-72.25)"/><ellipse class="cls-42" cx="1501.58" cy="645.08" rx="11.76" ry="15.64" transform="translate(-35.76 90.6) rotate(-3.42)"/><ellipse class="cls-24" cx="1501.58" cy="646.72" rx="11.27" ry="14.98" transform="translate(-35.86 90.6) rotate(-3.42)"/><ellipse class="cls-26" cx="1501.87" cy="651.49" rx="6.5" ry="4.89" transform="translate(847.56 2152.14) rotate(-89.89)"/><circle class="cls-24" cx="1533.42" cy="649.92" r="2.16"/><circle class="cls-24" cx="1501.3" cy="649.92" r="2.16"/><ellipse class="cls-42" cx="1503.32" cy="625.55" rx="0.97" ry="10.11" transform="translate(141.96 1518.84) rotate(-55.86)"/><ellipse class="cls-42" cx="1533.48" cy="625.7" rx="9.54" ry="0.5" transform="translate(-66.19 1054.78) rotate(-37.21)"/><path class="cls-43" d="M1484.64,660.45c2.53,0,4.35,14,6.89,14.22s9-12.37,11.43-11.39c4,2.48,2.57,17.08,6.65,18.33s11.26-11.63,15.8-11.12"/><path class="cls-45" d="M1798.2,962.42a19,19,0,1,1-19,19,19,19,0,0,1,19-19m0-12a31,31,0,1,0,31,31,31,31,0,0,0-31-31Z"/><rect class="cls-45" x="1758.24" y="963.06" width="13.86" height="13.86" rx="6.93" ry="6.93" transform="translate(283.47 2334.28) rotate(-71.43)"/><rect class="cls-45" x="1770.88" y="945.93" width="13.86" height="13.86" rx="6.93" ry="6.93" transform="translate(-223.47 1204.76) rotate(-35.36)"/><rect class="cls-45" x="1791.27" y="939" width="13.86" height="13.86" rx="6.93" ry="6.93"/><rect class="cls-45" x="1812.07" y="945.93" width="13.86" height="13.86" rx="6.93" ry="6.93" transform="translate(27.38 1956.26) rotate(-56.9)"/><rect class="cls-45" x="1823.89" y="962.24" width="13.86" height="13.86" rx="6.93" ry="6.93" transform="translate(-229.8 756.99) rotate(-22.02)"/><circle class="cls-45" cx="1798" cy="981.2" r="12.44"/><rect class="cls-45" x="1823.89" y="984.26" width="13.86" height="13.86" rx="6.93" ry="6.93" transform="translate(377.13 2481.54) rotate(-74.14)"/><rect class="cls-45" x="1812.88" y="1001.39" width="13.86" height="13.86" rx="6.93" ry="6.93" transform="translate(-247.81 1239.3) rotate(-35.36)"/><rect class="cls-45" x="1791.27" y="1009.14" width="13.86" height="13.86" rx="6.93" ry="6.93"/><rect class="cls-45" x="1770.88" y="1003.43" width="13.86" height="13.86" rx="6.93" ry="6.93" transform="translate(-39.48 1947.85) rotate(-56.9)"/><rect class="cls-45" x="1758.24" y="986.71" width="13.86" height="13.86" rx="6.93" ry="6.93" transform="translate(-243.76 734.16) rotate(-22.02)"/></svg>
