<svg id="Layer_1" data-name="Layer 1" xmlns="http://www.w3.org/2000/svg" xmlns:xlink="http://www.w3.org/1999/xlink" width="1920" height="1080" viewBox="0 0 1920 1080"><defs><style>.cls-1{fill:url(#linear-gradient);}.cls-2,.cls-5{fill:#cff;}.cls-2{opacity:0.2;}.cls-3{fill:#09c;}.cls-4{fill:#0081ca;}.cls-6{fill:#009bca;}.cls-7{fill:#0098d0;}.cls-8{fill:#3a6d19;}.cls-9{fill:url(#linear-gradient-2);}.cls-10{fill:#d88a55;}.cls-11{fill:url(#linear-gradient-3);}.cls-12{fill:url(#linear-gradient-4);}.cls-13{fill:#3b7515;}.cls-14{fill:url(#linear-gradient-5);}.cls-15{fill:#29590a;}.cls-16{fill:url(#linear-gradient-6);}.cls-17{fill:#d6551a;}.cls-18{fill:#c63;}.cls-19{fill:#dd6b1d;}.cls-20{fill:#d87a35;}.cls-21{fill:#ad5e1e;}.cls-22{fill:url(#linear-gradient-7);}.cls-23{fill:#315916;}.cls-24,.cls-49{fill:#fff;}.cls-25,.cls-48{fill:#1270d0;}.cls-26{fill:#050505;}.cls-27{fill:#f9f9f9;}.cls-28,.cls-43{fill:none;}.cls-28{stroke:#29590a;}.cls-28,.cls-43,.cls-49{stroke-linecap:round;stroke-linejoin:round;}.cls-29{fill:#78c943;}.cls-30{fill:#734a00;}.cls-31{fill:url(#linear-gradient-8);}.cls-32{fill:url(#linear-gradient-9);}.cls-33{fill:url(#linear-gradient-10);}.cls-34{fill:url(#linear-gradient-11);}.cls-35{fill:url(#linear-gradient-12);}.cls-36{fill:url(#linear-gradient-13);}.cls-37{fill:url(#linear-gradient-14);}.cls-38{fill:url(#linear-gradient-15);}.cls-39{fill:url(#linear-gradient-16);}.cls-40{fill:url(#linear-gradient-17);}.cls-41{fill:url(#linear-gradient-18);}.cls-42{fill:#1a6172;}.cls-43{stroke:#000;stroke-width:2px;}.cls-44{fill:url(#linear-gradient-19);}.cls-45{opacity:0.88;}.cls-46{fill:#39f;}.cls-47{opacity:0.46;fill:url(#linear-gradient-20);}.cls-48{opacity:0.66;}.cls-49{stroke:#fff;stroke-width:4px;}.cls-50{fill:#069;}.cls-51{fill:#e7fffe;}.cls-52,.cls-53{opacity:0.7;}.cls-52{fill:url(#radial-gradient);}.cls-53{fill:url(#radial-gradient-2);}.cls-54{fill:#3cf;}</style><linearGradient id="linear-gradient" x1="-2920.13" y1="1079.81" x2="-2920.13" y2="-0.19" gradientTransform="matrix(-1, 0, 0, 1, -1963.54, 0)" gradientUnits="userSpaceOnUse"><stop offset="0" stop-color="#55a7fc"/><stop offset="0" stop-color="#58c9fd"/><stop offset="0.25" stop-color="#5dc8ff"/><stop offset="0.71" stop-color="#00d3db"/><stop offset="1" stop-color="#c9d5e2"/></linearGradient><linearGradient id="linear-gradient-2" x1="1205.53" y1="-307.78" x2="1396.41" y2="-197.57" gradientTransform="translate(-688.16 278.58) rotate(37.51)" gradientUnits="userSpaceOnUse"><stop offset="0.24" stop-color="#3b7218"/><stop offset="0.94" stop-color="#83c458"/></linearGradient><linearGradient id="linear-gradient-3" x1="-1089.07" y1="913.35" x2="-1042.74" y2="940.1" gradientTransform="matrix(1.18, -0.24, 0.83, 1.02, 755.5, -356.69)" xlink:href="#linear-gradient-2"/><linearGradient id="linear-gradient-4" x1="-201.66" y1="1248.01" x2="-72.77" y2="1322.43" gradientTransform="translate(59.92 -395.94) rotate(-14.82)" xlink:href="#linear-gradient-2"/><linearGradient id="linear-gradient-5" x1="-163.44" y1="1298.24" x2="-82.4" y2="1345.04" gradientTransform="translate(59.92 -395.94) rotate(-14.82)" xlink:href="#linear-gradient-2"/><linearGradient id="linear-gradient-6" x1="647.9" y1="996.47" x2="788.25" y2="982.14" gradientTransform="translate(-123.83 -130.94) rotate(1.01)" gradientUnits="userSpaceOnUse"><stop offset="0.24" stop-color="#3b7218"/><stop offset="0.82" stop-color="#83c458"/></linearGradient><linearGradient id="linear-gradient-7" x1="689.73" y1="580.62" x2="724.55" y2="839.35" gradientTransform="translate(-122.07 -81.77) rotate(-0.6)" xlink:href="#linear-gradient-2"/><linearGradient id="linear-gradient-8" x1="802.59" y1="589.54" x2="1170.06" y2="589.54" gradientUnits="userSpaceOnUse"><stop offset="0" stop-color="#f15a24"/><stop offset="0.75" stop-color="#f7931e"/></linearGradient><linearGradient id="linear-gradient-9" x1="905.16" y1="497.86" x2="924.73" y2="497.86" xlink:href="#linear-gradient-8"/><linearGradient id="linear-gradient-10" x1="873.58" y1="505.27" x2="886.07" y2="505.27" xlink:href="#linear-gradient-8"/><linearGradient id="linear-gradient-11" x1="915.34" y1="458.01" x2="943.65" y2="458.01" xlink:href="#linear-gradient-8"/><linearGradient id="linear-gradient-12" x1="478.09" y1="1662.78" x2="570.51" y2="1662.78" gradientTransform="translate(112.02 -510.58) rotate(-27.52)" gradientUnits="userSpaceOnUse"><stop offset="0.47" stop-color="#01687f"/><stop offset="1" stop-color="#42cbea"/></linearGradient><linearGradient id="linear-gradient-13" x1="476.45" y1="1663.43" x2="568.99" y2="1663.43" gradientTransform="translate(112.02 -510.58) rotate(-27.52)" gradientUnits="userSpaceOnUse"><stop offset="0.02" stop-color="#fff"/><stop offset="1" stop-color="#42cbea"/></linearGradient><linearGradient id="linear-gradient-14" x1="508.4" y1="1530.53" x2="542.19" y2="1530.53" gradientTransform="translate(759.8 -926.5)" xlink:href="#linear-gradient-12"/><linearGradient id="linear-gradient-15" x1="508.4" y1="1524.09" x2="540.9" y2="1524.09" gradientTransform="translate(756.9 -925.48)" xlink:href="#linear-gradient-12"/><linearGradient id="linear-gradient-16" x1="509.05" y1="1523.13" x2="541.55" y2="1523.13" gradientTransform="translate(756.38 -925.67)" gradientUnits="userSpaceOnUse"><stop offset="0.3" stop-color="#3cc"/><stop offset="0.79" stop-color="#42cbea"/></linearGradient><linearGradient id="linear-gradient-17" x1="506.15" y1="1543.24" x2="544.12" y2="1543.24" gradientTransform="translate(765.69 -927.87)" xlink:href="#linear-gradient-13"/><linearGradient id="linear-gradient-18" x1="477.83" y1="1629.66" x2="567.33" y2="1629.66" gradientTransform="translate(112.02 -510.58) rotate(-27.52)" xlink:href="#linear-gradient-16"/><linearGradient id="linear-gradient-19" x1="-221.22" y1="-3469.45" x2="-39.21" y2="-3469.45" gradientTransform="translate(-1942.52 756.02) rotate(90)" gradientUnits="userSpaceOnUse"><stop offset="0" stop-color="#f8fdfe"/><stop offset="0" stop-color="#42cbea"/><stop offset="0.67" stop-color="#f9fdfe"/><stop offset="0.99" stop-color="#70d0e2"/></linearGradient><linearGradient id="linear-gradient-20" x1="622.59" y1="582.6" x2="1350.73" y2="582.6" gradientUnits="userSpaceOnUse"><stop offset="0.22"/><stop offset="0.34" stop-color="#00042f"/><stop offset="0.53" stop-color="#000975"/><stop offset="0.7" stop-color="#000da8"/><stop offset="0.82" stop-color="#000fc8"/><stop offset="0.89" stop-color="#0010d4"/></linearGradient><radialGradient id="radial-gradient" cx="1122.86" cy="568.85" r="20.95" gradientUnits="userSpaceOnUse"><stop offset="0.34" stop-color="#39c"/><stop offset="0.55" stop-color="#339acd"/><stop offset="0.64" stop-color="#339fd2"/><stop offset="0.76" stop-color="#33aee1"/><stop offset="0.9" stop-color="#33c7fa"/><stop offset="0.92" stop-color="#3cf"/></radialGradient><radialGradient id="radial-gradient-2" cx="1207.99" cy="695.88" r="20.95" xlink:href="#radial-gradient"/></defs><title>titelscene m setting</title><rect class="cls-1" x="-3.41" y="-0.19" width="1920" height="1080"/><path class="cls-2" d="M1919.59,222.81c1.37,8.63,8.66-1.16,0,0-59.36,7.9-294.24,38.53-465.59,55.58C1327.39,291,702.37,224.16,615.66,190.26a18.32,18.32,0,0,0-1.9-.62C393,133.07,92.44,87.5,16.56,76.4a15.69,15.69,0,0,0-18,15.53V195.14c0,25.43,215.37,12.45,417.42,66.21,515.71,137.21,1497.78,115.94,1498.58,66.46C1915.54,268.8,1917.25,208.05,1919.59,222.81Z"/><path class="cls-3" d="M1704.59,743.81c-30,37-62,142.78-62,142.78-162.43-39.27-384,174.24-502,169.22-328.8,28.06-674-480-827-531s-316,48-316,48v446h1917c-2.13,12.58-.15-395.62,0-421C1914.59,597.81,1734.59,706.81,1704.59,743.81Z"/><path class="cls-4" d="M-3.76,1078.81l1918.78.92c-2.14,19.58.06-589.41.22-628.92,0,0-417,152-135,189,50.33,6.6,102,60,36,66-60.48,5.49,67,84,24,80-161.19-15-13,117-108.67,81-162.43-61.13-310,46.2-428,38.39-328.81,43.68-669.14-47.46-744-99-229.37-99.68-563-117.48-563-117.48Z"/><path class="cls-4" d="M343.13,781.09l-30-1.14s18.35-127.23,9.63-131.48S262.32,587.12,271,555.89c13.08-38.95,57.18-80.06,8.64-1.25-7.73,27.14,45.55,73.77,53.56,83.64S343.13,781.09,343.13,781.09Z"/><path class="cls-4" d="M209.32,765l36.45,7s12.33-103.38,25.15-124.61c3.94-6.53,59.91-58.4,67.64-88.51,8.58-37.71-60.51-110.63-17.71,3-8.08,30.53-44.78,59.86-52.32,68.51S209.32,765,209.32,765Z"/><path class="cls-4" d="M234,737.87l-26.73-13.51s44-77.43,46.52-98.51c.77-6.49-8.82-70.44,1.37-95.08,13.46-30.3,51.41-93,9.77,11-10.17,25.11-1.54,63.81-1.08,73.57S234,737.87,234,737.87Z"/><path class="cls-4" d="M246.51,759.69l-39.68-1.31S232,679,226.65,660.89c-1.63-5.58-39.71-54.37-36.6-78.22,5-29.68,101.95-71.61,16.94,5.41-2.89,24.23,23.77,52.73,28.3,60.55S246.51,759.69,246.51,759.69Z"/><path class="cls-4" d="M240.63,760.55l-44.95-1.49s28.47-89.86,22.45-110.42c-1.85-6.32-56.18-51.93-52.67-78.95,5.68-33.61,28.23-107.84,15.37,5.65-3.28,27.44,45.68,62.58,50.8,71.43S240.63,760.55,240.63,760.55Z"/><path class="cls-4" d="M258.2,765l29.47,4.62S296,684.3,306.05,666.44c3.08-5.49,47.38-49.9,53.15-74.89,6.34-31.25,11.27-101.65-14.22,3-6.05,25.34-35.17,50.62-41.11,58S258.2,765,258.2,765Z"/><path class="cls-4" d="M1875.13,599.09l-30-1.14s18.35-127.23,9.63-131.48-60.45-61.35-51.76-92.58c13.08-38.95,57.18-80.06,8.64-1.25-7.73,27.14,45.55,73.77,53.56,83.64S1875.13,599.09,1875.13,599.09Z"/><path class="cls-4" d="M1741.32,583l36.45,7s12.33-103.38,25.15-124.61c3.94-6.53,59.91-58.4,67.64-88.51,8.58-37.71-60.51-110.63-17.71,3-8.08,30.53-44.78,59.86-52.32,68.51S1741.32,583,1741.32,583Z"/><path class="cls-4" d="M1766,555.87l-26.73-13.51s44-77.43,46.52-98.51c.77-6.49-8.82-70.44,1.37-95.08,13.46-30.3,51.41-93,9.77,11-10.17,25.11-1.54,63.81-1.08,73.57S1766,555.87,1766,555.87Z"/><path class="cls-4" d="M1778.51,577.69l-39.68-1.31S1764,497,1758.65,478.89c-1.63-5.58-39.71-54.37-36.6-78.22,5-29.68,102-71.61,16.94,5.41-2.89,24.23,23.77,52.73,28.3,60.55S1778.51,577.69,1778.51,577.69Z"/><path class="cls-4" d="M1772.63,578.55l-45-1.49s28.47-89.86,22.45-110.42c-1.85-6.32-56.18-51.93-52.67-78.95,5.68-33.61,28.23-107.84,15.37,5.65-3.28,27.44,45.68,62.58,50.8,71.43S1772.63,578.55,1772.63,578.55Z"/><path class="cls-4" d="M1790.2,583l29.47,4.62s8.37-85.31,18.38-103.17c3.08-5.49,47.38-49.9,53.15-74.89,6.34-31.25,11.27-101.65-14.22,3-6,25.34-35.17,50.62-41.11,58S1790.2,583,1790.2,583Z"/><path class="cls-5" d="M632.44,352.91a22.69,22.69,0,0,1,5.06,6.63c.87,2,.92,3.67,0,5s-3,2.14-6,2.51a27.06,27.06,0,0,1-11.23-1.54,29.39,29.39,0,0,1-9-4.51,80.71,80.71,0,0,1-7-6.06c-2.42-2.4-4.37-4.58-6-6.46a69.06,69.06,0,0,1-5.19-6.8,150.09,150.09,0,0,1-12.28-22.52c-3.53-7.62-6.9-15.35-11.1-22.77-.79,8.11-1.53,16.16-1.75,23.95a140.5,140.5,0,0,0,1.05,22.95,82.21,82.21,0,0,0,3.6,16.11c1.73,5.18,3.64,10.08,5.64,14.74a5.61,5.61,0,0,1,.13,4.62A7.69,7.69,0,0,1,575,382.4a13.59,13.59,0,0,1-5.77,1.69,13.26,13.26,0,0,1-6.66-1.24c-14-6.57-25.6-14.2-37-21.87s-22.56-15.48-34.89-22.76c3.53,6.59,7.16,13.17,11,19.66s7.84,12.92,12,19.19c1.37,1.93,3.08,4.27,5.19,7s4.21,5.45,6.33,8.23,4.16,5.45,6.09,8a20.33,20.33,0,0,1,3.62,6.45c.91,2.85.64,5.17-.85,7a10.85,10.85,0,0,1-6.13,3.66,15.43,15.43,0,0,1-8.31-.54,17.53,17.53,0,0,1-7.91-5.58q-6-7.08-11.27-14.28t-10.78-14.55q-12-15.89-23-32.05c-7.37-10.75-14.64-21.73-22.33-32.63a33.19,33.19,0,0,1-4.92-9.39c-1-3.13,0-6.26,3-9.36a12.51,12.51,0,0,1,4.4-3.07,16.14,16.14,0,0,1,5.84-1.32,33.43,33.43,0,0,1,13.63,2.48q6.54,2.7,12.05,5.31a187.21,187.21,0,0,1,17.49,9c5.5,3.22,10.68,6.55,15.62,10,6.17,4.44,12,8.94,17.58,13.4s11.19,9,17,13.46q-.48-3.4-.88-6.82c-.28-2.27-.47-4.58-.6-6.92-.15-4.1-.27-8.23-.43-12.37s-.22-8.28-.22-12.4c.12-5.44.18-10.75,0-15.86a108.43,108.43,0,0,0-1.47-15.14,43,43,0,0,0-3-11.37,22.52,22.52,0,0,1-2.16-10.54,6.1,6.1,0,0,1,2.88-5.4,16.59,16.59,0,0,1,7.31-2.43,32.78,32.78,0,0,1,9.63.39,28,28,0,0,1,9.22,3.25A77.91,77.91,0,0,1,577,260.41a64.63,64.63,0,0,1,8.21,8.74,73.85,73.85,0,0,1,9.07,15.41c2.37,5.27,4.31,10.83,6.22,16.52,3.24,9.3,6.31,18.57,10.85,27.15a68.29,68.29,0,0,0,19.85,23.58C631.57,352.18,632,352.55,632.44,352.91Z"/><path class="cls-5" d="M665,341c2.92,2.73,4.89,5.11,5.44,7.32s.15,3.89-1.5,5.15-4.33,1.89-7.95,1.86a22.48,22.48,0,0,1-11.79-3.81c-17.22-11-23.87-26.61-26.07-44.56C620.75,289,622.31,270,616,254a13.24,13.24,0,0,1-6.87-1.63,18.46,18.46,0,0,1-5-4.2,20.75,20.75,0,0,1-3.32-5.48,12.4,12.4,0,0,1-1.15-5.46,11.42,11.42,0,0,1,2.11-5.7,42.06,42.06,0,0,1,4.71-5.8,52.78,52.78,0,0,1,5.8-5.22,65.3,65.3,0,0,1,5.38-3.81c6.4-4,15.58-7,28-8.73a146.32,146.32,0,0,1,38.57-.42c12.66,1.66,23.43,5.51,29.7,12s6.53,15.57,1.82,27.13a106.88,106.88,0,0,1-5,9.94,111.54,111.54,0,0,1-6.08,9.66A129,129,0,0,1,695,279q-5.06,5.85-10.23,11.16c2.28,2.25,4.53,4.65,6.87,7.17a32,32,0,0,0,8.24,6.32c1.2.67,3,1.75,5.58,3.19s5.29,3,8.26,4.61,6,3.22,9,4.77a33.1,33.1,0,0,1,6.64,4.15,54.84,54.84,0,0,1,6,5.87c1.52,1.83,2.47,3.31,2.55,4.52s-.78,2.06-2.69,2.58-5,.58-9,.12a110.61,110.61,0,0,1-14.61-3c-4.83-1.35-9-2.65-12.64-3.87a112.47,112.47,0,0,1-21-9.4A162,162,0,0,1,662,306.53a65.28,65.28,0,0,1-7.1,3.65q-3.63,1.59-7.12,3.27a47.73,47.73,0,0,0,15.84,26.41C664.07,340.23,664.52,340.6,665,341Zm15.94-112.14a51.71,51.71,0,0,0-22.17.53,50.07,50.07,0,0,0-19,8.77c7.89,14.18,6.18,31.44,6,48.41,5.87-2.45,11.68-5.23,17.53-8.35a68.23,68.23,0,0,0,17.08-13.54,54.09,54.09,0,0,0,7.74-10.46,29.39,29.39,0,0,0,3.83-10.67,13.08,13.08,0,0,0-1.95-9C688.23,231.85,685.15,230,680.91,228.83Z"/><path class="cls-5" d="M773.57,303.38a59.15,59.15,0,0,1,5.87,7.77c1.26,2.21,1.91,4,1.52,5.31s-1.68,2.32-4.05,2.92a29.22,29.22,0,0,1-8.94.55,47.25,47.25,0,0,1-11.49-2.3,28.25,28.25,0,0,1-10.74-6.15c-3.08-3-4.21-5.8-4-8.38a10.27,10.27,0,0,1,3.23-6.52,15.18,15.18,0,0,1,6.61-3.65,16.64,16.64,0,0,1,7.58-.28,18,18,0,0,1,7.31,3.46A41.7,41.7,0,0,1,773.57,303.38Z"/><path class="cls-5" d="M949.09,166.45a47.62,47.62,0,0,1,12.81,5c4,2.33,6.82,4.77,8.32,7.29a6.35,6.35,0,0,1,.29,6.87c-1.21,2.06-3.78,3.45-7.32,4.18a117.18,117.18,0,0,1-19.06,1.89c-5.89.05-11,.19-15.41.39-1.61,16.48-18.33,33.53-28.81,50.34s-17.51,34.36.54,50.49c4,3.51,6.81,6.08,7,7.78s-1,2.51-4.26,2.5A49.2,49.2,0,0,1,890,300.62c-5.45-1.68-10.54-4.17-14.18-7.63-15.48-14.52-10.66-31.4-.42-48.61,10-17.21,25.68-34.55,26.58-50.78-1.33.09-3.56.32-6.72.7s-6.61.69-10.35.94-7.59.34-11.57.24a36.1,36.1,0,0,1-10.61-1.72,11.72,11.72,0,0,1-5.88-4.23,25.56,25.56,0,0,1-3.53-6.13,25.12,25.12,0,0,1-1.7-6,3.61,3.61,0,0,1,2.1-4.18,337.31,337.31,0,0,1,35.66-4.11q18.12-1.12,36.34-2,5.4-.26,10.66-.56c3.51-.2,7.13-.36,10.88-.46Z"/><path class="cls-5" d="M1070,178.29c-.63-2.8-1.12-5.11-.89-6.88a3.36,3.36,0,0,1,2.67-3.29c1.68-.41,4.3-.06,7.72,1.06a40.43,40.43,0,0,1,11.24,6,30.74,30.74,0,0,1,3.46,2.83,10.13,10.13,0,0,1,2.3,2.92,20.08,20.08,0,0,1,1.86,7.86,24.7,24.7,0,0,1-2.26,10.73,41.61,41.61,0,0,1-5.89,9.32c-2.19,2.67-3.54,4.05-3.64,4.18-6.26,6.81-14.29,13.46-22.14,20.18s-15.72,13.53-21.83,20.56A65.46,65.46,0,0,0,1032,269.09a69.66,69.66,0,0,0-4.54,12.71,66.2,66.2,0,0,1-2.94,9.62,12.11,12.11,0,0,1-6.31,6.3,13.35,13.35,0,0,1-4.66,1.25,43.28,43.28,0,0,1-6,.21c-6.13-.18-14.42-1.67-24.11-4.31-11.16-3.2-22.59-8.19-29.68-15.25s-9.66-15.05-7.12-24.11,9.2-18.32,17.22-27.61,15-17.35,19-24.31a49.22,49.22,0,0,0,4.15-8.7,27.65,27.65,0,0,0,1.63-8.71,25.37,25.37,0,0,0-1.08-6.47c-.7-2.26-1.48-4.42-2.3-6.48a19.65,19.65,0,0,1-1.54-5.33c-.12-1.51.71-2.53,2.82-3.07a15.29,15.29,0,0,1,5.81.46,51.24,51.24,0,0,1,7.9,2.48,43.44,43.44,0,0,1,7.43,3.85,14.32,14.32,0,0,1,4.81,4.75,22.23,22.23,0,0,1,2.12,5.3,20.93,20.93,0,0,1,.58,3.51,14.84,14.84,0,0,1-.1,3.18,37,37,0,0,1-.82,4.28c-2.58,9-9.77,17.73-17.6,26.57s-16,17.72-21.19,26.63a40.23,40.23,0,0,0-4.82,11.52,12.1,12.1,0,0,0,2,10.24,15.26,15.26,0,0,0,8.16,5.42A25.4,25.4,0,0,0,991,274a26.61,26.61,0,0,0,9.47-2.92,27.91,27.91,0,0,0,8-6.37c2.4-2.66,5-5.8,8-9.38s6.43-7.28,10.15-11.08,7.67-7.54,11.58-11.22,7.61-7.06,10.86-10.14q5.88-5.37,9.53-9.22a78.5,78.5,0,0,0,7.71-9.3,33.3,33.3,0,0,0,4.39-8.3,26.6,26.6,0,0,0,1.52-8.54A21.26,21.26,0,0,0,1070,178.29Z"/><path class="cls-5" d="M1090.09,293.55c1.57,3.65,2.68,6.62,2.66,8.83s-.64,3.55-2.44,4-4.56-.24-8.24-1.89a31.32,31.32,0,0,1-11.11-8.61c-14.11-17.14-7.88-33,7.19-48.6,14.74-15.64,36.54-30,43.08-46a8.56,8.56,0,0,1-3.92-4.24,20.33,20.33,0,0,1-1.43-5.68,45.15,45.15,0,0,1-.3-6.16,18.92,18.92,0,0,1,.61-5.33,8.85,8.85,0,0,1,3-4.2,26.19,26.19,0,0,1,5.1-3.2,32.47,32.47,0,0,1,6-2.24,43.92,43.92,0,0,1,5.58-1.12c6.62-.9,16.31.5,28.54,4.37s24.68,9.51,34.76,16.44,16.79,14.84,17.66,23-5.16,15.89-17.28,23.52c-3.45,2.11-7.23,4.15-11.26,6.16s-8.09,3.82-12.11,5.44c-6,2.51-11.87,4.65-17.62,6.43s-11.45,3.41-17.09,4.87c.22,2.83.37,5.78.59,8.89a20.28,20.28,0,0,0,2.86,8.88c.61,1.08,1.48,2.77,2.85,5.11s2.8,4.84,4.41,7.52,3.28,5.34,5,8a24.51,24.51,0,0,1,3.29,6.44,49.7,49.7,0,0,1,1.68,7.63c.27,2.24.29,3.94-.27,5s-1.71,1.45-3.65,1.07-4.7-1.7-8.1-3.88a110.54,110.54,0,0,1-11.74-9.05c-3.69-3.3-6.76-6.24-9.41-8.9a77.72,77.72,0,0,1-13.22-17.13,66,66,0,0,1-6.14-15.72q-4.56.22-8.86,0c-2.87-.15-5.73-.24-8.56-.29-5.83,9.16-7.75,18.74-2.88,29.11C1089.57,292.52,1089.82,293,1090.09,293.55Zm95.68-86.39a38.84,38.84,0,0,0-17.41-8.83,45.85,45.85,0,0,0-19.52-.45c-2,15.44-19.7,28.43-35.2,42.1q9.81.66,20.45.48a100,100,0,0,0,24.33-3.93,87.16,87.16,0,0,0,14.28-5.34,45.67,45.67,0,0,0,11.11-7.19c2.83-2.63,4.56-5.38,5.09-8.32S1188.31,209.9,1185.77,207.16Z"/><path class="cls-5" d="M1332.37,221.9a26.82,26.82,0,0,1,7.49,8.16,15.4,15.4,0,0,1,2.43,8.88,8.25,8.25,0,0,1-3.63,6.27c-2.14,1.51-5.07,2-8.58,1.57a104.69,104.69,0,0,1-17.85-4.26q-7.9-2.73-13.88-4.52c-8.9,14.89-28.23,26.41-43.17,39.11s-28,26.89-24.09,46.66c.92,4.32,1.16,7.33-.16,8.78s-3.21,1.68-6.11.59a33.57,33.57,0,0,1-9.91-6.57c-3.59-3.25-6.32-7.1-7.23-11.34-4-17.9,7.46-32,23-44.87,15.36-13,35-24.63,43.26-39.44-1.2-.33-3.28-.84-6.24-1.49s-6.13-1.47-9.53-2.44a105.87,105.87,0,0,1-10.25-3.48,28.28,28.28,0,0,1-8.43-5,9,9,0,0,1-3-5.77,23.69,23.69,0,0,1,1.76-12.76,4.88,4.88,0,0,1,4.27-3.06,326.71,326.71,0,0,1,34.28,7.91q16.88,4.88,33.92,10,5.05,1.53,10.06,3c3.33,1,6.74,2,10.24,3.15C1331.44,221.31,1331.9,221.61,1332.37,221.9Z"/><path class="cls-5" d="M1355.61,348.27a16.6,16.6,0,0,1,3.8,8.18,14.44,14.44,0,0,1-.84,7.75,13.75,13.75,0,0,1-4.49,5.81,11.63,11.63,0,0,1-7.77,2.16,17.3,17.3,0,0,1-5-1.32c-2.12-.82-5.07-2-8.84-3.57s-8.55-3.49-14.35-5.77-13-4.95-21.52-7.9c-2.11-.62-4.3-1.34-6.56-2.14a15.15,15.15,0,0,1-6.57-5.23,20,20,0,0,1-4-8.18,25.86,25.86,0,0,1-.51-9.76,29.79,29.79,0,0,1,2.87-9.08,58.68,58.68,0,0,1,4.15-7,75.65,75.65,0,0,1,10.43-11.94,194.44,194.44,0,0,1,15.12-12.69c5.44-4.19,10.91-8.25,16-12.33a145.09,145.09,0,0,0,12.59-11.12,58.31,58.31,0,0,0,11.32-15.27,56.91,56.91,0,0,0,3.74-10.17c.72-2.52,1.37-4.32,2.36-5.25a7.36,7.36,0,0,1,4.09-1.82,9.48,9.48,0,0,1,5.34,1.12,23.69,23.69,0,0,1,5.84,3.93,20.07,20.07,0,0,1,4.41,5.73,9.38,9.38,0,0,1,1,6.2c-3.38,17-18.94,29.18-34.59,41.26s-31.56,24.17-38.65,39.4q12.32,4.39,24.65,8.84t25,9.29Z"/><path class="cls-5" d="M1450.9,387.9a11.53,11.53,0,0,1,4.59,5,11.85,11.85,0,0,1,1.07,5.82,10.73,10.73,0,0,1-2.3,5.71,16.12,16.12,0,0,1-6,4.64,18.43,18.43,0,0,1-4.74,1.52,11,11,0,0,1-4.81.21,140.54,140.54,0,0,1-26.15-8.3,159.71,159.71,0,0,1-23.11-12.35c-2.13-1.37-4.46-2.83-7-4.37a17.88,17.88,0,0,1-6.09-6c-2.72-4.47-3.21-9.21-.68-13.94,14.26-27.33,46.82-46.3,67.15-70.82a10.83,10.83,0,0,1-.63-5.08,15.77,15.77,0,0,1,1.53-5.38,15,15,0,0,1,3.42-4.64,11.6,11.6,0,0,1,5.2-2.74,21.26,21.26,0,0,1,10.64-.2c3.66.85,7.25,1.79,10.73,2.82a131.16,131.16,0,0,1,21.15,8.48q10.22,5.16,20.86,10.57a76.68,76.68,0,0,0,7.52,3.4,16.43,16.43,0,0,1,6.72,4.54,10.24,10.24,0,0,1,2.58,7,12.45,12.45,0,0,1-2.31,6.83,15.25,15.25,0,0,1-6.08,5,16.26,16.26,0,0,1-9,1.34,28.17,28.17,0,0,1-10.89-3.7q-5-2.94-9.65-5.41-6.86-3.63-13.91-7a130.26,130.26,0,0,0-14.72-5.92c-6.58,8-14.26,15.54-22.13,22.94a144.73,144.73,0,0,0,13.42,6.71q7,3.08,14.13,6.08,3.11,1.4,6.37,2.63a26.49,26.49,0,0,1,6,3.26q3.56,2.68,3.43,6.42a12.71,12.71,0,0,1-2.49,7.09,16.59,16.59,0,0,1-6.84,5.44,16.33,16.33,0,0,1-9.51,1.32,47.48,47.48,0,0,1-10.42-3q-6.11-2.38-12.49-5.33t-12.39-5.94c-4-2-7.29-3.7-9.89-5.14a198.22,198.22,0,0,0-18.58,20.8,121.1,121.1,0,0,0,21.07,11.06,192.61,192.61,0,0,0,23.84,8Z"/><ellipse class="cls-6" cx="1648.5" cy="116.32" rx="31.35" ry="10.24"/><polygon class="cls-6" points="1694.87 133.35 1676.13 116 1693.92 96.81 1694.87 133.35"/><ellipse class="cls-6" cx="1683.91" cy="145.97" rx="20.2" ry="6.6"/><polygon class="cls-6" points="1713.79 156.94 1701.71 145.76 1713.17 133.4 1713.79 156.94"/><ellipse class="cls-6" cx="1680.41" cy="174.03" rx="22.28" ry="7.64"/><polygon class="cls-6" points="1713.37 186.74 1700.05 173.79 1712.69 159.47 1713.37 186.74"/><ellipse class="cls-6" cx="1742.44" cy="173.86" rx="19.13" ry="6.25"/><polygon class="cls-6" points="1770.74 184.26 1759.3 173.67 1770.16 161.95 1770.74 184.26"/><ellipse class="cls-6" cx="1728.57" cy="112.13" rx="20.78" ry="6.79"/><polygon class="cls-6" points="1759.31 123.42 1746.88 111.92 1758.67 99.19 1759.31 123.42"/><ellipse class="cls-6" cx="1601.94" cy="157.92" rx="31.35" ry="10.24"/><polygon class="cls-6" points="1648.31 174.95 1629.57 157.6 1647.36 138.4 1648.31 174.95"/><ellipse class="cls-6" cx="461.09" cy="431.15" rx="24.75" ry="8.09"/><polygon class="cls-6" points="424.48 444.6 439.28 430.9 425.24 415.75 424.48 444.6"/><ellipse class="cls-6" cx="433.14" cy="454.56" rx="15.95" ry="5.21"/><polygon class="cls-6" points="409.55 463.22 419.08 454.39 410.04 444.63 409.55 463.22"/><ellipse class="cls-6" cx="435.9" cy="476.71" rx="17.59" ry="6.03"/><polygon class="cls-6" points="409.88 486.74 420.4 476.52 410.42 465.21 409.88 486.74"/><ellipse class="cls-6" cx="386.94" cy="476.57" rx="15.1" ry="4.94"/><polygon class="cls-6" points="364.59 484.78 373.62 476.42 365.05 467.17 364.59 484.78"/><ellipse class="cls-6" cx="397.89" cy="427.84" rx="16.41" ry="5.36"/><polygon class="cls-6" points="373.62 436.76 383.42 427.68 374.12 417.63 373.62 436.76"/><ellipse class="cls-6" cx="497.84" cy="463.99" rx="24.75" ry="8.09"/><polygon class="cls-6" points="461.24 477.43 476.03 463.73 461.99 448.58 461.24 477.43"/><circle class="cls-5" cx="510.59" cy="182.81" r="16"/><circle class="cls-5" cx="526.09" cy="211.31" r="9.5"/><circle class="cls-5" cx="516.59" cy="240.81" r="8"/><circle class="cls-5" cx="985.59" cy="73.81" r="16"/><circle class="cls-5" cx="1001.09" cy="102.31" r="9.5"/><circle class="cls-5" cx="991.59" cy="131.81" r="8"/><circle class="cls-5" cx="1355.59" cy="125.81" r="16"/><circle class="cls-5" cx="1340.09" cy="154.31" r="9.5"/><circle class="cls-5" cx="1349.59" cy="183.81" r="8"/><circle class="cls-5" cx="1177.4" cy="342.41" r="16"/><circle class="cls-5" cx="1168.04" cy="373.48" r="9.5"/><circle class="cls-5" cx="1183.35" cy="400.42" r="8"/><circle class="cls-5" cx="815.59" cy="333.81" r="16"/><circle class="cls-5" cx="831.09" cy="362.31" r="9.5"/><circle class="cls-5" cx="821.59" cy="391.81" r="8"/><path class="cls-7" d="M353.63,213.42a3.27,3.27,0,0,1-1.29,1.9c-.82.75-1.42,1.13-1.79,1.13a5.06,5.06,0,0,0-.93.05v13.86a18.43,18.43,0,0,1,.55,2c.33,2.34.05,3.72-.82,4.12a2.47,2.47,0,0,1-.83.11,12.82,12.82,0,0,1-4.95-1.37q-3.24-1.44-4-2.86c0-.33-.09-.83-.16-1.49-.08-.25.05-.6.38-1a2.47,2.47,0,0,0,.5-.83V217.93c-.7.08-2.08.35-4.13.83a34.79,34.79,0,0,0-4.07,1.1V231a1.69,1.69,0,0,0,.36.91,2.49,2.49,0,0,1,.41.8c-.15.58-.28,1.15-.38,1.7a1,1,0,0,1-.61.77q-.89.33-4.92-1c-2.7-.89-4.12-1.62-4.27-2.17a4,4,0,0,1-.1-1.32,13.88,13.88,0,0,0,.16-1.54V194a16,16,0,0,1,.5-3c.07-.37.69-.88,1.87-1.54a1.68,1.68,0,0,1,.6-.06A15.24,15.24,0,0,1,330,190c1.94.59,3,1.36,3.08,2.31a4.94,4.94,0,0,1-.47,1.87,6.59,6.59,0,0,0-.52,1.87v13.42c2.49-.62,5.23-1.26,8.2-1.92V192.19a5.79,5.79,0,0,0-.25-.82,2.1,2.1,0,0,1-.14-1.16c.18-.66.79-1.08,1.82-1.26.77-.11,1.53-.2,2.31-.28a8,8,0,0,1,3.54.72c1.56.58,2.43,1.21,2.61,1.87a1.81,1.81,0,0,1-.21,1.15,4.26,4.26,0,0,0-.39,1.54v15.18c.18.22,1.05,1,2.59,2.37C353.2,212.38,353.67,213,353.63,213.42Z"/><path class="cls-7" d="M379.81,225q.49.83-2.14,4.9a17.89,17.89,0,0,1-5.61,5.88,2.29,2.29,0,0,1-1,.17,16.71,16.71,0,0,1-5.61-1.32c-2.46-.88-4.07-1.84-4.84-2.86q-3.19-4.12-3.19-11.44a25.64,25.64,0,0,1,2.8-12.21q3-5.78,7.7-5.89a11,11,0,0,1,4.13.88,13.52,13.52,0,0,1,4.89,3.14,6.84,6.84,0,0,1,.94,3,25.05,25.05,0,0,1,.55,5.17q0,3.73-1.21,5.17a42.72,42.72,0,0,1-11.55,2,19.64,19.64,0,0,0,.66,5.67c.51,2,1,3,1.59,3,.74,0,1.62-.57,2.64-1.81a8.1,8.1,0,0,0,1.71-2.7,28.47,28.47,0,0,1,1-3.41,9.32,9.32,0,0,1,3.47.88C378.51,223.87,379.52,224.46,379.81,225ZM370,208.14q-.93-.1-2.61,3a15.52,15.52,0,0,0-2,5.89,7.13,7.13,0,0,0,4-1.21c.59-.44.88-2.28.88-5.5C370.3,208.93,370.21,208.22,370,208.14Z"/><path class="cls-7" d="M394.39,191.81a3.1,3.1,0,0,1-.25,1c-.16.44-.27.72-.3.83a25.39,25.39,0,0,0-.66,3.41v33.77a2.16,2.16,0,0,0,.33,1.18,1.74,1.74,0,0,1,.33.85c0,2.35-.44,3.61-1.32,3.8a25.83,25.83,0,0,1-7.1-2.09,2.83,2.83,0,0,1-1.21-1.93.87.87,0,0,1,.22-.49,1.53,1.53,0,0,0,.22-.94V192.47a1.44,1.44,0,0,0-.19-.69,1.44,1.44,0,0,1-.19-.69c.07-.88.75-1.46,2-1.76a11.88,11.88,0,0,1,2.31,0,17,17,0,0,1,3.52.61C393.64,190.38,394.39,191,394.39,191.81Z"/><path class="cls-7" d="M412.76,235.31a2.3,2.3,0,0,1-1.05.28q-1.43,0-4.78-3.36v10.62a7.66,7.66,0,0,0,.49,1.56,5.09,5.09,0,0,1,.44,1.68c0,.77-.51,1.16-1.54,1.16a15.91,15.91,0,0,1-4-.77c-1.07-.33-2.13-.68-3.19-1a2,2,0,0,1-1.6-1.7,5.39,5.39,0,0,1,.42-2.15,13.8,13.8,0,0,0,.52-1.81V204a5.73,5.73,0,0,0-.28-2.31c-.55-.91-.71-1.56-.49-1.92s.62-.44,1.43-.44a21.56,21.56,0,0,1,3.79.49c1.95.41,3,.61,3.14.61a1.83,1.83,0,0,1,1.43,1.32,3.69,3.69,0,0,1,0,.77,50.15,50.15,0,0,1-.66,6.71q1.32-2.64,2.64-5.23,1.77-3.35,3.25-3.08,10.78,2.26,10.78,13.42A27.12,27.12,0,0,1,420.16,227Q416.77,233.45,412.76,235.31Zm-1.21-25.57q-2-.23-4.46,19.85,3.09-1.36,5.59-6.05a18.64,18.64,0,0,0,2.5-8.69C415.18,211.74,414,210,411.55,209.74Z"/><path class="cls-7" d="M1240.44,458.08c2,1,3.57,2.88,4.67,5.78a26.59,26.59,0,0,1,1.48,9.35,30.25,30.25,0,0,1-2.53,12.87q-2.79,5.82-7,5.28c-1-.26-2.57-.57-4.62-.94a24.58,24.58,0,0,1-4.07-.82q-3.14-.83-5-5.34a25.92,25.92,0,0,1-1.7-9.79,28.76,28.76,0,0,1,1.76-10.28q2-5.07,5.55-7.1a3.5,3.5,0,0,1,1.65-.33,25.17,25.17,0,0,1,4.35.72A32.47,32.47,0,0,1,1240.44,458.08Zm-6.16,4.95q-1.48,0-2.75,3.6a20.74,20.74,0,0,0-1.27,6.91,32.66,32.66,0,0,0,.94,7.81c.69,2.78,1.5,4.29,2.42,4.51q1.76.38,3.13-4a30.61,30.61,0,0,0,1.32-9.24,22.37,22.37,0,0,0-.71-5.56Q1236.37,463,1234.28,463Z"/><path class="cls-7" d="M1276.46,458.19a2,2,0,0,1,.38,1.1,2.24,2.24,0,0,1-.63,1.32,2.72,2.72,0,0,0-.63,1v25.58a3.52,3.52,0,0,0,.36,1.15,3.7,3.7,0,0,1,.35,1.21c0,.66-.56,1.14-1.7,1.43a11.46,11.46,0,0,1-4.13-.6c-2.34-.59-3.63-1.18-3.85-1.76a2.88,2.88,0,0,1,.17-1.93,6.63,6.63,0,0,0,.55-2,8.3,8.3,0,0,0-.17-1.43,17.17,17.17,0,0,1-2.31,4.9c-1.21,1.68-2.42,2.53-3.63,2.53a13.22,13.22,0,0,1-4.84-1.27c-2-.84-3.11-1.61-3.41-2.31q-1.53-3.51-1.54-26A5.45,5.45,0,0,1,1251,459a2.32,2.32,0,0,1,1.27-2.31,3.87,3.87,0,0,1,1.37-.17,20.58,20.58,0,0,1,4.46.58,7,7,0,0,1,3.13,1.18,1.07,1.07,0,0,1,.28.72,4.62,4.62,0,0,1-.83,2,4.56,4.56,0,0,0-.82,1.95q-.11,21.68.33,21.84.77.27,3.88-5.09t3.1-8.17V461.22a2.43,2.43,0,0,1-.71-1.76,2.89,2.89,0,0,1,1.87-2.92,1.57,1.57,0,0,1,.66-.11,20.17,20.17,0,0,1,4.34.69C1275.23,457.58,1276.28,457.94,1276.46,458.19Z"/><path class="cls-7" d="M1301.37,462.65a3,3,0,0,1-.66,1.76,1.7,1.7,0,0,1-1.32.77,1.12,1.12,0,0,1-.38-.06,13.47,13.47,0,0,0-3.47-.27v21.72a8.82,8.82,0,0,1,.36.88,4.74,4.74,0,0,1,.36,1.65c0,1.07-.74,1.63-2.2,1.71a14.65,14.65,0,0,1-4.24-1c-2.23-.74-3.43-1.41-3.57-2a3.2,3.2,0,0,1,.38-1.62,5.71,5.71,0,0,0,.5-1.9V464.79h-1.87c-.7,0-1.56-.61-2.59-1.84a5.37,5.37,0,0,1-1.54-2.94,2.08,2.08,0,0,1,.64-1.49,1.89,1.89,0,0,1,1.4-.66h4v-4.95a3.86,3.86,0,0,1-.83-2.36,1.31,1.31,0,0,1,1-1.43,6.26,6.26,0,0,1,1.38-.11,21.59,21.59,0,0,1,4.76.63,10,10,0,0,1,3.54,1.29,1,1,0,0,1,.39.77,3.29,3.29,0,0,1-.88,1.65,4.31,4.31,0,0,0-.94,1.54v3h1.76q.56,0,2.31,2C1300.79,461.16,1301.37,462.1,1301.37,462.65Z"/><path class="cls-7" d="M1335.47,458.08c2,1,3.58,2.88,4.68,5.78a26.59,26.59,0,0,1,1.48,9.35,30.25,30.25,0,0,1-2.53,12.87q-2.8,5.82-7,5.28c-1-.26-2.57-.57-4.62-.94a24.37,24.37,0,0,1-4.07-.82q-3.14-.83-5-5.34a25.92,25.92,0,0,1-1.7-9.79,28.54,28.54,0,0,1,1.76-10.28q2-5.07,5.55-7.1a3.5,3.5,0,0,1,1.65-.33,25.32,25.32,0,0,1,4.35.72A32.27,32.27,0,0,1,1335.47,458.08Zm-6.16,4.95c-1,0-1.9,1.2-2.75,3.6a21,21,0,0,0-1.26,6.91,33.17,33.17,0,0,0,.93,7.81c.7,2.78,1.51,4.29,2.42,4.51,1.18.25,2.22-1.07,3.14-4a30.61,30.61,0,0,0,1.32-9.24,21.92,21.92,0,0,0-.72-5.56C1331.73,464.39,1330.71,463,1329.31,463Z"/><path class="cls-7" d="M1364.46,448.29a3,3,0,0,1-.5,1.87q-.6,1.05-1.26,1a1.85,1.85,0,0,1-1-.58,2.33,2.33,0,0,0-1.15-.63q-2.54-.44-2.53,4.68v1.7c0,.74,0,1.25,0,1.54h1.76c.41,0,1.19.66,2.37,2s1.74,2.26,1.7,2.81a3.05,3.05,0,0,1-.66,1.76,1.7,1.7,0,0,1-1.32.77,1.08,1.08,0,0,1-.38-.06,13,13,0,0,0-3.47-.27v21.72a2.21,2.21,0,0,0,.47,1.13,1.59,1.59,0,0,1,.36,1.18,2.21,2.21,0,0,1-2.31,1.93,15.08,15.08,0,0,1-4.24-1c-2.24-.74-3.43-1.41-3.57-2a3.2,3.2,0,0,1,.38-1.62,5.71,5.71,0,0,0,.5-1.9V464.79h-1.87c-.7,0-1.55-.61-2.56-1.84a5.34,5.34,0,0,1-1.51-2.94,2.16,2.16,0,0,1,.6-1.49,1.84,1.84,0,0,1,1.38-.66h4a33.69,33.69,0,0,1,.71-8.41,6.81,6.81,0,0,1,7.1-5.17c.47,0,.95,0,1.43.05a7.65,7.65,0,0,1,3.74,1.82C1363.76,447.06,1364.38,447.78,1364.46,448.29Z"/><path class="cls-7" d="M1404.83,488.39a2.54,2.54,0,0,1-1.21,2,3.93,3.93,0,0,1-1.38.17,21.14,21.14,0,0,1-4.45-.58,7.8,7.8,0,0,1-3.14-1.13,1,1,0,0,1-.22-.66,5.64,5.64,0,0,1,.5-1.65l.71-1a2.2,2.2,0,0,0,.39-1.35q.1-21.66-.33-21.83-.83-.29-3.8,4c-2.13,3.05-3.19,5.48-3.19,7.32V486a2.41,2.41,0,0,1,.61,2.31,3,3,0,0,1-1.76,2.31,1.61,1.61,0,0,1-.66.11,20.33,20.33,0,0,1-4.35-.69,10,10,0,0,1-3.13-1,2,2,0,0,1-.11-2,1.84,1.84,0,0,1,.52-.58,1.14,1.14,0,0,0,.47-.8V446.7a2.45,2.45,0,0,0-.44-1.16,1.44,1.44,0,0,1-.28-1.21,2.11,2.11,0,0,1,1.71-1.48,11.41,11.41,0,0,1,4.12.6c2.35.59,3.63,1.19,3.85,1.82a3,3,0,0,1-.16,1.81,9.81,9.81,0,0,0-.39,3v10.29q3.07-3.91,5.94-3.91a12.88,12.88,0,0,1,4.84,1.29c2,.87,3.12,1.65,3.41,2.34q1.55,3.53,1.54,26A4.23,4.23,0,0,1,1404.83,488.39Z"/><path class="cls-7" d="M1420.17,488.5a2,2,0,0,1-1.37,2.47,3.86,3.86,0,0,1-.77.06,18.64,18.64,0,0,1-4.9-.83c-2.09-.59-3.32-1.21-3.68-1.87-.19-.29,0-.86.49-1.7a6.42,6.42,0,0,0,.5-3V460.5a11.89,11.89,0,0,1-.66-2.8c0-.48.68-.72,2-.72a15.15,15.15,0,0,1,4.59,1c2,.68,3.15,1.27,3.55,1.79a.88.88,0,0,1,.17.55,4.59,4.59,0,0,1-.64,1.65,4.48,4.48,0,0,0-.63,1.81v22.11a2.49,2.49,0,0,0,.63,1.38A3.16,3.16,0,0,1,1420.17,488.5Zm.17-38a1.37,1.37,0,0,1,.05.44,13.2,13.2,0,0,1-.49,3.14q-.56,2.08-1.05,2.31c-.37.14-1.94-.25-4.73-1.19s-4.27-1.6-4.45-2a1.66,1.66,0,0,1-.17-.83,7.45,7.45,0,0,1,.77-3.13c.59-1.25,1.25-2,2-2.09s2.31.17,4.4,1S1420,449.69,1420.34,450.49Z"/><path class="cls-7" d="M1444.1,484.15a6.2,6.2,0,0,1-2,4.84,8.28,8.28,0,0,1-5.64,1.87,7.64,7.64,0,0,1-1.92-.27c-1.25-.33-1.91-.52-2-.55l-2-.47a4.19,4.19,0,0,1-1.73-.85,13.3,13.3,0,0,1-2.37-3c-.62-1-1.23-2.07-1.81-3.13a7.13,7.13,0,0,1-.88-1.93c0-.51.36-.9,1.1-1.15a2.82,2.82,0,0,1,1-.11,31.57,31.57,0,0,1,4.15.35,8.28,8.28,0,0,1,2.72.61,12.56,12.56,0,0,1,.61,3.16c.22,1.69.6,2.53,1.15,2.53.84,0,1.27-1.13,1.27-3.41,0-2.89-.77-4.71-2.31-5.44q-5.28-2.48-6.93-4.4-2-2.37-2-7.15a11.44,11.44,0,0,1,1.65-5.92,6.47,6.47,0,0,1,3.91-3.32c.66-.15,2.78.55,6.38,2.09q.49.16,2.91.6a4.17,4.17,0,0,1,2.42,1.16,6.91,6.91,0,0,1,1.21,4c0,1.36.06,2.72.06,4.07a20.45,20.45,0,0,1,.38,2.2,1.57,1.57,0,0,1-1.48,1.76,8.57,8.57,0,0,1-3-.6,6.69,6.69,0,0,1-3.13-1.71,23.31,23.31,0,0,1-.33-4.12c-.11-2.46-.37-3.69-.77-3.69-.55,0-1.07.72-1.54,2.15a13.88,13.88,0,0,0-.72,4.45c0,1.95.42,3.17,1.27,3.69l5.36,3a10.65,10.65,0,0,1,3.71,3.11A10.08,10.08,0,0,1,1444.1,484.15Z"/><path class="cls-7" d="M1485.35,488.39a2.52,2.52,0,0,1-1.22,2,3.83,3.83,0,0,1-1.37.17,21.14,21.14,0,0,1-4.45-.58,7.8,7.8,0,0,1-3.14-1.13,1,1,0,0,1-.22-.66,5.64,5.64,0,0,1,.5-1.65l.71-1a2.2,2.2,0,0,0,.38-1.35q.12-21.66-.33-21.83c-.54-.19-1.81,1.15-3.79,4-2.13,3.05-3.19,5.48-3.19,7.32V486a2.41,2.41,0,0,1,.61,2.31,3,3,0,0,1-1.76,2.31,1.61,1.61,0,0,1-.66.11,20.33,20.33,0,0,1-4.35-.69,10,10,0,0,1-3.13-1,2,2,0,0,1-.11-2,1.84,1.84,0,0,1,.52-.58,1.14,1.14,0,0,0,.47-.8V446.7a2.38,2.38,0,0,0-.45-1.16,1.47,1.47,0,0,1-.27-1.21,2.11,2.11,0,0,1,1.71-1.48,11.41,11.41,0,0,1,4.12.6c2.35.59,3.63,1.19,3.85,1.82a3,3,0,0,1-.16,1.81,9.81,9.81,0,0,0-.39,3v10.29q3.07-3.91,5.94-3.91a12.88,12.88,0,0,1,4.84,1.29c2,.87,3.12,1.65,3.41,2.34q1.55,3.53,1.54,26A4.23,4.23,0,0,1,1485.35,488.39Z"/><path class="cls-7" d="M1515.16,458.19a2,2,0,0,1,.38,1.1,2.24,2.24,0,0,1-.63,1.32,2.72,2.72,0,0,0-.63,1v25.58a3.43,3.43,0,0,0,.35,1.15,3.54,3.54,0,0,1,.36,1.21c0,.66-.57,1.14-1.7,1.43a11.44,11.44,0,0,1-4.13-.6c-2.35-.59-3.63-1.18-3.85-1.76a2.86,2.86,0,0,1,.16-1.93,6.75,6.75,0,0,0,.56-2,8.3,8.3,0,0,0-.17-1.43,17.17,17.17,0,0,1-2.31,4.9c-1.21,1.68-2.42,2.53-3.63,2.53a13.18,13.18,0,0,1-4.84-1.27c-2-.84-3.12-1.61-3.41-2.31q-1.55-3.51-1.54-26a5.45,5.45,0,0,1-.44-2.09,2.3,2.3,0,0,1,1.27-2.31,3.83,3.83,0,0,1,1.37-.17,20.66,20.66,0,0,1,4.46.58,7,7,0,0,1,3.13,1.18,1.12,1.12,0,0,1,.28.72,4.62,4.62,0,0,1-.83,2,4.62,4.62,0,0,0-.83,1.95q-.11,21.68.33,21.84.78.27,3.88-5.09t3.11-8.17V461.22a2.4,2.4,0,0,1-.72-1.76,2.89,2.89,0,0,1,1.88-2.92,1.54,1.54,0,0,1,.66-.11,20.26,20.26,0,0,1,4.34.69C1513.93,457.58,1515,457.94,1515.16,458.19Z"/><path class="cls-7" d="M1541.22,460.45a1.24,1.24,0,0,1-.6,1.43c-.44.22-.86.46-1.27.71q-3.46,5.28-9.4,14.25c0,5.83,0,8.83,0,9s.18.65.42,1.4a6.57,6.57,0,0,1,.35,1.79,1.43,1.43,0,0,1-.93,1.43,4.14,4.14,0,0,1-1.65.27,13.49,13.49,0,0,1-4.62-.93c-2.13-.74-3.19-1.67-3.19-2.81a5.05,5.05,0,0,1,.44-1.59,5.25,5.25,0,0,0,.44-1.82V461.82c-.4-2.05-.61-3.11-.61-3.19a2,2,0,0,1,1.54-2.14,6.7,6.7,0,0,1,1.6-.17,14.17,14.17,0,0,1,4,.63c1.41.43,2.25.88,2.5,1.35a1.15,1.15,0,0,1,.11.55,18.78,18.78,0,0,1-.77,2.64v2.64c.88-1.57,1.75-3.15,2.59-4.73,1.14-2,2-3,2.53-3.13.81-.15,2,.33,3.68,1.43S1541,459.71,1541.22,460.45Z"/><path class="cls-7" d="M1567,447.3a5.34,5.34,0,0,1-.41,2.15,13,13,0,0,0-.53,1.81v35.86a5.34,5.34,0,0,0,.28,2.26c.55.95.71,1.59.49,1.92s-.66.44-1.43.44a22.65,22.65,0,0,1-3.85-.49c-1.94-.41-3-.61-3.08-.61a1.74,1.74,0,0,1-1.43-1.32,2.81,2.81,0,0,1,0-.71,54.87,54.87,0,0,1,.6-6.71q-1.32,2.64-2.58,5.28-1.82,3.24-3.25,3-10.83-2.2-10.83-13.31a27.35,27.35,0,0,1,3.46-12.87q3.36-6.33,7.37-8.25a2.3,2.3,0,0,1,1-.28q1.38,0,4.78,3.41V448.18a7.88,7.88,0,0,0-.49-1.57,5.32,5.32,0,0,1-.44-1.67c0-.77.51-1.16,1.54-1.16a15.31,15.31,0,0,1,4,.77q1.65.56,3.24,1.05A2,2,0,0,1,1567,447.3Zm-9.57,14.19c-2.06.92-3.91,2.94-5.58,6.05a18.61,18.61,0,0,0-2.51,8.69c0,3.12,1.21,4.82,3.63,5.12Q1554.93,481.56,1557.45,461.49Z"/><path class="cls-7" d="M1582.31,446.81a3.1,3.1,0,0,1-.25,1c-.16.44-.27.72-.3.83a25.39,25.39,0,0,0-.66,3.41v33.77a2.16,2.16,0,0,0,.33,1.18,1.74,1.74,0,0,1,.33.85c0,2.35-.44,3.61-1.32,3.8a25.83,25.83,0,0,1-7.1-2.09,2.83,2.83,0,0,1-1.21-1.93.87.87,0,0,1,.22-.49,1.53,1.53,0,0,0,.22-.94V447.47a1.44,1.44,0,0,0-.19-.69,1.44,1.44,0,0,1-.19-.69c.07-.88.75-1.46,2-1.76a11.88,11.88,0,0,1,2.31,0,17,17,0,0,1,3.52.61C1581.56,445.38,1582.31,446,1582.31,446.81Z"/><path class="cls-7" d="M1608.43,480q.49.82-2.14,4.9a17.89,17.89,0,0,1-5.61,5.88,2.29,2.29,0,0,1-1,.17,16.71,16.71,0,0,1-5.61-1.32c-2.46-.88-4.07-1.84-4.84-2.86q-3.2-4.12-3.19-11.44a25.64,25.64,0,0,1,2.8-12.21q3-5.77,7.7-5.89a11.07,11.07,0,0,1,4.13.88,13.52,13.52,0,0,1,4.89,3.14,7,7,0,0,1,.94,3,25.76,25.76,0,0,1,.55,5.17c0,2.49-.41,4.21-1.21,5.17a42.72,42.72,0,0,1-11.55,2,19,19,0,0,0,.66,5.67c.51,2,1,3,1.59,3,.74,0,1.62-.57,2.64-1.81a8.1,8.1,0,0,0,1.71-2.7,26.76,26.76,0,0,1,1-3.41,9.36,9.36,0,0,1,3.47.88C1607.13,478.87,1608.14,479.46,1608.43,480Zm-9.79-16.83q-.93-.11-2.61,3a15.52,15.52,0,0,0-2,5.89,7.13,7.13,0,0,0,4-1.21c.58-.44.88-2.28.88-5.5C1598.92,463.93,1598.83,463.22,1598.64,463.14Z"/><path class="cls-8" d="M552.7,864.81C548,875.5,537.13,939.38,503.39,976c-20.24,22-48.44,32.86-54.11,28.73-12.44-9.09,13-33.29,11.06-73-4.46-93,34.4-131.33,48.28-135,9.66-2.55-22.72-35-13.48-44.65,8.07-8.4,25.57-10.34,34.27-9.72,23,1.64,2,27.72,17.25,39.41C576.88,805,559.35,849.8,552.7,864.81Z"/><path class="cls-9" d="M557.82,862.5c-4.7,10.61-15.26,75.31-48.75,111.67C489,996,461,1006.8,455.34,1002.69c-12.35-9,12.87-33.05,11-72.49-4.42-92.3,34.16-130.4,47.94-134,9.59-2.53-22.56-34.77-13.38-44.33,8-8.34,25.39-10.26,34-9.65,22.86,1.63,2,27.52,17.13,39.13C582,804.35,564.42,847.6,557.82,862.5Z"/><ellipse class="cls-10" cx="361.48" cy="830.95" rx="58.12" ry="43.82" transform="translate(-200.54 120.12) rotate(-14.82)"/><ellipse class="cls-10" cx="419.88" cy="822.66" rx="54.89" ry="41.51" transform="translate(-196.47 134.78) rotate(-14.82)"/><ellipse class="cls-10" cx="468.22" cy="790.78" rx="62.73" ry="45.2" transform="translate(-186.71 146.09) rotate(-14.82)"/><path class="cls-11" d="M253.57,837.76c-1.27.66-21.81,3.76-23.39,4.75s-1.45,2.29,1.26,5.76c2.29,2.94,34.71,11.23,41.82,11.3,11,.12,29-16.3,30.37-18.51s-9.53-8.55-11-9.37C290,830.21,267,830.73,253.57,837.76Z"/><path class="cls-12" d="M234,869.81c-3.3,1.86-48.86,11.32-53.12,14.07-4.42,2.87-5.29,6.24-3.15,15.43,1.81,7.77,60.62,28.27,75.25,28.07,22.59-.29,76.28-45.44,81.29-51.44s-11.2-22.47-13.41-24.6C316.91,847.52,268.87,850.17,234,869.81Z"/><path class="cls-13" d="M245.63,934.6c-1.36,4.53-33.45,35.21-34.93,41.41-1.54,6.44.31,10.42,9.13,17.49,7.46,6,72.7-23.17,84.89-35.52C323.54,938.9,334.31,850.69,334,840.74s-26.61-12.35-30.1-12.56C297.57,827.8,260,886.68,245.63,934.6Z"/><path class="cls-14" d="M249.83,933.76c-1.45,4.5-34.16,34.52-35.77,40.69-1.67,6.41.1,10.42,8.77,17.68,7.34,6.14,73.17-21.68,85.6-33.78,19.21-18.69,31.79-106.66,31.63-116.62s-26.35-12.89-29.84-13.17C304,828.05,265.18,886.14,249.83,933.76Z"/><circle class="cls-15" cx="272.46" cy="923.69" r="10.15"/><path class="cls-15" d="M271.78,874.25c9.4,5,14.3,16.93,9.57,25.81s-16.2,12-25.59,7l8.39-18.38Z"/><circle class="cls-15" cx="303.61" cy="870.12" r="15.22"/><circle class="cls-15" cx="301.3" cy="897.45" r="6"/><circle class="cls-15" cx="287.32" cy="905.93" r="4.15"/><path class="cls-8" d="M630.31,808.33C633.09,820.76,648,901.09,642.15,955c-3.48,32.36-21.13,60.18-28.77,60.22-16.78.11-10.22-37.54-37.64-71.1-64.14-78.51-55-137.3-45.21-149.51,6.81-8.49-42.59-15.93-40.74-30.35,1.62-12.59,15.69-25.63,23.71-30.72,21.22-13.48,19.72,23,40.65,23.33C595.65,757.62,626.4,790.88,630.31,808.33Z"/><path class="cls-16" d="M637.44,806.44c2.78,12.43,17.65,92.76,11.84,146.69-3.48,32.36-21.12,60.18-28.77,60.23-16.78.1-10.22-37.55-37.64-71.11-64.14-78.51-55-137.3-45.2-149.5,6.8-8.5-42.59-15.94-40.74-30.36,1.61-12.59,15.69-25.63,23.7-30.72,21.22-13.48,19.73,23,40.65,23.33C602.79,755.73,633.53,789,637.44,806.44Z"/><path class="cls-17" d="M538.15,682.7c17.35,28.88-37.25,108.13-101.58,141.74s-138,50.58-172.7,17.48,36.52-27.72,83.86-46.57C505.68,732.43,520.79,653.82,538.15,682.7Z"/><path class="cls-18" d="M536.26,675.56C553.61,704.44,499,783.69,434.68,817.31s-138,50.58-172.69,17.47,36.52-27.71,83.85-46.57C503.79,725.3,518.91,646.68,536.26,675.56Z"/><path class="cls-19" d="M352.55,669.18c27.88-14.16,48.3-16,70.13-9,11.47,3.65,72.06-16.2,98,31.33,4.94,9-14.67,56.37-23.9,68.35-26.25,34.07-66.45,33.81-81.5,45.43C352.1,854,345,821,327.64,827.5c-42.37,15.87-53.92-3.52-59.2-25.37-9.54-39.49,19-65.15,25.87-71.73C301.89,723.11,305.43,693.1,352.55,669.18Z"/><path class="cls-20" d="M352.68,662.47c27.89-14.16,48.3-16,70.14-9,11.46,3.65,72.05-16.21,98,31.33,4.94,9.05-14.67,56.36-23.9,68.35-26.25,34.07-66.45,33.8-81.5,45.42-63.17,48.75-70.27,15.73-87.64,22.24-42.37,15.86-53.92-3.53-59.2-25.37-9.53-39.5,19-65.16,25.87-71.74C302,716.39,305.57,686.38,352.68,662.47Z"/><circle class="cls-15" cx="282.34" cy="869.07" r="4.15"/><circle class="cls-15" cx="608.21" cy="800.5" r="18.45"/><circle class="cls-15" cx="576.08" cy="823.31" r="12.92"/><circle class="cls-15" cx="597.58" cy="825.26" r="5.54"/><path class="cls-15" d="M646.92,863.46c-10.54,1.55-22.22-9.62-24.49-25.08s4.44-29.24,15-30.79l5.79,30.8Z"/><circle class="cls-15" cx="585.35" cy="773.62" r="9.69"/><circle class="cls-15" cx="572.33" cy="794.72" r="6.46"/><circle class="cls-15" cx="609.82" cy="844.44" r="9.69"/><ellipse class="cls-21" cx="364.33" cy="698.21" rx="63.09" ry="31.37" transform="translate(-289.41 259.06) rotate(-28.55)"/><ellipse class="cls-21" cx="301.6" cy="777.45" rx="39.43" ry="30.12" transform="translate(-523 901.62) rotate(-77.36)"/><ellipse class="cls-21" cx="378.57" cy="773.18" rx="42.87" ry="36.75" transform="translate(-275.68 213.65) rotate(-23.37)"/><ellipse class="cls-21" cx="457.87" cy="715.92" rx="47.54" ry="42.62" transform="matrix(0.77, -0.64, 0.64, 0.77, -352.63, 460.44)"/><path class="cls-22" d="M470.25,622c.13,12.92-20.65,6.67-19.9,38,1.53,64.44,75.88,89.62,145.77,88.9,75.37-.78,150.37-22.56,149.46-93-.28-22-23.42-29.8-23.5-37.44-.54-51.33-10.29-104.42-45.55-106.6-37.7-2.32-29.61-23.63-81.72-22.16-52.31,1.47-39,20.7-67.58,22.84C484.88,515.72,469.67,566.61,470.25,622Z"/><ellipse class="cls-23" cx="534.44" cy="587.43" rx="40.59" ry="52.12" transform="translate(-6.07 5.58) rotate(-0.6)"/><ellipse class="cls-23" cx="665.87" cy="583.76" rx="40.13" ry="54.43" transform="translate(-6.03 6.95) rotate(-0.6)"/><ellipse class="cls-24" cx="664.31" cy="587.93" rx="38.52" ry="51.2" transform="translate(-6.07 6.93) rotate(-0.6)"/><ellipse class="cls-24" cx="538.65" cy="593.24" rx="38.28" ry="50.89" transform="translate(-6.13 5.63) rotate(-0.6)"/><ellipse class="cls-25" cx="548.23" cy="600.83" rx="30.9" ry="23.25" transform="translate(-115.86 1070.44) rotate(-82.89)"/><ellipse class="cls-26" cx="551.41" cy="606.53" rx="22.21" ry="16.71" transform="translate(-62.73 1149.45) rotate(-89.2)"/><circle class="cls-27" cx="545.08" cy="595.78" r="4.15"/><ellipse class="cls-25" cx="656.16" cy="595.94" rx="30.9" ry="23.25" transform="matrix(0.05, -1, 1, 0.05, 27.49, 1220.81)"/><ellipse class="cls-26" cx="655.45" cy="599" rx="22.21" ry="16.71" transform="translate(23.75 1223.01) rotate(-87.07)"/><circle class="cls-27" cx="664.25" cy="587.73" r="4.15"/><ellipse class="cls-15" cx="582.45" cy="643.65" rx="6" ry="3.23" transform="translate(-173.05 1071.15) rotate(-77.36)"/><ellipse class="cls-15" cx="621.5" cy="643.34" rx="3.23" ry="5.54" transform="translate(-219.43 338.39) rotate(-26.06)"/><path class="cls-28" d="M655.08,669.29c-6.63,11.4-27.38,20.28-54,22.29s-51.21-6.58-54.9-19.24"/><path class="cls-28" d="M663,668.9c-2.81,3.43-5.7.74-7-.37s-6.18-4.75-3.36-8.18"/><path class="cls-28" d="M545.27,664.25c4.37,2.72,1.72,6.45.65,8.17s-4.53,7.82-8.9,5.11"/><ellipse class="cls-29" cx="512.69" cy="651.85" rx="5.18" ry="12.37" transform="translate(-235.55 1009.47) rotate(-77.36)"/><ellipse class="cls-29" cx="682.07" cy="648.65" rx="12.45" ry="4.28" transform="translate(-143.24 196.06) rotate(-14.82)"/><circle class="cls-15" cx="582.53" cy="517.67" r="7.44"/><circle class="cls-15" cx="608.27" cy="513.17" r="3.72"/><circle class="cls-15" cx="601.85" cy="525.25" r="4.09"/><circle class="cls-15" cx="623.42" cy="519.54" r="5.58"/><circle class="cls-15" cx="588.61" cy="533.37" r="5.58"/><circle class="cls-15" cx="613.52" cy="534.47" r="5.58"/><circle class="cls-15" cx="595.13" cy="508.57" r="5.58"/><circle class="cls-15" cx="576.34" cy="500.08" r="8.92"/><circle class="cls-15" cx="619.31" cy="502.55" r="8.92"/><circle class="cls-15" cx="603.63" cy="497.09" r="5.58"/><circle class="cls-15" cx="591.89" cy="496.34" r="3.35"/><circle class="cls-15" cx="632.64" cy="507.87" r="4.09"/><circle class="cls-30" cx="994.68" cy="598.94" r="186.87"/><circle class="cls-31" cx="986.33" cy="589.54" r="183.74"/><ellipse class="cls-32" cx="914.95" cy="497.86" rx="9.79" ry="10.11"/><ellipse class="cls-33" cx="879.83" cy="505.27" rx="6.25" ry="6.45"/><ellipse class="cls-34" cx="929.5" cy="458.01" rx="14.16" ry="14.62"/><path class="cls-24" d="M981,520.82l85.7,63.65a25.79,25.79,0,0,1,10.22,16.61l.06.39a26,26,0,0,1-10.89,24.86L978.65,688a18.71,18.71,0,0,0-1.69,1.37c-12.61,11.19-40.61-1-40.37-18.08V532.37c.24-17.12,30.48-24.25,42.78-12.94C979.89,519.91,980.43,520.39,981,520.82Z"/><path class="cls-35" d="M1428.9,807.4l-61.56,32.08a3.85,3.85,0,0,1-5.19-1.62s-24.72-30.06-25.29-48.53c-15-5.2-31.24-40.37-25.87-49.66-13.59-5.91-33.72-64.7-33.72-64.7-5.47-10.5-5.47-39.73,2.44-48.18l28.79-15c5.13-2.67,26.32,12.26,36.14,25.55,0,0,37.08,49.6,34.75,66.69,9.93-8.06,31.08,42.26,27.18,52.17,8.76-2,24,46,24,46A3.85,3.85,0,0,1,1428.9,807.4Z"/><path class="cls-36" d="M1428.14,809.25l-61.64,32.12a3.88,3.88,0,0,1-5.21-1.64s-24.83-30.24-25.43-48.8c-15-5.25-31.38-40.61-26-49.94-13.63-6-33.9-65.06-33.9-65.06-5.5-10.56-5.56-39.92,2.36-48.4l28.82-15c5.14-2.68,26.4,12.37,36.27,25.73,0,0,37.24,49.9,34.94,67.06,9.94-8.08,31.22,42.52,27.34,52.47,8.77-2,24.11,46.27,24.11,46.27A3.88,3.88,0,0,1,1428.14,809.25Z"/><rect class="cls-37" x="1268.21" y="596.62" width="33.79" height="14.8" rx="7.4" ry="7.4" transform="translate(-133.68 662.17) rotate(-27.52)"/><ellipse class="cls-38" cx="1281.56" cy="598.61" rx="16.25" ry="8.69" transform="translate(-131.58 659.92) rotate(-27.52)"/><ellipse class="cls-39" cx="1281.68" cy="597.46" rx="16.25" ry="8.69" transform="translate(-131.04 659.85) rotate(-27.52)"/><rect class="cls-40" x="1271.85" y="609.75" width="37.97" height="11.24" rx="5.62" ry="5.62" transform="translate(-138.28 666.11) rotate(-27.52)"/><path class="cls-41" d="M1309.8,741.74c-24.08-18.3-33.9-65.07-33.9-65.07l67.49-38.43s39.3,50.5,37.33,65.1c-.13,1,5-3.71-1.62,2.29C1356.56,736.24,1309.8,741.74,1309.8,741.74Z"/><ellipse class="cls-42" cx="1340.17" cy="680.44" rx="11.79" ry="15.66" transform="translate(-120.56 326.43) rotate(-13.3)"/><ellipse class="cls-24" cx="1340.45" cy="682.06" rx="11.29" ry="15.01" transform="translate(-120.93 326.54) rotate(-13.3)"/><ellipse class="cls-26" cx="1341.55" cy="686.72" rx="4.9" ry="6.51" transform="translate(-97.1 237.68) rotate(-9.77)"/><ellipse class="cls-42" cx="1311.26" cy="694.92" rx="11.79" ry="15.66" transform="translate(-170.7 772.97) rotate(-30.94)"/><ellipse class="cls-24" cx="1312.02" cy="696.37" rx="11.29" ry="15.01" transform="translate(-171.34 773.57) rotate(-30.94)"/><ellipse class="cls-26" cx="1314.48" cy="700.48" rx="4.9" ry="6.51" transform="translate(-174.9 683.88) rotate(-27.41)"/><circle class="cls-24" cx="1341.79" cy="684.47" r="2.16"/><circle class="cls-24" cx="1313.25" cy="699.34" r="2.16"/><ellipse class="cls-42" cx="1303.76" cy="676.75" rx="0.98" ry="10.13" transform="translate(481.35 1893.89) rotate(-83.39)"/><ellipse class="cls-42" cx="1330.63" cy="662.93" rx="9.56" ry="0.5" transform="translate(163.17 1583.3) rotate(-64.73)"/><path class="cls-43" d="M1310.71,717c4.47-3,14.31,8.19,18.9,7.19S1336,709,1341,708c1.47-.48,8.23,11.54,9.57,10.69s-6-12.79-4.95-13.81"/><path class="cls-42" d="M1450.44,693.79l0-.34c-.54-5.19,9.91-90.84,13.18-110.8,9-54.92,11.88,44.38,5.88,11.92s25-.08,42,1.55a12.68,12.68,0,0,0,4-.24l10.92-1.55a.47.47,0,0,0,.17,0c1-.23,8.23-2,10.07-3.21,15-9.72,24.64-9.7,27.3-11.75,8.45-6.51.57-62.33,10.05-11,.09.49,14.4,55,14.74,67.43a12.66,12.66,0,0,0,.74,3.91c9.26,25.9,9.95,51.47,10,56.12,0,.41,0,.83.08,1.24,2.15,17.34-31.59,16.88-33.15,16.88l-95-2a21.54,21.54,0,0,1-20.46-16.14A12.19,12.19,0,0,1,1450.44,693.79Z"/><path class="cls-44" d="M1544.19,601.14a6.4,6.4,0,0,0,3.49-1.61c13.69-12.55,11.85-118.67,31-29.14.11.55,15.14,57.53,15.14,66.52,11.49,30.71,11.24,61.67,11.24,61.67,3,18.73-33.06,18.23-34.71,18.23l-105.27-2.21a9.32,9.32,0,0,1-3.57-.79c-9.93-4.46-12.67-16.26-12.76-18.13l0-.36c-.56-5.45,1.21-87.34,12.82-130.38,19.12-70.88,16,16.54,24,36.87a9.37,9.37,0,0,0,9,5.94l.56,0Z"/><ellipse class="cls-42" cx="1533.84" cy="645.6" rx="15.64" ry="11.76" transform="translate(531.1 1973.75) rotate(-75.77)"/><ellipse class="cls-24" cx="1533.35" cy="647.17" rx="14.98" ry="11.27" transform="translate(529.21 1974.45) rotate(-75.77)"/><ellipse class="cls-26" cx="1532.17" cy="651.8" rx="6.5" ry="4.89" transform="translate(444.33 1912.35) rotate(-72.25)"/><ellipse class="cls-42" cx="1501.58" cy="645.08" rx="11.76" ry="15.64" transform="translate(-35.76 90.6) rotate(-3.42)"/><ellipse class="cls-24" cx="1501.58" cy="646.72" rx="11.27" ry="14.98" transform="translate(-35.86 90.6) rotate(-3.42)"/><ellipse class="cls-26" cx="1501.87" cy="651.49" rx="6.5" ry="4.89" transform="translate(847.56 2152.14) rotate(-89.89)"/><circle class="cls-24" cx="1533.42" cy="649.92" r="2.16"/><circle class="cls-24" cx="1501.3" cy="649.92" r="2.16"/><ellipse class="cls-42" cx="1503.32" cy="625.55" rx="0.97" ry="10.11" transform="translate(141.96 1518.84) rotate(-55.86)"/><ellipse class="cls-42" cx="1533.48" cy="625.7" rx="9.54" ry="0.5" transform="translate(-66.19 1054.78) rotate(-37.21)"/><path class="cls-43" d="M1486.11,660c4.5,1,5.39,15.34,9.52,16.47s13.29-10.29,17.28-7.79c2.46,1,.52,14.8,3,15.18s4.79-13.38,7.34-13.89"/><g class="cls-45"><circle class="cls-46" cx="993.21" cy="589.81" r="368"/><ellipse class="cls-47" cx="986.66" cy="582.6" rx="364.07" ry="359.49"/><ellipse class="cls-48" cx="799.73" cy="405.96" rx="23.17" ry="23.93"/><ellipse class="cls-48" cx="746.91" cy="432.99" rx="14.79" ry="15.28"/><ellipse class="cls-48" cx="823.8" cy="325.84" rx="33.52" ry="34.62"/><path class="cls-24" d="M891.43,458.55a13.32,13.32,0,0,1-4,10q-4,3.92-11.22,4.09a14.67,14.67,0,0,1-3.88-.58q-3.79-1.08-4-1.08c-1.32-.27-2.65-.56-4-.86a7.27,7.27,0,0,1-3.5-1.86,14,14,0,0,1-3.63-6.43,32.82,32.82,0,0,0-2.65-6.52A10.66,10.66,0,0,1,853,453a3.32,3.32,0,0,1,.45-2.43,3.19,3.19,0,0,1,1.69-1.53,6.63,6.63,0,0,1,1.82-.17,44.54,44.54,0,0,1,7,.7c2.78.47,4.33.9,4.66,1.28s.77,2.37,1.32,5.94c.5,3.3,1.24,5.15,2.23,5.53a1.64,1.64,0,0,0,.74.17c1,0,1.94-.87,2.68-2.6a14.71,14.71,0,0,0,1.12-5.9q0-7.18-4.46-9.57-10.23-5.54-14.35-10.23a17,17,0,0,1-4.29-12.87,26.13,26.13,0,0,1,4.49-12.5q4.1-6.31,8.63-7.39,1.89-.4,11.55,3.63,2.38.92,4.82,1.9a9.3,9.3,0,0,1,3.92,2.89q2.31,2.88,2.31,10c0,.88,0,2.18-.08,3.88-.06,1.48-.08,2.53-.08,3.14a10.31,10.31,0,0,0,.58,1.89,3.68,3.68,0,0,1,.33,1.82c-.12,2.42-1.13,3.77-3.06,4-1.1.17-3.13-.25-6.1-1.24q-5-1.56-6.27-3.38a4.31,4.31,0,0,1-.17-1.65c0-.83.1-2.69.29-5.61s.29-5,.29-6.35c0-2.37-.28-3.52-.83-3.47-1.7.11-3.12,1.34-4.25,3.67a18.21,18.21,0,0,0-1.69,8q0,7.43,4.38,10.57l9.9,6.27a20.18,20.18,0,0,1,6.51,6.1Q891.43,451.45,891.43,458.55Z"/><path class="cls-24" d="M931.37,455.91q.74,1.23-3.22,7.34-4.29,6.53-8.42,8.83a3.49,3.49,0,0,1-1.48.25,24.9,24.9,0,0,1-8.42-2q-5.52-2-7.26-4.29-4.79-6.18-4.78-17.16a38.49,38.49,0,0,1,4.2-18.31q4.54-8.67,11.55-8.83a16.25,16.25,0,0,1,6.19,1.32,20.35,20.35,0,0,1,7.35,4.7c.49.5,1,2,1.4,4.46a37.91,37.91,0,0,1,.82,7.75q0,5.61-1.81,7.76a64.64,64.64,0,0,1-17.33,3.05,29.09,29.09,0,0,0,1,8.5q1.15,4.45,2.39,4.54,1.65.07,4-2.73a12.15,12.15,0,0,0,2.55-4,42.2,42.2,0,0,1,1.57-5.11q1.32-.17,5.2,1.32C929.41,454.26,930.93,455.14,931.37,455.91Zm-14.69-25.25c-.94-.11-2.24,1.38-3.92,4.46a23.37,23.37,0,0,0-2.93,8.82,10.55,10.55,0,0,0,5.94-1.81q1.32-1,1.32-8.25C917.09,431.84,917,430.77,916.68,430.66Z"/><path class="cls-24" d="M964.78,429.92a4.52,4.52,0,0,1-1,2.64,2.55,2.55,0,0,1-2,1.15,1.73,1.73,0,0,1-.58-.08,20,20,0,0,0-5.19-.41v32.59a12,12,0,0,1,.53,1.32,7,7,0,0,1,.54,2.47c0,1.6-1.1,2.45-3.3,2.56a21.27,21.27,0,0,1-6.36-1.49q-5-1.64-5.36-3.05a4.92,4.92,0,0,1,.58-2.43,8.6,8.6,0,0,0,.74-2.85V433.13h-2.8q-1.58,0-3.88-2.76T934.42,426a3.11,3.11,0,0,1,1-2.23,2.85,2.85,0,0,1,2.1-1h5.94v-7.43a5.82,5.82,0,0,1-1.24-3.54,2,2,0,0,1,1.49-2.15,10,10,0,0,1,2.06-.16,31.65,31.65,0,0,1,7.14,1c2.72.63,4.5,1.27,5.32,1.93a1.51,1.51,0,0,1,.58,1.16,4.87,4.87,0,0,1-1.32,2.47,6.27,6.27,0,0,0-1.4,2.31v4.46h2.63q.83,0,3.47,3T964.78,429.92Z"/><path class="cls-24" d="M999.76,429.92a4.52,4.52,0,0,1-1,2.64,2.52,2.52,0,0,1-2,1.15,1.73,1.73,0,0,1-.58-.08,20,20,0,0,0-5.19-.41v32.59a12,12,0,0,1,.53,1.32,7,7,0,0,1,.54,2.47c0,1.6-1.1,2.45-3.3,2.56-1.16,0-3.27-.44-6.35-1.49q-5-1.64-5.37-3.05a5,5,0,0,1,.58-2.43,8.35,8.35,0,0,0,.74-2.85V433.13h-2.8q-1.58,0-3.88-2.76T969.4,426a3.15,3.15,0,0,1,1-2.23,2.85,2.85,0,0,1,2.1-1h5.94v-7.43a5.81,5.81,0,0,1-1.23-3.54,2,2,0,0,1,1.48-2.15,10.07,10.07,0,0,1,2.06-.16,31.65,31.65,0,0,1,7.14,1c2.72.63,4.5,1.27,5.32,1.93a1.48,1.48,0,0,1,.58,1.16,4.87,4.87,0,0,1-1.32,2.47,6.27,6.27,0,0,0-1.4,2.31v4.46h2.64q.83,0,3.46,3T999.76,429.92Z"/><path class="cls-24" d="M1021.21,468.7q.33,3-2.06,3.71a6.81,6.81,0,0,1-1.16.08,27.72,27.72,0,0,1-7.34-1.24c-3.13-.88-5-1.81-5.53-2.8-.27-.44,0-1.29.75-2.56a9.73,9.73,0,0,0,.74-4.54V426.7a17.77,17.77,0,0,1-1-4.21c0-.71,1-1.07,3-1.07a22.75,22.75,0,0,1,6.89,1.53c2.94,1,4.72,1.91,5.32,2.68a1.29,1.29,0,0,1,.25.82,7,7,0,0,1-1,2.48,6.82,6.82,0,0,0-.95,2.72v33.17a3.75,3.75,0,0,0,.95,2.06A4.83,4.83,0,0,1,1021.21,468.7Zm.25-57a1.84,1.84,0,0,1,.08.66,20.11,20.11,0,0,1-.74,4.71c-.55,2.09-1.07,3.24-1.57,3.46s-2.91-.37-7.09-1.77-6.41-2.41-6.69-3a2.54,2.54,0,0,1-.24-1.24,11.1,11.1,0,0,1,1.15-4.7q1.32-2.81,3-3.14,1.9-.33,6.6,1.44C1019.07,409.28,1020.91,410.47,1021.46,411.68Z"/><path class="cls-24" d="M1066.75,465.06a8.08,8.08,0,0,1,.66,3.14,3.39,3.39,0,0,1-1.89,3.38,5.81,5.81,0,0,1-2.07.25,31.22,31.22,0,0,1-6.68-.87c-2.59-.57-4.15-1.14-4.7-1.69a1.6,1.6,0,0,1-.41-1.07,6.91,6.91,0,0,1,1.23-2.93,6.79,6.79,0,0,0,1.24-2.93q.16-32.5-.49-32.75-1.16-.42-5.7,7.42-4.79,8.25-4.78,12.46V464.9a3.62,3.62,0,0,1,1.07,2.64,4.26,4.26,0,0,1-2.81,4.29,2.29,2.29,0,0,1-1,.17,30.46,30.46,0,0,1-6.51-1c-2.86-.68-4.46-1.25-4.79-1.69a2.39,2.39,0,0,1-.49-1.48,3.38,3.38,0,0,1,.94-2,3.82,3.82,0,0,0,1-1.49V426a3.66,3.66,0,0,0-.66-1.74,2.2,2.2,0,0,1-.41-1.81,3.16,3.16,0,0,1,2.56-2.23q1.32-.33,6.19.91,5.28,1.32,5.77,2.72a4.56,4.56,0,0,1-.24,2.73,22,22,0,0,0-.91,3.3,6.82,6.82,0,0,0,.33,2,25.94,25.94,0,0,1,3.46-7.35c1.82-2.58,3.63-3.88,5.45-3.88a19.37,19.37,0,0,1,7.26,1.94q4.45,2,5.11,3.51Q1066.75,431.32,1066.75,465.06Z"/><path class="cls-24" d="M1109.41,426.7a16.62,16.62,0,0,1-.91,1.65,4.56,4.56,0,0,0-.58,1.82V466.3q0,13.69-10.14,17.58a24.08,24.08,0,0,1-8.58,1.81,13.94,13.94,0,0,1-9.74-3.79,46.7,46.7,0,0,1-4-4.29l-1.57-1.57a3.27,3.27,0,0,1-.91-1.9c0-.82.77-1.48,2.48-2a4.15,4.15,0,0,1,1-.08,15.87,15.87,0,0,1,4.33.74,8.52,8.52,0,0,1,3.59,1.82l2.72,3.38a4.78,4.78,0,0,0,3.3,1.9c2.26.21,3.72-1.32,4.38-4.62a49,49,0,0,0,.49-8.5c-.16.22-.69.93-1.57,2.14a9.93,9.93,0,0,1-1.73,1.9,2.82,2.82,0,0,1-1.9.83,11.31,11.31,0,0,1-7.34-2.4q-8.84-7.42-8.83-21.86a34.24,34.24,0,0,1,3.88-16.42q4-7.75,10.56-9.74a2.86,2.86,0,0,1,.91-.16,5.13,5.13,0,0,1,3,1.24c.93.71,1.87,1.46,2.8,2.22.33-.93.68-1.85,1-2.76a2.16,2.16,0,0,1,1.7-1.53q1.73-.24,6.14,1.12c2.94.91,4.61,1.69,5,2.35A3.37,3.37,0,0,1,1109.41,426.7Zm-14.6,20.3a84.36,84.36,0,0,0,.66-9.33q0-6.68-2.15-7.5c-1.15-.44-2.56,1.51-4.21,5.85a33.81,33.81,0,0,0-2.47,11.88q0,9.74,2.23,15.43A37.69,37.69,0,0,0,1094.81,447Z"/><line class="cls-49" x1="1140" y1="321.68" x2="1114.89" y2="340.18"/><line class="cls-49" x1="1138.2" y1="342.22" x2="1116.69" y2="319.64"/><path class="cls-24" d="M783.17,586.18q-.34,2.15-1.2,2.34c-.79.2-2.32,0-4.57-.64s-3.75-1.33-4.08-2a1.9,1.9,0,0,1-.15-.75,6.29,6.29,0,0,1,.12-1,6.75,6.75,0,0,0,.13-1.12V560.46q-2.35,4.57-6.13,20.6a2,2,0,0,0,0,.45,11.08,11.08,0,0,0,.18,1.59,13.37,13.37,0,0,1,.17,1.39,13,13,0,0,1-.15,2,1.45,1.45,0,0,1-1,1.2,6.85,6.85,0,0,1-1.74.15q-6.48,0-8.91-2.24a1.37,1.37,0,0,1-.3-1.25,4.63,4.63,0,0,0,0-1.44q-1.85-5.67-3.28-9.95-3.49-10.35-4.53-12.2v19.81a6,6,0,0,0,.39,1.79,11.86,11.86,0,0,1,.55,1.74,9,9,0,0,1,.1,2.39c-.07,1.13-.3,1.83-.7,2.09a2.15,2.15,0,0,1-1.14.2,18.12,18.12,0,0,1-4.38-.64c-1.82-.44-2.9-.88-3.23-1.35a1.37,1.37,0,0,1-.25-.84,5.2,5.2,0,0,1,.17-1,4.65,4.65,0,0,0,.18-1.1V548.56a2.63,2.63,0,0,1,.49-1.37,2.5,2.5,0,0,1,1.15-1c.56-.23,2.74.17,6.52,1.2,3.94,1,6,1.92,6.27,2.68a2.85,2.85,0,0,1,0,1.2c-.1.7-.15,1.11-.15,1.24a2,2,0,0,0,.15.8l6.72,18.06q1.38-4.43,5.07-18c1.23-4.61,2.22-7,3-7.22a3.1,3.1,0,0,1,.79-.1,14.9,14.9,0,0,1,2.84.45,18.86,18.86,0,0,0,3,.6q3.93.35,4.53.45c1.55.3,2.43.84,2.63,1.64a2.57,2.57,0,0,1,.1.75,5.64,5.64,0,0,1-.25,1.41,6.27,6.27,0,0,0-.25,1.37V583.2a3.27,3.27,0,0,0,.63,1.49A2.44,2.44,0,0,1,783.17,586.18Z"/><path class="cls-24" d="M809.79,558.71a1.78,1.78,0,0,1,.35,1,2,2,0,0,1-.57,1.19,2.43,2.43,0,0,0-.57.9v23.14a3.1,3.1,0,0,0,.32,1,3.24,3.24,0,0,1,.32,1.09c0,.6-.51,1-1.54,1.29a10.37,10.37,0,0,1-3.73-.54c-2.13-.54-3.29-1.07-3.49-1.6a2.61,2.61,0,0,1,.15-1.74,6.22,6.22,0,0,0,.5-1.79,7.28,7.28,0,0,0-.15-1.29,15.61,15.61,0,0,1-2.09,4.43c-1.09,1.52-2.19,2.29-3.28,2.29a11.93,11.93,0,0,1-4.38-1.15c-1.79-.76-2.82-1.46-3.09-2.09q-1.39-3.18-1.39-23.54a4.76,4.76,0,0,1-.4-1.89,2.1,2.1,0,0,1,1.14-2.09,3.59,3.59,0,0,1,1.25-.15,18.76,18.76,0,0,1,4,.52,6.53,6.53,0,0,1,2.84,1.07,1,1,0,0,1,.25.65,4.14,4.14,0,0,1-.75,1.77,4.12,4.12,0,0,0-.75,1.76q-.09,19.62.3,19.76c.47.17,1.63-1.37,3.51-4.6s2.81-5.7,2.81-7.39v-9.31a2.16,2.16,0,0,1-.65-1.59,2.61,2.61,0,0,1,1.7-2.64,1.31,1.31,0,0,1,.59-.1,18.74,18.74,0,0,1,3.94.62A8,8,0,0,1,809.79,558.71Z"/><path class="cls-24" d="M831.84,582.2a5.61,5.61,0,0,1-1.82,4.38,7.47,7.47,0,0,1-5.1,1.69,7.11,7.11,0,0,1-1.74-.24c-1.13-.3-1.73-.47-1.79-.5l-1.82-.43a3.62,3.62,0,0,1-1.57-.77,12.06,12.06,0,0,1-2.14-2.73c-.56-.93-1.11-1.88-1.64-2.84a6.54,6.54,0,0,1-.8-1.74c0-.47.34-.81,1-1a2.93,2.93,0,0,1,.9-.1,26.94,26.94,0,0,1,3.75.33,7.7,7.7,0,0,1,2.47.54,11.9,11.9,0,0,1,.54,2.87q.3,2.28,1,2.28c.76,0,1.14-1,1.14-3.08,0-2.62-.69-4.26-2.09-4.93q-4.77-2.24-6.27-4c-1.22-1.42-1.84-3.58-1.84-6.47a10.37,10.37,0,0,1,1.49-5.35,5.93,5.93,0,0,1,3.54-3q.9-.2,5.77,1.89c.3.1,1.18.29,2.64.55a3.81,3.81,0,0,1,2.19,1,6.34,6.34,0,0,1,1.09,3.64c0,1.23.05,2.45.05,3.68a18.2,18.2,0,0,1,.35,2,1.43,1.43,0,0,1-1.34,1.59,7.68,7.68,0,0,1-2.74-.54,6.17,6.17,0,0,1-2.84-1.55,21.68,21.68,0,0,1-.29-3.73c-.1-2.22-.34-3.33-.7-3.33s-1,.64-1.4,1.94a12.69,12.69,0,0,0-.64,4q0,2.64,1.14,3.33c1.63.9,3.24,1.8,4.85,2.72a9.57,9.57,0,0,1,3.36,2.81A9.1,9.1,0,0,1,831.84,582.2Z"/><path class="cls-24" d="M845.62,586.13c.13,1.2-.28,2-1.24,2.24a3.29,3.29,0,0,1-.7,0,17.14,17.14,0,0,1-4.43-.74c-1.89-.53-3-1.1-3.33-1.69-.17-.27,0-.78.45-1.55a5.94,5.94,0,0,0,.44-2.73V560.8a11,11,0,0,1-.59-2.53c0-.43.61-.65,1.84-.65a13.85,13.85,0,0,1,4.15.92,7.84,7.84,0,0,1,3.21,1.62.79.79,0,0,1,.15.49,4.2,4.2,0,0,1-.57,1.5,4.05,4.05,0,0,0-.57,1.64v20A2.25,2.25,0,0,0,845,585,2.92,2.92,0,0,1,845.62,586.13Zm.15-34.38a1.06,1.06,0,0,1,.05.39,11.82,11.82,0,0,1-.45,2.84c-.33,1.26-.64,2-.94,2.09s-1.76-.22-4.28-1.07-3.87-1.45-4-1.81a1.5,1.5,0,0,1-.15-.75,6.79,6.79,0,0,1,.69-2.84q.8-1.7,1.8-1.89a9.16,9.16,0,0,1,4,.87C844.33,550.3,845.44,551,845.77,551.75Z"/><path class="cls-24" d="M870.45,577.43c0,.63-.54,1.47-1.64,2.53a20.47,20.47,0,0,1-2.39,4.23,8.75,8.75,0,0,1-5.62,3.54,10.59,10.59,0,0,1-1.34.1q-2.79,0-6.87-2.69-3.54-2.39-3.53-11A32.49,32.49,0,0,1,851,562.6q2.13-5.62,5.22-5.83a13.93,13.93,0,0,1,6,1.3,10.78,10.78,0,0,1,4.78,3.18,6.37,6.37,0,0,1,1,3.83c0,.44,0,1.06-.1,1.87a9.84,9.84,0,0,0,0,1.72c.06.89.1,1.31.1,1.24,0,1.06-.52,1.58-1.55,1.54a12.38,12.38,0,0,1-3.38-.54,3.8,3.8,0,0,1-2.59-2q-.15-.45.42-1.2a1.66,1.66,0,0,0,.48-1.24,9.31,9.31,0,0,0,.1-1.74q0-3-1.05-3.09-1.59-.11-2.69,4.83a43.29,43.29,0,0,0-1,9.55q0,6.12,1.44,6.47c.76.17,1.76-.66,3-2.49a11,11,0,0,0,1.67-3.16c.08-.54.15-1.1.22-1.66a1.56,1.56,0,0,1,1.79-1.3A12.52,12.52,0,0,1,868,575c1.49.69,2.28,1.22,2.36,1.56A4.05,4.05,0,0,1,870.45,577.43Z"/><path class="cls-24" d="M770.79,707.05a8.06,8.06,0,0,1-2.44,6,9.66,9.66,0,0,1-6.77,2.47,8.8,8.8,0,0,1-2.34-.35c-1.52-.43-2.32-.65-2.39-.65l-2.41-.52a4.5,4.5,0,0,1-2.12-1.12,8.67,8.67,0,0,1-2.19-3.88,19.24,19.24,0,0,0-1.59-3.93,6.6,6.6,0,0,1-.94-1.4,2.05,2.05,0,0,1,.27-1.47,1.94,1.94,0,0,1,1-.92,4.28,4.28,0,0,1,1.1-.1,26.68,26.68,0,0,1,4.25.43,7.2,7.2,0,0,1,2.81.77,13,13,0,0,1,.8,3.58c.3,2,.74,3.1,1.34,3.34a1.06,1.06,0,0,0,.45.1c.63,0,1.17-.53,1.62-1.57a8.93,8.93,0,0,0,.67-3.56q0-4.34-2.69-5.77-6.16-3.35-8.66-6.17A10.29,10.29,0,0,1,748,684.6a15.77,15.77,0,0,1,2.71-7.54q2.46-3.81,5.2-4.45,1.14-.25,7,2.19c1,.36,1.94.74,2.92,1.14a5.72,5.72,0,0,1,2.36,1.74c.93,1.17,1.39,3.17,1.39,6,0,.53,0,1.31,0,2.34s0,1.52,0,1.89a7,7,0,0,0,.35,1.14,2.15,2.15,0,0,1,.2,1.1c-.07,1.46-.68,2.27-1.84,2.43a9.81,9.81,0,0,1-3.68-.74q-3-.95-3.78-2a2.58,2.58,0,0,1-.1-1c0-.49,0-1.62.17-3.38s.17-3,.17-3.83c0-1.43-.16-2.13-.49-2.09-1,.06-1.89.8-2.57,2.21a10.91,10.91,0,0,0-1,4.8q0,4.49,2.64,6.37l6,3.79a12.06,12.06,0,0,1,3.93,3.68A13.27,13.27,0,0,1,770.79,707.05Z"/><path class="cls-24" d="M791.64,685.65q2.73,1.29,4.23,5.22a24.23,24.23,0,0,1,1.34,8.46A27.39,27.39,0,0,1,794.92,711c-1.69,3.51-3.8,5.11-6.32,4.77-.93-.23-2.32-.51-4.18-.84a22.31,22.31,0,0,1-3.68-.75q-2.84-.74-4.53-4.82a23.38,23.38,0,0,1-1.54-8.86,26,26,0,0,1,1.59-9.31,12.09,12.09,0,0,1,5-6.42,3.1,3.1,0,0,1,1.49-.3,23.36,23.36,0,0,1,3.93.65A28.67,28.67,0,0,1,791.64,685.65Zm-5.58,4.48c-.89,0-1.72,1.08-2.48,3.26a18.63,18.63,0,0,0-1.15,6.24,29.54,29.54,0,0,0,.85,7.07q.94,3.78,2.19,4.08,1.59.35,2.83-3.58a27.59,27.59,0,0,0,1.2-8.36,20,20,0,0,0-.65-5C788.25,691.35,787.33,690.13,786.06,690.13Z"/><path class="cls-24" d="M824.23,685.75a1.73,1.73,0,0,1,.35,1,2.08,2.08,0,0,1-.57,1.2,2.35,2.35,0,0,0-.57.89V712a3.1,3.1,0,0,0,.32,1,3.07,3.07,0,0,1,.32,1.09c0,.6-.51,1-1.54,1.3a10.49,10.49,0,0,1-3.73-.55q-3.19-.79-3.48-1.59a2.54,2.54,0,0,1,.14-1.74,5.94,5.94,0,0,0,.5-1.8,7.28,7.28,0,0,0-.15-1.29,15.22,15.22,0,0,1-2.09,4.43c-1.09,1.52-2.19,2.29-3.28,2.29a11.73,11.73,0,0,1-4.38-1.15c-1.79-.76-2.82-1.46-3.09-2.09q-1.4-3.18-1.39-23.54a4.76,4.76,0,0,1-.4-1.89,2.1,2.1,0,0,1,1.15-2.09,3.48,3.48,0,0,1,1.24-.15,18.84,18.84,0,0,1,4,.53,6.34,6.34,0,0,1,2.84,1.07,1,1,0,0,1,.25.64,4.09,4.09,0,0,1-.75,1.77,4.09,4.09,0,0,0-.75,1.77q-.09,19.61.3,19.75.71.26,3.51-4.6c1.87-3.23,2.81-5.7,2.81-7.39v-9.31a2.16,2.16,0,0,1-.64-1.59,2.61,2.61,0,0,1,1.69-2.64,1.46,1.46,0,0,1,.59-.1,18.24,18.24,0,0,1,3.94.63A7.66,7.66,0,0,1,824.23,685.75Z"/><path class="cls-24" d="M851.7,711a4.76,4.76,0,0,1,.4,1.89,2.06,2.06,0,0,1-1.14,2,3.59,3.59,0,0,1-1.25.15,19.41,19.41,0,0,1-4-.52,7,7,0,0,1-2.83-1,1,1,0,0,1-.25-.65,4.22,4.22,0,0,1,.74-1.77,4.12,4.12,0,0,0,.75-1.76q.1-19.62-.3-19.76c-.46-.17-1.61,1.33-3.43,4.48q-2.9,5-2.89,7.51v9.31a2.16,2.16,0,0,1,.65,1.59,2.58,2.58,0,0,1-1.69,2.59,1.38,1.38,0,0,1-.6.1,18.57,18.57,0,0,1-3.93-.62,7.65,7.65,0,0,1-2.89-1,1.48,1.48,0,0,1-.3-.9,2,2,0,0,1,.58-1.19,2.43,2.43,0,0,0,.57-.9V687.39a2.28,2.28,0,0,0-.4-1,1.3,1.3,0,0,1-.25-1.09,1.89,1.89,0,0,1,1.54-1.34,10.44,10.44,0,0,1,3.74.54q3.18.79,3.48,1.65a2.76,2.76,0,0,1-.15,1.64,13.08,13.08,0,0,0-.55,2,4.17,4.17,0,0,0,.2,1.19,15.88,15.88,0,0,1,2.09-4.43c1.1-1.56,2.19-2.34,3.29-2.34a11.73,11.73,0,0,1,4.38,1.17c1.79.78,2.81,1.49,3.08,2.12Q851.71,690.62,851.7,711Z"/><path class="cls-24" d="M879.57,675.89a4.77,4.77,0,0,1-.37,1.94,10.4,10.4,0,0,0-.47,1.65v32.44a5,5,0,0,0,.24,2c.5.87.65,1.45.45,1.75s-.59.39-1.29.39a21.2,21.2,0,0,1-3.49-.44c-1.75-.37-2.68-.55-2.78-.55a1.6,1.6,0,0,1-1.3-1.2,2.28,2.28,0,0,1,0-.64,50.35,50.35,0,0,1,.55-6.07q-1.18,2.38-2.34,4.77-1.63,2.94-2.93,2.69-9.81-2-9.81-12A24.79,24.79,0,0,1,859.12,691q3-5.72,6.67-7.46a2,2,0,0,1,.94-.25q1.24,0,4.33,3.08v-9.65a6.69,6.69,0,0,0-.45-1.42,4.76,4.76,0,0,1-.39-1.52c0-.69.46-1,1.39-1a13.49,13.49,0,0,1,3.58.7c1,.33,2,.64,2.94.94A1.82,1.82,0,0,1,879.57,675.89Zm-8.66,12.84q-2.79,1.24-5,5.48a16.79,16.79,0,0,0-2.26,7.86q0,4.23,3.28,4.63Q868.62,706.9,870.91,688.73Z"/><path class="cls-24" d="M917.29,708.29a4.42,4.42,0,0,1-.87,1.82,3.34,3.34,0,0,1-1.27,1.17q-.15,0-.54-.18a1.45,1.45,0,0,0-.65-.22.49.49,0,0,0-.2,0,20.64,20.64,0,0,0-3.09,1.19,28.93,28.93,0,0,0-6.76,4.33l-5.43-2.24c-2.06-.89-3.08-1.56-3.08-2V674.8c0-.23.39-.57,1.17-1a3.4,3.4,0,0,1,1.71-.59,10.54,10.54,0,0,1,2.39.77,8.32,8.32,0,0,0,2.94.72,8.62,8.62,0,0,0,3.88-1.34c1.46-.87,2.37-1.23,2.74-1.1a12.26,12.26,0,0,1,3.55,2.61c1.58,1.48,2.43,2.53,2.57,3.16.06.3-.24.82-.92,1.55s-1.24,1.09-1.67,1.09a1.62,1.62,0,0,1-.8-.15c-.16-.1-.28-.13-.34-.1a28.17,28.17,0,0,0-3.34,1,15,15,0,0,0-5.42,2.88v8.12a35.13,35.13,0,0,1,4.52-1.85q.81-.09,3.36,2.22c1.71,1.54,2.57,2.61,2.57,3.21a2.1,2.1,0,0,1-.7,1.29,3.18,3.18,0,0,1-1.34,1c-.34,0-.92,0-1.75.1q-1.89.35-6.66,3.18v5.23c1-.6,2.34-1.3,4-2.12a12,12,0,0,1,3.16-1.22c.47,0,1.64.73,3.51,2.17S917.36,707.89,917.29,708.29Z"/><path class="cls-24" d="M934.56,676.79a2.65,2.65,0,0,1-.45,1.69q-.54.94-1.14.9a1.73,1.73,0,0,1-1-.53,2.18,2.18,0,0,0-1-.57q-2.29-.39-2.29,4.23v1.54c0,.67,0,1.13,0,1.4h1.59c.37,0,1.08.6,2.14,1.79s1.58,2,1.54,2.54a2.74,2.74,0,0,1-.59,1.59,1.54,1.54,0,0,1-1.2.7,1.23,1.23,0,0,1-.35-.05,11.32,11.32,0,0,0-3.13-.25v19.66a2,2,0,0,0,.42,1,1.46,1.46,0,0,1,.33,1.07,2,2,0,0,1-2.09,1.74,13.39,13.39,0,0,1-3.84-.9c-2-.66-3.1-1.27-3.23-1.84a3,3,0,0,1,.35-1.47,5,5,0,0,0,.44-1.71V691.72h-1.69c-.63,0-1.4-.56-2.31-1.67a4.86,4.86,0,0,1-1.37-2.66,1.89,1.89,0,0,1,.55-1.34,1.64,1.64,0,0,1,1.24-.6h3.58a30.28,30.28,0,0,1,.65-7.62,6.17,6.17,0,0,1,6.42-4.67c.43,0,.86,0,1.3.05a6.93,6.93,0,0,1,3.38,1.64C933.93,675.68,934.49,676.33,934.56,676.79Z"/><path class="cls-24" d="M955.71,676.79a2.65,2.65,0,0,1-.45,1.69q-.54.94-1.14.9a1.73,1.73,0,0,1-1-.53,2.18,2.18,0,0,0-1-.57q-2.29-.39-2.29,4.23v1.54c0,.67,0,1.13,0,1.4h1.59c.37,0,1.08.6,2.14,1.79s1.58,2,1.54,2.54a2.74,2.74,0,0,1-.59,1.59,1.54,1.54,0,0,1-1.2.7A1.23,1.23,0,0,1,953,692a11.32,11.32,0,0,0-3.13-.25v19.66a2,2,0,0,0,.42,1,1.4,1.4,0,0,1,.32,1.07,2,2,0,0,1-2.09,1.74,13.42,13.42,0,0,1-3.83-.9c-2-.66-3.1-1.27-3.23-1.84a3,3,0,0,1,.35-1.47,5.24,5.24,0,0,0,.44-1.71V691.72h-1.69c-.63,0-1.4-.56-2.31-1.67a4.86,4.86,0,0,1-1.37-2.66,1.89,1.89,0,0,1,.55-1.34,1.64,1.64,0,0,1,1.24-.6h3.58a30.28,30.28,0,0,1,.65-7.62,6.17,6.17,0,0,1,6.42-4.67c.43,0,.86,0,1.29.05a6.92,6.92,0,0,1,3.39,1.64C955.08,675.68,955.64,676.33,955.71,676.79Z"/><path class="cls-24" d="M977.31,705.45q.45.75-1.94,4.43a16.15,16.15,0,0,1-5.08,5.33,2.07,2.07,0,0,1-.89.15,15,15,0,0,1-5.08-1.2c-2.22-.79-3.68-1.66-4.38-2.58q-2.88-3.74-2.89-10.36a23.18,23.18,0,0,1,2.54-11q2.74-5.23,7-5.33a9.75,9.75,0,0,1,3.73.8,12.24,12.24,0,0,1,4.43,2.83,6.33,6.33,0,0,1,.85,2.69,23,23,0,0,1,.49,4.68c0,2.26-.36,3.82-1.09,4.68a39,39,0,0,1-10.45,1.84,17.23,17.23,0,0,0,.6,5.12c.46,1.8.94,2.71,1.44,2.74.66,0,1.46-.51,2.39-1.64a7.35,7.35,0,0,0,1.54-2.44,24.43,24.43,0,0,1,1-3.08,8.19,8.19,0,0,1,3.13.79A6,6,0,0,1,977.31,705.45Zm-8.86-15.22c-.56-.07-1.35.83-2.36,2.68a14.06,14.06,0,0,0-1.77,5.33,6.34,6.34,0,0,0,3.58-1.1c.53-.39.8-2,.8-5C968.7,690.94,968.62,690.29,968.45,690.23Z"/><path class="cls-24" d="M1002.59,704.46c0,.63-.55,1.48-1.64,2.54a21.54,21.54,0,0,1-2.39,4.23,8.76,8.76,0,0,1-5.62,3.53,9.14,9.14,0,0,1-1.35.1q-2.79,0-6.87-2.69-3.53-2.38-3.53-11a32.75,32.75,0,0,1,1.94-11.54q2.14-5.62,5.23-5.82a14.11,14.11,0,0,1,6,1.29,10.77,10.77,0,0,1,4.78,3.19,6.41,6.41,0,0,1,1,3.83c0,.43,0,1-.1,1.86a12.45,12.45,0,0,0,0,1.72c.07.9.1,1.31.1,1.24,0,1.07-.51,1.58-1.54,1.55a12.86,12.86,0,0,1-3.39-.55,3.8,3.8,0,0,1-2.58-2c-.1-.3,0-.7.42-1.19a1.66,1.66,0,0,0,.47-1.25,8.4,8.4,0,0,0,.1-1.74c0-2-.35-3-1-3.09q-1.59-.09-2.69,4.83a43.36,43.36,0,0,0-1,9.56c0,4.08.48,6.23,1.45,6.47.76.16,1.76-.67,3-2.49a10.87,10.87,0,0,0,1.67-3.16c.08-.55.16-1.11.22-1.67a1.55,1.55,0,0,1,1.8-1.29,12,12,0,0,1,3.13,1.14c1.49.7,2.28,1.22,2.37,1.57A4.05,4.05,0,0,1,1002.59,704.46Z"/><path class="cls-24" d="M1022.1,689.78a2.75,2.75,0,0,1-.6,1.59,1.51,1.51,0,0,1-1.19.7,1.18,1.18,0,0,1-.35-.05,11.77,11.77,0,0,0-3.14-.25v19.66a6,6,0,0,1,.33.79,4.4,4.4,0,0,1,.32,1.49c0,1-.66,1.48-2,1.55a12.88,12.88,0,0,1-3.83-.9c-2-.66-3.11-1.27-3.24-1.84a3.08,3.08,0,0,1,.35-1.47,5.06,5.06,0,0,0,.45-1.71V691.72h-1.69c-.63,0-1.41-.56-2.34-1.67a4.82,4.82,0,0,1-1.4-2.66,1.84,1.84,0,0,1,.58-1.34,1.72,1.72,0,0,1,1.27-.6h3.58V681a3.49,3.49,0,0,1-.75-2.14,1.18,1.18,0,0,1,.9-1.29,5.76,5.76,0,0,1,1.24-.1,19.52,19.52,0,0,1,4.31.57,9.08,9.08,0,0,1,3.21,1.17.89.89,0,0,1,.34.7,3,3,0,0,1-.79,1.49,4,4,0,0,0-.85,1.39v2.69h1.6c.33,0,1,.6,2.09,1.79S1022.1,689.28,1022.1,689.78Z"/><circle class="cls-50" cx="1126.72" cy="571.55" r="23.5"/><circle class="cls-50" cx="1209.37" cy="571.55" r="23.5"/><rect class="cls-50" x="1129.15" y="548.05" width="79.41" height="47"/><circle class="cls-51" cx="1122.79" cy="568.93" r="23.5"/><circle class="cls-51" cx="1205.44" cy="568.93" r="23.5"/><rect class="cls-51" x="1125.22" y="545.43" width="79.41" height="47"/><circle class="cls-52" cx="1122.86" cy="568.85" r="20.95"/><circle class="cls-50" cx="1129.34" cy="698.58" r="23.5"/><circle class="cls-50" cx="1211.99" cy="698.58" r="23.5"/><rect class="cls-50" x="1131.77" y="675.08" width="79.41" height="47"/><circle class="cls-51" cx="1125.41" cy="695.96" r="23.5"/><circle class="cls-51" cx="1208.06" cy="695.96" r="23.5"/><rect class="cls-51" x="1127.84" y="672.46" width="79.41" height="47"/><circle class="cls-53" cx="1207.99" cy="695.88" r="20.95"/></g><path class="cls-54" d="M1835.2,974.42a19,19,0,1,1-19,19,19,19,0,0,1,19-19m0-12a31,31,0,1,0,31,31,31,31,0,0,0-31-31Z"/><rect class="cls-54" x="1795.24" y="975.06" width="13.86" height="13.86" rx="6.93" ry="6.93" transform="translate(297.31 2377.53) rotate(-71.43)"/><rect class="cls-54" x="1807.88" y="957.93" width="13.86" height="13.86" rx="6.93" ry="6.93" transform="translate(-223.58 1228.39) rotate(-35.36)"/><rect class="cls-54" x="1828.27" y="951" width="13.86" height="13.86" rx="6.93" ry="6.93"/><rect class="cls-54" x="1849.07" y="957.93" width="13.86" height="13.86" rx="6.93" ry="6.93" transform="translate(34.12 1992.7) rotate(-56.9)"/><rect class="cls-54" x="1860.89" y="974.24" width="13.86" height="13.86" rx="6.93" ry="6.93" transform="translate(-231.61 771.73) rotate(-22.02)"/><circle class="cls-54" cx="1835" cy="993.2" r="12.44"/><rect class="cls-54" x="1860.89" y="996.26" width="13.86" height="13.86" rx="6.93" ry="6.93" transform="translate(392.47 2525.86) rotate(-74.14)"/><rect class="cls-54" x="1849.88" y="1013.39" width="13.86" height="13.86" rx="6.93" ry="6.93" transform="translate(-247.93 1262.93) rotate(-35.36)"/><rect class="cls-54" x="1828.27" y="1021.14" width="13.86" height="13.86" rx="6.93" ry="6.93"/><rect class="cls-54" x="1807.88" y="1015.43" width="13.86" height="13.86" rx="6.93" ry="6.93" transform="matrix(0.55, -0.84, 0.84, 0.55, -32.74, 1984.3)"/><rect class="cls-54" x="1795.24" y="998.71" width="13.86" height="13.86" rx="6.93" ry="6.93" transform="translate(-245.56 748.9) rotate(-22.02)"/></svg>