<svg id="Layer_1" data-name="Layer 1" xmlns="http://www.w3.org/2000/svg" xmlns:xlink="http://www.w3.org/1999/xlink" width="1920" height="1080" viewBox="0 0 1920 1080"><defs><style>.cls-1{fill:url(#linear-gradient);}.cls-2{fill:#cff;opacity:0.2;}.cls-3{fill:#09c;}.cls-4{fill:#0081ca;}.cls-5{fill:#009bca;}.cls-6{fill:#0098d0;}.cls-7{fill:#3cf;}</style><linearGradient id="linear-gradient" x1="966.68" y1="1079.81" x2="966.68" y2="-0.19" gradientTransform="matrix(-1, 0, 0, 1, 1923.27, 0)" gradientUnits="userSpaceOnUse"><stop offset="0" stop-color="#55a7fc"/><stop offset="0" stop-color="#58c9fd"/><stop offset="0.25" stop-color="#5dc8ff"/><stop offset="0.71" stop-color="#00d3db"/><stop offset="1" stop-color="#c9d5e2"/></linearGradient></defs><title>titelscene baggrund</title><rect class="cls-1" x="-3.41" y="-0.19" width="1920" height="1080"/><path class="cls-2" d="M1919.59,222.81c1.37,8.63,8.66-1.16,0,0-59.36,7.9-294.24,38.53-465.59,55.58C1327.39,291,702.37,224.16,615.66,190.26a18.32,18.32,0,0,0-1.9-.62C393,133.07,92.44,87.5,16.56,76.4a15.69,15.69,0,0,0-18,15.53V195.14c0,25.43,215.37,12.45,417.42,66.21,515.71,137.21,1497.78,115.94,1498.58,66.46C1915.54,268.8,1917.25,208.05,1919.59,222.81Z"/><path class="cls-3" d="M1704.59,743.81c-30,37-62,142.78-62,142.78-162.43-39.27-384,174.24-502,169.22-328.8,28.06-674-480-827-531s-316,48-316,48v446h1917c-2.13,12.58-.15-395.62,0-421C1914.59,597.81,1734.59,706.81,1704.59,743.81Z"/><path class="cls-4" d="M-3.76,1078.81l1918.78.92c-2.14,19.58.06-589.41.22-628.92,0,0-417,152-135,189,50.33,6.6,102,60,36,66-60.48,5.49,67,84,24,80-161.19-15-13,117-108.67,81-162.43-61.13-310,46.2-428,38.39-328.81,43.68-669.14-47.46-744-99-229.37-99.68-563-117.48-563-117.48Z"/><path class="cls-4" d="M343.13,781.09l-30-1.14s18.35-127.23,9.63-131.48S262.32,587.12,271,555.89c13.08-38.95,57.18-80.06,8.64-1.25-7.73,27.14,45.55,73.77,53.56,83.64S343.13,781.09,343.13,781.09Z"/><path class="cls-4" d="M209.32,765l36.45,7s12.33-103.38,25.15-124.61c3.94-6.53,59.91-58.4,67.64-88.51,8.58-37.71-60.51-110.63-17.71,3-8.08,30.53-44.78,59.86-52.32,68.51S209.32,765,209.32,765Z"/><path class="cls-4" d="M234,737.87l-26.73-13.51s44-77.43,46.52-98.51c.77-6.49-8.82-70.44,1.37-95.08,13.46-30.3,51.41-93,9.77,11-10.17,25.11-1.54,63.81-1.08,73.57S234,737.87,234,737.87Z"/><path class="cls-4" d="M246.51,759.69l-39.68-1.31S232,679,226.65,660.89c-1.63-5.58-39.71-54.37-36.6-78.22,5-29.68,101.95-71.61,16.94,5.41-2.89,24.23,23.77,52.73,28.3,60.55S246.51,759.69,246.51,759.69Z"/><path class="cls-4" d="M240.63,760.55l-44.95-1.49s28.47-89.86,22.45-110.42c-1.85-6.32-56.18-51.93-52.67-78.95,5.68-33.61,28.23-107.84,15.37,5.65-3.28,27.44,45.68,62.58,50.8,71.43S240.63,760.55,240.63,760.55Z"/><path class="cls-4" d="M258.2,765l29.47,4.62S296,684.3,306.05,666.44c3.08-5.49,47.38-49.9,53.15-74.89,6.34-31.25,11.27-101.65-14.22,3-6.05,25.34-35.17,50.62-41.11,58S258.2,765,258.2,765Z"/><path class="cls-4" d="M1875.13,599.09l-30-1.14s18.35-127.23,9.63-131.48-60.45-61.35-51.76-92.58c13.08-38.95,57.18-80.06,8.64-1.25-7.73,27.14,45.55,73.77,53.56,83.64S1875.13,599.09,1875.13,599.09Z"/><path class="cls-4" d="M1741.32,583l36.45,7s12.33-103.38,25.15-124.61c3.94-6.53,59.91-58.4,67.64-88.51,8.58-37.71-60.51-110.63-17.71,3-8.08,30.53-44.78,59.86-52.32,68.51S1741.32,583,1741.32,583Z"/><path class="cls-4" d="M1766,555.87l-26.73-13.51s44-77.43,46.52-98.51c.77-6.49-8.82-70.44,1.37-95.08,13.46-30.3,51.41-93,9.77,11-10.17,25.11-1.54,63.81-1.08,73.57S1766,555.87,1766,555.87Z"/><path class="cls-4" d="M1778.51,577.69l-39.68-1.31S1764,497,1758.65,478.89c-1.63-5.58-39.71-54.37-36.6-78.22,5-29.68,102-71.61,16.94,5.41-2.89,24.23,23.77,52.73,28.3,60.55S1778.51,577.69,1778.51,577.69Z"/><path class="cls-4" d="M1772.63,578.55l-45-1.49s28.47-89.86,22.45-110.42c-1.85-6.32-56.18-51.93-52.67-78.95,5.68-33.61,28.23-107.84,15.37,5.65-3.28,27.44,45.68,62.58,50.8,71.43S1772.63,578.55,1772.63,578.55Z"/><path class="cls-4" d="M1790.2,583l29.47,4.62s8.37-85.31,18.38-103.17c3.08-5.49,47.38-49.9,53.15-74.89,6.34-31.25,11.27-101.65-14.22,3-6,25.34-35.17,50.62-41.11,58S1790.2,583,1790.2,583Z"/><ellipse class="cls-5" cx="1648.5" cy="116.32" rx="31.35" ry="10.24"/><polygon class="cls-5" points="1694.87 133.35 1676.13 116 1693.92 96.81 1694.87 133.35"/><ellipse class="cls-5" cx="1683.91" cy="145.97" rx="20.2" ry="6.6"/><polygon class="cls-5" points="1713.79 156.94 1701.71 145.76 1713.17 133.4 1713.79 156.94"/><ellipse class="cls-5" cx="1680.41" cy="174.03" rx="22.28" ry="7.64"/><polygon class="cls-5" points="1713.37 186.74 1700.05 173.79 1712.69 159.47 1713.37 186.74"/><ellipse class="cls-5" cx="1742.44" cy="173.86" rx="19.13" ry="6.25"/><polygon class="cls-5" points="1770.74 184.26 1759.3 173.67 1770.16 161.95 1770.74 184.26"/><ellipse class="cls-5" cx="1728.57" cy="112.13" rx="20.78" ry="6.79"/><polygon class="cls-5" points="1759.31 123.42 1746.88 111.92 1758.67 99.19 1759.31 123.42"/><ellipse class="cls-5" cx="1601.94" cy="157.92" rx="31.35" ry="10.24"/><polygon class="cls-5" points="1648.31 174.95 1629.57 157.6 1647.36 138.4 1648.31 174.95"/><ellipse class="cls-5" cx="461.09" cy="431.15" rx="24.75" ry="8.09"/><polygon class="cls-5" points="424.48 444.6 439.28 430.9 425.24 415.75 424.48 444.6"/><ellipse class="cls-5" cx="433.14" cy="454.56" rx="15.95" ry="5.21"/><polygon class="cls-5" points="409.55 463.22 419.08 454.39 410.04 444.63 409.55 463.22"/><ellipse class="cls-5" cx="435.9" cy="476.71" rx="17.59" ry="6.03"/><polygon class="cls-5" points="409.88 486.74 420.4 476.52 410.42 465.21 409.88 486.74"/><ellipse class="cls-5" cx="386.94" cy="476.57" rx="15.1" ry="4.94"/><polygon class="cls-5" points="364.59 484.78 373.62 476.42 365.05 467.17 364.59 484.78"/><ellipse class="cls-5" cx="397.89" cy="427.84" rx="16.41" ry="5.36"/><polygon class="cls-5" points="373.62 436.76 383.42 427.68 374.12 417.63 373.62 436.76"/><ellipse class="cls-5" cx="497.84" cy="463.99" rx="24.75" ry="8.09"/><polygon class="cls-5" points="461.24 477.43 476.03 463.73 461.99 448.58 461.24 477.43"/><path class="cls-6" d="M353.64,213.42a3.34,3.34,0,0,1-1.3,1.9c-.82.75-1.42,1.13-1.78,1.13a5.12,5.12,0,0,0-.94.05v13.86a18.43,18.43,0,0,1,.55,2c.33,2.34.06,3.72-.82,4.12a2.47,2.47,0,0,1-.83.11,12.82,12.82,0,0,1-4.95-1.37q-3.24-1.44-4-2.86c0-.33-.09-.83-.16-1.49-.08-.25.05-.6.38-1a2.47,2.47,0,0,0,.5-.83V217.93c-.7.08-2.08.35-4.13.83a34.79,34.79,0,0,0-4.07,1.1V231a1.69,1.69,0,0,0,.36.91,2.49,2.49,0,0,1,.41.8c-.15.58-.27,1.15-.38,1.7a1.05,1.05,0,0,1-.61.77q-.89.33-4.92-1c-2.7-.89-4.12-1.62-4.26-2.17a3.77,3.77,0,0,1-.11-1.32,11.76,11.76,0,0,0,.16-1.54V194a16,16,0,0,1,.5-3c.07-.37.69-.88,1.87-1.54a1.68,1.68,0,0,1,.6-.06A15.24,15.24,0,0,1,330,190c1.94.59,3,1.36,3.08,2.31a4.94,4.94,0,0,1-.47,1.87,6.59,6.59,0,0,0-.52,1.87v13.42c2.49-.62,5.23-1.26,8.2-1.92V192.19a5.79,5.79,0,0,0-.25-.82,2.1,2.1,0,0,1-.14-1.16c.18-.66.79-1.08,1.82-1.26.77-.11,1.54-.2,2.31-.28a8,8,0,0,1,3.54.72c1.56.58,2.43,1.21,2.62,1.87a1.83,1.83,0,0,1-.22,1.15,4.26,4.26,0,0,0-.39,1.54v15.18c.18.22,1.05,1,2.59,2.37C353.2,212.38,353.67,213,353.64,213.42Z"/><path class="cls-6" d="M379.81,225q.49.83-2.14,4.9a17.89,17.89,0,0,1-5.61,5.88,2.29,2.29,0,0,1-1,.17,16.71,16.71,0,0,1-5.61-1.32c-2.46-.88-4.07-1.84-4.84-2.86q-3.19-4.12-3.19-11.44a25.64,25.64,0,0,1,2.8-12.21q3-5.78,7.7-5.89a11,11,0,0,1,4.13.88,13.52,13.52,0,0,1,4.89,3.14,6.84,6.84,0,0,1,.94,3,25.05,25.05,0,0,1,.55,5.17q0,3.73-1.21,5.17a42.72,42.72,0,0,1-11.55,2,19.64,19.64,0,0,0,.66,5.67c.51,2,1,3,1.59,3,.74,0,1.62-.57,2.64-1.81a8.2,8.2,0,0,0,1.71-2.7,28.47,28.47,0,0,1,1-3.41,9.32,9.32,0,0,1,3.47.88C378.51,223.87,379.52,224.46,379.81,225ZM370,208.14q-.93-.1-2.61,3a15.52,15.52,0,0,0-2,5.89,7.13,7.13,0,0,0,4-1.21c.59-.44.88-2.28.88-5.5C370.3,208.93,370.21,208.22,370,208.14Z"/><path class="cls-6" d="M394.39,191.81a3.1,3.1,0,0,1-.25,1c-.16.44-.27.72-.3.83a25.39,25.39,0,0,0-.66,3.41v33.77a2.16,2.16,0,0,0,.33,1.18,1.74,1.74,0,0,1,.33.85c0,2.35-.44,3.61-1.32,3.8a25.83,25.83,0,0,1-7.1-2.09,2.83,2.83,0,0,1-1.21-1.93.87.87,0,0,1,.22-.49,1.53,1.53,0,0,0,.22-.94V192.47a1.44,1.44,0,0,0-.19-.69,1.44,1.44,0,0,1-.19-.69c.07-.88.75-1.46,2-1.76a11.88,11.88,0,0,1,2.31,0,17,17,0,0,1,3.52.61C393.64,190.38,394.39,191,394.39,191.81Z"/><path class="cls-6" d="M412.76,235.31a2.43,2.43,0,0,1-1.05.28q-1.43,0-4.78-3.36v10.62a7.66,7.66,0,0,0,.49,1.56,5.09,5.09,0,0,1,.44,1.68c0,.77-.51,1.16-1.54,1.16a15.91,15.91,0,0,1-4-.77c-1.07-.33-2.13-.68-3.19-1a2,2,0,0,1-1.6-1.7,5.39,5.39,0,0,1,.42-2.15,13.8,13.8,0,0,0,.52-1.81V204a5.73,5.73,0,0,0-.28-2.31c-.55-.91-.71-1.56-.49-1.92s.62-.44,1.43-.44a21.56,21.56,0,0,1,3.79.49c1.95.41,3,.61,3.14.61a1.83,1.83,0,0,1,1.43,1.32,3.69,3.69,0,0,1,0,.77,50.15,50.15,0,0,1-.66,6.71q1.32-2.64,2.64-5.23c1.18-2.24,2.26-3.26,3.25-3.08q10.77,2.26,10.78,13.42A27.12,27.12,0,0,1,420.16,227Q416.77,233.45,412.76,235.31Zm-1.21-25.57q-2-.23-4.46,19.85,3.09-1.36,5.59-6.05a18.64,18.64,0,0,0,2.5-8.69C415.18,211.74,414,210,411.55,209.74Z"/><path class="cls-6" d="M1240.44,458.08c2,1,3.57,2.88,4.67,5.78a26.59,26.59,0,0,1,1.48,9.35,30.25,30.25,0,0,1-2.53,12.87q-2.79,5.82-7,5.28c-1-.26-2.57-.57-4.62-.94a24.58,24.58,0,0,1-4.07-.82q-3.14-.83-5-5.34a26,26,0,0,1-1.7-9.79,28.76,28.76,0,0,1,1.76-10.28q2-5.07,5.55-7.1a3.5,3.5,0,0,1,1.65-.33,25.17,25.17,0,0,1,4.35.72A32.47,32.47,0,0,1,1240.44,458.08Zm-6.16,4.95q-1.48,0-2.75,3.6a20.74,20.74,0,0,0-1.27,6.91,32.66,32.66,0,0,0,.94,7.81c.69,2.78,1.5,4.29,2.42,4.51q1.76.38,3.13-4a30.61,30.61,0,0,0,1.32-9.24,22.37,22.37,0,0,0-.71-5.56Q1236.37,463,1234.28,463Z"/><path class="cls-6" d="M1276.46,458.19a2,2,0,0,1,.38,1.1,2.24,2.24,0,0,1-.63,1.32,2.72,2.72,0,0,0-.63,1v25.58a3.52,3.52,0,0,0,.36,1.15,3.7,3.7,0,0,1,.35,1.21c0,.66-.56,1.14-1.7,1.43a11.46,11.46,0,0,1-4.13-.6c-2.34-.59-3.63-1.18-3.85-1.76a2.88,2.88,0,0,1,.17-1.93,6.63,6.63,0,0,0,.55-2,8.3,8.3,0,0,0-.17-1.43,17.17,17.17,0,0,1-2.31,4.9c-1.21,1.68-2.42,2.53-3.63,2.53a13.22,13.22,0,0,1-4.84-1.27c-2-.84-3.11-1.61-3.41-2.31q-1.53-3.51-1.54-26A5.45,5.45,0,0,1,1251,459a2.32,2.32,0,0,1,1.27-2.31,3.87,3.87,0,0,1,1.37-.17,20.58,20.58,0,0,1,4.46.58,7,7,0,0,1,3.13,1.18,1.07,1.07,0,0,1,.28.72,4.62,4.62,0,0,1-.83,2,4.56,4.56,0,0,0-.82,1.95q-.11,21.68.33,21.84.77.27,3.88-5.09t3.1-8.17V461.22a2.43,2.43,0,0,1-.71-1.76,2.89,2.89,0,0,1,1.87-2.92,1.57,1.57,0,0,1,.66-.11,20.17,20.17,0,0,1,4.34.69C1275.23,457.58,1276.28,457.94,1276.46,458.19Z"/><path class="cls-6" d="M1301.37,462.65a3,3,0,0,1-.66,1.76,1.7,1.7,0,0,1-1.32.77,1.12,1.12,0,0,1-.38-.06,13.47,13.47,0,0,0-3.47-.27v21.72a8.82,8.82,0,0,1,.36.88,4.74,4.74,0,0,1,.36,1.65c0,1.06-.74,1.63-2.2,1.71a14.65,14.65,0,0,1-4.24-1c-2.23-.74-3.43-1.41-3.57-2a3.2,3.2,0,0,1,.38-1.62,5.71,5.71,0,0,0,.5-1.9V464.79h-1.87c-.7,0-1.56-.61-2.59-1.84a5.37,5.37,0,0,1-1.54-2.94,2.08,2.08,0,0,1,.64-1.49,1.89,1.89,0,0,1,1.4-.66h4v-4.95a3.86,3.86,0,0,1-.83-2.36,1.31,1.31,0,0,1,1-1.43,6.26,6.26,0,0,1,1.38-.11,21.59,21.59,0,0,1,4.76.63,10,10,0,0,1,3.54,1.29,1,1,0,0,1,.39.77,3.29,3.29,0,0,1-.88,1.65,4.31,4.31,0,0,0-.94,1.54v3h1.76q.56,0,2.31,2C1300.79,461.16,1301.37,462.1,1301.37,462.65Z"/><path class="cls-6" d="M1335.47,458.08c2,1,3.58,2.88,4.68,5.78a26.59,26.59,0,0,1,1.48,9.35,30.25,30.25,0,0,1-2.53,12.87q-2.8,5.82-7,5.28c-1-.26-2.57-.57-4.62-.94a24.37,24.37,0,0,1-4.07-.82q-3.14-.83-5-5.34a26,26,0,0,1-1.7-9.79,28.54,28.54,0,0,1,1.76-10.28q2-5.07,5.55-7.1a3.5,3.5,0,0,1,1.65-.33,25.32,25.32,0,0,1,4.35.72A32.27,32.27,0,0,1,1335.47,458.08Zm-6.16,4.95c-1,0-1.9,1.2-2.75,3.6a21,21,0,0,0-1.26,6.91,33.17,33.17,0,0,0,.93,7.81c.7,2.78,1.51,4.29,2.42,4.51,1.18.25,2.22-1.07,3.14-4a30.61,30.61,0,0,0,1.32-9.24,21.92,21.92,0,0,0-.72-5.56C1331.73,464.39,1330.71,463,1329.31,463Z"/><path class="cls-6" d="M1364.46,448.29a3,3,0,0,1-.5,1.87q-.6,1.05-1.26,1a1.85,1.85,0,0,1-1-.58,2.33,2.33,0,0,0-1.15-.63q-2.54-.44-2.53,4.68v1.7c0,.74,0,1.25,0,1.54h1.76c.41,0,1.19.66,2.37,2s1.74,2.26,1.7,2.81a3.05,3.05,0,0,1-.66,1.76,1.7,1.7,0,0,1-1.32.77,1.08,1.08,0,0,1-.38-.06,13,13,0,0,0-3.47-.27v21.72a2.21,2.21,0,0,0,.47,1.13,1.59,1.59,0,0,1,.36,1.18,2.21,2.21,0,0,1-2.31,1.93,15.08,15.08,0,0,1-4.24-1c-2.24-.74-3.43-1.41-3.57-2a3.2,3.2,0,0,1,.38-1.62,5.71,5.71,0,0,0,.5-1.9V464.79h-1.87c-.7,0-1.55-.61-2.56-1.84a5.34,5.34,0,0,1-1.51-2.94,2.16,2.16,0,0,1,.6-1.49,1.84,1.84,0,0,1,1.38-.66h4a33.69,33.69,0,0,1,.71-8.41,6.81,6.81,0,0,1,7.1-5.17c.47,0,.95,0,1.43.05a7.65,7.65,0,0,1,3.74,1.82C1363.76,447.06,1364.38,447.78,1364.46,448.29Z"/><path class="cls-6" d="M1404.83,488.39a2.54,2.54,0,0,1-1.21,2,3.93,3.93,0,0,1-1.38.17,21.14,21.14,0,0,1-4.45-.58,7.8,7.8,0,0,1-3.14-1.13,1,1,0,0,1-.22-.66,5.64,5.64,0,0,1,.5-1.65l.71-1a2.2,2.2,0,0,0,.39-1.35q.1-21.66-.33-21.83-.83-.29-3.8,4c-2.13,3.05-3.19,5.48-3.19,7.32V486a2.41,2.41,0,0,1,.61,2.31,3,3,0,0,1-1.76,2.31,1.61,1.61,0,0,1-.66.11,20.33,20.33,0,0,1-4.35-.69,10,10,0,0,1-3.13-1,2,2,0,0,1-.11-2,1.84,1.84,0,0,1,.52-.58,1.14,1.14,0,0,0,.47-.8V446.7a2.45,2.45,0,0,0-.44-1.16,1.44,1.44,0,0,1-.28-1.21,2.11,2.11,0,0,1,1.71-1.48,11.41,11.41,0,0,1,4.12.6c2.35.59,3.63,1.19,3.85,1.82a3,3,0,0,1-.16,1.81,9.81,9.81,0,0,0-.39,3v10.29q3.07-3.91,5.94-3.91a12.88,12.88,0,0,1,4.84,1.29c2,.87,3.12,1.65,3.41,2.34q1.55,3.53,1.54,26A4.23,4.23,0,0,1,1404.83,488.39Z"/><path class="cls-6" d="M1420.17,488.5a2,2,0,0,1-1.37,2.47,3.86,3.86,0,0,1-.77.06,18.64,18.64,0,0,1-4.9-.83c-2.09-.59-3.32-1.21-3.68-1.87-.19-.29,0-.86.49-1.7a6.42,6.42,0,0,0,.5-3V460.5a11.89,11.89,0,0,1-.66-2.8c0-.48.68-.72,2-.72a15.15,15.15,0,0,1,4.59,1c2,.68,3.15,1.27,3.55,1.79a.88.88,0,0,1,.17.55,4.59,4.59,0,0,1-.64,1.65,4.48,4.48,0,0,0-.63,1.81v22.11a2.49,2.49,0,0,0,.63,1.38A3.16,3.16,0,0,1,1420.17,488.5Zm.17-38a1.37,1.37,0,0,1,.05.44,13.2,13.2,0,0,1-.49,3.14q-.56,2.08-1.05,2.31c-.37.14-1.94-.25-4.73-1.19s-4.27-1.6-4.45-2a1.66,1.66,0,0,1-.17-.83,7.45,7.45,0,0,1,.77-3.13c.59-1.25,1.25-2,2-2.09s2.31.17,4.4,1S1420,449.69,1420.34,450.49Z"/><path class="cls-6" d="M1444.1,484.15a6.2,6.2,0,0,1-2,4.84,8.33,8.33,0,0,1-5.64,1.87,7.64,7.64,0,0,1-1.92-.27c-1.25-.33-1.91-.52-2-.55l-2-.47a4.19,4.19,0,0,1-1.73-.85,13.53,13.53,0,0,1-2.37-3c-.62-1-1.23-2.07-1.81-3.13a7.13,7.13,0,0,1-.88-1.93c0-.51.36-.9,1.1-1.15a2.82,2.82,0,0,1,1-.11,31.57,31.57,0,0,1,4.15.35,8.28,8.28,0,0,1,2.72.61,12.56,12.56,0,0,1,.61,3.16c.22,1.69.6,2.53,1.15,2.53.84,0,1.27-1.13,1.27-3.41,0-2.89-.77-4.71-2.31-5.44q-5.28-2.48-6.93-4.4-2-2.37-2-7.15a11.44,11.44,0,0,1,1.65-5.92,6.47,6.47,0,0,1,3.91-3.32c.66-.15,2.78.55,6.38,2.09q.49.16,2.91.6a4.17,4.17,0,0,1,2.42,1.16,6.91,6.91,0,0,1,1.21,4c0,1.36.06,2.72.06,4.07a20.45,20.45,0,0,1,.38,2.2,1.57,1.57,0,0,1-1.48,1.76,8.57,8.57,0,0,1-3-.6,6.69,6.69,0,0,1-3.13-1.71,23.31,23.31,0,0,1-.33-4.12c-.11-2.46-.37-3.69-.77-3.69-.55,0-1.07.72-1.54,2.15a13.88,13.88,0,0,0-.72,4.45c0,1.95.42,3.17,1.27,3.69l5.36,3a10.65,10.65,0,0,1,3.71,3.11A10.08,10.08,0,0,1,1444.1,484.15Z"/><path class="cls-6" d="M1485.35,488.39a2.52,2.52,0,0,1-1.22,2,3.83,3.83,0,0,1-1.37.17,21.14,21.14,0,0,1-4.45-.58,7.8,7.8,0,0,1-3.14-1.13,1,1,0,0,1-.22-.66,5.64,5.64,0,0,1,.5-1.65l.71-1a2.2,2.2,0,0,0,.38-1.35q.12-21.66-.33-21.83c-.54-.19-1.81,1.15-3.79,4-2.13,3.05-3.19,5.48-3.19,7.32V486a2.41,2.41,0,0,1,.61,2.31,3,3,0,0,1-1.76,2.31,1.61,1.61,0,0,1-.66.11,20.33,20.33,0,0,1-4.35-.69,10,10,0,0,1-3.13-1,2,2,0,0,1-.11-2,1.84,1.84,0,0,1,.52-.58,1.14,1.14,0,0,0,.47-.8V446.7a2.38,2.38,0,0,0-.45-1.16,1.47,1.47,0,0,1-.27-1.21,2.11,2.11,0,0,1,1.71-1.48,11.41,11.41,0,0,1,4.12.6c2.35.59,3.63,1.19,3.85,1.82a3,3,0,0,1-.16,1.81,9.81,9.81,0,0,0-.39,3v10.29q3.07-3.91,5.94-3.91a12.88,12.88,0,0,1,4.84,1.29c2,.87,3.12,1.65,3.41,2.34q1.55,3.53,1.54,26A4.23,4.23,0,0,1,1485.35,488.39Z"/><path class="cls-6" d="M1515.16,458.19a2,2,0,0,1,.38,1.1,2.24,2.24,0,0,1-.63,1.32,2.72,2.72,0,0,0-.63,1v25.58a3.43,3.43,0,0,0,.35,1.15,3.54,3.54,0,0,1,.36,1.21c0,.66-.57,1.14-1.7,1.43a11.44,11.44,0,0,1-4.13-.6c-2.35-.59-3.63-1.18-3.85-1.76a2.86,2.86,0,0,1,.16-1.93,6.75,6.75,0,0,0,.56-2,8.3,8.3,0,0,0-.17-1.43,17.17,17.17,0,0,1-2.31,4.9c-1.21,1.68-2.42,2.53-3.63,2.53a13.18,13.18,0,0,1-4.84-1.27c-2-.84-3.12-1.61-3.41-2.31q-1.55-3.51-1.54-26a5.45,5.45,0,0,1-.44-2.09,2.3,2.3,0,0,1,1.27-2.31,3.83,3.83,0,0,1,1.37-.17,20.66,20.66,0,0,1,4.46.58,7,7,0,0,1,3.13,1.18,1.12,1.12,0,0,1,.28.72,4.62,4.62,0,0,1-.83,2,4.62,4.62,0,0,0-.83,1.95q-.11,21.68.33,21.84.78.27,3.88-5.09t3.11-8.17V461.22a2.4,2.4,0,0,1-.72-1.76,2.89,2.89,0,0,1,1.88-2.92,1.54,1.54,0,0,1,.66-.11,20.26,20.26,0,0,1,4.34.69C1513.93,457.58,1515,457.94,1515.16,458.19Z"/><path class="cls-6" d="M1541.22,460.45a1.24,1.24,0,0,1-.6,1.43c-.44.22-.86.46-1.27.71q-3.46,5.28-9.4,14.25c0,5.83,0,8.83,0,9s.18.65.42,1.4a6.57,6.57,0,0,1,.35,1.79,1.43,1.43,0,0,1-.93,1.43,4.14,4.14,0,0,1-1.65.27,13.49,13.49,0,0,1-4.62-.93c-2.13-.74-3.19-1.67-3.19-2.81a5.05,5.05,0,0,1,.44-1.59,5.25,5.25,0,0,0,.44-1.82V461.82c-.4-2.05-.61-3.11-.61-3.19a2,2,0,0,1,1.54-2.14,6.7,6.7,0,0,1,1.6-.17,14.17,14.17,0,0,1,4,.63c1.41.43,2.25.88,2.5,1.35a1.15,1.15,0,0,1,.11.55,18.78,18.78,0,0,1-.77,2.64v2.64c.88-1.57,1.75-3.15,2.59-4.73,1.14-2,2-3,2.53-3.13.81-.15,2,.33,3.68,1.43S1541,459.71,1541.22,460.45Z"/><path class="cls-6" d="M1567,447.3a5.34,5.34,0,0,1-.41,2.15,13,13,0,0,0-.53,1.81v35.86a5.34,5.34,0,0,0,.28,2.26c.55.95.71,1.59.49,1.92s-.66.44-1.43.44a22.65,22.65,0,0,1-3.85-.49c-1.94-.41-3-.61-3.08-.61a1.74,1.74,0,0,1-1.43-1.32,2.81,2.81,0,0,1,0-.71,54.87,54.87,0,0,1,.6-6.71q-1.32,2.64-2.58,5.28-1.82,3.24-3.25,3-10.83-2.2-10.83-13.31a27.35,27.35,0,0,1,3.46-12.87q3.36-6.33,7.37-8.25a2.3,2.3,0,0,1,1-.28q1.38,0,4.78,3.41V448.18a7.88,7.88,0,0,0-.49-1.57,5.32,5.32,0,0,1-.44-1.67c0-.77.51-1.16,1.54-1.16a15.31,15.31,0,0,1,4,.77q1.65.56,3.24,1.05A2,2,0,0,1,1567,447.3Zm-9.57,14.19c-2.06.92-3.91,2.94-5.58,6.05a18.61,18.61,0,0,0-2.51,8.69c0,3.12,1.21,4.82,3.63,5.12Q1554.93,481.56,1557.45,461.49Z"/><path class="cls-6" d="M1582.31,446.81a3.1,3.1,0,0,1-.25,1c-.16.44-.27.72-.3.83a25.39,25.39,0,0,0-.66,3.41v33.77a2.16,2.16,0,0,0,.33,1.18,1.74,1.74,0,0,1,.33.85c0,2.35-.44,3.61-1.32,3.8a25.83,25.83,0,0,1-7.1-2.09,2.83,2.83,0,0,1-1.21-1.93.87.87,0,0,1,.22-.49,1.53,1.53,0,0,0,.22-.94V447.47a1.44,1.44,0,0,0-.19-.69,1.44,1.44,0,0,1-.19-.69c.07-.88.75-1.46,2-1.76a11.88,11.88,0,0,1,2.31,0,17,17,0,0,1,3.52.61C1581.56,445.38,1582.31,446,1582.31,446.81Z"/><path class="cls-6" d="M1608.43,480q.49.82-2.14,4.9a17.89,17.89,0,0,1-5.61,5.88,2.29,2.29,0,0,1-1,.17,16.71,16.71,0,0,1-5.61-1.32c-2.46-.88-4.07-1.84-4.84-2.86q-3.2-4.12-3.19-11.44a25.64,25.64,0,0,1,2.8-12.21q3-5.77,7.7-5.89a11.07,11.07,0,0,1,4.13.88,13.52,13.52,0,0,1,4.89,3.14,7,7,0,0,1,.94,3,25.76,25.76,0,0,1,.55,5.17c0,2.49-.41,4.21-1.21,5.17a42.72,42.72,0,0,1-11.55,2,19,19,0,0,0,.66,5.67c.51,2,1,3,1.59,3,.74,0,1.62-.57,2.64-1.81a8.2,8.2,0,0,0,1.71-2.7,26.76,26.76,0,0,1,1-3.41,9.36,9.36,0,0,1,3.47.88C1607.13,478.87,1608.14,479.46,1608.43,480Zm-9.79-16.83q-.93-.11-2.61,3a15.52,15.52,0,0,0-2,5.89,7.13,7.13,0,0,0,4-1.21c.58-.44.88-2.28.88-5.5C1598.92,463.93,1598.83,463.22,1598.64,463.14Z"/><path class="cls-7" d="M1798.2,962.42a19,19,0,1,1-19,19,19,19,0,0,1,19-19m0-12a31,31,0,1,0,31,31,31,31,0,0,0-31-31Z"/><rect class="cls-7" x="1758.24" y="963.06" width="13.86" height="13.86" rx="6.93" ry="6.93" transform="translate(283.47 2334.28) rotate(-71.43)"/><rect class="cls-7" x="1770.88" y="945.93" width="13.86" height="13.86" rx="6.93" ry="6.93" transform="translate(-223.47 1204.76) rotate(-35.36)"/><rect class="cls-7" x="1791.27" y="939" width="13.86" height="13.86" rx="6.93" ry="6.93"/><rect class="cls-7" x="1812.07" y="945.93" width="13.86" height="13.86" rx="6.93" ry="6.93" transform="translate(27.38 1956.26) rotate(-56.9)"/><rect class="cls-7" x="1823.89" y="962.24" width="13.86" height="13.86" rx="6.93" ry="6.93" transform="translate(-229.8 756.99) rotate(-22.02)"/><circle class="cls-7" cx="1798" cy="981.2" r="12.44"/><rect class="cls-7" x="1823.89" y="984.26" width="13.86" height="13.86" rx="6.93" ry="6.93" transform="translate(377.13 2481.54) rotate(-74.14)"/><rect class="cls-7" x="1812.88" y="1001.39" width="13.86" height="13.86" rx="6.93" ry="6.93" transform="translate(-247.81 1239.3) rotate(-35.36)"/><rect class="cls-7" x="1791.27" y="1009.14" width="13.86" height="13.86" rx="6.93" ry="6.93"/><rect class="cls-7" x="1770.88" y="1003.43" width="13.86" height="13.86" rx="6.93" ry="6.93" transform="translate(-39.48 1947.85) rotate(-56.9)"/><rect class="cls-7" x="1758.24" y="986.71" width="13.86" height="13.86" rx="6.93" ry="6.93" transform="translate(-243.76 734.16) rotate(-22.02)"/></svg>