<svg id="Layer_1" data-name="Layer 1" xmlns="http://www.w3.org/2000/svg" width="1100" height="370" viewBox="0 0 1100 370"><defs><style>.cls-1{fill:#cff;}</style></defs><title>titel m bobler</title><path class="cls-1" d="M196.6,300.15a22.93,22.93,0,0,1,5.07,6.63c.86,2,.91,3.67-.06,5s-3,2.14-5.94,2.5a27.07,27.07,0,0,1-11.24-1.53,29,29,0,0,1-9-4.52,79,79,0,0,1-7-6c-2.42-2.4-4.36-4.58-6-6.46a70.88,70.88,0,0,1-5.19-6.81A150,150,0,0,1,145,266.38c-3.53-7.63-6.9-15.35-11.1-22.77-.79,8.11-1.53,16.16-1.75,23.94a138.41,138.41,0,0,0,1.06,23,81.64,81.64,0,0,0,3.59,16.11c1.73,5.18,3.64,10.07,5.64,14.73a5.54,5.54,0,0,1,.13,4.62,7.73,7.73,0,0,1-3.4,3.67,13.68,13.68,0,0,1-5.77,1.69,13.49,13.49,0,0,1-6.67-1.24c-14-6.57-25.59-14.21-36.95-21.88s-22.56-15.47-34.89-22.75c3.53,6.59,7.16,13.17,11,19.66S73.8,318,78,324.3c1.37,1.94,3.09,4.27,5.19,7s4.21,5.45,6.33,8.23,4.16,5.45,6.09,8A20.4,20.4,0,0,1,99.19,354c.91,2.85.65,5.18-.85,7a10.89,10.89,0,0,1-6.13,3.65,15.29,15.29,0,0,1-8.3-.53A17.53,17.53,0,0,1,76,358.49q-6-7.08-11.27-14.27T53.94,329.67q-12-15.89-23-32.05C23.57,286.86,16.3,275.89,8.6,265a33.84,33.84,0,0,1-4.92-9.39q-1.51-4.71,3-9.36a12.53,12.53,0,0,1,4.4-3.08,16.39,16.39,0,0,1,5.84-1.31,33.42,33.42,0,0,1,13.63,2.47c4.37,1.8,8.37,3.58,12,5.32a187.41,187.41,0,0,1,17.5,9q8.24,4.81,15.61,10c6.17,4.43,12,8.93,17.58,13.4s11.19,9,17,13.45c-.31-2.26-.61-4.53-.88-6.81s-.47-4.59-.6-6.93c-.14-4.09-.27-8.22-.43-12.36s-.22-8.29-.22-12.4c.12-5.44.18-10.75,0-15.87a106.8,106.8,0,0,0-1.47-15.13,42.83,42.83,0,0,0-3-11.37c-1.62-3.84-2.43-7.32-2.16-10.55a6.14,6.14,0,0,1,2.88-5.4,16.85,16.85,0,0,1,7.31-2.43,33.12,33.12,0,0,1,9.63.39,28.23,28.23,0,0,1,9.22,3.26,77.29,77.29,0,0,1,10.56,7.82,64,64,0,0,1,8.21,8.74,73.84,73.84,0,0,1,9.08,15.4c2.36,5.28,4.3,10.83,6.21,16.52,3.25,9.31,6.32,18.58,10.85,27.15a68.23,68.23,0,0,0,19.85,23.59C195.73,299.42,196.16,299.78,196.6,300.15Z"/><path class="cls-1" d="M229.14,288.2c2.91,2.73,4.89,5.12,5.43,7.32s.15,3.89-1.5,5.16-4.33,1.89-7.94,1.86a22.66,22.66,0,0,1-11.8-3.81c-17.22-11-23.87-26.62-26.06-44.57-2.36-17.88-.8-36.92-7.16-53a13.17,13.17,0,0,1-6.87-1.63,18.28,18.28,0,0,1-5-4.2,20.54,20.54,0,0,1-3.32-5.47,12.57,12.57,0,0,1-1.15-5.46,11.59,11.59,0,0,1,2.11-5.71,42,42,0,0,1,4.71-5.79,54.89,54.89,0,0,1,5.8-5.23,64.2,64.2,0,0,1,5.38-3.8c6.4-4,15.58-7,28-8.74a146.75,146.75,0,0,1,38.57-.42c12.67,1.66,23.44,5.52,29.7,12s6.53,15.58,1.82,27.13a104.46,104.46,0,0,1-5,9.94c-1.9,3.39-3.94,6.62-6.07,9.67a129.07,129.07,0,0,1-9.7,12.77q-5.06,5.85-10.23,11.16c2.29,2.25,4.53,4.64,6.87,7.16a31.9,31.9,0,0,0,8.25,6.33c1.19.67,3,1.75,5.57,3.18s5.29,3,8.26,4.61,5.95,3.22,9,4.78a32.65,32.65,0,0,1,6.64,4.15,53.93,53.93,0,0,1,6,5.86c1.53,1.83,2.47,3.32,2.55,4.53s-.77,2.05-2.69,2.58-5,.58-9,.12a108.88,108.88,0,0,1-14.62-3c-4.82-1.34-9-2.64-12.64-3.86a112.77,112.77,0,0,1-21-9.4,161.84,161.84,0,0,1-15.83-10.7,67.25,67.25,0,0,1-7.11,3.65q-3.63,1.59-7.12,3.27A47.76,47.76,0,0,0,227.8,287.1C228.24,287.47,228.68,287.84,229.14,288.2Zm15.93-112.13a51.55,51.55,0,0,0-22.17.52,50.07,50.07,0,0,0-19,8.77c7.89,14.18,6.18,31.45,6,48.41,5.87-2.44,11.69-5.22,17.53-8.34a68.46,68.46,0,0,0,17.08-13.54,54.56,54.56,0,0,0,7.75-10.46,29.42,29.42,0,0,0,3.82-10.67,13.11,13.11,0,0,0-1.95-9C252.39,179.09,249.32,177.21,245.07,176.07Z"/><path class="cls-1" d="M337.74,250.62a60.3,60.3,0,0,1,5.87,7.77c1.25,2.21,1.9,3.94,1.51,5.31s-1.68,2.31-4,2.92a29,29,0,0,1-8.94.54,47.1,47.1,0,0,1-11.5-2.29,28.4,28.4,0,0,1-10.74-6.16c-3.07-2.95-4.21-5.79-4-8.37a10.25,10.25,0,0,1,3.23-6.52,15.13,15.13,0,0,1,6.61-3.65,16.83,16.83,0,0,1,7.59-.29,18.08,18.08,0,0,1,7.3,3.47A41.73,41.73,0,0,1,337.74,250.62Z"/><path class="cls-1" d="M513.25,113.68a47.52,47.52,0,0,1,12.81,5c4.05,2.32,6.82,4.77,8.33,7.28a6.37,6.37,0,0,1,.28,6.87c-1.21,2.06-3.78,3.46-7.32,4.19a117,117,0,0,1-19.06,1.88c-5.88.06-11,.2-15.41.4-1.61,16.48-18.33,33.53-28.81,50.34s-17.51,34.35.55,50.48c4,3.51,6.81,6.08,7,7.78s-1,2.52-4.26,2.51a50,50,0,0,1-13.28-2.52c-5.45-1.68-10.54-4.17-14.18-7.64-15.48-14.52-10.66-31.39-.42-48.6,10-17.21,25.68-34.55,26.58-50.79q-2,.13-6.72.71c-3.16.37-6.61.69-10.35.94s-7.59.33-11.56.23A35.79,35.79,0,0,1,426.84,141a11.82,11.82,0,0,1-5.88-4.23,26.1,26.1,0,0,1-3.53-6.13,25.19,25.19,0,0,1-1.7-6,3.61,3.61,0,0,1,2.1-4.17,337.8,337.8,0,0,1,35.67-4.11q18.11-1.12,36.33-2c3.6-.17,7.16-.35,10.66-.55s7.13-.36,10.88-.47Z"/><path class="cls-1" d="M634.19,125.52c-.63-2.79-1.12-5.1-.89-6.87s1-2.88,2.67-3.29,4.3-.07,7.72,1.06a40.37,40.37,0,0,1,11.24,6,32,32,0,0,1,3.47,2.83,10.09,10.09,0,0,1,2.29,2.93,20.12,20.12,0,0,1,1.87,7.85,24.83,24.83,0,0,1-2.27,10.73,41.71,41.71,0,0,1-5.88,9.32c-2.2,2.67-3.55,4.06-3.64,4.18-6.27,6.82-14.3,13.47-22.15,20.19S612.91,194,606.79,201a65.52,65.52,0,0,0-10.67,15.31A69.73,69.73,0,0,0,591.58,229a65.36,65.36,0,0,1-2.94,9.62,12.13,12.13,0,0,1-6.31,6.29,13.28,13.28,0,0,1-4.66,1.26,44.81,44.81,0,0,1-6,.21c-6.14-.19-14.43-1.68-24.12-4.31-11.16-3.21-22.59-8.2-29.68-15.25s-9.66-15.06-7.12-24.12,9.2-18.32,17.22-27.6,15-17.36,19-24.32a48.56,48.56,0,0,0,4.15-8.7,27.32,27.32,0,0,0,1.63-8.7,25.3,25.3,0,0,0-1.08-6.47c-.69-2.26-1.48-4.42-2.3-6.48a19.61,19.61,0,0,1-1.54-5.34c-.13-1.5.72-2.53,2.82-3.06a15.14,15.14,0,0,1,5.82.46A51.07,51.07,0,0,1,564.4,115a43.11,43.11,0,0,1,7.43,3.86,14.14,14.14,0,0,1,4.81,4.75,22.35,22.35,0,0,1,2.12,5.29,20.93,20.93,0,0,1,.58,3.51,14.22,14.22,0,0,1-.1,3.18,39,39,0,0,1-.81,4.29c-2.59,9-9.77,17.73-17.61,26.56s-16,17.72-21.18,26.64a39.87,39.87,0,0,0-4.83,11.52,12.11,12.11,0,0,0,2,10.24,15.24,15.24,0,0,0,8.16,5.41,25.4,25.4,0,0,0,10.18,1,26.41,26.41,0,0,0,9.47-2.92,27.88,27.88,0,0,0,8-6.36c2.4-2.66,5-5.8,8-9.38s6.43-7.28,10.15-11.09,7.68-7.53,11.59-11.22,7.6-7.06,10.85-10.13c3.92-3.59,7.1-6.65,9.53-9.22a79.32,79.32,0,0,0,7.71-9.3,33.36,33.36,0,0,0,4.39-8.31,26.49,26.49,0,0,0,1.52-8.53A21.13,21.13,0,0,0,634.19,125.52Z"/><path class="cls-1" d="M654.25,240.79c1.57,3.64,2.69,6.61,2.66,8.83s-.64,3.55-2.44,3.95-4.55-.23-8.24-1.88a31.24,31.24,0,0,1-11.1-8.62c-14.12-17.13-7.89-33,7.18-48.6,14.74-15.64,36.54-30,43.08-46a8.6,8.6,0,0,1-3.92-4.24,20.41,20.41,0,0,1-1.42-5.68,43.68,43.68,0,0,1-.31-6.17,18.87,18.87,0,0,1,.62-5.32,8.83,8.83,0,0,1,3-4.2,26.7,26.7,0,0,1,5.1-3.21,32.44,32.44,0,0,1,6-2.23,42.23,42.23,0,0,1,5.58-1.12c6.62-.9,16.32.5,28.54,4.36s24.68,9.52,34.76,16.44,16.8,14.85,17.66,23-5.17,15.89-17.28,23.52c-3.45,2.1-7.23,4.15-11.26,6.16s-8.09,3.82-12.11,5.43c-6,2.51-11.87,4.66-17.62,6.44s-11.45,3.4-17.08,4.86c.21,2.84.36,5.79.58,8.9a20.28,20.28,0,0,0,2.86,8.87c.61,1.09,1.49,2.78,2.85,5.12s2.8,4.83,4.41,7.51,3.28,5.35,5,8a24.69,24.69,0,0,1,3.29,6.45,50.53,50.53,0,0,1,1.69,7.63c.26,2.24.28,3.94-.28,5s-1.71,1.46-3.65,1.08-4.7-1.7-8.1-3.89a109.24,109.24,0,0,1-11.74-9c-3.69-3.29-6.76-6.24-9.41-8.89a77.65,77.65,0,0,1-13.21-17.13,65.1,65.1,0,0,1-6.14-15.73,84.56,84.56,0,0,1-8.86,0c-2.88-.14-5.73-.23-8.57-.29-5.82,9.16-7.75,18.74-2.87,29.12C653.73,239.76,654,240.27,654.25,240.79Zm95.68-86.39a38.84,38.84,0,0,0-17.41-8.83,46,46,0,0,0-19.52-.46c-2,15.45-19.7,28.44-35.2,42.11q9.81.66,20.46.47a99.45,99.45,0,0,0,24.32-3.92,86.74,86.74,0,0,0,14.29-5.35A45.47,45.47,0,0,0,748,171.23c2.82-2.62,4.55-5.38,5.08-8.31S752.48,157.13,749.93,154.4Z"/><path class="cls-1" d="M896.53,169.14A26.7,26.7,0,0,1,904,177.3a15.4,15.4,0,0,1,2.43,8.88,8.2,8.2,0,0,1-3.63,6.26c-2.14,1.51-5.07,2-8.58,1.57a102.83,102.83,0,0,1-17.85-4.26q-7.9-2.72-13.88-4.52c-8.9,14.9-28.23,26.41-43.16,39.11s-28,26.9-24.1,46.67c.92,4.31,1.17,7.33-.15,8.78s-3.22,1.67-6.12.58a33.43,33.43,0,0,1-9.91-6.56c-3.59-3.25-6.32-7.1-7.23-11.35-4-17.89,7.47-32,23-44.87,15.37-13,34.94-24.63,43.27-39.43q-1.82-.51-6.25-1.5t-9.53-2.43a102.29,102.29,0,0,1-10.24-3.49,28.2,28.2,0,0,1-8.44-5,9,9,0,0,1-3-5.77,22.06,22.06,0,0,1,0-6.74,21.77,21.77,0,0,1,1.73-6,4.89,4.89,0,0,1,4.27-3.07,326.17,326.17,0,0,1,34.28,7.92q16.89,4.86,33.92,10,5.05,1.53,10.06,3c3.33,1,6.75,2,10.24,3.14Z"/><path class="cls-1" d="M919.77,295.5a16.63,16.63,0,0,1,3.8,8.19,14.54,14.54,0,0,1-.83,7.75,13.85,13.85,0,0,1-4.5,5.81,11.72,11.72,0,0,1-7.77,2.16,17.3,17.3,0,0,1-5-1.32c-2.12-.82-5.07-2-8.83-3.57s-8.56-3.5-14.36-5.77-13-4.95-21.52-7.91c-2.11-.62-4.29-1.33-6.56-2.13a15.23,15.23,0,0,1-6.56-5.23,20,20,0,0,1-4-8.18,26.13,26.13,0,0,1-.51-9.77,30.24,30.24,0,0,1,2.87-9.08,57.57,57.57,0,0,1,4.16-7,74.58,74.58,0,0,1,10.42-11.94,194.08,194.08,0,0,1,15.12-12.69c5.44-4.2,10.92-8.26,16-12.33a148,148,0,0,0,12.58-11.12,58.25,58.25,0,0,0,11.32-15.27A59,59,0,0,0,919.37,186c.71-2.53,1.37-4.33,2.35-5.26a7.36,7.36,0,0,1,4.09-1.82,9.63,9.63,0,0,1,5.35,1.13,23.55,23.55,0,0,1,5.83,3.93,20.07,20.07,0,0,1,4.41,5.73,9.32,9.32,0,0,1,1,6.2c-3.38,17-18.94,29.18-34.59,41.26s-31.56,24.17-38.65,39.39l24.65,8.84q12.33,4.45,25,9.29C919.14,294.93,919.45,295.22,919.77,295.5Z"/><path class="cls-1" d="M1015.06,335.14a11.48,11.48,0,0,1,4.59,4.95,12,12,0,0,1,1.08,5.82,10.82,10.82,0,0,1-2.31,5.71,16.06,16.06,0,0,1-6,4.63,17.64,17.64,0,0,1-4.75,1.52,11,11,0,0,1-4.81.22,141.29,141.29,0,0,1-26.15-8.3,159.76,159.76,0,0,1-23.11-12.36q-3.18-2-7-4.37a17.87,17.87,0,0,1-6.09-6c-2.72-4.47-3.21-9.21-.68-13.93,14.26-27.33,46.82-46.3,67.15-70.83a11,11,0,0,1-.63-5.08,15.84,15.84,0,0,1,1.53-5.38,15,15,0,0,1,3.43-4.63,11.3,11.3,0,0,1,5.2-2.74,21.11,21.11,0,0,1,10.63-.2q5.5,1.26,10.73,2.81a129.93,129.93,0,0,1,21.15,8.49q10.23,5.16,20.86,10.56a76.8,76.8,0,0,0,7.53,3.41,16.3,16.3,0,0,1,6.71,4.54,10.22,10.22,0,0,1,2.59,7,12.41,12.41,0,0,1-2.32,6.84,15.29,15.29,0,0,1-6.07,5,16.38,16.38,0,0,1-9,1.33,27.93,27.93,0,0,1-10.89-3.69c-3.3-2-6.53-3.76-9.65-5.42q-6.86-3.62-13.91-7a130.26,130.26,0,0,0-14.72-5.92c-6.58,8-14.26,15.53-22.12,22.94a140.85,140.85,0,0,0,13.41,6.7q7,3.09,14.13,6.09c2.07.93,4.19,1.8,6.37,2.63a25.9,25.9,0,0,1,6,3.26q3.55,2.68,3.43,6.41a12.78,12.78,0,0,1-2.48,7.1,16.94,16.94,0,0,1-6.84,5.44,16.37,16.37,0,0,1-9.52,1.32,48.2,48.2,0,0,1-10.42-3q-6.1-2.39-12.49-5.34t-12.38-5.94c-4-2-7.29-3.7-9.9-5.13a197,197,0,0,0-18.57,20.8,120.65,120.65,0,0,0,21.06,11.06,192.61,192.61,0,0,0,23.84,8Z"/><circle class="cls-1" cx="74.75" cy="130.04" r="16"/><circle class="cls-1" cx="90.25" cy="158.54" r="9.5"/><circle class="cls-1" cx="80.75" cy="188.04" r="8"/><circle class="cls-1" cx="549.75" cy="21.04" r="16"/><circle class="cls-1" cx="565.25" cy="49.54" r="9.5"/><circle class="cls-1" cx="555.75" cy="79.04" r="8"/><circle class="cls-1" cx="919.75" cy="73.04" r="16"/><circle class="cls-1" cx="904.25" cy="101.54" r="9.5"/><circle class="cls-1" cx="913.75" cy="131.04" r="8"/><circle class="cls-1" cx="741.56" cy="289.65" r="16"/><circle class="cls-1" cx="732.2" cy="320.71" r="9.5"/><circle class="cls-1" cx="747.52" cy="347.65" r="8"/><circle class="cls-1" cx="379.75" cy="281.04" r="16"/><circle class="cls-1" cx="395.25" cy="309.54" r="9.5"/><circle class="cls-1" cx="385.75" cy="339.04" r="8"/></svg>