<svg id="Layer_1" data-name="Layer 1" xmlns="http://www.w3.org/2000/svg" width="190" height="130" viewBox="0 0 190 130"><defs><style>.cls-1{fill:#124cd0;}.cls-2{fill:#1270d0;}.cls-3,.cls-4{fill:#fff;}.cls-4{opacity:0.72;}</style></defs><title>try again ui</title><ellipse class="cls-1" cx="95.8" cy="65.92" rx="89.2" ry="59.17"/><ellipse class="cls-2" cx="93.81" cy="62.96" rx="88.81" ry="58.04"/><path class="cls-3" d="M49.86,55.71a1.38,1.38,0,0,1-.55-.16.88.88,0,0,0-.58-.11l-2.63.87q-.24,7.21-.49,14.42a4.63,4.63,0,0,0,.3,1.72,2.3,2.3,0,0,1-.09,1,1.8,1.8,0,0,1-.52,1.09.92.92,0,0,1-.26,0,11.34,11.34,0,0,1-2.35-.26,3.92,3.92,0,0,1-2-.71,1.26,1.26,0,0,1,.07-1.32,2.84,2.84,0,0,0,.37-1l.51-13.59-1.81.57a1.62,1.62,0,0,0-.43.25.64.64,0,0,1-.5.17c-.38-.09-.9-.61-1.53-1.56s-.9-1.6-.8-1.95a1.87,1.87,0,0,1,1.22-1,1.53,1.53,0,0,1,.66,0,2,2,0,0,0,.63,0L48,51.28a6.41,6.41,0,0,0,.74-.35,1.35,1.35,0,0,1,.74-.17,1.1,1.1,0,0,1,.93.57,4.69,4.69,0,0,1,.34,1.23,7.64,7.64,0,0,1,.2,1.85,2.55,2.55,0,0,1-.17.92C50.67,55.55,50.37,55.67,49.86,55.71Z"/><path class="cls-3" d="M58.39,58.94a.66.66,0,0,1-.29.72,6,6,0,0,0-.6.37Q55.84,62.7,53,67.26c-.09,2.9-.12,4.4-.11,4.49s.07.32.17.69a3.12,3.12,0,0,1,.14.88.77.77,0,0,1-.45.73,2,2,0,0,1-.78.17,5.75,5.75,0,0,1-2.13-.39c-1-.33-1.46-.78-1.44-1.34a2.54,2.54,0,0,1,.23-.81,3.09,3.09,0,0,0,.23-.91c.12-3.62.23-7.23.35-10.85-.15-1-.23-1.54-.23-1.58a1.09,1.09,0,0,1,.75-1.1,3,3,0,0,1,.73-.1,5.8,5.8,0,0,1,1.85.25c.65.19,1,.4,1.14.63a.73.73,0,0,1,0,.27,10.79,10.79,0,0,1-.4,1.33l0,1.32c.42-.8.85-1.6,1.26-2.4.55-1,.95-1.53,1.21-1.59s.93.13,1.67.66S58.32,58.58,58.39,58.94Z"/><path class="cls-3" d="M73.46,58.3a1.53,1.53,0,0,1,0,.41,1.57,1.57,0,0,1-.39,1,3.65,3.65,0,0,0-.57.89q-2.66,7.86-5.36,15.74l-.12,1.1c-.08.58-.26.91-.53,1l-.29,0a4.84,4.84,0,0,1-1.71-.36,3.89,3.89,0,0,1-1.41-.75,1.1,1.1,0,0,1-.38-.82,2.16,2.16,0,0,1,.38-1,6.73,6.73,0,0,0,.43-.79c.3-1,.61-2.07.91-3.11q-1.95-5.39-3.88-10.77a3.65,3.65,0,0,0-.44-.54,1.79,1.79,0,0,1-.41-1.08c0-.22.43-.62,1.36-1.2a4.81,4.81,0,0,1,2.18-.88.54.54,0,0,1,.33.07,1.46,1.46,0,0,1,.59.91c.08.4.16.79.25,1.17l2.1,6.59c.85-2.29,1.69-4.59,2.52-6.88.11-.36.23-.73.35-1.1a1.08,1.08,0,0,1,.55-.69,1.53,1.53,0,0,1,.56-.09,4.76,4.76,0,0,1,1.84.39C73,57.76,73.4,58,73.46,58.3Z"/><path class="cls-3" d="M92.4,72.26a1,1,0,0,1-.3.65.75.75,0,0,1-.64.22q-3.18-.45-3.54-1.26a.54.54,0,0,1,0-.22.61.61,0,0,1,.12-.3.81.81,0,0,0,.14-.28.74.74,0,0,1,.11-.24,5.47,5.47,0,0,0,0-1,5.4,5.4,0,0,0-.93,1.31,6.77,6.77,0,0,1-1.14,1.64,2.63,2.63,0,0,1-1.87.84,1.82,1.82,0,0,1-1.2-.51,11.48,11.48,0,0,1-1-1l-1.32-1.59a2.45,2.45,0,0,1-.52-1.44,2.1,2.1,0,0,1,0-.43,8.46,8.46,0,0,1,3.05-4.58,28.51,28.51,0,0,1,5.21-3.33c0-.58-.13-1-.4-1.12s-.76.1-1.78.63a10.28,10.28,0,0,0-2.14,1.33,8,8,0,0,1-.67.61,1,1,0,0,1-.79.17,4.91,4.91,0,0,1-1.18-1,3.85,3.85,0,0,1-1-1.19,1,1,0,0,1,.44-1.15s.35-.13,1-.34L84,57.61a9,9,0,0,1,3.35-1.11,1.94,1.94,0,0,1,1.32.65L90,58.38c.45.41.91.8,1.38,1.18A2.12,2.12,0,0,1,92.19,61c0,3.42,0,6.85,0,10.27A2.86,2.86,0,0,1,92.4,72.26Zm-4.06-7.93a5.67,5.67,0,0,0-2.15,1.59c-.44.59-.89,1.16-1.33,1.73a6.35,6.35,0,0,0-1,1.49,3.46,3.46,0,0,0-.49,1.35c0,.15.05.22.15.22.36,0,1.17-.83,2.42-2.49A17.27,17.27,0,0,0,88.34,64.33Z"/><path class="cls-3" d="M105.28,58.53a3.57,3.57,0,0,1-.27.54,1.31,1.31,0,0,0-.17.59c0,4,0,7.93.08,11.89q0,4.5-3.12,5.76a7,7,0,0,1-2.67.59,4.21,4.21,0,0,1-3-1.25,14.81,14.81,0,0,1-1.24-1.41l-.48-.52a1.08,1.08,0,0,1-.29-.62c0-.27.25-.49.77-.65a1.24,1.24,0,0,1,.31,0,4.75,4.75,0,0,1,1.35.24,2.59,2.59,0,0,1,1.11.6l.85,1.12a1.48,1.48,0,0,0,1,.62c.71.08,1.16-.43,1.36-1.51a17.84,17.84,0,0,0,.14-2.8l-.49.7A3.43,3.43,0,0,1,100,73a.84.84,0,0,1-.59.27,3.42,3.42,0,0,1-2.28-.8q-2.75-2.44-2.74-7.2a12,12,0,0,1,1.19-5.4,5.67,5.67,0,0,1,3.24-3.2.76.76,0,0,1,.28,0,1.54,1.54,0,0,1,.91.41c.29.24.58.48.87.74.09-.31.2-.61.31-.91a.67.67,0,0,1,.52-.5,5.06,5.06,0,0,1,1.89.38c.9.31,1.42.57,1.53.79A1.16,1.16,0,0,1,105.28,58.53Zm-4.46,6.64a27.82,27.82,0,0,0,.19-3.06c0-1.47-.23-2.29-.67-2.48s-.78.5-1.29,1.92a11.94,11.94,0,0,0-.75,3.91A15,15,0,0,0,99,70.54,12.65,12.65,0,0,0,100.82,65.17Z"/><path class="cls-3" d="M119.27,72.46a.92.92,0,0,1-.3.65.71.71,0,0,1-.63.2c-2.13-.34-3.31-.78-3.56-1.33a.54.54,0,0,1,0-.22.53.53,0,0,1,.11-.29,1,1,0,0,0,.14-.28.46.46,0,0,1,.09-.23,4.18,4.18,0,0,0,0-.95,5,5,0,0,0-.91,1.29,6.69,6.69,0,0,1-1.1,1.61,2.53,2.53,0,0,1-1.86.78,1.86,1.86,0,0,1-1.21-.52,13.61,13.61,0,0,1-1-1.07l-1.35-1.61A2.63,2.63,0,0,1,107.1,69a2.1,2.1,0,0,1,.05-.43,8.06,8.06,0,0,1,3-4.5,27.6,27.6,0,0,1,5.15-3.2c0-.57-.15-.95-.43-1.11s-.76.08-1.76.58A10.16,10.16,0,0,0,111,61.66a8.12,8.12,0,0,1-.66.59,1,1,0,0,1-.78.15,5,5,0,0,1-1.21-1,4.36,4.36,0,0,1-1-1.21.92.92,0,0,1,.42-1.13s.35-.12,1-.31l1.87-1.06a8.46,8.46,0,0,1,3.33-1,2,2,0,0,1,1.32.67l1.35,1.26q.68.61,1.41,1.2a2.2,2.2,0,0,1,.83,1.48L119,71.51A2.63,2.63,0,0,1,119.27,72.46Zm-4.21-8A5.31,5.31,0,0,0,112.94,66c-.44.57-.87,1.14-1.31,1.69a6.47,6.47,0,0,0-1,1.47,3.33,3.33,0,0,0-.46,1.33c0,.15.06.22.16.22.36,0,1.15-.8,2.37-2.42A17,17,0,0,0,115.06,64.48Z"/><path class="cls-3" d="M126.57,72.67c.08.65-.12,1-.61,1.2a1.29,1.29,0,0,1-.36,0,8.24,8.24,0,0,1-2.29-.45q-1.47-.47-1.74-1c-.08-.15,0-.42.22-.83a3.49,3.49,0,0,0,.2-1.49c-.07-3.79-.15-7.57-.22-11.36a6.59,6.59,0,0,1-.34-1.39q0-.34.93-.33a6.9,6.9,0,0,1,2.13.55,4.22,4.22,0,0,1,1.65.93.4.4,0,0,1,.09.27,2.32,2.32,0,0,1-.28.8,2.4,2.4,0,0,0-.27.89q.12,5.43.25,10.87a1.21,1.21,0,0,0,.31.68A1.84,1.84,0,0,1,126.57,72.67ZM126.22,54a.54.54,0,0,1,0,.22,6.54,6.54,0,0,1-.2,1.53c-.15.68-.3,1.06-.45,1.13a6.85,6.85,0,0,1-2.19-.64,5.5,5.5,0,0,1-2.07-1,.87.87,0,0,1-.08-.41,3.86,3.86,0,0,1,.32-1.53c.26-.61.55-.94.89-1a4.54,4.54,0,0,1,2,.53A3.22,3.22,0,0,1,126.22,54Z"/><path class="cls-3" d="M140.66,71.91a2.8,2.8,0,0,1,.24,1,1,1,0,0,1-.55,1.09,1.71,1.71,0,0,1-.64.06,9.27,9.27,0,0,1-2.08-.36,3.64,3.64,0,0,1-1.48-.6.56.56,0,0,1-.14-.35,2.05,2.05,0,0,1,.36-1,2.14,2.14,0,0,0,.35-.94q-.27-10.64-.47-10.73c-.24-.1-.8.69-1.69,2.37a9.4,9.4,0,0,0-1.36,4c.05,1.69.1,3.37.14,5a1.44,1.44,0,0,1-.47,2.26.66.66,0,0,1-.31,0,9,9,0,0,1-2-.39,3.92,3.92,0,0,1-1.5-.6.78.78,0,0,1-.16-.49,1,1,0,0,1,.27-.64,1.2,1.2,0,0,0,.29-.48q-.17-6.27-.32-12.56a1.37,1.37,0,0,0-.21-.58.76.76,0,0,1-.15-.59.93.93,0,0,1,.77-.71,5.21,5.21,0,0,1,1.91.35c1.09.33,1.68.64,1.79,1a1.47,1.47,0,0,1-.05.89,8,8,0,0,0-.25,1.07,2.72,2.72,0,0,0,.12.65,8.46,8.46,0,0,1,1-2.37c.54-.82,1.08-1.23,1.64-1.21a5.85,5.85,0,0,1,2.24.72c.93.45,1.46.85,1.61,1.2Q140.29,60.88,140.66,71.91Z"/><path class="cls-3" d="M152.43,57.79a5.49,5.49,0,0,1-1,4,16.88,16.88,0,0,1-2.78,2.75,12.19,12.19,0,0,0-2.61,2.77q-.48.84-.84.75c-.58-.15-1.45-1-2.6-2.4a.46.46,0,0,1-.09-.27,1.76,1.76,0,0,1,.37-1,24.13,24.13,0,0,1,2.86-2.8,23.51,23.51,0,0,0,3.2-3.25c.89-1.21,1.08-2.19.54-2.93a1.73,1.73,0,0,0-1.44-.68,8.63,8.63,0,0,0-4.46,1.5l-.15,0c-.25,0-.64-.32-1.17-.94a10.6,10.6,0,0,1-1.06-1.5.7.7,0,0,1,.11-.8,4.82,4.82,0,0,1,1.94-1,9.26,9.26,0,0,1,3.53-.6,4.53,4.53,0,0,1,2.36.7A7.7,7.7,0,0,1,152.43,57.79Zm-5.09,14.35a1,1,0,0,1,.06.22,1,1,0,0,1-.31.57,1.73,1.73,0,0,0-.39.59c-.11.35-.21.71-.32,1.09-.17.55-.39.78-.69.7a7.4,7.4,0,0,1-2.89-2.24.28.28,0,0,1-.09-.28,2,2,0,0,1,.1-.21c.1-.32.22-.64.35-1a3.11,3.11,0,0,0,.16-1.16.55.55,0,0,1,.3-.56,1.2,1.2,0,0,1,.74-.2,3.22,3.22,0,0,1,1.67,1A5.32,5.32,0,0,1,147.34,72.14Z"/><ellipse class="cls-4" cx="45.26" cy="41.27" rx="3.89" ry="4.01"/><ellipse class="cls-4" cx="31.32" cy="44.22" rx="2.48" ry="2.56"/><ellipse class="cls-4" cx="51.04" cy="25.45" rx="5.62" ry="5.81"/></svg>