<svg id="Layer_1" data-name="Layer 1" xmlns="http://www.w3.org/2000/svg" xmlns:xlink="http://www.w3.org/1999/xlink" width="170" height="260" viewBox="0 0 170 260"><defs><style>.cls-1{fill:#174e6f;}.cls-2{fill:#0b8eaa;}.cls-3{fill:#366;}.cls-4{fill:url(#linear-gradient);}.cls-5{fill:#00b4eb;}.cls-6{fill:none;stroke:#000;stroke-linecap:round;stroke-linejoin:round;stroke-width:2px;}.cls-7{fill:#e1ffff;}.cls-8{fill:#cff;}.cls-9{fill:#1a6172;}.cls-10{fill:#fff;}.cls-11{fill:#050505;}</style><linearGradient id="linear-gradient" x1="5.8" y1="64.16" x2="165.63" y2="64.16" gradientUnits="userSpaceOnUse"><stop offset="0.47" stop-color="#01687f"/><stop offset="1" stop-color="#42cbea"/></linearGradient></defs><title>vandmand</title><path class="cls-1" d="M31,204.35c.13-7.42,6.52-7.31,6.65-14.73s-6.27-7.54-6.14-15,6.52-7.31,6.65-14.73S31.9,152.39,32,145s6.52-7.31,6.64-14.74-6.26-7.53-6.13-15,6.52-7.32,6.64-14.75c0-.11-6.3-1-6.27-1.1S39,101.29,39,101.19s-5.27-3.59-5.19-3.68,4.64,4.32,4.73,4.25-3.19-5.51-3.09-5.56,2.31,5.9,2.43,5.88-.49-6.35-.37-6.35.14,6.39.27,6.39.13-6.39.27-6.39.13,6.39.26,6.39.13-6.39.27-6.39.13,6.39.27,6.39.13-6.39.27-6.39.13,6.39.27,6.39.94-6.3,1.05-6.28-1.87,6.06-1.77,6.11,3.59-5.26,3.68-5.19-4.32,4.65-4.25,4.74,5.51-3.2,5.56-3.09-5.9,2.31-5.88,2.42,6.35-.37,6.35-.25c-.25,7.5-6.64,7.28-6.89,14.78s6.13,7.72,5.88,15.22-6.64,7.28-6.9,14.78,6.14,7.71,5.88,15.21-6.64,7.29-6.89,14.79,6.13,7.72,5.88,15.22-6.64,7.28-6.9,14.79"/><ellipse class="cls-1" cx="32.75" cy="203.98" rx="2.06" ry="1.86" transform="translate(-172.36 179.3) rotate(-74.02)"/><ellipse class="cls-2" cx="31.65" cy="203.19" rx="2.19" ry="1.85" transform="translate(-173.65 191.36) rotate(-77.85)"/><path class="cls-2" d="M30,203.29c.12-7.42,6.52-7.31,6.64-14.74s-6.26-7.53-6.13-15,6.51-7.32,6.64-14.74-6.26-7.53-6.14-15,6.52-7.31,6.65-14.73-6.27-7.54-6.14-15,6.52-7.31,6.65-14.74c0-.12-6.3-1-6.28-1.11s6.06,1.88,6.11,1.77-5.26-3.59-5.19-3.68,4.65,4.32,4.74,4.25-3.2-5.51-3.09-5.56S36.72,101,36.83,101s-.48-6.35-.36-6.35.13,6.39.26,6.39.14-6.39.27-6.39.13,6.39.27,6.39.13-6.39.26-6.39.14,6.39.27,6.39.14-6.39.27-6.39.14,6.39.28,6.39.94-6.3,1-6.27-1.88,6.06-1.77,6.11,3.59-5.26,3.68-5.19-4.33,4.64-4.25,4.73,5.51-3.19,5.56-3.09-5.91,2.31-5.88,2.43,6.35-.38,6.35-.26c-.25,7.5-6.65,7.29-6.9,14.78s6.14,7.72,5.88,15.22-6.64,7.28-6.89,14.78,6.13,7.72,5.88,15.22-6.65,7.28-6.9,14.78S40.3,182,40,189.51s-6.64,7.29-6.89,14.79"/><path class="cls-1" d="M102.25,252.92c.12-10.26,9-10.15,9.09-20.42s-8.71-10.37-8.59-20.63,9-10.16,9.1-20.42-8.72-10.37-8.59-20.63,9-10.16,9.09-20.42-8.71-10.38-8.58-20.64,9-10.16,9.09-20.42c0-.14-8.78-1-8.76-1.09s8.65,1.62,8.69,1.49-8.09-3.51-8-3.64,7.58,4.43,7.67,4.32-6.05-6.38-5.94-6.47,4.52,7.45,4.64,7.41-1.28-8.64-1.14-8.64.13,8.84.27,8.84.13-8.84.26-8.84.13,8.84.27,8.84.13-8.84.26-8.84.14,8.84.27,8.84.14-8.84.27-8.84.14,8.84.28,8.84,1.83-8.53,2-8.48-4,7.72-3.93,7.81,6.43-6,6.52-5.87-7.3,4.89-7.23,5,8.29-3,8.34-2.86-8.54,2.17-8.52,2.31,8.82-.24,8.82-.1c-.25,10.37-9.09,10.15-9.34,20.52s8.58,10.58,8.33,21-9.09,10.15-9.35,20.52,8.59,10.59,8.33,21-9.09,10.16-9.34,20.53,8.58,10.58,8.33,20.95-9.09,10.16-9.35,20.53"/><ellipse class="cls-1" cx="105.21" cy="252.37" rx="2.83" ry="1.88" transform="translate(-153.19 341.76) rotate(-86.45)"/><ellipse class="cls-2" cx="104.1" cy="251.29" rx="3.02" ry="1.86" transform="translate(-153.82 337.65) rotate(-86.01)"/><path class="cls-2" d="M101.18,251.44c.13-10.26,9-10.15,9.09-20.41s-8.71-10.37-8.58-20.64,9-10.15,9.09-20.41-8.71-10.37-8.58-20.64,9-10.15,9.09-20.42-8.71-10.37-8.59-20.63,9-10.16,9.09-20.43c0-.14-8.78-1-8.76-1.09s8.66,1.62,8.7,1.49-8.1-3.51-8-3.63,7.59,4.43,7.67,4.32-6-6.39-5.94-6.47,4.52,7.45,4.65,7.4-1.29-8.63-1.15-8.63.14,8.84.27,8.84.13-8.84.27-8.84.13,8.84.26,8.84.13-8.84.27-8.84.13,8.84.27,8.84.13-8.84.27-8.84.14,8.84.27,8.84,1.83-8.53,2-8.48-4,7.72-3.93,7.81,6.43-6,6.52-5.88-7.29,4.9-7.23,5,8.3-3,8.34-2.86-8.54,2.17-8.52,2.31,8.83-.25,8.83-.1c-.26,10.36-9.09,10.15-9.35,20.52S116,139,115.75,149.39s-9.09,10.15-9.34,20.52,8.58,10.58,8.33,21-9.09,10.15-9.35,20.52,8.59,10.59,8.33,21-9.09,10.15-9.34,20.52"/><path class="cls-1" d="M77.37,229.11c.12-8.65,7.58-8.54,7.7-17.19s-7.32-8.77-7.2-17.42,7.58-8.54,7.71-17.19-7.33-8.77-7.2-17.42,7.58-8.55,7.71-17.2-7.33-8.77-7.2-17.43,7.58-8.54,7.7-17.2c0-.13-7.38-1-7.35-1.09s7.2,1.75,7.24,1.64S80,105,80,104.93s5.93,4.43,6,4.34-4.39-6-4.28-6,3.18,6.65,3.3,6.62-.78-7.36-.65-7.36.13,7.45.26,7.45.14-7.45.27-7.45.13,7.45.26,7.45.14-7.45.27-7.45.13,7.45.27,7.45.14-7.45.27-7.45.14,7.45.27,7.45,1.29-7.29,1.41-7.26-2.74,6.85-2.63,6.92,4.78-5.67,4.87-5.58-5.61,4.82-5.55,4.92,6.75-3.12,6.79-3-7.06,2.24-7,2.37,7.43-.32,7.43-.19c-.26,8.75-7.71,8.53-8,17.27s7.2,9,6.94,17.7-7.7,8.53-8,17.27,7.2,9,7,17.7-7.71,8.53-8,17.27,7.2,9,6.94,17.71-7.7,8.53-8,17.27"/><ellipse class="cls-1" cx="79.63" cy="228.66" rx="2.39" ry="1.87" transform="translate(-156.25 283.34) rotate(-83.85)"/><ellipse class="cls-2" cx="78.53" cy="227.75" rx="2.55" ry="1.86" transform="translate(-156.45 280.87) rotate(-83.71)"/><path class="cls-2" d="M76.3,227.87c.13-8.65,7.58-8.54,7.71-17.19s-7.33-8.77-7.2-17.42,7.58-8.54,7.7-17.2-7.32-8.76-7.19-17.41,7.57-8.55,7.7-17.21-7.32-8.76-7.2-17.42,7.58-8.55,7.71-17.2c0-.13-7.38-1-7.36-1.1s7.2,1.76,7.25,1.64-6.52-3.57-6.46-3.67,5.93,4.42,6,4.34-4.38-6-4.28-6,3.19,6.65,3.31,6.61-.79-7.36-.66-7.36.13,7.46.27,7.46.13-7.46.26-7.46.14,7.46.27,7.46.13-7.46.26-7.46.14,7.46.27,7.46.14-7.46.28-7.46.13,7.46.27,7.46,1.28-7.29,1.4-7.26-2.73,6.85-2.62,6.92,4.78-5.67,4.87-5.58-5.62,4.81-5.55,4.92,6.74-3.12,6.79-3-7.07,2.24-7,2.36,7.42-.31,7.42-.18c-.25,8.74-7.7,8.53-8,17.27s7.2,9,6.95,17.7-7.71,8.53-8,17.27,7.19,9,6.94,17.7-7.7,8.53-8,17.27,7.2,9,6.95,17.71-7.71,8.53-8,17.27"/><path class="cls-1" d="M125.32,217.93c.12-7.83,6.86-7.72,7-15.54s-6.61-7.93-6.48-15.76,6.86-7.71,7-15.54-6.61-7.93-6.49-15.76,6.87-7.72,7-15.54-6.61-7.94-6.48-15.77,6.87-7.71,7-15.54c0-.12-6.65-1-6.63-1.1s6.44,1.83,6.49,1.72-5.68-3.58-5.61-3.68,5.06,4.37,5.15,4.29-3.57-5.68-3.46-5.73,2.58,6.16,2.69,6.13-.57-6.69-.45-6.69.13,6.74.27,6.74.13-6.74.26-6.74.14,6.74.27,6.74.13-6.74.26-6.74.14,6.74.27,6.74.14-6.74.28-6.74.13,6.74.27,6.74,1-6.62,1.16-6.6-2.14,6.33-2,6.39,4-5.41,4.06-5.34-4.74,4.72-4.67,4.81,5.92-3.17,6-3.06-6.29,2.29-6.27,2.4,6.7-.35,6.7-.23c-.25,7.91-7,7.69-7.24,15.6s6.48,8.12,6.23,16-7,7.69-7.24,15.59,6.48,8.13,6.22,16-7,7.69-7.24,15.6,6.48,8.12,6.23,16-7,7.69-7.24,15.6"/><ellipse class="cls-1" cx="127.23" cy="217.53" rx="2.16" ry="1.87" transform="translate(-109.77 303.2) rotate(-79.55)"/><ellipse class="cls-2" cx="126.13" cy="216.7" rx="2.31" ry="1.86" transform="translate(-108.05 306.3) rotate(-80.74)"/><path class="cls-2" d="M124.25,216.81c.13-7.83,6.87-7.72,7-15.54s-6.61-7.94-6.48-15.76,6.86-7.72,7-15.54-6.61-7.94-6.48-15.76,6.86-7.72,7-15.54-6.61-7.94-6.49-15.77,6.87-7.72,7-15.54c0-.13-6.66-1-6.63-1.11s6.43,1.84,6.48,1.73-5.68-3.59-5.61-3.68,5.07,4.37,5.16,4.29-3.58-5.68-3.47-5.74,2.58,6.16,2.7,6.13-.58-6.68-.46-6.68.14,6.74.27,6.74.13-6.74.27-6.74.13,6.74.26,6.74.13-6.74.27-6.74.13,6.74.27,6.74.13-6.74.27-6.74.14,6.74.27,6.74,1.05-6.63,1.16-6.6-2.14,6.33-2,6.39,4-5.42,4.06-5.34-4.75,4.72-4.68,4.81,5.92-3.17,6-3.06-6.29,2.28-6.26,2.4,6.7-.35,6.7-.23c-.25,7.9-7,7.69-7.25,15.59s6.49,8.12,6.23,16-7,7.69-7.24,15.59,6.48,8.12,6.23,16-7,7.69-7.24,15.6,6.48,8.12,6.22,16-7,7.69-7.24,15.6"/><path class="cls-1" d="M53.08,244.85c.12-9.8,8.56-9.69,8.69-19.49s-8.31-9.91-8.19-19.71,8.57-9.69,8.7-19.49-8.32-9.91-8.19-19.71,8.57-9.69,8.69-19.49-8.31-9.91-8.18-19.71,8.57-9.69,8.69-19.5c0-.13-8.38-1-8.36-1.09s8.24,1.66,8.28,1.53-7.65-3.53-7.58-3.64,7.11,4.43,7.19,4.33-5.55-6.29-5.45-6.37,4.12,7.24,4.24,7.2-1.13-8.27-1-8.27.13,8.44.27,8.44.13-8.44.26-8.44.14,8.44.27,8.44.13-8.44.26-8.44.14,8.44.27,8.44.14-8.44.28-8.44.13,8.44.27,8.44,1.66-8.18,1.79-8.14-3.65,7.49-3.54,7.57,6-5.92,6-5.81-6.82,4.88-6.75,5,7.86-3,7.9-2.91-8.12,2.19-8.1,2.33,8.42-.26,8.42-.12c-.25,9.9-8.69,9.68-8.94,19.58s8.18,10.12,7.93,20-8.69,9.68-9,19.58,8.19,10.12,7.93,20-8.69,9.68-8.94,19.58,8.18,10.12,7.93,20-8.69,9.69-8.95,19.59"/><ellipse class="cls-1" cx="55.84" cy="244.33" rx="2.7" ry="1.88" transform="translate(-191.81 282.91) rotate(-85.98)"/><ellipse class="cls-2" cx="54.74" cy="243.3" rx="2.88" ry="1.86" transform="translate(-192.07 279.02) rotate(-85.56)"/><path class="cls-2" d="M52,243.44c.13-9.8,8.57-9.69,8.69-19.49s-8.31-9.9-8.18-19.7,8.56-9.7,8.69-19.5-8.31-9.9-8.18-19.7,8.56-9.7,8.69-19.5-8.31-9.91-8.19-19.71,8.57-9.69,8.7-19.49c0-.14-8.38-1-8.37-1.09s8.25,1.65,8.29,1.53-7.65-3.53-7.59-3.65,7.12,4.44,7.2,4.34-5.56-6.3-5.45-6.38,4.11,7.25,4.24,7.2-1.13-8.27-1-8.27.14,8.44.27,8.44S60,100,60.09,100s.13,8.44.26,8.44.13-8.44.27-8.44.13,8.44.27,8.44S61,100,61.16,100s.14,8.44.27,8.44,1.66-8.18,1.79-8.14-3.65,7.49-3.54,7.58,6-5.92,6.05-5.82-6.82,4.89-6.76,5,7.86-3,7.9-2.9-8.11,2.19-8.09,2.32,8.42-.26,8.42-.12c-.25,9.9-8.69,9.68-9,19.58s8.19,10.12,7.93,20-8.69,9.68-8.94,19.58,8.18,10.12,7.93,20-8.69,9.69-9,19.59,8.19,10.12,7.93,20-8.69,9.68-8.94,19.59"/><path class="cls-3" d="M164.2,90c0,13.71,0,35.52-25.92,27-13.77-4.53-4.27,24.5-51.5,5-40.08-16.57-43,9.59-60.38-12.43-10.2-12.9-22-1.84-22-19.54,0-10.23,21.36-25.81,24.86-34.8,11.61-29.8,21.14-45.11,55.05-45.11,34.74,0,50.07,16.64,61.09,47.59C148.36,66.1,164.2,80.64,164.2,90Z"/><path class="cls-4" d="M165.63,84.72c0,13.7,0,35.51-25.93,27-13.77-4.53-4.26,24.51-51.5,5-40.08-16.57-43,9.59-60.38-12.43-10.2-12.9-22-1.84-22-19.53,0-10.23,21.36-25.82,24.86-34.81C42.27,20.11,51.8,4.8,85.71,4.8c34.74,0,50.08,16.64,61.09,47.59C149.78,60.77,165.63,75.32,165.63,84.72Z"/><ellipse class="cls-5" cx="49.66" cy="67.67" rx="8.7" ry="3.55"/><ellipse class="cls-5" cx="124.42" cy="69.44" rx="9.23" ry="2.49"/><path class="cls-6" d="M106.64,96.9c-3.46,3.72-12,5.3-22.18,3.8s-18.68-6.8-19-11.86"/><path class="cls-6" d="M109.65,97.43c-1.35,1-2.21-.21-2.62-.74s-1.92-2.31-.57-3.36"/><path class="cls-6" d="M65.82,85.72c1.41,1.39.1,2.57-.45,3.12S63,91.4,61.6,90"/><circle class="cls-7" cx="81.98" cy="24.51" r="4.08"/><circle class="cls-7" cx="90.33" cy="31.44" r="2.84"/><circle class="cls-7" cx="77.9" cy="14.03" r="3.2"/><circle class="cls-8" cx="90.42" cy="16.15" r="5.02"/><circle class="cls-7" cx="99.21" cy="24.34" r="2.84"/><ellipse class="cls-9" cx="111.13" cy="44.94" rx="20.57" ry="15.48" transform="translate(40.26 141.61) rotate(-75.77)"/><ellipse class="cls-10" cx="110.48" cy="47" rx="19.71" ry="14.83" transform="translate(37.77 142.53) rotate(-75.77)"/><ellipse class="cls-11" cx="108.93" cy="53.09" rx="8.55" ry="6.43" transform="matrix(0.3, -0.95, 0.95, 0.3, 25.16, 140.65)"/><ellipse class="cls-9" cx="68.68" cy="44.26" rx="15.48" ry="20.57" transform="translate(-2.51 4.17) rotate(-3.42)"/><ellipse class="cls-10" cx="68.68" cy="46.41" rx="14.83" ry="19.71" transform="translate(-2.64 4.17) rotate(-3.42)"/><ellipse class="cls-11" cx="69.05" cy="52.69" rx="8.55" ry="6.43" transform="translate(16.24 121.64) rotate(-89.89)"/><circle class="cls-10" cx="110.57" cy="50.62" r="2.84"/><circle class="cls-10" cx="68.31" cy="50.62" r="2.84"/></svg>
