<svg id="Layer_1" data-name="Layer 1" xmlns="http://www.w3.org/2000/svg" xmlns:xlink="http://www.w3.org/1999/xlink" width="130" height="150" viewBox="0 0 130 150"><defs><style>.cls-1{fill:#1a6172;}.cls-2{fill:#42cbea;}.cls-3{fill:url(#linear-gradient);}.cls-4{fill:url(#linear-gradient-2);}.cls-5{fill:#fff;}.cls-6{fill:#050505;}.cls-7{fill:none;stroke:#000;stroke-linecap:round;stroke-linejoin:round;stroke-width:2px;}</style><linearGradient id="linear-gradient" x1="94.95" y1="20.01" x2="126.49" y2="20.01" gradientTransform="translate(62.25 -81.53) rotate(54.24)" gradientUnits="userSpaceOnUse"><stop offset="0" stop-color="#42cbea"/><stop offset="0.4" stop-color="#44ccea"/><stop offset="0.54" stop-color="#4bcdeb"/><stop offset="0.64" stop-color="#56d1ec"/><stop offset="0.72" stop-color="#67d5ee"/><stop offset="0.79" stop-color="#7ddbf1"/><stop offset="0.86" stop-color="#99e3f4"/><stop offset="0.91" stop-color="#b9ecf7"/><stop offset="0.96" stop-color="#ddf6fb"/><stop offset="1" stop-color="#fff"/></linearGradient><linearGradient id="linear-gradient-2" x1="1.87" y1="129.69" x2="35.18" y2="129.69" gradientTransform="translate(104.48 30.83) rotate(49.14)" gradientUnits="userSpaceOnUse"><stop offset="0.03" stop-color="#fff"/><stop offset="0.42" stop-color="#48cdeb"/><stop offset="0.63" stop-color="#48cdeb"/><stop offset="1" stop-color="#42cbea"/></linearGradient></defs><title>vatpind</title><rect class="cls-1" x="63.58" y="15.64" width="5.81" height="120.65" transform="translate(65.91 -24.98) rotate(40.86)"/><rect class="cls-2" x="59.81" y="18.04" width="5.81" height="120.65" transform="translate(66.56 -21.93) rotate(40.86)"/><ellipse class="cls-1" cx="20.42" cy="131.37" rx="20.98" ry="11.01" transform="translate(-92.29 60.86) rotate(-49.14)"/><ellipse class="cls-1" cx="112.96" cy="20.66" rx="20.98" ry="11.01" transform="translate(30.18 100.24) rotate(-54.24)"/><ellipse class="cls-3" cx="110.72" cy="20.01" rx="21.59" ry="11.65" transform="translate(29.77 98.16) rotate(-54.24)"/><ellipse class="cls-4" cx="18.52" cy="129.69" rx="21.59" ry="11.65" transform="translate(-91.68 58.85) rotate(-49.14)"/><ellipse class="cls-1" cx="118.88" cy="21.18" rx="7.12" ry="5.36" transform="translate(12.57 78.45) rotate(-38.41)"/><ellipse class="cls-5" cx="118.27" cy="21.61" rx="6.83" ry="5.14" transform="translate(12.17 78.16) rotate(-38.41)"/><ellipse class="cls-6" cx="116.56" cy="22.96" rx="2.96" ry="2.23" transform="translate(7.82 70.8) rotate(-34.89)"/><ellipse class="cls-1" cx="107.34" cy="12.08" rx="7.12" ry="5.36" transform="translate(37.38 94.38) rotate(-56.05)"/><ellipse class="cls-5" cx="106.89" cy="12.67" rx="6.83" ry="5.14" transform="translate(36.69 94.27) rotate(-56.05)"/><ellipse class="cls-6" cx="105.67" cy="14.48" rx="2.96" ry="2.23" transform="translate(29.9 89.54) rotate(-52.53)"/><circle class="cls-5" cx="117.53" cy="22.63" r="0.98"/><circle class="cls-5" cx="105.9" cy="13.75" r="0.98"/><path class="cls-7" d="M98.39,23.1c.5-.5,10.65,9.15,10.9,8.9s-9.4-10.4-8.9-10.9"/><ellipse class="cls-1" cx="113.95" cy="6.42" rx="0.31" ry="3.46"/><ellipse class="cls-1" cx="121.23" cy="12.99" rx="3.24" ry="0.16" transform="translate(1.79 37.48) rotate(-17.7)"/></svg>
